<?xml version="1.0" encoding="utf-8"?>
<!-- Generator: Adobe Illustrator 16.0.0, SVG Export Plug-In . SVG Version: 6.00 Build 0)  -->
<!DOCTYPE svg PUBLIC "-//W3C//DTD SVG 1.1//EN" "http://www.w3.org/Graphics/SVG/1.1/DTD/svg11.dtd">
<svg version="1.1" id="Layer_1" xmlns="http://www.w3.org/2000/svg" xmlns:xlink="http://www.w3.org/1999/xlink" x="0px" y="0px"
	 width="211.537px" height="195.958px" viewBox="0 0 211.537 195.958" enable-background="new 0 0 211.537 195.958"
	 xml:space="preserve">
<g>
	<polyline fill="none" stroke="#FFFFFF" stroke-linecap="round" stroke-linejoin="round" stroke-miterlimit="10" points="
		198.228,86.005 198.226,153.412 205.313,160.509 205.313,188.875 6.718,188.875 6.686,160.703 13.994,153.421 13.992,85.725 	"/>
	
		<rect x="-0.18" y="188.875" fill="none" stroke="#FFFFFF" stroke-linecap="round" stroke-linejoin="round" stroke-miterlimit="10" width="211.717" height="7.084"/>
	
		<rect x="84.853" y="103.778" fill="none" stroke="#FFFFFF" stroke-linecap="round" stroke-linejoin="round" stroke-miterlimit="10" width="42.514" height="8.799"/>
	<path fill="none" stroke="#FFFFFF" stroke-linecap="round" stroke-linejoin="round" stroke-miterlimit="10" d="M120.282,132.144
		c0-7.828-6.345-14.173-14.172-14.173s-14.172,6.345-14.172,14.173v28.365h28.344V132.144z"/>
	
		<line fill="none" stroke="#FFFFFF" stroke-linecap="round" stroke-linejoin="round" stroke-miterlimit="10" x1="106.11" y1="117.971" x2="106.11" y2="160.509"/>
	
		<rect x="91.938" y="160.509" fill="none" stroke="#FFFFFF" stroke-linecap="round" stroke-linejoin="round" stroke-miterlimit="10" width="28.344" height="3.592"/>
	
		<rect x="84.853" y="164.101" fill="none" stroke="#FFFFFF" stroke-linecap="round" stroke-linejoin="round" stroke-miterlimit="10" width="42.514" height="3.504"/>
	
		<rect x="81.308" y="167.605" fill="none" stroke="#FFFFFF" stroke-linecap="round" stroke-linejoin="round" stroke-miterlimit="10" width="49.603" height="3.592"/>
	
		<rect x="77.766" y="171.197" fill="none" stroke="#FFFFFF" stroke-linecap="round" stroke-linejoin="round" stroke-miterlimit="10" width="56.688" height="3.504"/>
	
		<rect x="74.225" y="174.701" fill="none" stroke="#FFFFFF" stroke-linecap="round" stroke-linejoin="round" stroke-miterlimit="10" width="63.644" height="3.502"/>
	
		<rect x="70.68" y="178.203" fill="none" stroke="#FFFFFF" stroke-linecap="round" stroke-linejoin="round" stroke-miterlimit="10" width="70.732" height="3.594"/>
	
		<rect x="67.138" y="181.796" fill="none" stroke="#FFFFFF" stroke-linecap="round" stroke-linejoin="round" stroke-miterlimit="10" width="77.817" height="3.502"/>
	
		<rect x="63.594" y="185.298" fill="none" stroke="#FFFFFF" stroke-linecap="round" stroke-linejoin="round" stroke-miterlimit="10" width="85.031" height="3.576"/>
	
		<circle fill="none" stroke="#FFFFFF" stroke-linecap="round" stroke-linejoin="round" stroke-miterlimit="10" cx="63.594" cy="96.681" r="7.085"/>
	
		<line fill="none" stroke="#FFFFFF" stroke-linecap="round" stroke-linejoin="round" stroke-miterlimit="10" x1="56.509" y1="96.681" x2="70.679" y2="96.681"/>
	
		<line fill="none" stroke="#FFFFFF" stroke-linecap="round" stroke-linejoin="round" stroke-miterlimit="10" x1="63.594" y1="103.766" x2="63.594" y2="89.596"/>
	
		<circle fill="none" stroke="#FFFFFF" stroke-linecap="round" stroke-linejoin="round" stroke-miterlimit="10" cx="148.625" cy="96.681" r="7.085"/>
	
		<line fill="none" stroke="#FFFFFF" stroke-linecap="round" stroke-linejoin="round" stroke-miterlimit="10" x1="141.541" y1="96.681" x2="155.71" y2="96.681"/>
	
		<line fill="none" stroke="#FFFFFF" stroke-linecap="round" stroke-linejoin="round" stroke-miterlimit="10" x1="148.625" y1="103.766" x2="148.625" y2="89.596"/>
	
		<rect x="91.938" y="86.183" fill="none" stroke="#FFFFFF" stroke-linecap="round" stroke-linejoin="round" stroke-miterlimit="10" width="28.344" height="17.583"/>
	
		<line fill="none" stroke="#FFFFFF" stroke-linecap="round" stroke-linejoin="round" stroke-miterlimit="10" x1="106.046" y1="86.183" x2="106.046" y2="112.577"/>
	<g>
		
			<rect x="21.079" y="89.594" fill="none" stroke="#FFFFFF" stroke-linecap="round" stroke-linejoin="round" stroke-miterlimit="10" width="28.344" height="4.024"/>
		
			<rect x="21.079" y="174.179" fill="none" stroke="#FFFFFF" stroke-linecap="round" stroke-linejoin="round" stroke-miterlimit="10" width="28.344" height="4.023"/>
		
			<rect x="24.202" y="93.619" fill="none" stroke="#FFFFFF" stroke-linecap="round" stroke-linejoin="round" stroke-miterlimit="10" width="20.5" height="80.561"/>
		<polygon fill="none" stroke="#FFFFFF" stroke-linecap="round" stroke-linejoin="round" stroke-miterlimit="10" points="
			59.954,185.298 52.537,178.203 18.037,178.203 10.62,185.298 10.62,188.875 59.954,188.875 		"/>
		<polygon fill="none" stroke="#FFFFFF" stroke-linecap="round" stroke-linejoin="round" stroke-miterlimit="10" points="
			10.62,82.499 18.037,89.594 52.537,89.594 59.954,82.499 59.954,78.923 10.62,78.923 		"/>
		
			<line fill="none" stroke="#FFFFFF" stroke-linecap="round" stroke-linejoin="round" stroke-miterlimit="10" x1="34.35" y1="93.619" x2="34.35" y2="174.191"/>
		
			<line fill="none" stroke="#FFFFFF" stroke-linecap="round" stroke-linejoin="round" stroke-miterlimit="10" x1="29.138" y1="174.191" x2="29.138" y2="93.619"/>
		
			<line fill="none" stroke="#FFFFFF" stroke-linecap="round" stroke-linejoin="round" stroke-miterlimit="10" x1="39.636" y1="93.619" x2="39.636" y2="174.191"/>
	</g>
	<g>
		
			<rect x="163.018" y="89.594" fill="none" stroke="#FFFFFF" stroke-linecap="round" stroke-linejoin="round" stroke-miterlimit="10" width="28.344" height="4.024"/>
		
			<rect x="163.018" y="174.179" fill="none" stroke="#FFFFFF" stroke-linecap="round" stroke-linejoin="round" stroke-miterlimit="10" width="28.344" height="4.023"/>
		
			<rect x="166.141" y="93.619" fill="none" stroke="#FFFFFF" stroke-linecap="round" stroke-linejoin="round" stroke-miterlimit="10" width="20.5" height="80.561"/>
		<polygon fill="none" stroke="#FFFFFF" stroke-linecap="round" stroke-linejoin="round" stroke-miterlimit="10" points="
			201.893,185.298 194.476,178.203 159.976,178.203 152.559,185.298 152.559,188.875 201.893,188.875 		"/>
		<polygon fill="none" stroke="#FFFFFF" stroke-linecap="round" stroke-linejoin="round" stroke-miterlimit="10" points="
			152.559,82.499 159.976,89.594 194.476,89.594 201.893,82.499 201.893,78.923 152.559,78.923 		"/>
		
			<line fill="none" stroke="#FFFFFF" stroke-linecap="round" stroke-linejoin="round" stroke-miterlimit="10" x1="176.29" y1="93.619" x2="176.29" y2="174.191"/>
		
			<line fill="none" stroke="#FFFFFF" stroke-linecap="round" stroke-linejoin="round" stroke-miterlimit="10" x1="171.078" y1="174.191" x2="171.078" y2="93.619"/>
		
			<line fill="none" stroke="#FFFFFF" stroke-linecap="round" stroke-linejoin="round" stroke-miterlimit="10" x1="181.576" y1="93.619" x2="181.576" y2="174.191"/>
	</g>
	
		<rect x="6.907" y="75.413" fill="none" stroke="#FFFFFF" stroke-linecap="round" stroke-linejoin="round" stroke-miterlimit="10" width="198.406" height="3.511"/>
	<path fill="none" stroke="#FFFFFF" stroke-linecap="round" stroke-linejoin="round" stroke-miterlimit="10" d="M63.298,128.251
		c0-4.659-2.872-8.641-6.938-10.292c-4.065,1.651-6.938,5.633-6.938,10.292v25.17l13.876-0.01V128.251z"/>
	
		<line fill="none" stroke="#FFFFFF" stroke-linecap="round" stroke-linejoin="round" stroke-miterlimit="10" x1="56.509" y1="153.412" x2="56.509" y2="118.209"/>
	
		<line fill="none" stroke="#FFFFFF" stroke-linecap="round" stroke-linejoin="round" stroke-miterlimit="10" x1="49.422" y1="146.326" x2="63.298" y2="146.326"/>
	
		<line fill="none" stroke="#FFFFFF" stroke-linecap="round" stroke-linejoin="round" stroke-miterlimit="10" x1="49.422" y1="132.144" x2="63.344" y2="132.144"/>
	<path fill="none" stroke="#FFFFFF" stroke-linecap="round" stroke-linejoin="round" stroke-miterlimit="10" d="M84.681,128.251
		c0-4.659-2.872-8.641-6.938-10.292c-4.065,1.651-6.938,5.633-6.938,10.292v25.17l13.876-0.01V128.251z"/>
	
		<line fill="none" stroke="#FFFFFF" stroke-linecap="round" stroke-linejoin="round" stroke-miterlimit="10" x1="77.892" y1="153.412" x2="77.892" y2="118.209"/>
	
		<line fill="none" stroke="#FFFFFF" stroke-linecap="round" stroke-linejoin="round" stroke-miterlimit="10" x1="70.805" y1="146.326" x2="84.681" y2="146.326"/>
	
		<line fill="none" stroke="#FFFFFF" stroke-linecap="round" stroke-linejoin="round" stroke-miterlimit="10" x1="70.805" y1="132.144" x2="84.727" y2="132.144"/>
	<path fill="none" stroke="#FFFFFF" stroke-linecap="round" stroke-linejoin="round" stroke-miterlimit="10" d="M141.179,128.251
		c0-4.659-2.872-8.641-6.938-10.292c-4.065,1.651-6.938,5.633-6.938,10.292v25.17l13.876-0.01V128.251z"/>
	
		<line fill="none" stroke="#FFFFFF" stroke-linecap="round" stroke-linejoin="round" stroke-miterlimit="10" x1="134.39" y1="153.412" x2="134.39" y2="118.209"/>
	
		<line fill="none" stroke="#FFFFFF" stroke-linecap="round" stroke-linejoin="round" stroke-miterlimit="10" x1="127.303" y1="146.326" x2="141.179" y2="146.326"/>
	
		<line fill="none" stroke="#FFFFFF" stroke-linecap="round" stroke-linejoin="round" stroke-miterlimit="10" x1="127.303" y1="132.144" x2="141.225" y2="132.144"/>
	<path fill="none" stroke="#FFFFFF" stroke-linecap="round" stroke-linejoin="round" stroke-miterlimit="10" d="M162.562,128.251
		c0-4.659-2.872-8.641-6.938-10.292c-4.065,1.651-6.938,5.633-6.938,10.292v25.17l13.876-0.01V128.251z"/>
	
		<line fill="none" stroke="#FFFFFF" stroke-linecap="round" stroke-linejoin="round" stroke-miterlimit="10" x1="155.773" y1="153.412" x2="155.773" y2="118.209"/>
	
		<line fill="none" stroke="#FFFFFF" stroke-linecap="round" stroke-linejoin="round" stroke-miterlimit="10" x1="148.686" y1="146.326" x2="162.562" y2="146.326"/>
	
		<line fill="none" stroke="#FFFFFF" stroke-linecap="round" stroke-linejoin="round" stroke-miterlimit="10" x1="148.686" y1="132.144" x2="162.608" y2="132.144"/>
	<polygon fill="none" stroke="#FFFFFF" stroke-linecap="round" stroke-linejoin="round" stroke-miterlimit="10" points="
		32.458,67.769 28.164,68.326 28.164,75.413 32.474,75.413 	"/>
	
		<line fill="none" stroke="#FFFFFF" stroke-linecap="round" stroke-linejoin="round" stroke-miterlimit="10" x1="91.938" y1="103.766" x2="91.938" y2="112.577"/>
	
		<line fill="none" stroke="#FFFFFF" stroke-linecap="round" stroke-linejoin="round" stroke-miterlimit="10" x1="99.023" y1="103.766" x2="99.023" y2="112.577"/>
	
		<line fill="none" stroke="#FFFFFF" stroke-linecap="round" stroke-linejoin="round" stroke-miterlimit="10" x1="113.195" y1="103.766" x2="113.195" y2="112.577"/>
	
		<line fill="none" stroke="#FFFFFF" stroke-linecap="round" stroke-linejoin="round" stroke-miterlimit="10" x1="120.282" y1="103.766" x2="120.282" y2="112.577"/>
	
		<rect x="99.739" y="141.908" fill="none" stroke="#FFFFFF" stroke-linecap="round" stroke-linejoin="round" stroke-miterlimit="10" width="3.605" height="8.836"/>
	
		<rect x="108.806" y="141.908" fill="none" stroke="#FFFFFF" stroke-linecap="round" stroke-linejoin="round" stroke-miterlimit="10" width="3.605" height="8.836"/>
	
		<rect x="70.681" y="54.133" fill="none" stroke="#FFFFFF" stroke-linecap="round" stroke-linejoin="round" stroke-miterlimit="10" width="7.085" height="21.279"/>
	
		<rect x="77.766" y="47.047" fill="none" stroke="#FFFFFF" stroke-linecap="round" stroke-linejoin="round" stroke-miterlimit="10" width="7.087" height="28.365"/>
	
		<rect x="127.369" y="47.047" fill="none" stroke="#FFFFFF" stroke-linecap="round" stroke-linejoin="round" stroke-miterlimit="10" width="7.085" height="28.365"/>
	
		<rect x="134.454" y="54.133" fill="none" stroke="#FFFFFF" stroke-linecap="round" stroke-linejoin="round" stroke-miterlimit="10" width="7.085" height="21.279"/>
	
		<rect x="84.853" y="39.951" fill="none" stroke="#FFFFFF" stroke-linecap="round" stroke-linejoin="round" stroke-miterlimit="10" width="42.516" height="35.462"/>
	<g>
		
			<line fill="none" stroke="#FFFFFF" stroke-linecap="round" stroke-linejoin="round" stroke-miterlimit="10" x1="111.007" y1="19.079" x2="106.401" y2="0.301"/>
		
			<line fill="none" stroke="#FFFFFF" stroke-linecap="round" stroke-linejoin="round" stroke-miterlimit="10" x1="106.114" y1="0.306" x2="101.331" y2="19.251"/>
	</g>
	<path fill="none" stroke="#FFFFFF" stroke-linecap="round" stroke-linejoin="round" stroke-miterlimit="10" d="M120.282,32.47
		c0-7.826-6.345-14.172-14.172-14.172S91.938,24.644,91.938,32.47"/>
	
		<circle fill="none" stroke="#FFFFFF" stroke-linecap="round" stroke-linejoin="round" stroke-miterlimit="10" cx="105.716" cy="56.729" r="13.653"/>
	
		<rect x="88.204" y="32.864" fill="none" stroke="#FFFFFF" stroke-linecap="round" stroke-linejoin="round" stroke-miterlimit="10" width="36.167" height="7.087"/>
	<polyline fill="none" stroke="#FFFFFF" stroke-linecap="round" stroke-linejoin="round" stroke-miterlimit="10" points="
		70.509,62.922 28.164,68.316 28.164,75.413 84.853,75.413 84.853,61.094 	"/>
	<polyline fill="none" stroke="#FFFFFF" stroke-linecap="round" stroke-linejoin="round" stroke-miterlimit="10" points="
		70.681,58.533 24.202,64.451 24.202,68.816 70.508,62.92 	"/>
	<polygon fill="none" stroke="#FFFFFF" stroke-linecap="round" stroke-linejoin="round" stroke-miterlimit="10" points="
		180.046,67.769 184.341,68.326 184.341,75.413 180.031,75.413 	"/>
	<polyline fill="none" stroke="#FFFFFF" stroke-linecap="round" stroke-linejoin="round" stroke-miterlimit="10" points="
		141.996,62.922 184.341,68.316 184.341,75.413 127.652,75.413 127.652,61.094 	"/>
	<polyline fill="none" stroke="#FFFFFF" stroke-linecap="round" stroke-linejoin="round" stroke-miterlimit="10" points="
		141.824,58.533 188.302,64.451 188.302,68.816 141.996,62.92 	"/>
	<polyline fill="none" stroke="#FFFFFF" stroke-linecap="round" stroke-linejoin="round" stroke-miterlimit="10" points="
		24.202,160.509 6.686,160.509 13.994,153.421 24.202,153.421 	"/>
	<polyline fill="none" stroke="#FFFFFF" stroke-linecap="round" stroke-linejoin="round" stroke-miterlimit="10" points="
		186.641,160.509 205.313,160.509 198.005,153.421 186.641,153.421 	"/>
	<polyline fill="none" stroke="#FFFFFF" stroke-linecap="round" stroke-linejoin="round" stroke-miterlimit="10" points="
		24.202,112.577 13.992,112.577 13.992,106.868 24.202,106.868 	"/>
	
		<line fill="none" stroke="#FFFFFF" stroke-linecap="round" stroke-linejoin="round" stroke-miterlimit="10" x1="166.141" y1="112.577" x2="44.702" y2="112.577"/>
	<polyline fill="none" stroke="#FFFFFF" stroke-linecap="round" stroke-linejoin="round" stroke-miterlimit="10" points="
		187.004,106.868 198.228,106.868 198.228,112.577 186.641,112.577 	"/>
	
		<line fill="none" stroke="#FFFFFF" stroke-linecap="round" stroke-linejoin="round" stroke-miterlimit="10" x1="127.63" y1="106.868" x2="166.141" y2="106.868"/>
	
		<line fill="none" stroke="#FFFFFF" stroke-linecap="round" stroke-linejoin="round" stroke-miterlimit="10" x1="44.702" y1="106.868" x2="84.681" y2="106.868"/>
</g>
</svg>
