<?xml version="1.0" encoding="utf-8"?>
<!-- Generator: Adobe Illustrator 16.0.0, SVG Export Plug-In . SVG Version: 6.00 Build 0)  -->
<!DOCTYPE svg PUBLIC "-//W3C//DTD SVG 1.1//EN" "http://www.w3.org/Graphics/SVG/1.1/DTD/svg11.dtd">
<svg version="1.1" id="Layer_1" xmlns="http://www.w3.org/2000/svg" xmlns:xlink="http://www.w3.org/1999/xlink" x="0px" y="0px"
	 width="40px" height="40px" viewBox="0 0 40 40" enable-background="new 0 0 40 40" xml:space="preserve">
<path fill="#FFFFFF" d="M35.41,8.909c0-4.647-3.782-8.427-8.431-8.427c-2.553,0-4.843,1.141-6.39,2.939
	c-1.547-1.799-3.84-2.939-6.393-2.939c-4.647,0-8.427,3.78-8.427,8.427c0,2.389,1.016,4.601,2.686,6.16
	c-1.67,1.557-2.686,3.77-2.686,6.159c0,4.646,3.78,8.428,8.427,8.428c1.472,0,2.851-0.389,4.057-1.055
	c-0.459,2.668-1.582,5.668-4.176,7.727l2.533,3.191c3.927-3.115,5.355-7.568,5.818-11.211c1.314,0.848,2.873,1.348,4.551,1.348
	c4.648,0,8.431-3.781,8.431-8.428c0-2.389-1.018-4.603-2.686-6.159C34.393,13.51,35.41,11.296,35.41,8.909z M28.13,17.035
	c1.887,0.516,3.205,2.24,3.205,4.193c0,2.4-1.953,4.352-4.355,4.352c-2.4,0-4.352-1.951-4.352-4.352
	c0-1.126-0.912-2.038-2.038-2.038s-2.038,0.912-2.038,2.038c0,2.4-1.953,4.352-4.355,4.352c-2.401,0-4.352-1.951-4.352-4.352
	c0-1.955,1.316-3.677,3.203-4.191c0.887-0.242,1.5-1.046,1.502-1.965c0-0.918-0.613-1.724-1.499-1.966
	c-1.889-0.517-3.207-2.243-3.207-4.196c0-2.4,1.951-4.352,4.352-4.352c2.402,0,4.355,1.952,4.355,4.352
	c0,1.126,0.912,2.038,2.038,2.038s2.038-0.912,2.038-2.038c0-2.4,1.951-4.352,4.352-4.352c2.402,0,4.355,1.952,4.355,4.352
	c0,1.953-1.318,3.679-3.206,4.196c-0.886,0.242-1.499,1.048-1.499,1.966C26.632,15.988,27.245,16.794,28.13,17.035z"/>
</svg>
