<?xml version="1.0" encoding="utf-8"?>
<!-- Generator: Adobe Illustrator 16.0.0, SVG Export Plug-In . SVG Version: 6.00 Build 0)  -->
<!DOCTYPE svg PUBLIC "-//W3C//DTD SVG 1.1//EN" "http://www.w3.org/Graphics/SVG/1.1/DTD/svg11.dtd">
<svg version="1.1" id="Layer_1" xmlns="http://www.w3.org/2000/svg" xmlns:xlink="http://www.w3.org/1999/xlink" x="0px" y="0px"
	 width="40px" height="40px" viewBox="0 0 40 40" enable-background="new 0 0 40 40" xml:space="preserve">
<g>
	<path fill="#FFFFFF" d="M23.674,26.416h-7.949V18.08l3.234-1.151c0.712-0.328,1.536-0.769,2.467-1.315
		c1.922-1.096,2.632-2.522,2.632-4.496c0-2.36-1.536-4.167-4.003-4.167c-2.576,0-4.059,1.754-4.059,4.661v1.152H8.375V11.83
		c0-3.345,1.099-6.086,3.291-8.171c2.248-2.139,5.045-3.179,8.389-3.179c3.4,0,6.195,1.096,8.338,3.234
		c2.134,2.139,3.232,4.55,3.232,7.237c0,3.125-0.714,5.483-2.411,7.237c-1.7,1.701-2.964,2.578-5.54,3.894V26.416z M23.893,39.52
		h-8.39v-8.17h8.39V39.52z"/>
</g>
</svg>
