<?xml version="1.0" encoding="utf-8"?>
<!-- Generator: Adobe Illustrator 16.0.0, SVG Export Plug-In . SVG Version: 6.00 Build 0)  -->
<!DOCTYPE svg PUBLIC "-//W3C//DTD SVG 1.1//EN" "http://www.w3.org/Graphics/SVG/1.1/DTD/svg11.dtd">
<svg version="1.1" id="Layer_1" xmlns="http://www.w3.org/2000/svg" xmlns:xlink="http://www.w3.org/1999/xlink" x="0px" y="0px"
	 width="40px" height="40px" viewBox="0 0 40 40" enable-background="new 0 0 40 40" xml:space="preserve">
<path fill="#EDA989" d="M36.92,16.813c0-9.103-7.407-16.508-16.51-16.508c-9.106,0-16.514,7.405-16.514,16.508
	c0,6.541,3.833,12.191,9.363,14.86l0.309,1.309l1.028,3.563L15.36,39h3.333h3.769h3.334l0.764-2.455l1.028-3.957l0.353-1.294
	C33.265,28.55,36.92,23.203,36.92,16.813z M22.969,27.078L22.805,27H18.35l-0.164,0.078C12.871,16.311,19.795,5.8,19.898,5.641
	c0.109-0.177,0.397-0.385,0.592-0.508c0.103,0.083,0.295,0.123,0.563,0.541C21.128,5.779,28.306,16.271,22.969,27.078z
	 M8.107,16.813c0-4.908,2.884-9.133,7.044-11.106c-1.912,3.791-5.079,12.129-1.788,21.179C10.188,24.663,8.107,20.984,8.107,16.813z
	 M18.693,36l-0.767-3.064c0.812,0.123,1.637,0.297,2.484,0.297c0.967,0,1.91-0.238,2.831-0.396L22.462,36H18.693z M27.889,26.564
	c3.058-8.874-0.105-17.015-2.057-20.779c4.069,2.005,6.877,6.183,6.877,11.028C32.709,20.791,30.814,24.316,27.889,26.564z"/>
</svg>
