<?xml version="1.0" encoding="utf-8"?>
<!-- Generator: Adobe Illustrator 16.0.0, SVG Export Plug-In . SVG Version: 6.00 Build 0)  -->
<!DOCTYPE svg PUBLIC "-//W3C//DTD SVG 1.1//EN" "http://www.w3.org/Graphics/SVG/1.1/DTD/svg11.dtd">
<svg version="1.1" id="Layer_1" xmlns="http://www.w3.org/2000/svg" xmlns:xlink="http://www.w3.org/1999/xlink" x="0px" y="0px"
	 width="40px" height="40px" viewBox="0 0 40 40" enable-background="new 0 0 40 40" xml:space="preserve">
<path fill="#EDA989" d="M38.873,14.743c-0.287-0.983-0.722-1.812-1.411-2.463c-0.838-0.789-1.818-1.234-2.965-1.322
	c-0.695-0.054-1.377,0.03-2.088,0.257c-0.388,0.124-0.752,0.296-1.113,0.493c0.24-0.798,0.392-1.622,0.422-2.471
	c0.024-0.772-0.05-1.531-0.216-2.254c-0.228-0.959-0.607-1.812-1.134-2.538c-0.844-1.156-1.979-2-3.298-2.255L26.975,2h-1.6
	l-0.127,0.185c-0.621,0.109-1.22,0.38-1.78,0.691c-0.786,0.433-1.497,1.067-2.12,1.839c-0.642,0.795-1.144,1.731-1.485,2.742
	c-0.033,0.091-0.046,0.191-0.073,0.281c-0.09-0.308-0.187-0.61-0.308-0.907c-0.469-1.153-1.131-2.131-1.967-2.906
	c-0.626-0.586-1.328-1.021-2.078-1.293c-0.977-0.357-1.997-0.412-2.971-0.164c-0.953,0.239-1.8,0.75-2.523,1.52
	C9.388,4.581,8.95,5.298,8.638,6.115C8.275,7.047,8.096,8.051,8.096,9.119C8.087,9.292,8.099,9.558,8.121,9.788
	c0.042,0.584,0.136,1.162,0.284,1.722c0.006,0.024,0.018,0.048,0.027,0.076c-0.321-0.167-0.647-0.324-0.992-0.43
	c-0.835-0.26-1.652-0.318-2.511-0.148c-1.059,0.212-1.963,0.735-2.689,1.555c-0.569,0.639-0.98,1.419-1.222,2.308
	c-0.091,0.336-0.155,0.656-0.19,0.974l-0.063,1.235l0.105,0.823c0.127,0.854,0.396,1.688,0.796,2.478
	c0.417,0.831,0.953,1.561,1.588,2.163c0.741,0.71,1.579,1.219,2.493,1.518c0.542,0.173,1.086,0.263,1.619,0.263
	c0.26,0,0.521-0.02,0.784-0.062c0.127-0.021,0.245-0.064,0.366-0.092c-0.272,0.295-0.533,0.594-0.772,0.909
	c-0.723,0.946-1.271,1.962-1.625,3.013c-0.248,0.737-0.393,1.484-0.436,2.212c-0.045,0.687,0,1.363,0.136,2.015
	c0.375,1.776,1.316,3.216,2.799,4.286c0.886,0.646,1.906,1.024,3.037,1.13c0.139,0.012,0.278,0.021,0.42,0.029
	c0.157,0.016,0.406,0.024,0.635,0.01c0.403,0,0.799-0.049,1.198-0.115c0.856-0.139,1.658-0.361,2.559-0.604
	c0.618-0.17,1.235-0.336,1.861-0.455c0.278-0.055,0.556-0.1,0.832-0.109l0.375-0.005c0.248,0,0.5,0.009,0.753,0.038
	c0.542,0.061,1.111,0.17,1.743,0.33c0.323,0.086,0.645,0.176,0.968,0.264c0.49,0.136,0.978,0.272,1.479,0.39
	c0.454,0.104,0.902,0.201,1.383,0.246l1.749,0.036l0.224-0.075c0.208-0.031,0.414-0.072,0.627-0.125
	c0.802-0.195,1.572-0.556,2.292-1.06c0.979-0.681,1.731-1.538,2.239-2.553c0.545-1.082,0.79-2.277,0.724-3.549
	c-0.039-0.743-0.188-1.506-0.448-2.269c-0.29-0.859-0.721-1.704-1.28-2.518c-0.398-0.577-0.873-1.115-1.383-1.636
	c0.461,0.169,0.944,0.284,1.453,0.313c0.1,0.006,0.196,0.006,0.297,0.006c0.635,0,1.273-0.111,1.899-0.337
	c1.025-0.371,1.951-0.991,2.757-1.847c0.568-0.602,0.925-1.295,1.298-2.063c0.488-1.01,0.691-2.051,0.691-3.18V16.74
	c0-0.088,0-0.176,0-0.266v-0.155v-0.051C39,15.763,39.021,15.245,38.873,14.743z M23.229,8.629c0.217-0.635,0.508-1.177,0.892-1.652
	c0.337-0.412,0.688-0.717,1.084-0.935c0.244-0.14,0.493-0.221,0.751-0.258l0.266-0.003c0.042,0.003,0.081,0.003,0.124,0.003
	c0.466,0.073,0.813,0.303,1.144,0.757c0.248,0.345,0.427,0.753,0.544,1.252c0.1,0.427,0.143,0.865,0.127,1.331
	c-0.03,0.868-0.229,1.673-0.607,2.463c-0.257,0.536-0.572,0.983-0.956,1.361c-0.348,0.335-0.695,0.569-1.062,0.705
	c-0.217,0.079-0.417,0.118-0.607,0.118l-0.085-0.003c-0.394-0.021-0.708-0.167-1.01-0.46c-0.285-0.278-0.503-0.635-0.669-1.098
	c-0.115-0.314-0.191-0.65-0.233-1.028c-0.03-0.248-0.043-0.497-0.033-0.757C22.914,9.806,23.023,9.222,23.229,8.629z M27.455,20.368
	c-0.042-0.067-0.094-0.14-0.135-0.203l-0.288-0.45c-0.275-0.436-0.554-0.869-0.851-1.298c-0.299-0.427-0.587-0.784-0.877-1.117
	c0.484-0.037,0.975-0.125,1.464-0.306c0.261-0.097,0.506-0.245,0.754-0.378c-0.167,0.605-0.275,1.226-0.296,1.861
	C27.208,19.133,27.296,19.759,27.455,20.368z M19.711,13.083c0.036,0.112,0.061,0.232,0.1,0.342c0.176,0.48,0.39,0.926,0.645,1.331
	c-0.312-0.033-0.629-0.055-0.95-0.055h-0.211c-0.136,0.003-0.269,0.037-0.405,0.049C19.233,14.238,19.505,13.684,19.711,13.083z
	 M11.963,7.395c0.151-0.399,0.345-0.72,0.581-0.974c0.251-0.267,0.502-0.423,0.792-0.496c0.118-0.03,0.229-0.045,0.345-0.045
	c0.173,0,0.345,0.033,0.539,0.103c0.302,0.109,0.587,0.291,0.866,0.55c0.462,0.43,0.819,0.965,1.095,1.646
	c0.167,0.409,0.284,0.844,0.351,1.307c0.039,0.251,0.061,0.502,0.063,0.774c0.009,0.324-0.012,0.638-0.061,0.932
	c-0.115,0.672-0.327,1.213-0.653,1.655c-0.188,0.257-0.396,0.444-0.636,0.575c-0.214,0.115-0.423,0.169-0.656,0.169l-0.121-0.003
	c-0.261-0.021-0.521-0.109-0.79-0.269c-0.387-0.23-0.726-0.551-1.032-0.98c-0.363-0.502-0.623-1.071-0.795-1.733
	c-0.091-0.348-0.151-0.708-0.182-1.11c-0.006-0.091-0.015-0.178-0.012-0.299C11.657,8.499,11.754,7.93,11.963,7.395z M12.398,17.406
	c-0.042-0.288-0.106-0.575-0.178-0.859c0.638,0.32,1.295,0.542,1.972,0.593c0.066,0.005,0.133,0.005,0.197,0.005
	c-0.281,0.309-0.568,0.636-0.874,1.032c-0.396,0.515-0.771,1.047-1.147,1.579L12.35,19.78c0.082-0.454,0.133-0.917,0.127-1.397
	C12.471,18.059,12.444,17.732,12.398,17.406z M8.811,19.384c-0.1,0.387-0.245,0.684-0.457,0.923
	c-0.221,0.251-0.459,0.388-0.774,0.435c-0.242,0.042-0.475,0.015-0.738-0.069c-0.399-0.133-0.769-0.363-1.128-0.708
	c-0.348-0.33-0.63-0.717-0.866-1.189c-0.23-0.454-0.384-0.929-0.466-1.473l-0.042-0.314l0.03-0.502l-0.015-0.024l0.003-0.097
	c0.009-0.167,0.039-0.342,0.096-0.55c0.1-0.369,0.249-0.66,0.451-0.89c0.206-0.233,0.438-0.366,0.717-0.423
	c0.251-0.048,0.493-0.027,0.765,0.057c0.357,0.109,0.684,0.297,1.014,0.587c0.509,0.435,0.893,0.989,1.177,1.69
	c0.145,0.354,0.242,0.708,0.296,1.081c0.024,0.176,0.037,0.354,0.04,0.529C8.919,18.782,8.886,19.091,8.811,19.384z M29.81,32.374
	c-0.245,0.487-0.602,0.887-1.096,1.232c-0.368,0.26-0.734,0.429-1.104,0.522c-0.143,0.033-0.287,0.061-0.375,0.072l-0.744,0.014
	c-0.037,0-0.076,0.002-0.112,0.002c-0.324-0.012-0.689-0.09-1.098-0.184c-0.442-0.104-0.881-0.224-1.322-0.349
	c-0.349-0.096-0.699-0.193-1.051-0.285c-0.785-0.198-1.509-0.335-2.206-0.417c-0.39-0.045-0.78-0.062-1.167-0.062l-0.493,0.008
	c-0.46,0.016-0.914,0.082-1.374,0.168c-0.72,0.135-1.428,0.325-2.266,0.554c-0.687,0.188-1.398,0.384-2.073,0.491
	c-0.202,0.033-0.408,0.068-0.656,0.068c-0.094,0.012-0.124,0.002-0.193,0.008l-0.5-0.033c-0.49-0.045-0.904-0.197-1.277-0.466
	c-0.765-0.55-1.21-1.23-1.4-2.132c-0.07-0.337-0.091-0.675-0.066-1.059c0.024-0.434,0.108-0.856,0.26-1.299
	c0.23-0.692,0.584-1.344,1.077-1.991c0.351-0.461,0.765-0.896,1.234-1.301c0.554-0.479,1.083-1.017,1.619-1.652
	c0.605-0.724,1.144-1.466,1.631-2.162l0.227-0.318c0.342-0.487,0.684-0.977,1.05-1.448c0.348-0.451,0.65-0.799,0.947-1.086
	c0.411-0.396,0.784-0.656,1.176-0.814c0.293-0.121,0.594-0.184,1.047-0.193c0.421,0,0.814,0.048,1.208,0.146
	c0.59,0.142,1.098,0.423,1.558,0.862c0.32,0.303,0.632,0.681,0.983,1.184c0.269,0.386,0.521,0.78,0.771,1.175l0.302,0.467
	c0.388,0.603,0.859,1.311,1.419,2.007c0.545,0.677,1.144,1.307,1.782,1.862c0.602,0.526,1.104,1.086,1.525,1.696
	c0.377,0.548,0.653,1.086,0.841,1.645c0.153,0.454,0.241,0.883,0.263,1.307C30.19,31.269,30.078,31.842,29.81,32.374z
	 M35.676,16.816c-0.027,0.569-0.176,1.128-0.457,1.709c-0.211,0.439-0.48,0.835-0.801,1.174c-0.425,0.447-0.872,0.753-1.374,0.935
	c-0.242,0.087-0.467,0.129-0.689,0.129l-0.098-0.003c-0.348-0.021-0.617-0.13-0.859-0.357c-0.211-0.199-0.362-0.45-0.475-0.789
	c-0.103-0.318-0.148-0.654-0.137-1.029c0.027-0.856,0.288-1.649,0.803-2.426c0.16-0.242,0.338-0.463,0.544-0.671
	c0.436-0.433,0.89-0.478,1.377-0.636C33.713,14.788,33.896,15,34.182,15c0.021,0,0.042,0,0.066,0c0.335,0,0.593-0.105,0.832,0.121
	c0.224,0.212,0.381,0.362,0.493,0.746c0.061,0.212,0.097,0.359,0.103,0.562C35.67,16.589,35.67,16.692,35.676,16.816z"/>
</svg>
