<?xml version="1.0" encoding="utf-8"?>
<!-- Generator: Adobe Illustrator 16.0.0, SVG Export Plug-In . SVG Version: 6.00 Build 0)  -->
<!DOCTYPE svg PUBLIC "-//W3C//DTD SVG 1.1//EN" "http://www.w3.org/Graphics/SVG/1.1/DTD/svg11.dtd">
<svg version="1.1" id="Layer_1" xmlns="http://www.w3.org/2000/svg" xmlns:xlink="http://www.w3.org/1999/xlink" x="0px" y="0px"
	 width="40px" height="40px" viewBox="0 0 40 40" enable-background="new 0 0 40 40" xml:space="preserve">
<g>
	<path fill="#EDA989" d="M32.545,32.521H7.453L0.195,14.309l2.371-1.077c0.963,1.875,4.233,6.745,7.752,6.745
		c2.903,0,5.845-3.336,8.504-9.648l1.201-2.85l1.2,2.85c2.659,6.312,5.595,9.648,8.49,9.648c3.506,0,6.761-4.867,7.718-6.742
		l2.373,1.074L32.545,32.521z M21.239,29.915h9.539l3.585-8.994c-1.357,0.974-2.925,1.662-4.649,1.662
		c-3.573,0-6.827-2.898-9.69-8.623c-2.866,5.724-6.124,8.623-9.705,8.623l0,0c-1.74,0-3.322-0.697-4.689-1.682l3.59,9.014H21.239z"
		/>
</g>
</svg>
