<?xml version="1.0" encoding="utf-8"?>
<!-- Generator: Adobe Illustrator 16.0.0, SVG Export Plug-In . SVG Version: 6.00 Build 0)  -->
<!DOCTYPE svg PUBLIC "-//W3C//DTD SVG 1.1//EN" "http://www.w3.org/Graphics/SVG/1.1/DTD/svg11.dtd">
<svg version="1.1" id="Layer_1" xmlns="http://www.w3.org/2000/svg" xmlns:xlink="http://www.w3.org/1999/xlink" x="0px" y="0px"
	 width="40px" height="40px" viewBox="0 0 40 40" enable-background="new 0 0 40 40" xml:space="preserve">
<path fill="#FFFFFF" d="M33.624,10.284L33.22,9.552c-4.256-7.642-11.064-6.216-13.24-5.518C17.805,3.336,10.995,1.91,6.742,9.552
	l-0.406,0.732c-2.87,1.076-6.17,3.993-6.336,10.384c-0.014,0.576,0.258,1.121,0.732,1.447l10.087,7.162L8.442,37h11.482h0.042
	h11.483l-2.363-7.686l10.142-7.138c0.474-0.326,0.746-0.902,0.731-1.479C39.793,14.307,36.493,11.36,33.624,10.284z M13.762,31.88
	L16.801,34h-3.702L13.762,31.88z M26.792,34h-3.635l2.984-2.082L26.792,34z M19.981,31.373L3.47,19.856
	c0.401-4.538,2.84-5.987,4.33-6.452l5.424,11.166l3.079-1.495L10.54,11.21c-0.045-0.291-0.286-0.557-0.457-0.778
	C12.77,6.358,16,6.621,18,7.069V23h0.281h3.397H22V7.072c1-0.435,5.201-0.707,7.891,3.354c-0.174,0.226-0.359,0.497-0.403,0.793
	l-5.795,11.856l3.062,1.495l5.416-11.169c1.478,0.461,3.923,1.906,4.323,6.456L19.981,31.373z"/>
</svg>
