<?xml version="1.0" encoding="utf-8"?>
<!-- Generator: Adobe Illustrator 16.0.0, SVG Export Plug-In . SVG Version: 6.00 Build 0)  -->
<!DOCTYPE svg PUBLIC "-//W3C//DTD SVG 1.1//EN" "http://www.w3.org/Graphics/SVG/1.1/DTD/svg11.dtd">
<svg version="1.1" id="Layer_1" xmlns="http://www.w3.org/2000/svg" xmlns:xlink="http://www.w3.org/1999/xlink" x="0px" y="0px"
	 width="1916px" height="6758px" viewBox="0 0 1916 6758" enable-background="new 0 0 1916 6758" xml:space="preserve">
<rect fill="#90D8DD" width="1916" height="1670"/>
<rect y="2345" fill="#9C9CD2" width="1916" height="4413"/>
<path fill="#FFB492" d="M1916,2407V1295.153c-241.545-12.187-656.213-105.926-917.043-568.133
	C709.435,213.968,228.761,176.15,0,189.654V2407h0.003L0,2685.49c13.556-7.941,29.335-12.5,46.19-12.5
	c30.742,0,57.969,15.168,74.622,38.389c9.902,11.576,16.188,25.244,16.188,39.688v0.278c0,4.363,1,8.803,1,13.34v873.69l0.518,457.7
	c0,92.62,74.789,167.641,167.388,167.641s167.113-75.021,167.113-167.641l2.898-1467.485c0-61.901,56.836-112.131,118.736-112.131
	c67.072,0,111.347,50.285,111.347,115.035v408.507c0,129.933,105.013,235.287,235,235.287c129.938,0,235-105.354,235-235.287
	v-144.433c0-70.398,65.66-125.276,137.164-125.276c69.441,0,128.964,48.86,135.939,120.768l-0.678,642.112
	c0,129.994,103.852,235.323,233.784,235.323S1916,3663.167,1916,3533.173V2407z"/>
</svg>
