<?xml version="1.0" encoding="utf-8"?>
<!-- Generator: Adobe Illustrator 16.0.0, SVG Export Plug-In . SVG Version: 6.00 Build 0)  -->
<!DOCTYPE svg PUBLIC "-//W3C//DTD SVG 1.1//EN" "http://www.w3.org/Graphics/SVG/1.1/DTD/svg11.dtd">
<svg version="1.1" id="Layer_1" xmlns="http://www.w3.org/2000/svg" xmlns:xlink="http://www.w3.org/1999/xlink" x="0px" y="0px"
	 width="939.428px" height="1384.477px" viewBox="0 0 939.428 1384.477" enable-background="new 0 0 939.428 1384.477"
	 xml:space="preserve">
<path fill="#FFFFFF" d="M937.961,237.477l-57.908-39.521l59.375-37.479h-173.68v-29h-157v-28h-194V77.928
	c19-3.131,33.69-19.209,33.69-38.646C448.438,17.619,430.468,0,408.322,0c-22.146,0-40.069,17.619-40.069,39.281
	c0,19.437,14.495,35.494,33.495,38.636v25.555v77.239v57.877C179.748,242.14,0,419.063,0,636.366
	c0,80.771,24.953,155.907,67.54,218.743l-0.219,0.134l203.282,323.916c-4.25,4.333-6.855,10.165-6.855,16.611v24.169
	c0,10.975,8,19.896,18,22.763v111.45c0,17.021,13.972,30.324,31.322,30.324h193.588c17.309,0,31.09-13.303,31.09-30.324v-112.036
	c9-3.654,16-12.218,16-22.177v-24.169c0-5.521-2.487-10.368-5.71-14.446l209.325-336.978l-0.965-0.585
	c38.091-60.504,60.461-131.368,60.461-207.396c0-83.615-26.729-161.183-72.08-225.301l0.146-0.34l-0.811-0.297
	C671.537,308.22,551.748,240.61,414.748,238.465v-57.988h144v29h157v28H937.961z M207.483,703.688v0.021h0.032l-0.144,0.03
	L207.483,703.688z M315.582,1023.581c27.782,6.325,56.166,10.072,86.166,10.546v137.35h-39.446L315.582,1023.581z M414.748,1034.127
	c33-0.532,65.298-5.087,96.063-12.887l-14.474,52.799l-27.247,97.438h-54.343V1034.127z M288.337,1171.477
	c-2.135,0-4.045,0.794-6.027,1.285l-156.82-249.998c48.399,45.432,108.236,79.1,174.828,96.955l47.959,151.758H288.337z
	 M528.445,1171.477h-45.02l25.363-92.115l17.377-61.986c64.223-18.881,121.748-52.731,168.391-97.464l-157.508,253.333
	C534.338,1172.276,531.484,1171.477,528.445,1171.477z"/>
<path d="M938.002,237.477l-57.908-39.521l59.376-37.479H765.748v-29h-157v-28h-194V77.928c19-3.131,33.711-19.209,33.711-38.646
	C448.459,17.619,430.5,0,408.353,0c-22.146,0-40.084,17.619-40.084,39.281c0,19.437,14.479,35.494,33.479,38.636v25.555v77.239
	v57.877c-222,3.552-401.728,180.476-401.728,397.778c0,80.771,24.963,155.907,67.55,218.743l-0.214,0.134l203.264,323.916
	c-4.25,4.333-6.873,10.165-6.873,16.611v24.169c0,10.975,8,19.896,18,22.763v111.45c0,17.021,14.014,30.324,31.364,30.324h193.587
	c17.31,0,31.049-13.303,31.049-30.324v-112.036c9-3.654,16-12.218,16-22.177v-24.169c0-5.521-2.467-10.368-5.689-14.446
	l209.336-336.978l-0.96-0.585c38.091-60.504,60.463-131.368,60.463-207.396c0-83.615-26.728-161.183-72.078-225.301l0.146-0.34
	l-0.831-0.297C671.558,308.22,551.748,240.61,414.748,238.465v-57.988h144v29h157v28H938.002z M765.748,208.477h0.217l-0.217-4.9
	v-30.1h127.664l-37.588,23.532l39.034,26.468h-165.11v-14h36V208.477z M111.754,513.346l63.831,137.384
	c-18.594-13.593-41.48-21.54-65.813-21.54c-23.287,0-45.371,7.238-63.554,19.816L111.754,513.346z M301.356,503.223l-88.224,174.582
	c-2.034,3.131-4.056,6.251-5.76,9.61c-0.278-0.525-0.473-1.078-0.76-1.592l-87.363-188.042l88.441-183.052L301.356,503.223z
	 M308.78,518.172l63.708,128.226c-18.46-12.618-40.761-19.887-64.479-19.887c-23.439,0-45.463,7.146-63.799,19.487L308.78,518.172z
	 M207.525,703.688v0.021h0.032l-0.144,0.03L207.525,703.688z M315.603,1023.581c27.782,6.325,56.146,10.072,86.146,10.546v137.35
	h-39.405L315.603,1023.581z M310.961,1008.951l-96.22-304.647l10.432-20.656c18.019-26.798,48.75-43.77,82.836-43.77
	c34.59,0,65.705,17.496,83.601,44.96l10.138,20.433v315.528C370.748,1020.286,340.079,1016.178,310.961,1008.951z M403.442,678.606
	l-87.116-175.342l89.354-176.861l92.045,179.007l-87.557,178.576c-0.576,1.007-1.088,2.053-1.644,3.09
	C407.016,684.108,405.188,681.377,403.442,678.606z M414.748,1020.799V705.086c1-2.948,2.611-5.75,3.956-8.564l3.068-6.078
	c16.993-30.113,49.698-49.539,85.992-49.539c33.543,0,63.863,16.695,81.706,42.989l10.589,20.556l-84.877,302.222
	C483.228,1015.459,449.748,1020.223,414.748,1020.799z M570.232,646.408c-18.027-11.899-39.537-18.83-62.424-18.83
	c-23.983,0-46.633,7.464-65.186,20.483l62.7-127.867L570.232,646.408z M414.748,1034.127c33-0.532,65.319-5.087,96.084-12.887
	l-14.463,52.799l-27.237,97.438h-54.384V1034.127z M769.865,648.369c-18.325-12.711-40.614-20.021-64.21-20.021
	c-25.246,0-48.829,8.543-67.795,22.926l63.864-143.441L769.865,648.369z M607.933,685.649c-0.288,0.514-0.482,1.089-0.758,1.623
	c-1.737-3.409-3.842-6.572-5.935-9.744l-88.564-172.293l94.417-192.621l87.002,179.5L607.933,685.649z M368.278,253.629
	l29.877,58.101l-89.252,176.594l-93.154-187.457C261.746,275.702,313.308,259.071,368.278,253.629z M193.039,314.297L112,482.125
	l-29.271-63.011C112.073,377.512,149.62,341.916,193.039,314.297z M74.125,432.349l30.349,65.339L16.197,680.463
	c-1.704-14.486-2.793-29.168-2.793-44.097C13.404,561.386,35.88,491.569,74.125,432.349z M19.832,703.627l7.856-16.284
	c17.32-27.3,48.173-44.827,82.085-44.827c35.884,0,68.286,19.354,84.899,49.386l2.339,4.99c1.428,2.979,2.937,5.914,4.045,9.076
	l0.144-0.063l0.123,0.249l94.294,298.649C154.3,963.569,46.023,847.346,19.832,703.627z M288.379,1171.477
	c-2.135,0-4.045,0.794-6.027,1.285l-156.82-249.998c48.399,45.432,108.236,79.1,174.828,96.955l47.959,151.758H288.379z
	 M524.748,1354.152c0,9.649-8.111,17.324-18.049,17.324H313.112c-9.927,0-18.364-7.675-18.364-17.324v-109.676h230V1354.152z
	 M528.487,1171.477h-45.021l25.364-92.115l17.376-61.986c64.223-18.881,121.749-52.731,168.392-97.464l-157.508,253.333
	C534.38,1172.276,531.526,1171.477,528.487,1171.477z M530.571,1001.867l82.905-296.094l0.021-0.297h0.03
	c0.318,0,0.813-1.531,1.171-2.444l5.021-11.182c16.673-30.575,49.487-50.201,85.936-50.201c34.765,0,66.12,18.129,83.421,46.324
	l7.905,16.317C771.16,844.539,667.112,958.396,530.571,1001.867z M803.522,636.366c0,15.185-1.149,30.093-2.926,44.816
	l-91.77-189.335l29.612-66.459C779.457,486.026,803.522,558.471,803.522,636.366z M729.394,412.862L701.2,476.138l-78.872-162.754
	C664.134,339.718,700.409,373.538,729.394,412.862z M598.735,299.411l-93.68,191.061l-91.93-178.812l29.497-58.327
	C498.814,258.053,551.689,274.101,598.735,299.411z M428.012,252.613l-22.422,44.375L382.95,252.91
	c8.47-0.523,16.879-1.273,25.493-1.273C415.075,251.637,421.502,252.294,428.012,252.613z M408.443,65.238
	c-14.764,0-26.787-11.665-26.787-25.957c0-14.312,12.023-25.944,26.787-25.944c14.785,0,26.838,11.633,26.838,25.944
	C435.281,53.574,423.228,65.238,408.443,65.238z M558.748,167.477h-144v-51h181v15h-0.598l0.059,35.711l-36.461,0.156V167.477z
	 M572.748,195.477v-15h36v-2.475v-32.525h144v15h-0.417l0.203,35h-36.786l0,0H572.748z"/>
</svg>
