<?xml version="1.0" encoding="utf-8"?>
<!-- Generator: Adobe Illustrator 16.0.0, SVG Export Plug-In . SVG Version: 6.00 Build 0)  -->
<!DOCTYPE svg PUBLIC "-//W3C//DTD SVG 1.1//EN" "http://www.w3.org/Graphics/SVG/1.1/DTD/svg11.dtd">
<svg version="1.1" id="Layer_1" xmlns="http://www.w3.org/2000/svg" xmlns:xlink="http://www.w3.org/1999/xlink" x="0px" y="0px"
	 width="939.428px" height="1384.477px" viewBox="0 0 939.428 1384.477" enable-background="new 0 0 939.428 1384.477"
	 xml:space="preserve">
<path fill="#FFFFFF" d="M938.002,237.477l-57.908-39.521l59.376-37.479H765.748v-29h-157v-28h-194V77.928
	c19-3.131,33.711-19.209,33.711-38.646C448.459,17.619,430.5,0,408.354,0s-40.084,17.619-40.084,39.281
	c0,19.437,14.479,35.494,33.479,38.636v25.555v77.239v57.877C179.748,242.14,0.02,419.064,0.02,636.366
	c0,80.771,24.963,155.907,67.55,218.743l-0.214,0.134l203.264,323.916c-4.25,4.333-6.873,10.165-6.873,16.61v24.169
	c0,10.976,8,19.896,18,22.764v111.45c0,17.021,14.014,30.323,31.364,30.323h193.587c17.31,0,31.049-13.303,31.049-30.323v-112.036
	c9-3.654,16-12.219,16-22.178v-24.169c0-5.521-2.467-10.367-5.689-14.445l209.337-336.979l-0.961-0.585
	c38.092-60.504,60.463-131.368,60.463-207.396c0-83.615-26.728-161.184-72.077-225.302l0.146-0.34l-0.831-0.297
	C671.558,308.22,551.748,240.61,414.748,238.465v-57.988h144v29h157v28H938.002z M765.748,208.477h0.217l-0.217-4.9v-30.1h127.664
	l-37.588,23.532l39.033,26.468H729.748v-14h36V208.477z M111.754,513.346l63.831,137.385c-18.594-13.594-41.48-21.54-65.813-21.54
	c-23.287,0-45.371,7.237-63.554,19.815L111.754,513.346z M301.356,503.223l-88.224,174.582c-2.034,3.131-4.056,6.251-5.76,9.61
	c-0.278-0.525-0.473-1.078-0.76-1.592l-87.363-188.042l88.441-183.053L301.356,503.223z M308.78,518.172l63.708,128.227
	c-18.46-12.618-40.761-19.888-64.479-19.888c-23.439,0-45.463,7.146-63.799,19.487L308.78,518.172z M207.525,703.688v0.021h0.032
	l-0.144,0.03L207.525,703.688z M315.603,1023.581c27.782,6.325,56.146,10.072,86.146,10.546v137.35h-39.405L315.603,1023.581z
	 M310.961,1008.951l-96.22-304.647l10.432-20.655c18.019-26.799,48.75-43.771,82.836-43.771c34.59,0,65.705,17.496,83.601,44.96
	l10.138,20.433v315.528C370.748,1020.286,340.079,1016.178,310.961,1008.951z M403.442,678.606l-87.116-175.343l89.354-176.86
	l92.045,179.007l-87.557,178.576c-0.576,1.007-1.088,2.053-1.645,3.09C407.016,684.108,405.188,681.377,403.442,678.606z
	 M414.748,1020.799V705.086c1-2.948,2.611-5.75,3.956-8.564l3.067-6.077c16.993-30.113,49.698-49.539,85.992-49.539
	c33.543,0,63.863,16.694,81.706,42.988l10.589,20.557l-84.877,302.222C483.229,1015.459,449.748,1020.223,414.748,1020.799z
	 M570.232,646.408c-18.027-11.899-39.537-18.83-62.425-18.83c-23.982,0-46.633,7.464-65.186,20.482l62.7-127.866L570.232,646.408z
	 M414.748,1034.127c33-0.532,65.319-5.087,96.084-12.887l-14.463,52.799l-27.237,97.438h-54.384V1034.127L414.748,1034.127z
	 M769.865,648.369c-18.325-12.711-40.614-20.021-64.21-20.021c-25.246,0-48.829,8.543-67.795,22.927l63.863-143.441L769.865,648.369
	z M607.933,685.649c-0.288,0.514-0.481,1.089-0.758,1.622c-1.737-3.408-3.842-6.571-5.935-9.743l-88.564-172.293l94.417-192.621
	l87.002,179.5L607.933,685.649z M368.278,253.629l29.877,58.102l-89.252,176.594l-93.154-187.457
	C261.746,275.702,313.308,259.071,368.278,253.629z M193.039,314.297L112,482.125l-29.271-63.011
	C112.073,377.512,149.62,341.916,193.039,314.297z M74.125,432.349l30.349,65.339L16.197,680.463
	c-1.704-14.486-2.793-29.168-2.793-44.097C13.404,561.386,35.88,491.569,74.125,432.349z M19.832,703.627l7.856-16.284
	c17.32-27.3,48.173-44.827,82.085-44.827c35.884,0,68.286,19.354,84.899,49.387l2.339,4.989c1.428,2.979,2.938,5.914,4.045,9.076
	l0.144-0.062l0.123,0.249l94.294,298.648C154.3,963.569,46.023,847.346,19.832,703.627z M288.379,1171.477
	c-2.135,0-4.045,0.795-6.027,1.285l-156.82-249.998c48.399,45.433,108.236,79.101,174.828,96.955l47.959,151.758H288.379z
	 M524.748,1354.152c0,9.648-8.111,17.323-18.049,17.323H313.112c-9.927,0-18.364-7.675-18.364-17.323v-109.677h230V1354.152z
	 M528.487,1171.477h-45.021l25.364-92.114l17.376-61.986c64.223-18.881,121.749-52.731,168.392-97.464L537.09,1173.245
	C534.38,1172.276,531.526,1171.477,528.487,1171.477z M530.571,1001.867l82.904-296.094l0.021-0.298h0.03
	c0.317,0,0.812-1.53,1.171-2.443l5.021-11.183c16.673-30.574,49.487-50.2,85.937-50.2c34.765,0,66.12,18.129,83.421,46.323
	l7.904,16.317C771.16,844.539,667.112,958.396,530.571,1001.867z M803.521,636.366c0,15.185-1.148,30.093-2.926,44.815
	l-91.77-189.335l29.611-66.459C779.457,486.026,803.521,558.471,803.521,636.366z M729.395,412.862L701.2,476.138l-78.872-162.754
	C664.134,339.718,700.409,373.538,729.395,412.862z M598.735,299.411l-93.681,191.061l-91.93-178.812l29.497-58.327
	C498.814,258.053,551.689,274.101,598.735,299.411z M428.012,252.613l-22.422,44.375l-22.64-44.078
	c8.47-0.523,16.879-1.273,25.493-1.273C415.075,251.637,421.502,252.294,428.012,252.613z M408.443,65.238
	c-14.765,0-26.787-11.665-26.787-25.957c0-14.312,12.023-25.944,26.787-25.944c14.785,0,26.838,11.633,26.838,25.944
	C435.281,53.574,423.229,65.238,408.443,65.238z M558.748,167.477h-144v-51h181v15h-0.598l0.059,35.711l-36.461,0.156V167.477z
	 M572.748,195.477v-15h36v-2.475v-32.525h144v15h-0.417l0.203,35h-36.786l0,0H572.748z"/>
</svg>
