<?xml version="1.0" encoding="utf-8"?>
<!-- Generator: Adobe Illustrator 16.0.0, SVG Export Plug-In . SVG Version: 6.00 Build 0)  -->
<!DOCTYPE svg PUBLIC "-//W3C//DTD SVG 1.1//EN" "http://www.w3.org/Graphics/SVG/1.1/DTD/svg11.dtd">
<svg version="1.1" id="Layer_1" xmlns="http://www.w3.org/2000/svg" xmlns:xlink="http://www.w3.org/1999/xlink" x="0px" y="0px"
	 width="2038px" height="911.434px" viewBox="0 0 2038 911.434" enable-background="new 0 0 2038 911.434" xml:space="preserve">
<path fill="#FFFFFF" d="M2037.745,751.12c-0.664-88.156-72.669-159.244-160.957-159.244H1610.37
	c-2.74-69-30.834-133.562-79.808-182.532c-51.614-51.61-120.266-80.244-193.309-80.244c-16.853,0-33.354,1.358-49.153,4.231
	c-28.791-57.59-66.525-109.957-112.518-155.947c-55.081-55.08-119.225-98.353-190.648-128.563
	C910.985,17.542,832.438,1.668,751.479,1.668c-80.921,0-159.437,15.854-233.366,47.134
	c-71.405,30.211-135.534,73.454-190.606,128.533c-55.077,55.083-98.32,119.227-128.531,190.65
	C169,438.857,153.194,513.948,151.926,591.339C67.931,596.397,0.753,666.156,0.423,751.309L0,752.031v0.617
	c0,87.524,71.878,159.228,159.375,159.228h1719.594c87.579,0,159.031-71.703,159.031-159.228v-1.214L2037.745,751.12z"/>
<path fill="#231F20" d="M2037.74,751.12c-0.664-88.156-72.674-159.244-160.962-159.244H1610.36
	c-2.74-69-30.834-133.562-79.808-182.532c-51.614-51.61-120.266-80.244-193.309-80.244c-16.853,0-33.354,1.358-49.153,4.231
	c-28.791-57.59-66.525-109.957-112.518-155.947c-55.081-55.08-119.225-98.353-190.648-128.563
	C910.975,17.542,832.429,1.668,751.47,1.668c-80.921,0-159.437,15.854-233.366,47.134
	c-71.405,30.211-135.534,73.454-190.606,128.533c-55.077,55.083-98.32,119.227-128.531,190.65
	c-29.976,70.872-45.783,145.962-47.051,223.354C67.921,596.397,0.748,666.156,0.418,751.309L0,752.031v0.617
	c0,87.524,71.869,159.228,159.365,159.228h1719.594c87.579,0,159.041-71.703,159.041-159.228v-1.214L2037.74,751.12z
	 M1878.959,887.875H159.365c-74.333,0-134.979-60.334-135.304-134.621L24,752.552v-0.615c0-75.759,62-137.394,138-137.394v-12.668
	h13.333c0-78,15.237-153.482,45.287-224.528c29.024-68.621,70.577-130.358,123.502-183.29
	c52.921-52.928,114.539-94.533,183.142-123.559c71.015-30.046,146.449-45.308,224.206-45.308c77.796,0,153.26,15.222,224.298,45.27
	c68.621,29.024,130.252,70.572,183.182,123.5c52.932,52.931,94.488,114.767,123.514,183.39
	c30.051,71.044,45.287,146.524,45.287,224.524h23.511c0-81-15.862-159.731-47.145-233.686c-1.8-4.255-3.648-8.584-5.54-12.786
	c12.495-1.923,25.452-2.953,38.668-2.953c66.764,0,129.478,25.952,176.649,73.122C1561.06,472.736,1587,535.437,1587,602.169v12.706
	h289.778c75.735,0,136.222,61.303,136.222,137.062v1.214l0.708,0.689C2013.068,827.858,1953.179,887.875,1878.959,887.875z"/>
</svg>
