<?xml version="1.0" encoding="utf-8"?>
<!-- Generator: Adobe Illustrator 16.0.0, SVG Export Plug-In . SVG Version: 6.00 Build 0)  -->
<!DOCTYPE svg PUBLIC "-//W3C//DTD SVG 1.1//EN" "http://www.w3.org/Graphics/SVG/1.1/DTD/svg11.dtd">
<svg version="1.1" id="Layer_1" xmlns="http://www.w3.org/2000/svg" xmlns:xlink="http://www.w3.org/1999/xlink" x="0px" y="0px"
	 width="2038px" height="911.434px" viewBox="0 0 2038 911.434" enable-background="new 0 0 2038 911.434" xml:space="preserve">
<path fill="#FFFFFF" d="M2037.745,751.12c-0.664-88.156-72.669-159.244-160.957-159.244H1610.37
	c-2.74-69-30.834-133.562-79.808-182.532c-51.614-51.609-120.267-80.244-193.31-80.244c-16.853,0-33.354,1.358-49.153,4.231
	c-28.791-57.59-66.524-109.957-112.518-155.947c-55.081-55.08-119.225-98.353-190.648-128.563
	C910.985,17.542,832.438,1.668,751.479,1.668c-80.921,0-159.437,15.854-233.365,47.134
	c-71.405,30.211-135.534,73.454-190.606,128.533c-55.077,55.083-98.32,119.227-128.531,190.65
	c-29.976,70.872-45.782,145.963-47.05,223.354C67.931,596.396,0.753,666.156,0.423,751.309L0,752.031v0.617
	c0,87.523,71.878,159.228,159.375,159.228h1719.594c87.579,0,159.031-71.703,159.031-159.228v-1.215L2037.745,751.12z"/>
</svg>
