<?xml version="1.0" encoding="utf-8"?>
<!-- Generator: Adobe Illustrator 16.0.0, SVG Export Plug-In . SVG Version: 6.00 Build 0)  -->
<!DOCTYPE svg PUBLIC "-//W3C//DTD SVG 1.1//EN" "http://www.w3.org/Graphics/SVG/1.1/DTD/svg11.dtd">
<svg version="1.1" id="Layer_1" xmlns="http://www.w3.org/2000/svg" xmlns:xlink="http://www.w3.org/1999/xlink" x="0px" y="0px"
	 width="1502.703px" height="545.945px" viewBox="0 0 1502.703 545.945" enable-background="new 0 0 1502.703 545.945"
	 xml:space="preserve">
<g>
	<g>
		<path fill="#231F20" d="M174.55,402.762l-26.704,65.398h-15.805l-26.024-65.941v65.941h-22.07v-95.37h31.88l24.389,63.489
			l25.343-63.489h31.062v95.37H174.55V402.762z"/>
		<path fill="#231F20" d="M299.346,423.199c0,30.658-12.125,46.598-39.239,46.598c-25.752,0-38.694-15.535-38.694-46.598V372.79
			h22.07v52.728c0,16.754,6.404,25.203,16.895,25.203c10.493,0,16.895-8.449,16.895-25.203V372.79h22.073V423.199z"/>
		<path fill="#231F20" d="M324.136,468.16v-95.37h28.611c13.08,0,25.208,3.541,35.56,10.623
			c10.357,7.088,17.168,20.167,17.168,36.655c0,16.892-6.676,30.109-17.168,37.33c-10.491,7.221-23.025,10.762-36.785,10.762
			H324.136z M346.207,391.043v58.858h1.228c23.025,0,34.605-9.533,34.605-28.61c0-19.619-11.444-30.248-31.474-30.248H346.207z"/>
		<path fill="#231F20" d="M426.727,468.16v-95.37h28.61c13.079,0,25.207,3.541,35.56,10.623
			c10.357,7.088,17.168,20.167,17.168,36.655c0,16.892-6.675,30.109-17.168,37.33c-10.49,7.221-23.025,10.762-36.785,10.762H426.727
			z M448.797,391.043v58.858h1.228c23.025,0,34.605-9.533,34.605-28.61c0-19.619-11.444-30.248-31.473-30.248H448.797z"/>
		<path fill="#231F20" d="M567.604,468.16h-22.073v-39.648l-30.11-55.722h27.114l14.85,32.151h0.271l16.624-32.151h25.614
			l-32.29,56.54V468.16z"/>
		<path fill="#231F20" d="M722.236,398.269c-6.404-5.316-13.08-8.039-20.029-8.039c-7.766,0-14.305,2.993-19.481,8.853
			c-5.179,5.859-7.768,12.947-7.768,21.391c0,17.986,10.083,30.248,27.113,30.248c7.494,0,14.17-2.723,20.029-8.311l12.535,15.807
			c-9.948,7.763-21.119,11.58-33.518,11.58c-14.306,0-26.159-4.636-35.56-13.898c-9.4-9.267-14.034-21.118-14.034-35.426
			c0-13.761,4.905-25.474,14.715-35.013c9.947-9.538,21.799-14.308,35.833-14.308c9.945,0,20.165,3.408,30.793,10.081
			L722.236,398.269z"/>
		<path fill="#231F20" d="M752.477,468.16v-95.37h31.064c15.669,0,35.695,8.039,35.695,29.02c0,13.213-8.175,22.071-19.755,26.569
			l28.748,39.781h-27.522l-25.205-37.192h-0.954v37.192H752.477z M774.547,391.043v21.666h5.859c9.265,0,15.395-3.407,15.395-10.49
			c0-6.678-5.176-11.176-12.806-11.176H774.547z"/>
		<path fill="#231F20" d="M908.066,468.16h-62.673v-95.37h62.673v18.253h-40.603v18.939h40.603v18.258h-40.603v21.661h40.603V468.16
			z"/>
		<path fill="#231F20" d="M1016.512,468.16h-25.34l-5.588-16.76h-31.471l-5.998,16.76H923.73l39.646-95.37h17.578L1016.512,468.16z
			 M970.325,406.303l-9.81,27.525h19.071l-9.124-27.525H970.325z"/>
		<path fill="#231F20" d="M1084.766,391.043h-22.07v77.117h-22.07v-77.117h-22.076V372.79h66.217V391.043z"/>
		<path fill="#231F20" d="M1178.366,423.199c0,30.658-12.128,46.598-39.239,46.598c-25.75,0-38.696-15.535-38.696-46.598V372.79
			h22.07v52.728c0,16.754,6.407,25.203,16.897,25.203s16.892-8.449,16.892-25.203V372.79h22.076V423.199z"/>
		<path fill="#231F20" d="M1203.153,468.16v-95.37h31.067c15.669,0,35.692,8.039,35.692,29.02c0,13.213-8.172,22.071-19.752,26.569
			l28.748,39.781h-27.525l-25.203-37.192h-0.956v37.192H1203.153z M1225.224,391.043v21.666h5.858
			c9.268,0,15.398-3.407,15.398-10.49c0-6.678-5.179-11.176-12.809-11.176H1225.224z"/>
		<path fill="#231F20" d="M1358.743,468.16h-62.671v-95.37h62.671v18.253h-40.601v18.939h40.601v18.258h-40.601v21.661h40.601
			V468.16z"/>
		<path fill="#231F20" d="M1433.126,398.54c-7.082-5.859-13.622-8.858-19.753-8.858c-5.449,0-10.356,3.137-10.356,8.178
			c0,2.723,0.818,4.631,3.546,6.264l3.132,1.775l4.36,1.494l3.679,1.229c6.949,2.318,10.219,3.408,16.212,7.087
			c3.137,1.771,5.449,3.812,7.22,5.854c3.408,3.955,6.54,10.767,6.54,18.806c0,20.3-19.481,29.429-37.059,29.429
			c-13.894,0-26.293-5.588-37.192-16.625l14.303-14.032c3.137,2.999,5.588,5.179,7.22,6.401c3.271,2.59,9.539,5.727,15.945,5.727
			c7.492,0,13.352-3.546,13.352-10.49c0-2.865-1.909-5.449-3.541-7.087c-0.819-0.819-2.18-1.633-4.227-2.59l-4.494-2.042
			l-5.178-1.908c-6.131-2.318-9.4-3.68-14.441-6.949c-7.226-4.77-11.037-11.033-11.447-22.209c0-8.582,3.132-15.121,9.539-19.752
			c6.401-4.637,13.898-6.949,22.618-6.949c11.304,0,22.07,3.95,32.423,11.718L1433.126,398.54z"/>
	</g>
	<g>
		<g>
			<rect x="685.814" y="210.683" fill="#231F20" width="171.13" height="22.176"/>
			<polygon fill="#231F20" points="770.579,177.178 785.856,193.261 854.497,128.078 785.856,62.892 770.579,78.985 810.6,116.986 
				685.814,116.986 685.814,139.172 810.595,139.172 			"/>
			<rect x="466.26" y="210.683" fill="#231F20" width="171.127" height="22.176"/>
			<path fill="#231F20" d="M483.64,121.312c8.29,5.857,18.259,10.107,30,12.832l-45.4,43.174l15.285,16.081l58.638-55.763
				c3.104,0.098,6.302,0.11,9.585,0.077c3.315,0.038,6.562,0.025,9.697-0.077l58.644,55.763l15.285-16.081l-45.405-43.169
				c11.744-2.723,21.712-6.98,30-12.837c11.322-8,14.838-17.045,15.792-23.222c1.766-11.429-3.784-20.285-5.34-22.49
				c-1.646-2.461-8.062-10.828-20.451-12.327c-13.691-1.671-28.833,5.762-45.023,22.086l-13.146,12.499l-13.141-12.499
				c-16.196-16.324-31.331-23.757-45.024-22.086c-12.386,1.499-18.808,9.866-20.448,12.327c-1.545,2.216-7.108,11.061-5.345,22.49
				C468.798,104.268,472.308,113.312,483.64,121.312z M580.356,101.325l0.246-0.243c13.809-13.955,22.145-15.851,25.645-15.851
				c0.274,0,0.512,0.015,0.724,0.033c2.656,0.22,4.188,1.671,4.736,2.32l-0.071,0.033l0.739,0.894
				c3.344,4.938,1.599,9.871-5.209,14.681c-8.94,6.32-21.526,10.191-37.477,11.675l-1.786-1.702L580.356,101.325z M491.175,88.578
				l0.128,0.092l0.486-0.964c0.42-0.538,1.988-2.21,4.844-2.441c2.996-0.256,11.511,0.796,26.382,15.817l12.696,12.082l-1.799,1.704
				c-15.948-1.484-28.529-5.36-37.466-11.675C489.666,98.413,487.906,93.496,491.175,88.578z"/>
		</g>
		<g>
			<g>
				<path d="M969.202,126.676c0,5.417-4.389,9.807-9.808,9.807c-5.422,0-9.814-4.391-9.814-9.807c0-5.422,4.393-9.802,9.814-9.802
					C964.813,116.874,969.202,121.254,969.202,126.676z"/>
				<path d="M1011.997,126.676c0,5.417-4.386,9.807-9.81,9.807c-5.414,0-9.808-4.391-9.808-9.807c0-5.422,4.394-9.802,9.808-9.802
					C1007.611,116.874,1011.997,121.254,1011.997,126.676z"/>
			</g>
			<path d="M980.799,232.858c-47.703,0-86.507-38.81-86.507-86.504c0-47.7,38.804-86.517,86.507-86.517
				c47.705,0,86.499,38.817,86.499,86.517C1067.298,194.049,1028.504,232.858,980.799,232.858z M980.799,82.025
				c-35.473,0-64.334,28.854-64.334,64.329c0,35.462,28.861,64.329,64.334,64.329c35.463,0,64.313-28.866,64.313-64.329
				C1045.113,110.879,1016.262,82.025,980.799,82.025z"/>
			<g>
				<defs>
					<rect id="SVGID_1_" x="926.309" y="154.301" width="108.961" height="45.111"/>
				</defs>
				<clipPath id="SVGID_2_">
					<use xlink:href="#SVGID_1_"  overflow="visible"/>
				</clipPath>
				<path clip-path="url(#SVGID_2_)" d="M980.924,196.439c-27.617,0-50.09-22.467-50.09-50.085h22.182
					c0,15.385,12.521,27.899,27.908,27.899c15.388,0,27.91-12.514,27.91-27.899h22.188
					C1031.022,173.972,1008.547,196.439,980.924,196.439z"/>
			</g>
		</g>
	</g>
</g>
</svg>
