<?xml version="1.0" encoding="utf-8"?>
<!-- Generator: Adobe Illustrator 16.0.0, SVG Export Plug-In . SVG Version: 6.00 Build 0)  -->
<!DOCTYPE svg PUBLIC "-//W3C//DTD SVG 1.1//EN" "http://www.w3.org/Graphics/SVG/1.1/DTD/svg11.dtd">
<svg version="1.1" id="Layer_1" xmlns="http://www.w3.org/2000/svg" xmlns:xlink="http://www.w3.org/1999/xlink" x="0px" y="0px"
	 width="1363.759px" height="98.645px" viewBox="0 0 1363.759 98.645" enable-background="new 0 0 1363.759 98.645"
	 xml:space="preserve">
<g>
	<g>
		<path fill="#FFFFFF" d="M90.603,31.608L63.899,97.007H48.094L22.07,31.065v65.941H0V1.637h31.88l24.389,63.489L81.612,1.637
			h31.062v95.37H90.603V31.608z"/>
		<path fill="#FFFFFF" d="M215.399,52.046c0,30.658-12.125,46.598-39.239,46.598c-25.752,0-38.694-15.535-38.694-46.598V1.637h22.07
			v52.728c0,16.755,6.404,25.203,16.895,25.203c10.493,0,16.895-8.448,16.895-25.203V1.637h22.073L215.399,52.046L215.399,52.046z"
			/>
		<path fill="#FFFFFF" d="M240.188,97.007V1.637H268.8c13.08,0,25.208,3.541,35.56,10.623c10.357,7.088,17.167,20.167,17.167,36.655
			c0,16.892-6.676,30.108-17.167,37.33c-10.491,7.221-23.025,10.762-36.785,10.762H240.188z M262.26,19.89v58.858h1.228
			c23.025,0,34.605-9.533,34.605-28.61c0-19.619-11.444-30.248-31.474-30.248H262.26L262.26,19.89z"/>
		<path fill="#FFFFFF" d="M342.779,97.007V1.637h28.61c13.079,0,25.207,3.541,35.56,10.623
			c10.357,7.088,17.168,20.167,17.168,36.655c0,16.892-6.675,30.108-17.168,37.33c-10.489,7.221-23.024,10.762-36.784,10.762
			H342.779z M364.85,19.89v58.858h1.229c23.024,0,34.604-9.533,34.604-28.61c0-19.619-11.444-30.248-31.473-30.248H364.85
			L364.85,19.89z"/>
		<path fill="#FFFFFF" d="M483.656,97.007h-22.072V57.358l-30.11-55.722h27.114l14.85,32.151h0.271l16.624-32.151h25.614
			l-32.291,56.54V97.007z"/>
		<path fill="#FFFFFF" d="M638.289,27.115c-6.404-5.315-13.08-8.038-20.029-8.038c-7.766,0-14.305,2.992-19.48,8.853
			c-5.18,5.859-7.769,12.947-7.769,21.391c0,17.986,10.083,30.248,27.113,30.248c7.493,0,14.17-2.723,20.028-8.311l12.535,15.807
			c-9.947,7.764-21.119,11.58-33.518,11.58c-14.307,0-26.159-4.636-35.561-13.897c-9.399-9.268-14.033-21.118-14.033-35.427
			c0-13.761,4.904-25.474,14.715-35.013C592.238,4.77,604.09,0,618.124,0c9.944,0,20.165,3.407,30.793,10.081L638.289,27.115z"/>
		<path fill="#FFFFFF" d="M668.529,97.007V1.637h31.064c15.669,0,35.695,8.039,35.695,29.02c0,13.214-8.176,22.071-19.756,26.569
			l28.748,39.781H716.76l-25.205-37.192h-0.954v37.192H668.529L668.529,97.007z M690.6,19.89v21.666h5.859
			c9.265,0,15.395-3.407,15.395-10.49c0-6.678-5.176-11.176-12.806-11.176H690.6z"/>
		<path fill="#FFFFFF" d="M824.119,97.007h-62.674V1.637h62.674V19.89h-40.604v18.939h40.604v18.258h-40.604v21.661h40.604V97.007z"
			/>
		<path fill="#FFFFFF" d="M932.564,97.007h-25.34l-5.588-16.76h-31.471l-5.998,16.76h-24.385l39.646-95.37h17.578L932.564,97.007z
			 M886.378,35.149l-9.811,27.525h19.071l-9.124-27.525H886.378z"/>
		<path fill="#FFFFFF" d="M1000.818,19.89h-22.069v77.117h-22.07V19.89h-22.076V1.637h66.218V19.89H1000.818z"/>
		<path fill="#FFFFFF" d="M1094.419,52.046c0,30.658-12.128,46.598-39.239,46.598c-25.75,0-38.696-15.535-38.696-46.598V1.637h22.07
			v52.728c0,16.755,6.407,25.203,16.896,25.203c10.49,0,16.893-8.448,16.893-25.203V1.637h22.076V52.046L1094.419,52.046z"/>
		<path fill="#FFFFFF" d="M1119.206,97.007V1.637h31.066c15.669,0,35.692,8.039,35.692,29.02c0,13.214-8.172,22.071-19.752,26.569
			l28.748,39.781h-27.525l-25.203-37.192h-0.956v37.192H1119.206L1119.206,97.007z M1141.276,19.89v21.666h5.858
			c9.268,0,15.398-3.407,15.398-10.49c0-6.678-5.18-11.176-12.81-11.176H1141.276z"/>
		<path fill="#FFFFFF" d="M1274.796,97.007h-62.671V1.637h62.671V19.89h-40.601v18.939h40.601v18.258h-40.601v21.661h40.601V97.007z
			"/>
		<path fill="#FFFFFF" d="M1349.179,27.387c-7.082-5.859-13.622-8.858-19.753-8.858c-5.449,0-10.356,3.138-10.356,8.179
			c0,2.723,0.818,4.631,3.546,6.264l3.133,1.775l4.359,1.493l3.68,1.229c6.948,2.318,10.219,3.408,16.212,7.087
			c3.137,1.771,5.448,3.812,7.22,5.854c3.408,3.954,6.54,10.767,6.54,18.806c0,20.3-19.481,29.429-37.06,29.429
			c-13.894,0-26.293-5.588-37.191-16.625l14.303-14.032c3.137,2.999,5.588,5.18,7.22,6.401c3.271,2.59,9.539,5.727,15.945,5.727
			c7.492,0,13.353-3.546,13.353-10.489c0-2.865-1.909-5.449-3.541-7.087c-0.819-0.819-2.181-1.634-4.228-2.591l-4.494-2.042
			l-5.178-1.907c-6.131-2.318-9.4-3.681-14.441-6.949c-7.226-4.771-11.037-11.033-11.446-22.209c0-8.582,3.132-15.121,9.538-19.752
			c6.401-4.637,13.898-6.949,22.618-6.949c11.305,0,22.07,3.95,32.423,11.718L1349.179,27.387z"/>
	</g>
</g>
</svg>
