<?xml version="1.0" encoding="utf-8"?>
<!-- Generator: Adobe Illustrator 16.0.0, SVG Export Plug-In . SVG Version: 6.00 Build 0)  -->
<!DOCTYPE svg PUBLIC "-//W3C//DTD SVG 1.1//EN" "http://www.w3.org/Graphics/SVG/1.1/DTD/svg11.dtd">
<svg version="1.1" id="Layer_1" xmlns="http://www.w3.org/2000/svg" xmlns:xlink="http://www.w3.org/1999/xlink" x="0px" y="0px"
	 width="225.2px" height="45.463px" viewBox="0 0 225.2 45.463" enable-background="new 0 0 225.2 45.463" xml:space="preserve">
<g>
	<g>
		<path fill="#FFFFFF" d="M15.05,34.397l-4.408,10.796H8.032L3.738,34.309v10.885H0.095V29.45h5.262l4.025,10.48l4.184-10.48h5.127
			v15.743H15.05V34.397z"/>
		<path fill="#FFFFFF" d="M35.647,37.772c0,5.059-2,7.69-6.476,7.69c-4.251,0-6.388-2.564-6.388-7.69V29.45h3.645v8.703
			c0,2.767,1.057,4.16,2.787,4.16c1.732,0,2.789-1.394,2.789-4.16V29.45h3.643V37.772z"/>
		<path fill="#FFFFFF" d="M39.74,45.193V29.45h4.724c2.158,0,4.16,0.585,5.869,1.753c1.71,1.172,2.834,3.328,2.834,6.051
			c0,2.789-1.104,4.971-2.834,6.162c-1.732,1.191-3.801,1.777-6.072,1.777H39.74z M43.384,32.463v9.717h0.203
			c3.8,0,5.711-1.574,5.711-4.723c0-3.24-1.889-4.994-5.193-4.994H43.384z"/>
		<path fill="#FFFFFF" d="M56.675,45.193V29.45h4.723c2.158,0,4.16,0.585,5.869,1.753c1.709,1.172,2.834,3.328,2.834,6.051
			c0,2.789-1.102,4.971-2.834,6.162s-3.801,1.777-6.072,1.777H56.675z M60.317,32.463v9.717h0.203c3.8,0,5.713-1.574,5.713-4.723
			c0-3.24-1.891-4.994-5.196-4.994H60.317z"/>
		<path fill="#FFFFFF" d="M79.929,45.193h-3.645v-6.546l-4.97-9.197h4.476l2.451,5.308h0.045l2.743-5.308h4.229l-5.329,9.333V45.193
			z"/>
		<path fill="#FFFFFF" d="M105.452,33.656c-1.057-0.878-2.159-1.329-3.307-1.329c-1.281,0-2.361,0.497-3.215,1.464
			c-0.855,0.967-1.283,2.137-1.283,3.53c0,2.969,1.666,4.992,4.477,4.992c1.236,0,2.338-0.448,3.305-1.37l2.07,2.607
			c-1.643,1.282-3.486,1.912-5.533,1.912c-2.361,0-4.318-0.766-5.869-2.294c-1.553-1.53-2.316-3.485-2.316-5.848
			c0-2.271,0.811-4.205,2.429-5.779c1.642-1.575,3.599-2.36,5.915-2.36c1.641,0,3.328,0.561,5.082,1.664L105.452,33.656z"/>
		<path fill="#FFFFFF" d="M110.443,45.193V29.45h5.127c2.587,0,5.893,1.327,5.893,4.79c0,2.182-1.351,3.643-3.261,4.386l4.744,6.567
			h-4.542l-4.16-6.14h-0.157v6.14H110.443z M114.087,32.463v3.575h0.966c1.53,0,2.542-0.56,2.542-1.729
			c0-1.103-0.854-1.846-2.113-1.846H114.087z"/>
		<path fill="#FFFFFF" d="M136.126,45.193H125.78V29.45h10.346v3.013h-6.702v3.127h6.702v3.015h-6.702v3.575h6.702V45.193z"/>
		<path fill="#FFFFFF" d="M154.026,45.193h-4.184l-0.922-2.767h-5.195l-0.988,2.767h-4.026l6.543-15.743h2.903L154.026,45.193z
			 M146.402,34.982l-1.62,4.543h3.148l-1.506-4.543H146.402z"/>
		<path fill="#FFFFFF" d="M165.292,32.463h-3.645v12.73h-3.643v-12.73h-3.643V29.45h10.93V32.463z"/>
		<path fill="#FFFFFF" d="M180.741,37.772c0,5.059-2.001,7.69-6.477,7.69c-4.25,0-6.387-2.564-6.387-7.69V29.45h3.643v8.703
			c0,2.767,1.059,4.16,2.789,4.16c1.731,0,2.789-1.394,2.789-4.16V29.45h3.643V37.772z"/>
		<path fill="#FFFFFF" d="M184.833,45.193V29.45h5.129c2.584,0,5.891,1.327,5.891,4.79c0,2.182-1.348,3.643-3.26,4.386l4.744,6.567
			h-4.542l-4.161-6.14h-0.156v6.14H184.833z M188.478,32.463v3.575h0.966c1.53,0,2.542-0.56,2.542-1.729
			c0-1.103-0.855-1.846-2.114-1.846H188.478z"/>
		<path fill="#FFFFFF" d="M210.517,45.193H200.17V29.45h10.347v3.013h-6.703v3.127h6.703v3.015h-6.703v3.575h6.703V45.193z"/>
		<path fill="#FFFFFF" d="M222.794,33.699c-1.169-0.966-2.249-1.46-3.262-1.46c-0.898,0-1.708,0.518-1.708,1.35
			c0,0.451,0.134,0.764,0.584,1.034l0.519,0.291l0.719,0.248l0.607,0.201c1.146,0.383,1.688,0.564,2.676,1.171
			c0.518,0.292,0.9,0.63,1.192,0.966c0.562,0.653,1.079,1.779,1.079,3.105c0,3.35-3.217,4.857-6.117,4.857
			c-2.294,0-4.34-0.922-6.14-2.744l2.361-2.316c0.518,0.494,0.923,0.855,1.191,1.057c0.541,0.427,1.575,0.944,2.632,0.944
			c1.236,0,2.204-0.585,2.204-1.73c0-0.472-0.315-0.899-0.585-1.169c-0.135-0.136-0.359-0.271-0.697-0.427l-0.742-0.339
			l-0.854-0.314c-1.014-0.383-1.553-0.608-2.385-1.148c-1.191-0.786-1.821-1.82-1.889-3.665c0-1.417,0.516-2.496,1.574-3.261
			c1.057-0.764,2.293-1.146,3.733-1.146c1.866,0,3.644,0.653,5.353,1.934L222.794,33.699z"/>
	</g>
	<g>
		<g>
			<rect x="28.389" y="19.355" fill="#FFFFFF" width="22.13" height="2.869"/>
			<polygon fill="#FFFFFF" points="39.351,15.023 41.325,17.105 50.2,8.677 41.325,0.247 39.351,2.326 44.524,7.242 28.389,7.242 
				28.389,10.11 44.524,10.11 			"/>
		</g>
		<g>
			<rect y="19.355" fill="#FFFFFF" width="22.128" height="2.869"/>
			<path fill="#FFFFFF" d="M21.917,4.799c0.229-1.478-0.49-2.623-0.689-2.907c-0.214-0.32-1.043-1.401-2.646-1.595
				c-1.768-0.217-3.727,0.744-5.82,2.855l-1.699,1.616L9.362,3.152C7.269,1.041,5.31,0.082,3.54,0.297
				C1.938,0.49,1.108,1.571,0.896,1.892c-0.201,0.284-0.92,1.43-0.691,2.907C0.327,5.598,0.783,6.766,2.247,7.8
				c1.072,0.759,2.361,1.309,3.881,1.659l-5.873,5.583l1.977,2.079l7.584-7.209c0.404,0.012,0.822,0.016,1.25,0.01
				c0.425,0.006,0.84,0.002,1.242-0.01l7.584,7.209l1.975-2.079l-5.871-5.583c1.52-0.351,2.809-0.9,3.881-1.659
				C21.341,6.766,21.794,5.598,21.917,4.799z M3.903,5.457C3.028,4.84,2.798,4.205,3.224,3.57l0.015,0.01L3.3,3.457
				c0.058-0.071,0.259-0.286,0.627-0.318c0.385-0.032,1.489,0.104,3.412,2.047l1.641,1.562l-0.23,0.221
				C6.686,6.776,5.06,6.275,3.903,5.457z M18.22,5.457c-1.156,0.818-2.782,1.319-4.846,1.512l-0.231-0.221l1.61-1.532l0.031-0.03
				c1.786-1.806,2.865-2.051,3.318-2.051c0.034,0,0.064,0.004,0.094,0.004c0.342,0.028,0.539,0.217,0.611,0.301l-0.01,0.005
				l0.096,0.114C19.325,4.198,19.099,4.837,18.22,5.457z"/>
		</g>
		<g>
			<g>
				<circle fill="#FFFFFF" cx="63.69" cy="8.641" r="1.268"/>
				<circle fill="#FFFFFF" cx="69.223" cy="8.641" r="1.268"/>
			</g>
			<path fill="#FFFFFF" d="M66.457,22.373c-6.169,0-11.187-5.02-11.187-11.188S60.288,0,66.457,0
				c6.168,0,11.187,5.018,11.187,11.186S72.625,22.373,66.457,22.373z M66.457,2.868c-4.587,0-8.317,3.733-8.317,8.317
				c0,4.586,3.73,8.318,8.317,8.318c4.586,0,8.317-3.732,8.317-8.318C74.774,6.602,71.043,2.868,66.457,2.868z"/>
			<path fill="#FFFFFF" d="M66.474,17.663c3.221,0,5.893-2.365,6.387-5.448h-2.929c-0.444,1.49-1.825,2.58-3.458,2.58
				c-1.632,0-3.014-1.09-3.457-2.58h-2.93C60.581,15.298,63.254,17.663,66.474,17.663z"/>
		</g>
	</g>
</g>
</svg>
