<?xml version="1.0" encoding="utf-8"?>
<!-- Generator: Adobe Illustrator 16.0.0, SVG Export Plug-In . SVG Version: 6.00 Build 0)  -->
<!DOCTYPE svg PUBLIC "-//W3C//DTD SVG 1.1//EN" "http://www.w3.org/Graphics/SVG/1.1/DTD/svg11.dtd">
<svg version="1.1" id="Layer_1" xmlns="http://www.w3.org/2000/svg" xmlns:xlink="http://www.w3.org/1999/xlink" x="0px" y="0px"
	 width="40px" height="40px" viewBox="0 0 40 40" enable-background="new 0 0 40 40" xml:space="preserve">
<path fill="#EDA989" d="M18.576,31.121l-5.911-5.135l-5.91,5.135l0.757,0.871l0.577-0.501v5.524h3.82v-3.816h1.512v3.816h3.82
	v-5.524l0.578,0.501L18.576,31.121z M16.087,35.861h-1.513v-3.816h-3.819v3.816H9.243v-5.373l3.422-2.973l3.422,2.973V35.861z"/>
<path fill="#EDA989" d="M17.079,3.506c0-1.384-1.127-2.51-2.511-2.51c-0.761,0-1.442,0.34-1.903,0.875
	c-0.461-0.536-1.144-0.875-1.904-0.875c-1.384,0-2.509,1.126-2.509,2.51c0,0.711,0.302,1.37,0.799,1.834
	C8.554,5.805,8.252,6.464,8.252,7.175c0,1.384,1.125,2.51,2.509,2.51c0.438,0,0.849-0.116,1.209-0.314
	c-0.137,0.795-0.472,1.688-1.244,2.302l0.755,0.95c1.169-0.928,1.595-2.254,1.732-3.339c0.392,0.252,0.855,0.401,1.355,0.401
	c1.384,0,2.511-1.126,2.511-2.51c0-0.711-0.303-1.371-0.8-1.834C16.776,4.876,17.079,4.217,17.079,3.506z M14.911,5.927
	c0.562,0.153,0.954,0.667,0.954,1.249c0,0.715-0.582,1.296-1.297,1.296s-1.296-0.581-1.296-1.296c0-0.335-0.271-0.607-0.607-0.607
	c-0.335,0-0.606,0.271-0.606,0.607c0,0.715-0.582,1.296-1.297,1.296S9.465,7.89,9.465,7.175c0-0.582,0.393-1.095,0.954-1.248
	c0.265-0.072,0.446-0.312,0.447-0.585c0-0.273-0.183-0.513-0.446-0.585c-0.562-0.154-0.955-0.668-0.955-1.25
	c0-0.715,0.581-1.296,1.296-1.296c0.716,0,1.297,0.582,1.297,1.296c0,0.335,0.272,0.607,0.607,0.607s0.606-0.271,0.606-0.607
	c0-0.715,0.582-1.296,1.297-1.296s1.297,0.582,1.297,1.296c0,0.582-0.393,1.096-0.955,1.25c-0.264,0.072-0.446,0.312-0.446,0.585
	C14.465,5.615,14.647,5.854,14.911,5.927z"/>
<path fill="#EDA989" d="M31.502,30.656c0-2.711-2.205-4.917-4.917-4.917s-4.918,2.206-4.918,4.917c0,1.947,1.142,3.631,2.788,4.426
	l0.092,0.389l0.307,1.062l0.228,0.73h0.993h1.122h0.993l0.228-0.73l0.306-1.18l0.105-0.385
	C30.414,34.15,31.502,32.559,31.502,30.656z M27.348,33.713l-0.049-0.023h-1.327l-0.049,0.023c-1.583-3.207,0.479-6.337,0.51-6.385
	c0.032-0.053,0.118-0.114,0.177-0.15c0.03,0.024,0.088,0.036,0.167,0.16C26.799,27.369,28.938,30.494,27.348,33.713z M22.922,30.656
	c0-1.463,0.858-2.721,2.098-3.309c-0.57,1.129-1.514,3.613-0.533,6.309C23.541,32.994,22.922,31.898,22.922,30.656z M26.074,36.369
	l-0.229-0.912c0.241,0.037,0.487,0.088,0.739,0.088c0.288,0,0.569-0.07,0.844-0.117l-0.232,0.941H26.074z M28.812,33.561
	c0.911-2.644-0.031-5.068-0.612-6.189c1.212,0.598,2.048,1.842,2.048,3.285C30.248,31.84,29.684,32.891,28.812,33.561z"/>
<g>
	<path fill="#EDA989" d="M9.635,22.732H2.162L0,17.307l0.707-0.32c0.286,0.559,1.26,2.009,2.309,2.009
		c0.864,0,1.74-0.994,2.532-2.874l0.357-0.849l0.357,0.849c0.792,1.88,1.667,2.874,2.528,2.874c1.045,0,2.015-1.45,2.299-2.008
		l0.707,0.319L9.635,22.732z M6.268,21.955h2.841l1.068-2.678c-0.404,0.29-0.872,0.494-1.385,0.494
		c-1.064,0-2.033-0.862-2.887-2.567c-0.853,1.704-1.823,2.567-2.89,2.567l0,0c-0.518,0-0.989-0.207-1.396-0.501l1.069,2.685H6.268z"
		/>
</g>
<path fill="#EDA989" d="M24.269,16.042l-0.12-0.218c-1.268-2.276-3.295-1.851-3.943-1.643c-0.647-0.208-2.676-0.633-3.942,1.643
	l-0.121,0.218c-0.854,0.32-1.838,1.189-1.887,3.092c-0.004,0.172,0.076,0.334,0.218,0.431l3.005,2.132l-0.709,2.301h3.42h0.013h3.42
	l-0.704-2.289l3.021-2.126c0.142-0.097,0.223-0.269,0.218-0.44C26.106,17.24,25.123,16.362,24.269,16.042z M18.354,22.473
	l0.905,0.633h-1.104L18.354,22.473z M22.234,23.105h-1.083l0.889-0.621L22.234,23.105z M20.205,22.322l-4.917-3.43
	c0.119-1.352,0.846-1.783,1.289-1.921l1.616,3.326l0.917-0.445l-1.717-3.534c-0.014-0.087-0.085-0.166-0.136-0.232
	c0.8-1.213,1.763-1.135,2.357-1.001v4.745h0.084h1.012h0.096v-4.744c0.298-0.129,1.549-0.21,2.351,0.999
	c-0.052,0.067-0.107,0.148-0.12,0.236l-1.726,3.531l0.911,0.445l1.613-3.327c0.44,0.137,1.168,0.568,1.287,1.923L20.205,22.322z"/>
<path fill="#EDA989" d="M30.353,9.515c0,1.055-0.881,1.914-1.964,1.914c-0.368,0-0.721-0.104-1.024-0.285h0.562l-0.613-1.229
	c1.939-0.507,3.377-2.269,3.377-4.365c0-2.49-2.026-4.516-4.517-4.516c-2.489,0-4.516,2.026-4.516,4.516
	c0,2.096,1.438,3.858,3.378,4.365l-0.613,1.229h1.326c0.565,0.886,1.563,1.442,2.641,1.442c1.722,0,3.122-1.377,3.122-3.071H30.353z
	 M22.814,5.55c0-1.853,1.507-3.358,3.358-3.358c1.853,0,3.358,1.506,3.358,3.358c0,1.852-1.506,3.359-3.357,3.359
	C24.321,8.909,22.814,7.401,22.814,5.55z"/>
<path fill="#EDA989" d="M39.962,17.468c-0.086-0.293-0.215-0.54-0.42-0.734C39.292,16.5,39,16.367,38.658,16.34
	c-0.207-0.016-0.409,0.009-0.621,0.077c-0.116,0.036-0.225,0.088-0.332,0.146c0.071-0.237,0.117-0.483,0.126-0.736
	c0.007-0.229-0.015-0.456-0.064-0.671c-0.068-0.286-0.181-0.54-0.338-0.756c-0.251-0.345-0.589-0.596-0.981-0.672l-0.029-0.057
	h-0.477l-0.037,0.056c-0.186,0.032-0.363,0.113-0.53,0.205c-0.234,0.13-0.446,0.318-0.632,0.548c-0.19,0.237-0.34,0.516-0.441,0.817
	c-0.011,0.026-0.015,0.057-0.022,0.083c-0.026-0.092-0.056-0.182-0.092-0.27c-0.14-0.344-0.337-0.635-0.586-0.866
	c-0.186-0.174-0.396-0.304-0.618-0.385c-0.291-0.106-0.596-0.123-0.885-0.049c-0.284,0.071-0.537,0.224-0.752,0.453
	c-0.165,0.176-0.295,0.39-0.389,0.633c-0.107,0.277-0.161,0.577-0.161,0.895c-0.003,0.052,0.001,0.131,0.007,0.199
	c0.014,0.175,0.041,0.347,0.085,0.513c0.002,0.008,0.005,0.015,0.009,0.023c-0.096-0.05-0.193-0.097-0.296-0.128
	c-0.249-0.078-0.492-0.095-0.748-0.045c-0.315,0.063-0.585,0.22-0.801,0.464c-0.169,0.19-0.292,0.422-0.364,0.688
	c-0.027,0.1-0.046,0.195-0.057,0.29l-0.018,0.367l0.031,0.245c0.037,0.255,0.117,0.503,0.236,0.738
	c0.124,0.247,0.283,0.465,0.473,0.645c0.221,0.211,0.471,0.363,0.742,0.452c0.162,0.051,0.324,0.078,0.482,0.078
	c0.078,0,0.156-0.006,0.234-0.019c0.037-0.007,0.072-0.02,0.108-0.027c-0.081,0.088-0.159,0.177-0.229,0.271
	c-0.216,0.281-0.379,0.584-0.484,0.897c-0.074,0.221-0.117,0.443-0.13,0.66c-0.013,0.203,0,0.404,0.04,0.6
	c0.112,0.529,0.393,0.957,0.834,1.275c0.264,0.193,0.568,0.307,0.904,0.338c0.041,0.004,0.083,0.006,0.125,0.008
	c0.047,0.006,0.121,0.008,0.189,0.004c0.12,0,0.238-0.016,0.357-0.035c0.254-0.041,0.493-0.107,0.762-0.18
	c0.184-0.051,0.368-0.1,0.554-0.135c0.083-0.018,0.166-0.031,0.248-0.033l0.112-0.002c0.073,0,0.148,0.004,0.224,0.012
	c0.161,0.018,0.331,0.051,0.52,0.098c0.096,0.027,0.191,0.053,0.288,0.08c0.146,0.039,0.291,0.08,0.44,0.115
	c0.135,0.031,0.269,0.061,0.412,0.074l0.521,0.01l0.066-0.021c0.062-0.01,0.124-0.021,0.188-0.037
	c0.238-0.059,0.468-0.166,0.683-0.316c0.291-0.203,0.516-0.459,0.666-0.76c0.163-0.322,0.235-0.68,0.216-1.057
	c-0.012-0.223-0.056-0.449-0.134-0.676c-0.086-0.258-0.214-0.508-0.381-0.75c-0.118-0.173-0.26-0.333-0.411-0.488
	c0.137,0.051,0.28,0.085,0.433,0.094c0.029,0.002,0.058,0.002,0.088,0.002c0.189,0,0.379-0.033,0.565-0.101
	c0.306-0.11,0.581-0.295,0.821-0.55c0.169-0.18,0.275-0.386,0.387-0.614C39.939,18.755,40,18.446,40,18.11v-0.047
	c0-0.026,0-0.053,0-0.08v-0.046v-0.015C40,17.772,40.006,17.618,39.962,17.468z M35.303,15.647c0.064-0.189,0.151-0.351,0.266-0.492
	c0.101-0.123,0.205-0.214,0.323-0.278c0.072-0.042,0.146-0.065,0.224-0.077l0.079-0.001c0.013,0.001,0.023,0.001,0.037,0.001
	c0.139,0.022,0.242,0.091,0.341,0.226c0.073,0.103,0.127,0.225,0.161,0.373c0.03,0.127,0.043,0.258,0.038,0.396
	c-0.009,0.259-0.068,0.498-0.181,0.733c-0.076,0.16-0.17,0.293-0.285,0.405c-0.104,0.1-0.207,0.17-0.315,0.21
	c-0.065,0.023-0.125,0.035-0.181,0.035l-0.026-0.001c-0.117-0.006-0.21-0.05-0.3-0.137c-0.085-0.083-0.15-0.189-0.199-0.327
	c-0.035-0.094-0.058-0.193-0.07-0.306c-0.009-0.074-0.013-0.148-0.01-0.226C35.209,15.998,35.241,15.824,35.303,15.647z
	 M36.562,19.143c-0.013-0.021-0.028-0.042-0.04-0.061l-0.086-0.134c-0.082-0.13-0.165-0.259-0.254-0.387
	c-0.089-0.127-0.175-0.233-0.261-0.333c0.144-0.011,0.29-0.037,0.436-0.091c0.078-0.029,0.15-0.073,0.225-0.112
	c-0.05,0.18-0.082,0.365-0.088,0.554C36.488,18.775,36.514,18.961,36.562,19.143z M34.255,16.973
	c0.011,0.033,0.019,0.069,0.03,0.103c0.052,0.143,0.116,0.275,0.191,0.396c-0.093-0.01-0.187-0.016-0.282-0.016h-0.063
	c-0.04,0.001-0.08,0.011-0.12,0.015C34.112,17.317,34.193,17.153,34.255,16.973z M31.947,15.28c0.045-0.119,0.104-0.215,0.174-0.29
	c0.074-0.08,0.148-0.126,0.235-0.148c0.035-0.009,0.068-0.013,0.103-0.013c0.052,0,0.104,0.01,0.16,0.03
	c0.09,0.032,0.176,0.087,0.258,0.164c0.139,0.128,0.244,0.287,0.326,0.49c0.051,0.121,0.085,0.251,0.105,0.389
	c0.012,0.075,0.018,0.149,0.019,0.23c0.003,0.097-0.004,0.19-0.019,0.278c-0.034,0.2-0.098,0.36-0.194,0.492
	c-0.056,0.077-0.118,0.133-0.189,0.172c-0.063,0.034-0.126,0.05-0.195,0.05l-0.036-0.001c-0.078-0.006-0.155-0.032-0.234-0.08
	c-0.115-0.068-0.217-0.164-0.309-0.292c-0.107-0.149-0.186-0.318-0.236-0.516c-0.027-0.104-0.045-0.211-0.055-0.331
	c-0.001-0.026-0.004-0.053-0.003-0.089C31.856,15.608,31.885,15.439,31.947,15.28z M32.077,18.261
	c-0.013-0.086-0.032-0.172-0.054-0.256c0.19,0.095,0.387,0.161,0.588,0.177c0.02,0.001,0.039,0.001,0.059,0.001
	c-0.084,0.092-0.169,0.189-0.26,0.308c-0.118,0.153-0.23,0.312-0.342,0.47l-0.006,0.008c0.025-0.136,0.04-0.273,0.038-0.416
	C32.099,18.456,32.091,18.358,32.077,18.261z M31.009,18.85c-0.03,0.115-0.073,0.203-0.136,0.274
	c-0.066,0.075-0.137,0.116-0.23,0.13c-0.072,0.013-0.143,0.005-0.221-0.021c-0.118-0.04-0.229-0.108-0.336-0.211
	c-0.104-0.099-0.188-0.214-0.258-0.354c-0.068-0.135-0.113-0.276-0.139-0.438l-0.012-0.093l0.008-0.15l-0.004-0.007l0.001-0.028
	c0.003-0.05,0.012-0.103,0.028-0.164c0.03-0.11,0.074-0.196,0.135-0.266s0.131-0.108,0.213-0.126
	c0.075-0.014,0.147-0.008,0.229,0.018c0.105,0.032,0.203,0.088,0.302,0.175c0.151,0.129,0.267,0.294,0.351,0.503
	c0.043,0.105,0.072,0.211,0.088,0.322c0.008,0.052,0.012,0.105,0.012,0.157C31.041,18.67,31.031,18.762,31.009,18.85z
	 M37.263,22.719c-0.073,0.145-0.18,0.264-0.326,0.367c-0.11,0.078-0.219,0.127-0.329,0.156c-0.043,0.01-0.085,0.018-0.111,0.021
	l-0.222,0.004c-0.011,0-0.022,0-0.033,0c-0.097-0.004-0.206-0.027-0.327-0.055c-0.132-0.031-0.263-0.066-0.394-0.104
	c-0.104-0.029-0.209-0.059-0.313-0.086c-0.233-0.059-0.449-0.1-0.657-0.123c-0.115-0.014-0.232-0.02-0.347-0.02l-0.147,0.002
	c-0.137,0.006-0.272,0.025-0.409,0.051c-0.214,0.041-0.426,0.098-0.675,0.164c-0.204,0.057-0.417,0.115-0.617,0.146
	c-0.061,0.01-0.122,0.021-0.196,0.021c-0.027,0.004-0.036,0-0.057,0.002l-0.148-0.01c-0.146-0.014-0.27-0.059-0.381-0.139
	c-0.229-0.164-0.36-0.367-0.417-0.635c-0.021-0.102-0.026-0.201-0.02-0.316c0.007-0.129,0.032-0.254,0.077-0.387
	c0.068-0.205,0.174-0.4,0.32-0.592c0.105-0.139,0.229-0.268,0.368-0.388c0.165-0.143,0.323-0.303,0.481-0.492
	c0.182-0.216,0.342-0.437,0.486-0.644l0.068-0.095c0.102-0.146,0.203-0.291,0.312-0.432c0.104-0.135,0.193-0.238,0.281-0.323
	c0.123-0.118,0.233-0.195,0.351-0.242c0.087-0.036,0.177-0.056,0.312-0.058c0.126,0,0.242,0.014,0.36,0.043
	c0.176,0.042,0.326,0.126,0.464,0.257c0.095,0.091,0.188,0.203,0.293,0.353c0.08,0.115,0.155,0.232,0.229,0.35l0.09,0.14
	c0.115,0.18,0.256,0.391,0.423,0.598c0.162,0.201,0.341,0.39,0.53,0.555c0.18,0.156,0.329,0.323,0.454,0.504
	c0.112,0.164,0.194,0.324,0.251,0.49c0.045,0.135,0.071,0.264,0.078,0.391C37.376,22.391,37.343,22.561,37.263,22.719z
	 M39.01,18.085c-0.008,0.169-0.053,0.336-0.136,0.509c-0.063,0.131-0.144,0.249-0.239,0.35c-0.126,0.133-0.26,0.225-0.409,0.278
	c-0.072,0.026-0.139,0.039-0.205,0.039l-0.029-0.002c-0.104-0.006-0.184-0.038-0.256-0.105c-0.062-0.06-0.107-0.135-0.142-0.235
	c-0.03-0.095-0.044-0.194-0.04-0.307c0.008-0.255,0.086-0.491,0.239-0.723c0.047-0.071,0.101-0.138,0.161-0.199
	c0.13-0.129,0.266-0.143,0.41-0.189c0.061-0.02,0.115,0.044,0.2,0.044c0.007,0,0.013,0,0.02,0c0.101,0,0.177-0.031,0.248,0.036
	c0.067,0.062,0.113,0.107,0.147,0.222c0.018,0.063,0.028,0.107,0.03,0.168C39.008,18.017,39.008,18.048,39.01,18.085z"/>
</svg>
