<?xml version="1.0" encoding="utf-8"?>
<!-- Generator: Adobe Illustrator 16.0.0, SVG Export Plug-In . SVG Version: 6.00 Build 0)  -->
<!DOCTYPE svg PUBLIC "-//W3C//DTD SVG 1.1//EN" "http://www.w3.org/Graphics/SVG/1.1/DTD/svg11.dtd">
<svg version="1.1" id="Layer_1" xmlns="http://www.w3.org/2000/svg" xmlns:xlink="http://www.w3.org/1999/xlink" x="0px" y="0px"
	 width="40px" height="40px" viewBox="0 0 40 40" enable-background="new 0 0 40 40" xml:space="preserve">
<path fill="#FFFFFF" d="M40,36.888L28.653,25.541c1.979-2.628,3.169-5.884,3.169-9.42c0-8.658-7.043-15.701-15.701-15.701
	C7.463,0.42,0.42,7.463,0.42,16.121c0,8.658,7.043,15.701,15.701,15.701c3.536,0,6.792-1.189,9.42-3.169L36.888,40L40,36.888z
	 M16.121,27.42c-6.23,0-11.299-5.068-11.299-11.299S9.891,4.822,16.121,4.822S27.42,9.891,27.42,16.121S22.352,27.42,16.121,27.42z"
	/>
</svg>
