<?xml version="1.0" encoding="utf-8"?>
<!-- Generator: Adobe Illustrator 16.0.0, SVG Export Plug-In . SVG Version: 6.00 Build 0)  -->
<!DOCTYPE svg PUBLIC "-//W3C//DTD SVG 1.1//EN" "http://www.w3.org/Graphics/SVG/1.1/DTD/svg11.dtd">
<svg version="1.1" id="Layer_1" xmlns="http://www.w3.org/2000/svg" xmlns:xlink="http://www.w3.org/1999/xlink" x="0px" y="0px"
	 width="109.224px" height="35.274px" viewBox="0 0 109.224 35.274" enable-background="new 0 0 109.224 35.274"
	 xml:space="preserve">
<path fill="none" stroke="#FFFFFF" stroke-miterlimit="10" d="M1381.166,377.146v-0.02c3.598-0.167,6.467-3.136,6.467-6.779
	c0.014-3.524-2.675-6.407-6.114-6.746c-0.016-0.016-0.03-0.035-0.042-0.06c-1.055,0.075-2.131-0.244-3.002-0.975
	c-0.129-0.11-0.254-0.229-0.366-0.354c-0.406-0.844-0.985-1.616-1.753-2.258c-1.242-1.042-2.752-1.56-4.253-1.585
	c0,0-64.684,0-64.854,0c-0.93,0-1.781-0.312-2.463-0.841l-7.584-13.149l-0.033,0.02c-0.777-1.504-2.351-2.527-4.159-2.527
	c-2.589,0-4.69,2.102-4.69,4.691c0,0.055,0.007,0.104,0.007,0.162h-0.007v15.208c0,8.395,6.805,15.208,15.209,15.208
	c0.217,0,0.646,0,0.646,0L1381.166,377.146z"/>
<path fill="none" stroke="#FFFFFF" stroke-miterlimit="10" d="M1308.269,361.64c-1.238,0-2.239,1.001-2.239,2.24v0.189
	c0,1.239,1.001,2.24,2.239,2.24c1.239,0,2.24-1.001,2.24-2.24v-0.189C1310.509,362.641,1309.508,361.64,1308.269,361.64z"/>
<path fill="none" stroke="#FFFFFF" stroke-miterlimit="10" d="M1315.354,361.64c-1.238,0-2.239,1.001-2.239,2.24v0.189
	c0,1.239,1.001,2.24,2.239,2.24c1.239,0,2.24-1.001,2.24-2.24v-0.189C1317.594,362.641,1316.593,361.64,1315.354,361.64z"/>
<path fill="none" stroke="#FFFFFF" stroke-miterlimit="10" d="M1322.438,361.64c-1.238,0-2.239,1.001-2.239,2.24v0.189
	c0,1.239,1.001,2.24,2.239,2.24c1.239,0,2.24-1.001,2.24-2.24v-0.189C1324.679,362.641,1323.678,361.64,1322.438,361.64z"/>
<path fill="none" stroke="#FFFFFF" stroke-miterlimit="10" d="M1329.523,361.64c-1.238,0-2.239,1.001-2.239,2.24v0.189
	c0,1.239,1.001,2.24,2.239,2.24c1.239,0,2.24-1.001,2.24-2.24v-0.189C1331.764,362.641,1330.763,361.64,1329.523,361.64z"/>
<path fill="none" stroke="#FFFFFF" stroke-miterlimit="10" d="M1336.608,361.64c-1.238,0-2.239,1.001-2.239,2.24v0.189
	c0,1.239,1.001,2.24,2.239,2.24c1.239,0,2.24-1.001,2.24-2.24v-0.189C1338.849,362.641,1337.848,361.64,1336.608,361.64z"/>
<path fill="none" stroke="#FFFFFF" stroke-miterlimit="10" d="M1343.693,361.64c-1.238,0-2.239,1.001-2.239,2.24v0.189
	c0,1.239,1.001,2.24,2.239,2.24c1.239,0,2.24-1.001,2.24-2.24v-0.189C1345.934,362.641,1344.933,361.64,1343.693,361.64z"/>
<path fill="none" stroke="#FFFFFF" stroke-miterlimit="10" d="M1350.778,361.64c-1.238,0-2.239,1.001-2.239,2.24v0.189
	c0,1.239,1.001,2.24,2.239,2.24c1.239,0,2.24-1.001,2.24-2.24v-0.189C1353.019,362.641,1352.018,361.64,1350.778,361.64z"/>
<path fill="none" stroke="#FFFFFF" stroke-miterlimit="10" d="M1357.863,361.64c-1.238,0-2.239,1.001-2.239,2.24v0.189
	c0,1.239,1.001,2.24,2.239,2.24c1.239,0,2.24-1.001,2.24-2.24v-0.189C1360.104,362.641,1359.103,361.64,1357.863,361.64z"/>
<path fill="none" stroke="#FFFFFF" stroke-miterlimit="10" d="M1372.041,361.64c-1.238,0-2.239,1.001-2.239,2.24v0.189
	c0,1.239,1.001,2.24,2.239,2.24c1.239,0,2.24-1.001,2.24-2.24v-0.189C1374.281,362.641,1373.28,361.64,1372.041,361.64z"/>
<path fill="none" stroke="#FFFFFF" stroke-miterlimit="10" d="M1354.536,372.262c0,0.996-0.831,1.805-1.854,1.805h-22.23
	c-1.024,0-1.854-0.809-1.854-1.805v-0.203c0-0.997,0.829-1.806,1.854-1.806h22.23c1.023,0,1.854,0.809,1.854,1.806V372.262z"/>
<path fill="none" stroke="#FFFFFF" stroke-miterlimit="10" d="M1300.095,363.648c0,0.996-0.831,1.805-1.854,1.805h-17.978
	c-1.024,0-1.854-0.809-1.854-1.805v-0.203c0-0.997,0.829-1.806,1.854-1.806h17.978c1.023,0,1.854,0.809,1.854,1.806V363.648z"/>
<path fill="none" stroke="#FFFFFF" stroke-miterlimit="10" d="M1291.047,348.077h1.646l0.996,3.299h0.014l0.982-3.299h1.652v5.013
	h-1.178l0.04-3.753l-0.014-0.014l-1.07,3.767h-0.847l-1.07-3.767l-0.014,0.014l0.041,3.753h-1.179V348.077z"/>
<path fill="none" stroke="#FFFFFF" stroke-miterlimit="10" d="M1296.279,356.321c-0.291,1.186-1.321,1.971-2.533,1.971
	c-1.571,0-2.642-1.253-2.642-2.608c0-1.28,0.988-2.594,2.629-2.594c1.571,0,2.411,1.212,2.546,1.998h-1.341
	c-0.143-0.373-0.521-0.874-1.213-0.874c-0.859,0-1.341,0.752-1.341,1.463c0,0.759,0.515,1.49,1.349,1.49
	c0.799,0,1.124-0.67,1.205-0.847H1296.279z"/>
<g>
	<path fill="none" stroke="#FFFFFF" stroke-miterlimit="10" d="M102.757,35.274v-0.02c3.598-0.167,6.467-3.136,6.467-6.779
		c0.014-3.524-2.675-6.407-6.114-6.746c-0.016-0.016-0.03-0.035-0.042-0.06c-1.055,0.075-2.131-0.244-3.002-0.975
		c-0.129-0.11-0.254-0.229-0.366-0.354c-0.406-0.844-0.985-1.616-1.753-2.258c-1.242-1.042-2.752-1.56-4.253-1.585
		c0,0-64.684,0-64.854,0c-0.93,0-1.781-0.312-2.463-0.841L18.792,2.507l-0.033,0.02C17.981,1.022,16.408,0,14.6,0
		c-2.589,0-4.69,2.102-4.69,4.691c0,0.055,0.007,0.104,0.007,0.162H9.909v15.208c0,8.395,6.805,15.208,15.209,15.208
		c0.217,0,0.646,0,0.646,0L102.757,35.274z"/>
	<path fill="none" stroke="#FFFFFF" stroke-miterlimit="10" d="M29.859,19.768c-1.238,0-2.239,1.001-2.239,2.24v0.189
		c0,1.239,1.001,2.24,2.239,2.24c1.239,0,2.24-1.001,2.24-2.24v-0.189C32.1,20.769,31.099,19.768,29.859,19.768z"/>
	<path fill="none" stroke="#FFFFFF" stroke-miterlimit="10" d="M36.944,19.768c-1.238,0-2.239,1.001-2.239,2.24v0.189
		c0,1.239,1.001,2.24,2.239,2.24c1.239,0,2.24-1.001,2.24-2.24v-0.189C39.185,20.769,38.184,19.768,36.944,19.768z"/>
	<path fill="none" stroke="#FFFFFF" stroke-miterlimit="10" d="M44.029,19.768c-1.238,0-2.239,1.001-2.239,2.24v0.189
		c0,1.239,1.001,2.24,2.239,2.24c1.239,0,2.24-1.001,2.24-2.24v-0.189C46.27,20.769,45.269,19.768,44.029,19.768z"/>
	<path fill="none" stroke="#FFFFFF" stroke-miterlimit="10" d="M51.114,19.768c-1.238,0-2.239,1.001-2.239,2.24v0.189
		c0,1.239,1.001,2.24,2.239,2.24c1.239,0,2.24-1.001,2.24-2.24v-0.189C53.354,20.769,52.354,19.768,51.114,19.768z"/>
	<path fill="none" stroke="#FFFFFF" stroke-miterlimit="10" d="M58.199,19.768c-1.238,0-2.239,1.001-2.239,2.24v0.189
		c0,1.239,1.001,2.24,2.239,2.24c1.239,0,2.24-1.001,2.24-2.24v-0.189C60.439,20.769,59.438,19.768,58.199,19.768z"/>
	<path fill="none" stroke="#FFFFFF" stroke-miterlimit="10" d="M65.284,19.768c-1.238,0-2.239,1.001-2.239,2.24v0.189
		c0,1.239,1.001,2.24,2.239,2.24c1.239,0,2.24-1.001,2.24-2.24v-0.189C67.524,20.769,66.523,19.768,65.284,19.768z"/>
	<path fill="none" stroke="#FFFFFF" stroke-miterlimit="10" d="M72.369,19.768c-1.238,0-2.239,1.001-2.239,2.24v0.189
		c0,1.239,1.001,2.24,2.239,2.24c1.239,0,2.24-1.001,2.24-2.24v-0.189C74.609,20.769,73.608,19.768,72.369,19.768z"/>
	<path fill="none" stroke="#FFFFFF" stroke-miterlimit="10" d="M79.454,19.768c-1.238,0-2.239,1.001-2.239,2.24v0.189
		c0,1.239,1.001,2.24,2.239,2.24c1.239,0,2.24-1.001,2.24-2.24v-0.189C81.694,20.769,80.693,19.768,79.454,19.768z"/>
	<path fill="none" stroke="#FFFFFF" stroke-miterlimit="10" d="M93.632,19.768c-1.238,0-2.239,1.001-2.239,2.24v0.189
		c0,1.239,1.001,2.24,2.239,2.24c1.239,0,2.24-1.001,2.24-2.24v-0.189C95.872,20.769,94.871,19.768,93.632,19.768z"/>
	<path fill="none" stroke="#FFFFFF" stroke-miterlimit="10" d="M76.127,30.391c0,0.996-0.831,1.805-1.854,1.805h-22.23
		c-1.024,0-1.854-0.809-1.854-1.805v-0.203c0-0.997,0.829-1.806,1.854-1.806h22.23c1.023,0,1.854,0.809,1.854,1.806V30.391z"/>
	<path fill="none" stroke="#FFFFFF" stroke-miterlimit="10" d="M21.686,21.776c0,0.996-0.831,1.805-1.854,1.805H1.854
		C0.829,23.582,0,22.772,0,21.776v-0.203c0-0.997,0.829-1.806,1.854-1.806h17.978c1.023,0,1.854,0.809,1.854,1.806V21.776z"/>
	<path fill="none" stroke="#FFFFFF" stroke-miterlimit="10" d="M12.638,6.206h1.646l0.996,3.299h0.014l0.982-3.299h1.652v5.013
		H16.75l0.04-3.753l-0.014-0.014l-1.07,3.767h-0.847l-1.07-3.767l-0.014,0.014l0.041,3.753h-1.179V6.206z"/>
	<path fill="none" stroke="#FFFFFF" stroke-miterlimit="10" d="M17.87,14.449c-0.291,1.186-1.321,1.971-2.533,1.971
		c-1.571,0-2.642-1.253-2.642-2.608c0-1.28,0.988-2.594,2.629-2.594c1.571,0,2.411,1.212,2.546,1.998h-1.341
		c-0.143-0.373-0.521-0.874-1.213-0.874c-0.859,0-1.341,0.752-1.341,1.463c0,0.759,0.515,1.49,1.349,1.49
		c0.799,0,1.124-0.67,1.205-0.847H17.87z"/>
</g>
</svg>
