<?xml version="1.0" encoding="utf-8"?>
<!-- Generator: Adobe Illustrator 16.0.0, SVG Export Plug-In . SVG Version: 6.00 Build 0)  -->
<!DOCTYPE svg PUBLIC "-//W3C//DTD SVG 1.1//EN" "http://www.w3.org/Graphics/SVG/1.1/DTD/svg11.dtd">
<svg version="1.1" id="" xmlns="http://www.w3.org/2000/svg" xmlns:xlink="http://www.w3.org/1999/xlink" x="0px" y="0px"
	 width="382.994px" height="387.075px" viewBox="0 0 382.994 387.075" enable-background="new 0 0 382.994 387.075"
	 xml:space="preserve">
<g>
	<path fill="#FFFFFF" d="M144.95,172.408c11.677,0,21.13-9.459,21.13-21.127c0-11.693-9.453-21.133-21.13-21.133
		c-11.69,0-21.156,9.439-21.156,21.133C123.794,162.949,133.26,172.408,144.95,172.408z"/>
	<path fill="#FFFFFF" d="M237.171,172.408c11.693,0,21.141-9.459,21.141-21.127c0-11.693-9.447-21.133-21.141-21.133
		c-11.664,0-21.133,9.439-21.133,21.133C216.039,162.949,225.507,172.408,237.171,172.408z"/>
	<path fill="#FFFFFF" d="M191.081,7.229C88.275,7.229,4.646,90.89,4.646,193.685c0,102.792,83.629,186.434,186.434,186.434
		c102.81,0,186.413-83.643,186.413-186.434C377.494,90.89,293.89,7.229,191.081,7.229z M191.081,332.32
		c-76.449,0-138.646-62.211-138.646-138.635c0-76.45,62.197-138.636,138.646-138.636c76.431,0,138.606,62.186,138.606,138.636
		C329.687,270.109,267.511,332.32,191.081,332.32z"/>
	<path fill="#FFFFFF" d="M299.32,193.685H251.5c0,33.159-26.988,60.125-60.156,60.125c-33.16,0-60.146-26.967-60.146-60.125H83.4
		c0,59.518,48.424,107.946,107.943,107.946C250.88,301.63,299.32,253.203,299.32,193.685z"/>
</g>
</svg>