<?xml version="1.0" encoding="utf-8"?>
<!-- Generator: Adobe Illustrator 16.0.0, SVG Export Plug-In . SVG Version: 6.00 Build 0)  -->
<!DOCTYPE svg PUBLIC "-//W3C//DTD SVG 1.1//EN" "http://www.w3.org/Graphics/SVG/1.1/DTD/svg11.dtd">
<svg version="1.1" id="Layer_1" xmlns="http://www.w3.org/2000/svg" xmlns:xlink="http://www.w3.org/1999/xlink" x="0px" y="0px"
	 width="2062px" height="911.434px" viewBox="0 0 2062 911.434" enable-background="new 0 0 2062 911.434" xml:space="preserve">
<path fill="#FFFFFF" d="M2061.461,617.875C2046.764,474.875,1654,369.421,1519,365.243v-48.367h-108v-156h-62.389l-37.814-59
	h-76.918C1189.459,37.875,1117.029,0,1039.154,0C961.354,0,889,37.875,844.529,101.875h-76.993l-37.866,59H663v156H556v48.367
	C418,369.346,15.989,474.875,0.938,617.875H0v7.709v8.219v58.072h370.674c58.11,88,155.649,140.92,261.306,140.92
	c35.698,0,70.287-6.558,102.934-17.915c80.951,61.804,180.658,96.554,285.887,96.554c102.58,0,200.02-33.07,279.887-92.101
	c28.486,8.433,58.26,13.472,88.865,13.472c105.707,0,203.197-52.93,261.332-140.93H2062v-58.072v-8.219v-7.709H2061.461z"/>
<g>
	<path fill="#231F20" d="M746.922,197.694c-27.076,0-49.211,22.078-49.211,49.242c0,27.139,22.135,49.192,49.211,49.192
		c27.101,0,49.186-22.053,49.186-49.192C796.107,219.772,774.023,197.694,746.922,197.694z M746.922,279.71
		c-18.126,0-32.773-14.761-32.773-32.773c0-18.12,14.647-32.862,32.773-32.862s32.824,14.742,32.824,32.862
		C779.746,264.949,765.048,279.71,746.922,279.71z"/>
	<path fill="#231F20" d="M863.47,197.694c-27.126,0-49.211,22.078-49.211,49.242c0,27.139,22.084,49.192,49.211,49.192
		c27.151,0,49.21-22.053,49.21-49.192C912.68,219.772,890.621,197.694,863.47,197.694z M863.47,279.71
		c-18.126,0-32.774-14.761-32.774-32.773c0-18.12,14.647-32.862,32.774-32.862c18.101,0,32.849,14.742,32.849,32.862
		C896.319,264.949,881.571,279.71,863.47,279.71z"/>
	<path fill="#231F20" d="M979.967,197.694c-27.101,0-49.186,22.078-49.186,49.242c0,27.139,22.084,49.192,49.186,49.192
		c27.202,0,49.337-22.053,49.337-49.192C1029.304,219.772,1007.169,197.694,979.967,197.694z M979.967,279.71
		c-18.126,0-32.798-14.761-32.798-32.773c0-18.12,14.672-32.862,32.798-32.862c18.101,0,32.875,14.742,32.875,32.862
		C1012.841,264.949,998.068,279.71,979.967,279.71z"/>
	<path fill="#231F20" d="M1096.564,197.694c-27.15,0-49.21,22.078-49.21,49.242c0,27.139,22.06,49.192,49.21,49.192
		c27.127,0,49.186-22.053,49.186-49.192C1145.75,219.772,1123.691,197.694,1096.564,197.694z M1096.564,279.71
		c-18.1,0-32.849-14.761-32.849-32.773c0-18.12,14.749-32.862,32.849-32.862c18.102,0,32.824,14.742,32.824,32.862
		C1129.389,264.949,1114.666,279.71,1096.564,279.71z"/>
	<path fill="#231F20" d="M1213.139,197.694c-27.152,0-49.262,22.078-49.262,49.242c0,27.139,22.109,49.192,49.262,49.192
		c27.15,0,49.211-22.053,49.211-49.192C1262.35,219.772,1240.289,197.694,1213.139,197.694z M1213.139,279.71
		c-18.102,0-32.85-14.761-32.85-32.773c0-18.12,14.748-32.862,32.85-32.862c18.051,0,32.773,14.742,32.773,32.862
		C1245.912,264.949,1231.189,279.71,1213.139,279.71z"/>
	<path fill="#231F20" d="M1329.711,197.694c-27.201,0-49.236,22.078-49.236,49.242c0,27.139,22.035,49.192,49.236,49.192
		c27.051,0,49.109-22.053,49.109-49.192C1378.82,219.772,1356.762,197.694,1329.711,197.694z M1329.711,279.71
		c-18.127,0-32.875-14.761-32.875-32.773c0-18.12,14.748-32.862,32.875-32.862c18,0,32.748,14.742,32.748,32.862
		C1362.459,264.949,1347.711,279.71,1329.711,279.71z"/>
	<path fill="#231F20" d="M2061.695,617.875C2046.998,474.875,1654,369.421,1519,365.243v-48.367h-108v-156h-62.154l-37.814-59
		h-76.918C1189.693,37.875,1117.264,0,1039.389,0c-77.8,0-150.154,37.875-194.625,101.875h-76.993l-37.866,59H663v156H556v48.367
		C418,369.346,16.223,474.875,1.172,617.875H0v7.709v8.219v58.072h370.908c58.11,88,155.649,140.92,261.306,140.92
		c35.698,0,70.287-6.558,102.934-17.915c80.951,61.804,180.658,96.554,285.887,96.554c102.58,0,200.02-33.07,279.887-92.101
		c28.486,8.433,58.26,13.472,88.865,13.472c105.707,0,203.197-52.93,261.332-140.93H2062v-58.072v-8.219v-7.709H2061.695z
		 M1039.389,16.52c68.295,0,132.254,31.336,174.053,84.701l-348.61,0.706C906.604,48.121,970.74,16.52,1039.389,16.52z
		 M776.721,117.875h56.749l-0.025,0.063l28.992-0.063h439.644l27.379,43H749.443L776.721,117.875z M679,176.875h40.367h640.042H1394
		v140H679V176.875z M572,332.875h91.097h747.766H1502v32H572V332.875z M564.096,380.875h946.5c146.775,0,519.059,112,534.939,237
		H17.408C33.643,486.875,432.75,380.875,564.096,380.875z M719.72,802.612c-27.983,8.647-57.303,13.664-87.505,13.664
		c-95.573,0-184.212-45.494-239.978-122.411l237.054,0.011h242.902c-34.236,47-80.9,82.415-133.867,102.696L719.72,802.612z
		 M1021.035,895.046c-97.968,0-191.121-31.04-267.735-86.882c56.396-23.686,105.43-63.289,140.22-116.289h234.937
		c37.463,57,91.312,98.604,153.127,121.357C1206.357,865.872,1116.002,895.046,1021.035,895.046z M1389.787,816.276
		c-24.932,0-49.311-3.252-72.857-9.177l-19.262-5.911c-58.74-19.173-110.648-56.03-147.809-107.321l479.805,0.013
		C1574,770.822,1485.41,816.276,1389.787,816.276z M2046,674.875H17v-41h2029V674.875z"/>
</g>
</svg>
