<?xml version="1.0" encoding="utf-8"?>
<!-- Generator: Adobe Illustrator 16.0.0, SVG Export Plug-In . SVG Version: 6.00 Build 0)  -->
<!DOCTYPE svg PUBLIC "-//W3C//DTD SVG 1.1//EN" "http://www.w3.org/Graphics/SVG/1.1/DTD/svg11.dtd">
<svg version="1.1" id="Layer_1" xmlns="http://www.w3.org/2000/svg" xmlns:xlink="http://www.w3.org/1999/xlink" x="0px" y="0px"
	 width="40px" height="40px" viewBox="0 0 40 40" enable-background="new 0 0 40 40" xml:space="preserve">
<path fill="#FFFFFF" d="M32.405,29.083c0,3.543-2.959,6.428-6.595,6.428c-1.237,0-2.422-0.349-3.441-0.959h1.885l-2.059-4.128
	c6.513-1.702,11.339-7.619,11.339-14.656c0-8.36-6.803-15.163-15.164-15.163c-8.36,0-15.163,6.803-15.163,15.163
	c0,7.037,4.827,12.954,11.34,14.656l-2.056,4.128h4.451c1.9,2.975,5.249,4.843,8.868,4.843c5.781,0,10.482-4.624,10.482-10.312
	H32.405z M7.094,15.768c0-6.219,5.058-11.276,11.276-11.276c6.219,0,11.277,5.058,11.277,11.276S24.59,27.047,18.371,27.047
	C12.152,27.047,7.094,21.986,7.094,15.768z"/>
</svg>
