<?xml version="1.0" encoding="utf-8"?>
<!-- Generator: Adobe Illustrator 16.0.0, SVG Export Plug-In . SVG Version: 6.00 Build 0)  -->
<!DOCTYPE svg PUBLIC "-//W3C//DTD SVG 1.1//EN" "http://www.w3.org/Graphics/SVG/1.1/DTD/svg11.dtd">
<svg version="1.1" id="Layer_1" xmlns="http://www.w3.org/2000/svg" xmlns:xlink="http://www.w3.org/1999/xlink" x="0px" y="0px"
	 width="200px" height="200px" viewBox="0 0 200 200" enable-background="new 0 0 200 200" xml:space="preserve">
<circle fill="#FFB492" cx="99.576" cy="99.999" r="95.915"/>
<path d="M172.514,109.056h8.123c5.842,0,8.039-3.832,8.039-8.9c0-3.96-1.534-6.09-4.146-7.283c2.488-1.021,3.565-3.79,3.565-6.43
	c0-5.238-2.444-8.134-7.955-8.134h-7.626V109.056z M177.651,82.653h1.948c2.278,0,3.355,1.491,3.355,4.344
	c0,2.555-1.49,3.918-3.438,3.918h-1.866V82.653z M177.651,95.258h1.658c3.066,0,4.226,1.576,4.226,4.727
	c0,3.109-0.993,4.728-3.729,4.728h-2.155V95.258z M151.995,101.306c0,5.281,2.983,8.176,7.873,8.176
	c4.892,0,7.873-2.895,7.873-8.176V78.309h-5.138v23.209c0,2.256-0.872,3.364-2.735,3.364s-2.735-1.108-2.735-3.364V78.309h-5.138
	V101.306z M146.974,88.572v-2.257c0-4.599-2.485-8.432-7.623-8.432c-5.388,0-7.876,3.534-7.876,7.878v15.842
	c0,4.344,2.488,7.878,7.876,7.878c5.138,0,7.623-3.534,7.623-7.878v-3.535h-5.137v3.705c0,2.001-0.623,3.109-2.486,3.109
	c-2.072,0-2.735-1.108-2.735-3.407V85.89c0-2.3,0.663-3.407,2.735-3.407c1.324,0,2.486,1.107,2.486,3.705v2.385H146.974z
	 M108.177,102.242h5.639l0.911,6.813h4.973l-5.512-30.747h-6.382l-5.511,30.747h4.972L108.177,102.242z M110.954,84.441h0.084
	l2.03,13.202h-4.144L110.954,84.441z M88.903,109.056V95.428h5.469v13.627h5.14V78.309h-5.14v12.52h-5.469v-12.52h-5.14v30.747
	H88.903z M70.829,109.056h5.14V82.909h4.971v-4.6H65.857v4.6h4.972V109.056z M55.078,102.242h5.635l0.912,6.813h4.973l-5.512-30.747
	h-6.381l-5.511,30.747h4.973L55.078,102.242z M57.854,84.441h0.083l2.031,13.202h-4.145L57.854,84.441z M37.75,97.643h3.274v2.982
	c0,3.064-0.745,4.258-2.818,4.258c-1.781,0-2.403-1.277-2.403-3.237V85.847c0-2.598,1.036-3.364,2.28-3.364
	c2.03,0,2.941,1.192,2.941,5.792h4.89v-1.959c0-4.599-2.569-8.432-7.708-8.432c-5.055,0-7.541,3.534-7.541,7.878v15.842
	c0,4.897,2.816,7.878,6.879,7.878c2.402,0,3.646-0.852,5.18-2.725l0.953,2.299h2.485V93.47H37.75V97.643z M16.361,102.242h5.635
	l0.913,6.813h4.972l-5.511-30.747h-6.381l-5.513,30.747h4.974L16.361,102.242z M19.138,84.441h0.083l2.031,13.202h-4.144
	L19.138,84.441z"/>
<path d="M178.547,117.639l-1.708-4.124l-0.734,0.305l2.038,4.769v3.197h0.795v-3.197l2.052-4.769l-0.735-0.305L178.547,117.639z
	 M171.653,121.785h0.795v-7.383h1.67v-0.729h-4.173v0.729h1.708V121.785z M165.115,121.057h-1.067v0.729h2.94v-0.729h-1.079v-6.654
	h1.079v-0.729h-2.94v0.729h1.067V121.057z M160.569,120.107c-0.297,0.499-0.782,1.021-1.4,1.021c-1.446,0-1.54-2.335-1.54-3.394
	c0-1.069,0.094-3.404,1.54-3.404c0.606,0,1.008,0.448,1.258,0.96l0.676-0.414c-0.417-0.778-1.032-1.313-1.934-1.313
	c-2.062,0-2.368,2.556-2.368,4.172c0,1.604,0.307,4.16,2.368,4.16c0.901,0,1.589-0.56,2.052-1.325L160.569,120.107z
	 M145.134,113.674h-0.794v8.111h0.794v-4.038h0.271l2.549,4.197l0.664-0.414l-2.598-4.171l2.171-3.431l-0.641-0.414l-2.203,3.504
	h-0.214V113.674z M137.825,121.785h0.795v-3.612h0.889l1.778,3.771l0.709-0.353l-1.635-3.479c0.972-0.342,1.363-1.29,1.363-2.287
	c0-1.46-0.984-2.152-1.766-2.152h-2.134V121.785z M138.62,114.402h0.972c0.806,0,1.304,0.365,1.304,1.424
	c0,1.094-0.429,1.618-1.113,1.618h-1.162V114.402z M132.946,114.331c1.398,0,1.363,1.859,1.363,3.393
	c0,1.41,0.011,3.405-1.363,3.405c-1.112,0-1.362-1.217-1.362-3.405C131.584,116.531,131.548,114.331,132.946,114.331z
	 M132.946,113.563c-2.109,0-2.192,2.821-2.192,4.16c0,1.046-0.059,4.172,2.192,4.172c2.229,0,2.193-3.15,2.193-4.172
	C135.14,116.653,135.175,113.563,132.946,113.563z M126.433,117.639l-1.706-4.124l-0.734,0.305l2.038,4.769v3.197h0.794v-3.197
	l2.05-4.769l-0.735-0.305L126.433,117.639z M115.075,113.515l-0.38,6.094h-0.022l-1.152-4.269h-0.236l-1.149,4.269h-0.023
	l-0.38-6.094l-0.793,0.159l0.793,8.271h0.345l1.313-4.902h0.024l1.318,4.902h0.343l0.794-8.271L115.075,113.515z M105.194,121.785
	h3.853v-0.729h-3.058v-3.247h2.525v-0.73h-2.525v-2.677h3.058v-0.729h-3.853V121.785z M98.313,121.785h0.795v-4.974l-0.036-1.837
	l0.024-0.024l2.347,6.835h0.994v-8.111h-0.795v4.987l0.036,1.811l-0.024,0.024l-2.347-6.822h-0.994V121.785z M85.865,122.115
	l3.508-9.415h-0.544l-3.509,9.415H85.865z M79.351,122.115l3.509-9.415h-0.546l-3.508,9.415H79.351z M67.803,114.331
	c0.841,0,1.375,0.267,1.375,3.404c0,3.017-0.461,3.394-1.375,3.394c-0.806,0-1.375-0.207-1.375-3.394
	C66.428,116.119,66.309,114.331,67.803,114.331z M67.803,113.563c-2.3,0-2.205,2.263-2.205,4.172c0,1.398-0.213,4.16,2.205,4.16
	s2.205-2.859,2.205-4.16C70.007,116.823,70.316,113.563,67.803,113.563z M61.288,114.331c0.842,0,1.377,0.267,1.377,3.404
	c0,3.017-0.463,3.394-1.377,3.394c-0.806,0-1.374-0.207-1.374-3.394C59.914,116.119,59.795,114.331,61.288,114.331z M61.288,113.563
	c-2.299,0-2.204,2.263-2.204,4.172c0,1.398-0.214,4.16,2.204,4.16c2.418,0,2.205-2.859,2.205-4.16
	C63.493,116.823,63.802,113.563,61.288,113.563z M54.775,114.331c0.842,0,1.375,0.267,1.375,3.404c0,3.017-0.463,3.394-1.375,3.394
	c-0.806,0-1.377-0.207-1.377-3.394C53.398,116.119,53.282,114.331,54.775,114.331z M54.775,113.563c-2.3,0-2.205,2.263-2.205,4.172
	c0,1.398-0.214,4.16,2.205,4.16c2.416,0,2.205-2.859,2.205-4.16C56.98,116.823,57.287,113.563,54.775,113.563z M41.199,121.785
	h1.092v-1.799h-1.092V121.785z M34.852,121.785h0.794v-7.383h1.672v-0.729h-4.172v0.729h1.706V121.785z M30.626,115.4
	c-0.202-1.021-0.747-1.837-1.862-1.837c-1.127,0-1.838,0.974-1.838,2.068c0,1.191,0.606,1.58,1.517,2.129
	c0.818,0.486,1.496,0.851,1.496,1.921c0,0.973-0.487,1.447-1.174,1.447c-0.961,0-1.149-0.681-1.256-1.581l-0.794,0.11
	c0.118,1.287,0.628,2.237,2.026,2.237c1.327,0,1.991-1.01,1.991-2.287c0-1.253-0.664-1.751-1.634-2.348
	c-1.246-0.765-1.376-0.972-1.376-1.629c0-0.682,0.297-1.301,1.044-1.301c0.675,0,0.961,0.596,1.091,1.19L30.626,115.4z
	 M20.509,121.785h3.853v-0.729h-3.059v-3.247h2.524v-0.73h-2.524v-2.677h3.059v-0.729h-3.853V121.785z"/>
</svg>
