<?xml version="1.0" encoding="utf-8"?>
<!-- Generator: Adobe Illustrator 16.0.0, SVG Export Plug-In . SVG Version: 6.00 Build 0)  -->
<!DOCTYPE svg PUBLIC "-//W3C//DTD SVG 1.1//EN" "http://www.w3.org/Graphics/SVG/1.1/DTD/svg11.dtd">
<svg version="1.1" id="Layer_1" xmlns="http://www.w3.org/2000/svg" xmlns:xlink="http://www.w3.org/1999/xlink" x="0px" y="0px"
	 width="200px" height="200px" viewBox="0 0 200 200" enable-background="new 0 0 200 200" xml:space="preserve">
<circle fill="#FFB492" cx="99.576" cy="99.999" r="95.915"/>
<g>
	<path fill="none" d="M48.759,93.738c0.02-0.005,0.039-0.01,0.058-0.015c0.058,0.129,0.118,0.256,0.173,0.387
		c2.839,6.775,5.678,13.551,8.511,20.329c0.089,0.214,0.195,0.29,0.429,0.288c2.016-0.011,4.032-0.007,6.048-0.008
		c0.11,0,0.219-0.01,0.32-0.015c0-10.688,0-21.341,0-32.003c-1.966,0-3.907,0-5.899,0c0,6.986,0,13.959,0,20.932
		c-0.092-0.059-0.121-0.122-0.146-0.188c-2.727-6.822-5.456-13.644-8.176-20.47c-0.085-0.214-0.185-0.294-0.421-0.293
		c-2.161,0.01-4.321,0.005-6.482,0.005c-0.099,0-0.197,0-0.292,0c0,10.702,0,21.355,0,32.007c1.971,0,3.918,0,5.878,0
		C48.759,107.692,48.759,100.715,48.759,93.738z M83.606,102.232c0.026,0.057,0.042,0.076,0.042,0.095
		c-0.027,1.466,0.027,2.939-0.105,4.396c-0.15,1.673-1.211,2.791-2.839,3.153c-0.567,0.126-1.168,0.164-1.752,0.149
		c-1.808-0.043-3.241-1.111-3.752-2.845c-0.201-0.684-0.302-1.421-0.307-2.134c-0.028-4.053-0.022-8.105-0.005-12.157
		c0.003-0.679,0.077-1.363,0.19-2.032c0.162-0.952,0.524-1.831,1.251-2.506c1.018-0.946,2.265-1.069,3.566-0.928
		c0.721,0.079,1.384,0.336,1.947,0.809c0.975,0.819,1.344,1.932,1.468,3.144c0.068,0.665,0.066,1.336,0.097,2.018
		c2.072,0,4.144,0,6.219,0c0.01-0.043,0.024-0.071,0.025-0.1c0.025-1.397-0.012-2.789-0.318-4.161
		c-0.725-3.243-2.598-5.459-5.821-6.42c-2.318-0.69-4.682-0.791-7.046-0.264c-2.537,0.566-4.618,1.872-6.105,4.036
		c-1.283,1.867-1.801,3.97-1.807,6.209c-0.01,3.888-0.007,7.774-0.001,11.662c0.002,1.158,0.106,2.31,0.369,3.444
		c0.806,3.483,2.841,5.854,6.297,6.92c1.906,0.589,3.861,0.667,5.829,0.441c1.705-0.196,3.317-0.691,4.741-1.678
		c2.583-1.789,3.74-4.361,3.837-7.409c0.089-2.789,0.025-5.583,0.027-8.374c0-0.077-0.019-0.154-0.029-0.23
		c-3.308,0-6.591,0-9.886,0c0,1.59,0,3.165,0,4.762C81.04,102.232,82.318,102.232,83.606,102.232z M138.251,82.703
		c0,0.137-0.001,0.258-0.001,0.379c0.001,7.299-0.003,14.598,0.003,21.896c0.002,1.161,0.126,2.309,0.403,3.439
		c0.746,3.063,2.533,5.227,5.573,6.181c3.063,0.962,6.175,0.948,9.246,0.014c2.229-0.681,3.896-2.08,4.908-4.208
		c0.793-1.666,1.092-3.445,1.097-5.267c0.02-7.359,0.009-14.721,0.009-22.081c0-0.11,0-0.221,0-0.344c-2.127,0-4.218,0-6.328,0
		c0,0.158,0,0.292,0,0.425c0,7.299,0.009,14.598-0.015,21.896c-0.002,0.755-0.124,1.527-0.312,2.26
		c-0.322,1.26-1.1,2.159-2.385,2.543c-0.691,0.207-1.405,0.245-2.119,0.187c-1.948-0.159-3.144-1.196-3.527-3.11
		c-0.138-0.685-0.214-1.393-0.216-2.09c-0.015-7.226-0.009-14.452-0.009-21.678c0-0.142,0-0.284,0-0.44
		C142.456,82.703,140.373,82.703,138.251,82.703z M109.175,82.7c0,0.16,0,0.292,0,0.424c0,7.299,0.008,14.597-0.009,21.896
		c-0.002,0.675-0.095,1.363-0.243,2.023c-0.307,1.354-1.055,2.365-2.445,2.788c-0.682,0.207-1.384,0.242-2.087,0.193
		c-1.909-0.134-3.091-1.092-3.529-2.952c-0.169-0.717-0.254-1.47-0.256-2.206c-0.019-7.247-0.011-14.495-0.011-21.741
		c0-0.14,0-0.28,0-0.415c-2.135,0-4.217,0-6.329,0c0,0.134,0,0.246,0,0.358c0,7.298-0.002,14.597,0.003,21.896
		c0.001,1.17,0.125,2.33,0.405,3.469c0.752,3.049,2.531,5.205,5.56,6.159c3.064,0.965,6.172,0.952,9.245,0.021
		c2.242-0.681,3.913-2.088,4.929-4.229c0.786-1.658,1.084-3.427,1.089-5.236c0.02-7.37,0.008-14.741,0.007-22.112
		c0-0.109-0.009-0.219-0.014-0.337C113.379,82.7,111.305,82.7,109.175,82.7z M163.219,103.92c0.026,1.506-0.085,2.985,0.189,4.45
		c0.482,2.58,1.785,4.606,4.207,5.693c3.621,1.622,7.332,1.713,10.998,0.137c2.288-0.983,3.824-2.738,4.619-5.107
		c0.588-1.748,0.66-3.545,0.42-5.36c-0.213-1.615-0.814-3.064-1.915-4.287c-0.833-0.928-1.845-1.617-2.942-2.189
		c-1.455-0.756-3.019-1.219-4.566-1.733c-0.985-0.327-1.963-0.701-2.899-1.146c-0.936-0.443-1.566-1.204-1.813-2.236
		c-0.2-0.837-0.212-1.681-0.009-2.518c0.272-1.116,0.976-1.842,2.093-2.086c0.567-0.124,1.17-0.156,1.753-0.138
		c1.609,0.052,2.67,0.97,2.89,2.563c0.12,0.875,0.086,1.771,0.119,2.658c0.005,0.118,0.001,0.236,0.001,0.341
		c2.106,0,4.158,0,6.215,0c0-0.861,0.032-1.7-0.01-2.534c-0.037-0.729-0.104-1.467-0.255-2.18c-0.548-2.583-2.027-4.408-4.518-5.366
		c-0.979-0.377-2.002-0.579-3.045-0.67c-2.047-0.177-4.069-0.066-6.029,0.598c-2.311,0.782-4.074,2.195-5.037,4.492
		c-0.425,1.012-0.615,2.076-0.637,3.169c-0.025,1.295,0.065,2.581,0.379,3.843c0.541,2.176,1.857,3.736,3.788,4.826
		c1.495,0.842,3.116,1.361,4.73,1.904c1.292,0.436,2.571,0.906,3.719,1.666c0.86,0.57,1.509,1.311,1.67,2.355
		c0.091,0.587,0.133,1.199,0.075,1.788c-0.134,1.381-0.861,2.36-2.172,2.871c-0.757,0.296-1.548,0.362-2.349,0.298
		c-1.708-0.14-2.806-1.042-3.177-2.638c-0.106-0.458-0.138-0.94-0.154-1.412c-0.026-0.679-0.008-1.357-0.008-2.052
		C167.43,103.92,165.346,103.92,163.219,103.92z M39.918,114.72c-0.02-0.128-0.026-0.218-0.048-0.306
		c-0.3-1.243-0.605-2.485-0.905-3.729c-2.231-9.238-4.462-18.477-6.685-27.717c-0.057-0.237-0.156-0.284-0.375-0.284
		c-2.553,0.007-5.106,0.01-7.659-0.003c-0.293-0.002-0.406,0.081-0.474,0.365c-2.431,10.103-4.871,20.203-7.308,30.305
		c-0.107,0.444-0.209,0.891-0.316,1.347c0.083,0.012,0.123,0.021,0.163,0.021c1.902,0.001,3.804-0.001,5.707,0.007
		c0.189,0,0.236-0.079,0.273-0.248c0.298-1.413,0.608-2.824,0.914-4.236c0.255-1.178,0.51-2.356,0.768-3.545
		c0.087-0.008,0.157-0.019,0.228-0.019c2.46-0.001,4.921,0.001,7.381-0.006c0.193,0,0.267,0.062,0.306,0.248
		c0.533,2.493,1.077,4.983,1.606,7.477c0.051,0.241,0.125,0.336,0.394,0.334c1.901-0.017,3.804-0.01,5.706-0.01
		C39.692,114.72,39.792,114.72,39.918,114.72z M136.235,109.712c-3.235,0-6.433,0-9.664,0c0-9.026,0-18.016,0-27.001
		c-2.116,0-4.198,0-6.29,0c0,10.674,0,21.327,0,31.983c5.328,0,10.633,0,15.954,0c0-1.557,0-3.086,0-4.615
		C136.235,109.976,136.235,109.874,136.235,109.712z M84.567,122.883c0,0.898-0.001,1.756,0,2.613
		c0.002,0.791,0.463,1.157,1.23,0.967c0.178-0.044,0.35-0.125,0.513-0.211c0.061-0.033,0.088-0.129,0.13-0.194
		c-0.071-0.008-0.145-0.03-0.212-0.018c-0.643,0.118-0.884-0.069-0.893-0.735c-0.01-0.744-0.002-1.488-0.001-2.233
		c0-0.057,0.015-0.114,0.024-0.195c0.337,0,0.654,0,0.978,0c0-0.122,0-0.218,0-0.346c-0.334,0-0.65,0-0.982,0
		c-0.019-0.329-0.023-0.626-0.055-0.921c-0.081-0.737-0.697-1.304-1.439-1.336c-0.832-0.037-1.477,0.389-1.638,1.076
		c-0.091,0.391,0.002,0.744,0.268,1.098c-0.238,0-0.416-0.017-0.589,0.003c-0.346,0.04-0.667,0.154-0.896,0.435
		c-0.434,0.53-0.285,1.273,0.34,1.604c0.326,0.172,0.691,0.269,1.025,0.429c0.38,0.185,0.525,0.528,0.402,0.864
		c-0.12,0.322-0.474,0.493-0.87,0.418c-0.499-0.096-0.746-0.441-0.893-0.89c-0.043-0.133-0.072-0.297-0.31-0.184
		c0.021,0.259,0.058,0.523,0.059,0.789c0,0.198,0.094,0.302,0.256,0.376c0.582,0.262,1.179,0.304,1.774,0.069
		c0.572-0.225,0.825-0.769,0.672-1.362c-0.104-0.401-0.392-0.618-0.747-0.769c-0.322-0.136-0.658-0.243-0.973-0.394
		c-0.227-0.108-0.364-0.303-0.314-0.579c0.052-0.288,0.229-0.453,0.511-0.511c0.474-0.098,0.855,0.145,1.003,0.648
		c0.043,0.146,0.06,0.301,0.296,0.201c0-0.279,0.042-0.575-0.018-0.851c-0.029-0.131-0.257-0.213-0.386-0.328
		c-0.343-0.305-0.461-0.682-0.31-1.119c0.148-0.427,0.473-0.641,0.913-0.674c1.03-0.075,1.37,0.834,1.262,1.567
		c-0.034,0.234-0.193,0.354-0.439,0.346c-0.081-0.002-0.161,0.014-0.261,0.021c0.006,0.112,0.012,0.209,0.02,0.324
		C84.206,122.883,84.368,122.883,84.567,122.883z M94.385,128.049c0.023,0.031,0.045,0.061,0.068,0.091c0.656,0,1.312,0,1.963,0
		c0.061-0.276-0.132-0.222-0.262-0.232c-0.219-0.02-0.424-0.053-0.426-0.337c-0.004-0.401-0.001-0.804-0.001-1.226
		c0.183,0.039,0.341,0.077,0.502,0.104c1.167,0.198,2.061-0.332,2.25-1.392c0.077-0.428,0.079-0.894,0.001-1.321
		c-0.202-1.126-1.183-1.573-2.202-1.04c-0.18,0.094-0.35,0.207-0.542,0.321c-0.044-0.183-0.081-0.341-0.126-0.527
		c-0.326,0.052-0.64,0.094-0.951,0.155c-0.074,0.016-0.135,0.094-0.203,0.144c0.071,0.045,0.141,0.122,0.214,0.126
		c0.263,0.015,0.321,0.164,0.32,0.393c-0.004,1.395-0.005,2.79,0,4.185c0.001,0.264-0.09,0.406-0.369,0.423
		C94.541,127.917,94.464,128.002,94.385,128.049z M100.948,126.384c0.025-0.035,0.048-0.069,0.071-0.104
		c-0.074-0.051-0.146-0.14-0.225-0.145c-0.294-0.022-0.378-0.173-0.371-0.451c0.016-0.6,0.042-1.202-0.006-1.797
		c-0.044-0.555,0.532-0.977,0.992-0.968c0.526,0.01,0.79,0.301,0.795,0.923c0.006,0.559-0.008,1.116,0.006,1.675
		c0.008,0.338,0,0.631-0.455,0.63c-0.04,0-0.082,0.087-0.123,0.136c0.044,0.032,0.088,0.094,0.134,0.095
		c0.584,0.007,1.169,0.004,1.754,0.004c0.016-0.03,0.03-0.058,0.045-0.088c-0.059-0.053-0.108-0.134-0.176-0.153
		c-0.436-0.123-0.434-0.118-0.438-0.583c-0.007-0.712,0.01-1.426-0.034-2.138c-0.033-0.544-0.409-0.866-0.951-0.927
		c-0.423-0.048-0.795,0.076-1.145,0.298c-0.117,0.075-0.238,0.146-0.421,0.259c0-0.841,0-1.616,0-2.427
		c-0.406,0.062-0.762,0.115-1.115,0.179c-0.054,0.011-0.099,0.078-0.146,0.119c0.057,0.044,0.113,0.123,0.17,0.124
		c0.325,0.007,0.381,0.189,0.379,0.472c-0.01,1.374-0.01,2.75,0,4.125c0.002,0.292-0.054,0.485-0.394,0.496
		c-0.062,0.002-0.122,0.095-0.183,0.146c0.064,0.034,0.129,0.096,0.195,0.096C99.854,126.387,100.401,126.384,100.948,126.384z
		 M119.593,123.791c-0.119-0.57-0.184-1.148-0.366-1.687c-0.229-0.672-0.748-1.008-1.478-0.996
		c-0.711,0.011-1.224,0.328-1.464,1.022c-0.383,1.104-0.389,2.232,0.006,3.336c0.242,0.683,0.766,1.01,1.475,1.01
		c0.701-0.001,1.241-0.332,1.467-1.016C119.409,124.931,119.474,124.364,119.593,123.791z M114.05,123.78
		c-0.032,0.365-0.038,0.735-0.105,1.093c-0.06,0.31-0.162,0.619-0.298,0.904c-0.14,0.291-0.407,0.42-0.743,0.4
		c-0.315-0.018-0.513-0.189-0.643-0.459c-0.04-0.084-0.067-0.172-0.104-0.257c-0.099-0.233-0.268-0.278-0.46-0.116
		c-0.201,0.169-0.223,0.401-0.071,0.578c0.162,0.186,0.378,0.367,0.605,0.447c1.111,0.39,2.102-0.137,2.405-1.271
		c0.232-0.871,0.249-1.757,0.06-2.639c-0.221-1.026-0.951-1.5-1.991-1.321c-0.638,0.108-1.141,0.601-1.274,1.241
		c-0.153,0.736,0.064,1.365,0.59,1.7C112.654,124.486,113.328,124.379,114.05,123.78z M77.32,124.336c0.126,0,0.239,0,0.352,0
		c0.61,0,1.219-0.001,1.829,0c0.193,0.001,0.363-0.036,0.365-0.274c0.004-0.527-0.117-1.01-0.566-1.343
		c-0.872-0.649-2.295-0.241-2.683,0.771c-0.241,0.63-0.24,1.275-0.053,1.916c0.201,0.688,0.703,1.042,1.516,1.099
		c0.789,0.056,1.35-0.254,1.655-0.893c0.097-0.202,0.078-0.31-0.162-0.324c-0.477,0.728-0.958,0.953-1.549,0.732
		C77.51,125.826,77.218,125.154,77.32,124.336z M123.351,121.247c-0.413-0.128-0.646-0.003-0.849,0.333
		c-0.599,0.987-1.234,1.952-1.849,2.931c-0.075,0.12-0.1,0.273-0.147,0.412c0.135,0.025,0.269,0.069,0.405,0.071
		c0.564,0.009,1.129,0.004,1.728,0.004c0,0.159,0.006,0.28-0.002,0.401c-0.015,0.202,0.021,0.445-0.077,0.594
		c-0.073,0.108-0.335,0.087-0.507,0.139c-0.065,0.021-0.117,0.085-0.176,0.13c0.069,0.04,0.138,0.115,0.206,0.117
		c0.525,0.009,1.053,0.009,1.579,0c0.085-0.001,0.168-0.065,0.252-0.101c-0.081-0.055-0.163-0.109-0.244-0.165
		c-0.106-0.072-0.295-0.134-0.307-0.219c-0.039-0.289-0.015-0.587-0.015-0.908c0.291,0,0.534,0,0.777,0c0-0.137,0-0.244,0-0.377
		c-0.264,0-0.507,0-0.775,0C123.351,123.473,123.351,122.362,123.351,121.247z M93.817,125.249
		c-0.033,0.006-0.066,0.013-0.099,0.021c-0.03,0.052-0.063,0.103-0.092,0.155c-0.251,0.472-0.64,0.682-1.173,0.619
		c-0.421-0.052-0.792-0.368-0.862-0.892c-0.068-0.513-0.066-1.049,0-1.562c0.064-0.49,0.426-0.802,0.804-0.822
		c0.459-0.025,0.651,0.294,0.792,0.655c0.09,0.236,0.266,0.262,0.446,0.169c0.114-0.059,0.271-0.214,0.257-0.303
		c-0.028-0.174-0.122-0.38-0.256-0.491c-0.86-0.711-2.429-0.273-2.809,0.77c-0.196,0.538-0.197,1.089-0.086,1.646
		c0.286,1.431,2.053,1.533,2.759,0.889c0.169-0.153,0.288-0.372,0.397-0.577C93.928,125.464,93.847,125.343,93.817,125.249z
		 M109.508,121.1c-0.535,0.088-1.014,0.163-1.489,0.248c-0.054,0.01-0.094,0.085-0.142,0.128c0.047,0.044,0.085,0.112,0.139,0.126
		c0.108,0.028,0.225,0.039,0.338,0.038c0.314-0.004,0.422,0.136,0.415,0.456c-0.018,1.074-0.007,2.15-0.007,3.225
		c0,0.697,0,0.694-0.677,0.81c-0.074,0.013-0.14,0.084-0.208,0.127c0.076,0.042,0.151,0.12,0.229,0.121
		c0.62,0.01,1.24,0.014,1.859,0c0.15-0.004,0.355,0.116,0.447-0.123c-0.143-0.05-0.282-0.128-0.429-0.144
		c-0.442-0.046-0.476-0.072-0.476-0.534c-0.001-1.364,0-2.729,0-4.094C109.508,121.373,109.508,121.262,109.508,121.1z
		 M88.217,125.977c-0.005-0.281-0.212-0.488-0.491-0.492c-0.291-0.004-0.504,0.216-0.5,0.513c0.004,0.299,0.218,0.501,0.521,0.487
		C88.028,126.474,88.222,126.265,88.217,125.977z M105.41,125.967c-0.003-0.288-0.199-0.486-0.486-0.49
		c-0.293-0.005-0.504,0.208-0.504,0.508c0.001,0.282,0.206,0.487,0.488,0.491C105.203,126.479,105.413,126.266,105.41,125.967z"/>
	<path fill-rule="evenodd" clip-rule="evenodd" d="M48.759,93.738c0,6.977,0,13.955,0,20.958c-1.96,0-3.907,0-5.878,0
		c0-10.652,0-21.306,0-32.007c0.095,0,0.193,0,0.292,0c2.161,0,4.321,0.004,6.482-0.005c0.236-0.001,0.336,0.079,0.421,0.293
		c2.721,6.826,5.449,13.647,8.176,20.47c0.026,0.065,0.054,0.129,0.146,0.188c0-6.973,0-13.946,0-20.932c1.992,0,3.933,0,5.899,0
		c0,10.662,0,21.315,0,32.003c-0.101,0.005-0.21,0.015-0.32,0.015c-2.016,0.001-4.032-0.003-6.048,0.008
		c-0.234,0.002-0.34-0.074-0.429-0.288c-2.833-6.778-5.672-13.554-8.511-20.329c-0.055-0.131-0.115-0.258-0.173-0.387
		C48.797,93.728,48.778,93.732,48.759,93.738z"/>
	<path fill-rule="evenodd" clip-rule="evenodd" d="M83.606,102.232c-1.288,0-2.566,0-3.867,0c0-1.597,0-3.172,0-4.762
		c3.294,0,6.578,0,9.886,0c0.01,0.076,0.029,0.153,0.029,0.23c-0.002,2.791,0.062,5.585-0.027,8.374
		c-0.098,3.048-1.254,5.62-3.837,7.409c-1.424,0.986-3.036,1.481-4.741,1.678c-1.968,0.226-3.922,0.147-5.829-0.441
		c-3.456-1.066-5.491-3.437-6.297-6.92c-0.262-1.135-0.367-2.286-0.369-3.444c-0.006-3.888-0.009-7.774,0.001-11.662
		c0.005-2.239,0.523-4.342,1.807-6.209c1.488-2.165,3.568-3.47,6.105-4.036c2.364-0.526,4.728-0.426,7.046,0.264
		c3.223,0.96,5.096,3.177,5.821,6.42c0.307,1.372,0.344,2.764,0.318,4.161c-0.001,0.029-0.015,0.057-0.025,0.1
		c-2.075,0-4.146,0-6.219,0c-0.031-0.682-0.029-1.354-0.097-2.018c-0.125-1.211-0.493-2.325-1.468-3.144
		c-0.562-0.473-1.226-0.729-1.947-0.809c-1.302-0.142-2.549-0.018-3.566,0.928c-0.727,0.675-1.09,1.554-1.251,2.506
		c-0.113,0.669-0.187,1.354-0.19,2.032c-0.017,4.052-0.022,8.104,0.005,12.157c0.005,0.713,0.106,1.45,0.307,2.134
		c0.511,1.733,1.944,2.802,3.752,2.845c0.583,0.015,1.185-0.023,1.752-0.149c1.627-0.362,2.688-1.48,2.839-3.153
		c0.132-1.456,0.078-2.93,0.105-4.396C83.648,102.309,83.632,102.289,83.606,102.232z"/>
	<path fill-rule="evenodd" clip-rule="evenodd" d="M138.251,82.703c2.122,0,4.205,0,6.328,0c0,0.156,0,0.298,0,0.44
		c0,7.226-0.006,14.452,0.009,21.678c0.002,0.697,0.078,1.405,0.216,2.09c0.384,1.914,1.579,2.951,3.527,3.11
		c0.714,0.059,1.428,0.021,2.119-0.187c1.285-0.384,2.062-1.283,2.385-2.543c0.188-0.732,0.31-1.505,0.312-2.26
		c0.023-7.298,0.015-14.597,0.015-21.896c0-0.133,0-0.267,0-0.425c2.11,0,4.201,0,6.328,0c0,0.123,0,0.233,0,0.344
		c0,7.36,0.011,14.722-0.009,22.081c-0.005,1.821-0.304,3.601-1.097,5.267c-1.013,2.128-2.68,3.527-4.908,4.208
		c-3.071,0.935-6.183,0.948-9.246-0.014c-3.04-0.954-4.827-3.117-5.573-6.181c-0.277-1.131-0.401-2.278-0.403-3.439
		c-0.006-7.298-0.002-14.597-0.003-21.896C138.25,82.961,138.251,82.84,138.251,82.703z"/>
	<path fill-rule="evenodd" clip-rule="evenodd" d="M109.175,82.7c2.13,0,4.204,0,6.314,0c0.005,0.119,0.014,0.229,0.014,0.337
		c0.001,7.371,0.013,14.742-0.007,22.112c-0.005,1.81-0.303,3.578-1.089,5.236c-1.016,2.141-2.687,3.548-4.929,4.229
		c-3.072,0.931-6.181,0.943-9.245-0.021c-3.029-0.954-4.808-3.11-5.56-6.159c-0.28-1.139-0.404-2.299-0.405-3.469
		c-0.005-7.299-0.003-14.597-0.003-21.896c0-0.112,0-0.224,0-0.358c2.112,0,4.194,0,6.329,0c0,0.134,0,0.274,0,0.415
		c0,7.246-0.008,14.494,0.011,21.741c0.002,0.736,0.087,1.489,0.256,2.206c0.438,1.86,1.62,2.818,3.529,2.952
		c0.703,0.049,1.405,0.014,2.087-0.193c1.391-0.423,2.139-1.434,2.445-2.788c0.148-0.66,0.241-1.349,0.243-2.023
		c0.017-7.299,0.009-14.597,0.009-21.896C109.175,82.992,109.175,82.859,109.175,82.7z"/>
	<path fill-rule="evenodd" clip-rule="evenodd" d="M163.219,103.92c2.127,0,4.211,0,6.33,0c0,0.694-0.019,1.373,0.008,2.052
		c0.017,0.472,0.048,0.954,0.154,1.412c0.371,1.596,1.469,2.498,3.177,2.638c0.801,0.064,1.592-0.002,2.349-0.298
		c1.311-0.511,2.038-1.49,2.172-2.871c0.058-0.589,0.016-1.201-0.075-1.788c-0.161-1.045-0.81-1.785-1.67-2.355
		c-1.147-0.76-2.427-1.23-3.719-1.666c-1.614-0.543-3.235-1.062-4.73-1.904c-1.931-1.09-3.247-2.65-3.788-4.826
		c-0.313-1.262-0.404-2.547-0.379-3.843c0.021-1.093,0.212-2.157,0.637-3.169c0.963-2.297,2.727-3.709,5.037-4.492
		c1.96-0.664,3.982-0.774,6.029-0.598c1.043,0.091,2.065,0.293,3.045,0.67c2.49,0.958,3.97,2.783,4.518,5.366
		c0.15,0.713,0.218,1.451,0.255,2.18c0.042,0.834,0.01,1.673,0.01,2.534c-2.057,0-4.108,0-6.215,0c0-0.105,0.004-0.223-0.001-0.341
		c-0.033-0.887,0.001-1.783-0.119-2.658c-0.22-1.594-1.28-2.512-2.89-2.563c-0.583-0.018-1.186,0.014-1.753,0.138
		c-1.117,0.244-1.82,0.97-2.093,2.086c-0.203,0.837-0.191,1.68,0.009,2.518c0.247,1.032,0.878,1.792,1.813,2.236
		c0.937,0.445,1.914,0.819,2.899,1.146c1.548,0.515,3.111,0.978,4.566,1.733c1.098,0.572,2.109,1.262,2.942,2.189
		c1.101,1.223,1.702,2.672,1.915,4.287c0.24,1.815,0.168,3.612-0.42,5.36c-0.795,2.369-2.331,4.124-4.619,5.107
		c-3.666,1.576-7.377,1.485-10.998-0.137c-2.422-1.087-3.725-3.113-4.207-5.693C163.134,106.905,163.245,105.426,163.219,103.92z"/>
	<path fill-rule="evenodd" clip-rule="evenodd" d="M39.918,114.72c-0.125,0-0.226,0-0.326,0c-1.902,0-3.805-0.007-5.706,0.01
		c-0.269,0.002-0.343-0.093-0.394-0.334c-0.53-2.493-1.073-4.983-1.606-7.477c-0.039-0.186-0.112-0.248-0.306-0.248
		c-2.46,0.007-4.92,0.005-7.381,0.006c-0.07,0-0.141,0.011-0.228,0.019c-0.258,1.188-0.512,2.367-0.768,3.545
		c-0.306,1.412-0.616,2.823-0.914,4.236c-0.037,0.169-0.083,0.248-0.273,0.248c-1.902-0.008-3.804-0.006-5.707-0.007
		c-0.04,0-0.08-0.01-0.163-0.021c0.107-0.456,0.209-0.902,0.316-1.347c2.438-10.102,4.877-20.202,7.308-30.305
		c0.068-0.284,0.181-0.367,0.474-0.365c2.553,0.013,5.106,0.01,7.659,0.003c0.219,0,0.318,0.047,0.375,0.284
		c2.223,9.241,4.454,18.479,6.685,27.717c0.3,1.244,0.605,2.486,0.905,3.729C39.892,114.502,39.898,114.592,39.918,114.72z
		 M24.992,101.824c1.935,0,3.846,0,5.775,0c-0.95-4.472-1.893-8.918-2.837-13.364c-0.02,0.002-0.04,0.004-0.06,0.008
		C26.912,92.915,25.954,97.363,24.992,101.824z"/>
	<path fill-rule="evenodd" clip-rule="evenodd" d="M136.235,109.712c0,0.162,0,0.264,0,0.366c0,1.529,0,3.059,0,4.615
		c-5.321,0-10.626,0-15.954,0c0-10.656,0-21.309,0-31.983c2.092,0,4.174,0,6.29,0c0,8.985,0,17.975,0,27.001
		C129.803,109.712,133,109.712,136.235,109.712z"/>
	<path fill-rule="evenodd" clip-rule="evenodd" d="M84.567,122.883c-0.199,0-0.362,0-0.55,0c-0.007-0.115-0.013-0.212-0.02-0.324
		c0.101-0.008,0.181-0.023,0.261-0.021c0.246,0.008,0.405-0.111,0.439-0.346c0.108-0.733-0.231-1.643-1.262-1.567
		c-0.44,0.033-0.765,0.247-0.913,0.674c-0.151,0.438-0.033,0.814,0.31,1.119c0.128,0.115,0.357,0.197,0.386,0.328
		c0.061,0.275,0.018,0.571,0.018,0.851c-0.236,0.1-0.252-0.056-0.296-0.201c-0.148-0.504-0.529-0.746-1.003-0.648
		c-0.282,0.058-0.459,0.223-0.511,0.511c-0.05,0.276,0.087,0.471,0.314,0.579c0.314,0.15,0.651,0.258,0.973,0.394
		c0.355,0.15,0.644,0.367,0.747,0.769c0.152,0.594-0.101,1.138-0.672,1.362c-0.596,0.234-1.192,0.192-1.774-0.069
		c-0.163-0.074-0.256-0.178-0.256-0.376c-0.001-0.266-0.038-0.53-0.059-0.789c0.238-0.113,0.267,0.051,0.31,0.184
		c0.147,0.448,0.394,0.794,0.893,0.89c0.396,0.075,0.75-0.096,0.87-0.418c0.124-0.336-0.021-0.68-0.402-0.864
		c-0.333-0.16-0.699-0.257-1.025-0.429c-0.625-0.33-0.773-1.073-0.34-1.604c0.229-0.28,0.55-0.395,0.896-0.435
		c0.173-0.02,0.351-0.003,0.589-0.003c-0.266-0.354-0.359-0.707-0.268-1.098c0.161-0.688,0.807-1.113,1.638-1.076
		c0.742,0.032,1.358,0.599,1.439,1.336c0.032,0.295,0.036,0.592,0.055,0.921c0.333,0,0.648,0,0.982,0c0,0.128,0,0.224,0,0.346
		c-0.324,0-0.641,0-0.978,0c-0.01,0.081-0.024,0.139-0.024,0.195c-0.001,0.745-0.009,1.489,0.001,2.233
		c0.009,0.666,0.25,0.854,0.893,0.735c0.067-0.013,0.142,0.01,0.212,0.018c-0.042,0.065-0.07,0.161-0.13,0.194
		c-0.163,0.086-0.335,0.167-0.513,0.211c-0.767,0.19-1.228-0.176-1.23-0.967C84.566,124.639,84.567,123.781,84.567,122.883z"/>
	<path fill-rule="evenodd" clip-rule="evenodd" d="M94.385,128.049c0.079-0.047,0.155-0.132,0.237-0.135
		c0.279-0.017,0.37-0.159,0.369-0.423c-0.005-1.395-0.004-2.79,0-4.185c0.001-0.229-0.058-0.378-0.32-0.393
		c-0.073-0.004-0.143-0.081-0.214-0.126c0.068-0.05,0.129-0.128,0.203-0.144c0.311-0.062,0.625-0.104,0.951-0.155
		c0.045,0.187,0.082,0.345,0.126,0.527c0.191-0.114,0.361-0.228,0.542-0.321c1.019-0.533,2-0.086,2.202,1.04
		c0.077,0.428,0.076,0.894-0.001,1.321c-0.189,1.06-1.083,1.59-2.25,1.392c-0.161-0.026-0.32-0.064-0.502-0.104
		c0,0.422-0.003,0.824,0.001,1.226c0.002,0.284,0.207,0.317,0.426,0.337c0.129,0.011,0.323-0.044,0.262,0.232
		c-0.651,0-1.307,0-1.963,0C94.431,128.109,94.408,128.08,94.385,128.049z M95.725,124.557c0,0,0.001,0,0.002,0
		c0,0.237-0.008,0.475,0.001,0.711c0.019,0.48,0.269,0.815,0.66,0.895c0.483,0.101,0.929-0.081,1.116-0.512
		c0.304-0.699,0.321-1.427,0.058-2.139c-0.171-0.465-0.569-0.654-1.042-0.572c-0.445,0.077-0.776,0.463-0.794,0.937
		C95.718,124.102,95.725,124.329,95.725,124.557z"/>
	<path fill-rule="evenodd" clip-rule="evenodd" d="M100.948,126.384c-0.547,0-1.095,0.003-1.642-0.005
		c-0.065,0-0.13-0.062-0.195-0.096c0.061-0.051,0.121-0.144,0.183-0.146c0.34-0.011,0.396-0.204,0.394-0.496
		c-0.01-1.375-0.01-2.751,0-4.125c0.002-0.282-0.054-0.465-0.379-0.472c-0.057-0.001-0.114-0.08-0.17-0.124
		c0.048-0.041,0.092-0.108,0.146-0.119c0.354-0.063,0.709-0.116,1.115-0.179c0,0.811,0,1.586,0,2.427
		c0.183-0.112,0.304-0.184,0.421-0.259c0.35-0.222,0.722-0.346,1.145-0.298c0.542,0.061,0.918,0.383,0.951,0.927
		c0.044,0.712,0.027,1.426,0.034,2.138c0.005,0.465,0.003,0.46,0.438,0.583c0.067,0.02,0.117,0.101,0.176,0.153
		c-0.015,0.03-0.029,0.058-0.045,0.088c-0.585,0-1.17,0.003-1.754-0.004c-0.046-0.001-0.09-0.062-0.134-0.095
		c0.041-0.049,0.083-0.136,0.123-0.136c0.455,0.001,0.463-0.292,0.455-0.63c-0.014-0.559,0-1.116-0.006-1.675
		c-0.005-0.622-0.269-0.913-0.795-0.923c-0.46-0.009-1.037,0.413-0.992,0.968c0.048,0.595,0.021,1.197,0.006,1.797
		c-0.007,0.278,0.077,0.429,0.371,0.451c0.078,0.005,0.15,0.094,0.225,0.145C100.996,126.314,100.974,126.349,100.948,126.384z"/>
	<path fill-rule="evenodd" clip-rule="evenodd" d="M119.593,123.791c-0.119,0.573-0.184,1.14-0.36,1.67
		c-0.226,0.684-0.766,1.015-1.467,1.016c-0.709,0-1.232-0.327-1.475-1.01c-0.395-1.104-0.389-2.231-0.006-3.336
		c0.24-0.694,0.753-1.012,1.464-1.022c0.729-0.012,1.249,0.324,1.478,0.996C119.409,122.643,119.474,123.221,119.593,123.791z
		 M118.743,123.837c-0.011-0.001-0.02-0.002-0.03-0.004c-0.017-0.31,0.001-0.624-0.057-0.926c-0.074-0.392-0.153-0.797-0.327-1.149
		c-0.245-0.5-0.814-0.499-1.115-0.027c-0.108,0.17-0.185,0.372-0.23,0.569c-0.206,0.886-0.21,1.782-0.06,2.676
		c0.05,0.299,0.146,0.607,0.293,0.87c0.255,0.455,0.795,0.459,1.088,0.023c0.111-0.166,0.204-0.367,0.239-0.562
		C118.631,124.819,118.679,124.328,118.743,123.837z"/>
	<path fill-rule="evenodd" clip-rule="evenodd" d="M114.05,123.78c-0.722,0.599-1.396,0.706-2.03,0.301
		c-0.525-0.335-0.743-0.964-0.59-1.7c0.134-0.641,0.637-1.133,1.274-1.241c1.04-0.179,1.771,0.295,1.991,1.321
		c0.189,0.882,0.173,1.768-0.06,2.639c-0.304,1.135-1.294,1.661-2.405,1.271c-0.228-0.08-0.443-0.262-0.605-0.447
		c-0.151-0.177-0.13-0.409,0.071-0.578c0.192-0.162,0.361-0.117,0.46,0.116c0.037,0.085,0.064,0.173,0.104,0.257
		c0.13,0.27,0.327,0.441,0.643,0.459c0.336,0.02,0.604-0.109,0.743-0.4c0.136-0.285,0.238-0.595,0.298-0.904
		C114.012,124.516,114.018,124.146,114.05,123.78z M114.055,122.818c-0.103-0.33-0.18-0.682-0.319-1.005
		c-0.121-0.282-0.37-0.438-0.694-0.423c-0.332,0.015-0.567,0.187-0.701,0.48c-0.24,0.527-0.241,1.063,0.036,1.576
		c0.31,0.57,1.119,0.596,1.454,0.043C113.942,123.307,113.973,123.072,114.055,122.818z"/>
	<path fill-rule="evenodd" clip-rule="evenodd" d="M77.32,124.336c-0.103,0.818,0.189,1.49,0.703,1.684
		c0.591,0.221,1.072-0.005,1.549-0.732c0.24,0.015,0.259,0.122,0.162,0.324c-0.305,0.639-0.866,0.948-1.655,0.893
		c-0.812-0.057-1.315-0.411-1.516-1.099c-0.187-0.641-0.188-1.286,0.053-1.916c0.387-1.012,1.811-1.42,2.683-0.771
		c0.449,0.333,0.57,0.815,0.566,1.343c-0.001,0.238-0.172,0.275-0.365,0.274c-0.61-0.001-1.219,0-1.829,0
		C77.559,124.336,77.447,124.336,77.32,124.336z M77.213,124.025c0.535,0,0.945,0.002,1.355,0c0.453-0.004,0.529-0.098,0.441-0.534
		c-0.014-0.07-0.029-0.142-0.053-0.208c-0.103-0.291-0.278-0.501-0.604-0.545c-0.336-0.046-0.634,0.046-0.793,0.346
		C77.415,123.354,77.342,123.663,77.213,124.025z"/>
	<path fill-rule="evenodd" clip-rule="evenodd" d="M123.351,121.247c0,1.115,0,2.226,0,3.362c0.269,0,0.512,0,0.775,0
		c0,0.133,0,0.24,0,0.377c-0.243,0-0.486,0-0.777,0c0,0.321-0.024,0.619,0.015,0.908c0.012,0.085,0.2,0.146,0.307,0.219
		c0.081,0.056,0.163,0.11,0.244,0.165c-0.084,0.035-0.167,0.1-0.252,0.101c-0.526,0.009-1.054,0.009-1.579,0
		c-0.068-0.002-0.137-0.077-0.206-0.117c0.059-0.045,0.11-0.109,0.176-0.13c0.172-0.052,0.434-0.03,0.507-0.139
		c0.099-0.148,0.062-0.392,0.077-0.594c0.008-0.121,0.002-0.242,0.002-0.401c-0.599,0-1.163,0.005-1.728-0.004
		c-0.137-0.002-0.271-0.046-0.405-0.071c0.048-0.139,0.072-0.292,0.147-0.412c0.614-0.979,1.25-1.943,1.849-2.931
		C122.704,121.244,122.938,121.119,123.351,121.247z M122.615,124.601c0-0.853,0-1.688,0-2.523c-0.021-0.007-0.039-0.014-0.058-0.02
		c-0.502,0.833-1.001,1.669-1.522,2.543C121.602,124.601,122.102,124.601,122.615,124.601z"/>
	<path fill-rule="evenodd" clip-rule="evenodd" d="M93.817,125.249c0.029,0.094,0.111,0.215,0.079,0.277
		c-0.109,0.205-0.229,0.424-0.397,0.577c-0.706,0.645-2.473,0.542-2.759-0.889c-0.111-0.558-0.11-1.108,0.086-1.646
		c0.38-1.043,1.949-1.48,2.809-0.77c0.134,0.111,0.228,0.317,0.256,0.491c0.014,0.089-0.144,0.244-0.257,0.303
		c-0.18,0.093-0.355,0.067-0.446-0.169c-0.14-0.361-0.333-0.681-0.792-0.655c-0.378,0.021-0.739,0.332-0.804,0.822
		c-0.066,0.513-0.068,1.049,0,1.562c0.07,0.523,0.44,0.84,0.862,0.892c0.533,0.062,0.922-0.147,1.173-0.619
		c0.029-0.053,0.062-0.104,0.092-0.155C93.751,125.262,93.784,125.255,93.817,125.249z"/>
	<path fill-rule="evenodd" clip-rule="evenodd" d="M109.508,121.1c0,0.162,0,0.273,0,0.384c0,1.365-0.001,2.729,0,4.094
		c0,0.462,0.033,0.488,0.476,0.534c0.146,0.016,0.286,0.094,0.429,0.144c-0.092,0.239-0.297,0.119-0.447,0.123
		c-0.619,0.014-1.239,0.01-1.859,0c-0.077-0.001-0.152-0.079-0.229-0.121c0.068-0.043,0.134-0.114,0.208-0.127
		c0.677-0.115,0.677-0.112,0.677-0.81c0-1.074-0.011-2.15,0.007-3.225c0.007-0.32-0.101-0.46-0.415-0.456
		c-0.113,0.001-0.229-0.01-0.338-0.038c-0.054-0.014-0.092-0.082-0.139-0.126c0.048-0.043,0.088-0.118,0.142-0.128
		C108.494,121.263,108.973,121.188,109.508,121.1z"/>
	<path fill-rule="evenodd" clip-rule="evenodd" d="M88.217,125.977c0.005,0.288-0.189,0.497-0.471,0.508
		c-0.302,0.014-0.517-0.188-0.521-0.487c-0.004-0.297,0.209-0.517,0.5-0.513C88.005,125.488,88.212,125.695,88.217,125.977z"/>
	<path fill-rule="evenodd" clip-rule="evenodd" d="M105.41,125.967c0.003,0.299-0.207,0.513-0.502,0.509
		c-0.282-0.004-0.487-0.209-0.488-0.491c0-0.3,0.211-0.513,0.504-0.508C105.211,125.48,105.407,125.679,105.41,125.967z"/>
	<path fill-rule="evenodd" clip-rule="evenodd" fill="none" d="M24.992,101.824c0.961-4.461,1.919-8.909,2.878-13.356
		c0.02-0.003,0.04-0.005,0.06-0.008c0.944,4.446,1.887,8.893,2.837,13.364C28.838,101.824,26.927,101.824,24.992,101.824z"/>
	<path fill-rule="evenodd" clip-rule="evenodd" fill="none" d="M95.725,124.557c0-0.228-0.007-0.455,0.001-0.681
		c0.018-0.474,0.349-0.859,0.794-0.937c0.473-0.082,0.871,0.107,1.042,0.572c0.263,0.712,0.247,1.439-0.058,2.139
		c-0.187,0.431-0.633,0.612-1.116,0.512c-0.391-0.079-0.641-0.414-0.66-0.895c-0.009-0.236-0.001-0.474-0.001-0.711
		C95.726,124.557,95.725,124.557,95.725,124.557z"/>
	<path fill-rule="evenodd" clip-rule="evenodd" fill="none" d="M118.743,123.837c-0.064,0.491-0.112,0.982-0.199,1.47
		c-0.035,0.195-0.128,0.396-0.239,0.562c-0.293,0.436-0.833,0.432-1.088-0.023c-0.147-0.263-0.243-0.571-0.293-0.87
		c-0.15-0.894-0.146-1.79,0.06-2.676c0.046-0.197,0.122-0.399,0.23-0.569c0.301-0.472,0.87-0.473,1.115,0.027
		c0.174,0.353,0.253,0.758,0.327,1.149c0.058,0.302,0.04,0.616,0.057,0.926C118.724,123.835,118.732,123.836,118.743,123.837z"/>
	<path fill-rule="evenodd" clip-rule="evenodd" fill="none" d="M114.055,122.818c-0.082,0.254-0.112,0.488-0.225,0.672
		c-0.335,0.553-1.145,0.527-1.454-0.043c-0.277-0.513-0.276-1.049-0.036-1.576c0.134-0.294,0.369-0.466,0.701-0.48
		c0.324-0.015,0.573,0.141,0.694,0.423C113.875,122.137,113.952,122.488,114.055,122.818z"/>
	<path fill-rule="evenodd" clip-rule="evenodd" fill="none" d="M77.213,124.025c0.129-0.362,0.202-0.671,0.346-0.941
		c0.159-0.3,0.458-0.392,0.793-0.346c0.327,0.044,0.501,0.254,0.604,0.545c0.024,0.066,0.039,0.138,0.053,0.208
		c0.087,0.437,0.012,0.53-0.441,0.534C78.158,124.027,77.748,124.025,77.213,124.025z"/>
	<path fill-rule="evenodd" clip-rule="evenodd" fill="none" d="M122.615,124.601c-0.514,0-1.014,0-1.58,0
		c0.521-0.874,1.021-1.71,1.522-2.543c0.019,0.006,0.037,0.013,0.058,0.02C122.615,122.913,122.615,123.748,122.615,124.601z"/>
</g>
</svg>
