<?xml version="1.0" encoding="utf-8"?>
<!-- Generator: Adobe Illustrator 16.0.0, SVG Export Plug-In . SVG Version: 6.00 Build 0)  -->
<!DOCTYPE svg PUBLIC "-//W3C//DTD SVG 1.1//EN" "http://www.w3.org/Graphics/SVG/1.1/DTD/svg11.dtd">
<svg version="1.1" id="Layer_1" xmlns="http://www.w3.org/2000/svg" xmlns:xlink="http://www.w3.org/1999/xlink" x="0px" y="0px"
	 width="200px" height="200px" viewBox="0 0 200 200" enable-background="new 0 0 200 200" xml:space="preserve">
<circle fill="#FFB492" cx="99.576" cy="99.999" r="95.915"/>
<g>
	<path d="M23.761,70.76h39.44v8.64h-29.44v14.96h25.84v8.16h-25.84v25.36h-10V70.76z"/>
	<path d="M70.56,70.76h10v33.281c0,1.92,0.093,3.867,0.28,5.84c0.186,1.973,0.72,3.747,1.6,5.319c0.88,1.573,2.213,2.868,4,3.88
		c1.787,1.014,4.307,1.521,7.56,1.521c3.252,0,5.772-0.507,7.56-1.521c1.786-1.012,3.12-2.307,4-3.88
		c0.88-1.572,1.413-3.347,1.601-5.319c0.186-1.973,0.279-3.92,0.279-5.84V70.76h10v36.56c0,3.68-0.561,6.88-1.68,9.6
		c-1.12,2.721-2.707,5-4.76,6.84c-2.055,1.841-4.521,3.215-7.4,4.121s-6.08,1.359-9.6,1.359s-6.72-0.453-9.6-1.359
		c-2.88-0.906-5.347-2.28-7.4-4.121c-2.054-1.84-3.64-4.119-4.76-6.84c-1.12-2.72-1.68-5.92-1.68-9.6V70.76z"/>
	<path d="M128.959,70.76h27.759c5.121,0,9.227,1.174,12.32,3.52c3.094,2.348,4.641,5.894,4.641,10.64c0,2.88-0.707,5.348-2.121,7.4
		c-1.412,2.054-3.426,3.64-6.039,4.76v0.16c3.52,0.748,6.186,2.414,8,5c1.812,2.588,2.721,5.828,2.721,9.721
		c0,2.239-0.4,4.333-1.201,6.279c-0.799,1.947-2.053,3.627-3.76,5.04c-1.707,1.414-3.895,2.534-6.561,3.36
		c-2.666,0.827-5.84,1.24-9.52,1.24h-26.239V70.76z M138.958,94.68h16.32c2.4,0,4.4-0.68,6-2.04c1.6-1.36,2.4-3.32,2.4-5.88
		c0-2.88-0.721-4.906-2.16-6.08c-1.439-1.172-3.52-1.76-6.24-1.76h-16.32V94.68z M138.958,119.721h17.68
		c3.041,0,5.4-0.787,7.08-2.36c1.68-1.572,2.521-3.8,2.521-6.681c0-2.826-0.842-5-2.521-6.52s-4.039-2.279-7.08-2.279h-17.68
		V119.721z"/>
</g>
</svg>
