<?xml version="1.0" encoding="utf-8"?>
<!-- Generator: Adobe Illustrator 16.0.0, SVG Export Plug-In . SVG Version: 6.00 Build 0)  -->
<!DOCTYPE svg PUBLIC "-//W3C//DTD SVG 1.1//EN" "http://www.w3.org/Graphics/SVG/1.1/DTD/svg11.dtd">
<svg version="1.1" id="Layer_1" xmlns="http://www.w3.org/2000/svg" xmlns:xlink="http://www.w3.org/1999/xlink" x="0px" y="0px"
	 width="200px" height="200px" viewBox="0 0 200 200" enable-background="new 0 0 200 200" xml:space="preserve">
<circle fill="#FFB492" cx="99.576" cy="99.999" r="95.915"/>
<path fill="#1D1D1B" d="M100.724,170.359c-38.501,0-69.826-31.326-69.826-69.827c0-38.502,31.324-69.826,69.826-69.826
	c38.503,0,69.826,31.324,69.826,69.826C170.55,139.033,139.227,170.359,100.724,170.359 M100.724,34.839
	c-36.223,0-65.692,29.47-65.692,65.693c0,36.224,29.47,65.694,65.692,65.694c36.224,0,65.693-29.471,65.693-65.694
	C166.417,64.309,136.947,34.839,100.724,34.839"/>
<path fill="#1D1D1B" d="M129.21,71.833h0.287v-4.259H109.4v4.259h15.661c-0.775,8.917-6.353,16.477-14.125,20.07
	c-2.779-6.777-9.515-11.577-17.375-11.577c-0.681,0-1.353,0.041-2.015,0.111v0.167h-0.115v11.701
	c-8.881-3.665-15.15-12.413-15.15-22.602c0-13.477,10.965-24.442,24.442-24.442c2.854,0,5.595,0.497,8.144,1.4v-4.344
	c-2.582-0.769-5.314-1.189-8.144-1.189c-15.756,0-28.576,12.819-28.576,28.575c0,12.504,8.076,23.15,19.283,27.016v6.776
	c-11.283,3.891-19.417,14.649-19.417,27.289c0,15.908,12.879,28.85,28.709,28.85c15.831,0,28.711-12.941,28.711-28.85
	c0-12.072-7.422-22.431-17.919-26.726c0.506-1.669,0.789-3.431,0.789-5.26c0-0.979-0.101-1.934-0.251-2.873
	C121.565,91.799,128.408,82.646,129.21,71.833 M95.691,84.629c5.141,0.742,9.412,4.119,11.352,8.681
	c-2.017,0.541-4.133,0.835-6.319,0.835c-1.725,0-3.408-0.182-5.033-0.523V84.629z M125.302,130.785
	c0,13.629-11.025,24.717-24.578,24.717c-13.552,0-24.578-11.088-24.578-24.717c0-10.322,6.328-19.182,15.285-22.875v26.017h4.26
	v-12.63l13.081,12.63h6.133l-17.627-17.021c5.407-1.078,9.973-4.457,12.607-9.049C118.912,111.518,125.302,120.412,125.302,130.785
	 M95.691,106.593c1.625-0.343,3.308-0.522,5.033-0.522c1.738,0,3.434,0.184,5.069,0.53c-2.241,3.365-5.876,5.759-10.102,6.369
	V106.593z M100.724,101.937c-1.718,0-3.397,0.161-5.033,0.453v-4.564c1.635,0.292,3.315,0.453,5.033,0.453
	c2.547,0,5.013-0.342,7.363-0.97c0.052,0.491,0.085,0.987,0.085,1.491c0,1.381-0.204,2.715-0.577,3.978
	C105.393,102.231,103.092,101.937,100.724,101.937"/>
</svg>
