<?xml version="1.0" encoding="utf-8"?>
<!-- Generator: Adobe Illustrator 16.0.0, SVG Export Plug-In . SVG Version: 6.00 Build 0)  -->
<!DOCTYPE svg PUBLIC "-//W3C//DTD SVG 1.1//EN" "http://www.w3.org/Graphics/SVG/1.1/DTD/svg11.dtd">
<svg version="1.1" id="Layer_1" xmlns="http://www.w3.org/2000/svg" xmlns:xlink="http://www.w3.org/1999/xlink" x="0px" y="0px"
	 width="200px" height="200px" viewBox="0 0 200 200" enable-background="new 0 0 200 200" xml:space="preserve">
<circle fill="#FFB492" cx="99.576" cy="99.999" r="95.915"/>
<g>
	<path opacity="0.3" fill="#171714" enable-background="new    " d="M90.615,104.08c-3.778,0.048-6.879-2.973-6.927-6.75
		c0.034,2.642-2.089,4.82-4.731,4.855c-2.643,0.032-4.821-2.09-4.855-4.731c0.049,3.776-2.974,6.877-6.751,6.925
		c-3.778,0.051-6.88-2.973-6.929-6.75c0.132,10.184,8.525,18.362,18.71,18.23c10.186-0.131,18.367-8.521,18.236-18.706
		C97.416,100.934,94.392,104.032,90.615,104.08"/>
	<path opacity="0.3" fill="#171714" enable-background="new    " d="M67.173,90.702c3.779-0.048,6.88,2.975,6.928,6.752
		c-0.033-2.644,2.09-4.82,4.731-4.854c2.644-0.033,4.822,2.087,4.856,4.73c-0.048-3.776,2.975-6.878,6.752-6.927
		c3.778-0.049,6.878,2.976,6.928,6.751c-0.131-10.187-8.524-18.366-18.711-18.235c-10.186,0.131-18.366,8.524-18.235,18.71
		C60.374,93.853,63.396,90.75,67.173,90.702"/>
	<path fill="#171714" d="M67.173,90.702c-3.776,0.048-6.799,3.15-6.752,6.927c0.049,3.777,3.15,6.801,6.929,6.75
		c3.777-0.049,6.8-3.146,6.751-6.925C74.053,93.677,70.952,90.654,67.173,90.702"/>
	<path fill="#171714" d="M90.439,90.403c-3.777,0.049-6.8,3.15-6.752,6.927s3.149,6.798,6.927,6.75
		c3.777-0.048,6.801-3.146,6.752-6.926C97.317,93.379,94.218,90.354,90.439,90.403"/>
	<path opacity="0.3" fill="#171714" enable-background="new    " d="M166.566,107.896l-0.148-11.63
		c0.034,2.643-2.088,4.821-4.73,4.855c-2.645,0.033-4.821-2.09-4.854-4.731c0.048,3.776-2.976,6.877-6.751,6.926
		c-3.777,0.048-6.879-2.975-6.93-6.751c0.134,10.184,8.525,18.362,18.712,18.231c2.604-0.032,5.077-0.608,7.313-1.616
		C167.613,111.945,166.596,110.045,166.566,107.896"/>
	<path opacity="0.3" fill="#171714" enable-background="new    " d="M149.904,89.64c3.777-0.05,6.879,2.975,6.928,6.751
		c-0.034-2.645,2.089-4.82,4.732-4.854c2.642-0.034,4.817,2.087,4.854,4.729c-0.048-3.775,2.977-6.878,6.753-6.927
		c3.541-0.045,6.489,2.609,6.884,6.054c0.025,0.228,0.041,0.461,0.043,0.697c-0.131-10.187-8.523-18.366-18.709-18.235
		c-10.187,0.131-18.365,8.524-18.236,18.71C143.105,92.79,146.126,89.688,149.904,89.64"/>
	<path opacity="0.3" fill="#171714" enable-background="new    " d="M169.178,113.182c1.188,0.936,2.689,1.487,4.318,1.467
		c3.777-0.049,6.8-3.149,6.752-6.926l-0.15-11.632C180.195,103.669,175.688,110.253,169.178,113.182"/>
	<path fill="#171714" d="M149.904,89.64c-3.778,0.048-6.799,3.15-6.752,6.926c0.05,3.777,3.149,6.799,6.929,6.75
		c3.776-0.049,6.799-3.148,6.751-6.925C156.783,92.614,153.682,89.59,149.904,89.64"/>
	<path fill="#171714" d="M180.055,95.394c-0.395-3.444-3.343-6.099-6.884-6.054c-3.776,0.049-6.801,3.151-6.753,6.927l0.148,11.631
		c0.028,2.146,1.047,4.049,2.61,5.283c6.511-2.929,11.019-9.513,10.921-17.091C180.096,95.854,180.08,95.621,180.055,95.394"/>
	<path opacity="0.3" fill="#171714" enable-background="new    " d="M131.883,89.87c3.777-0.048,6.879,2.974,6.928,6.752
		c-0.131-10.187-8.523-18.368-18.711-18.235c-1.656,0.021-3.26,0.264-4.785,0.697l0.229,17.837
		c-0.034-2.644,2.089-4.819,4.731-4.853c2.643-0.034,4.819,2.086,4.854,4.729C125.082,93.021,128.104,89.919,131.883,89.87"/>
	<path opacity="0.3" fill="#171714" enable-background="new    " d="M115.314,79.083l-0.097-7.474
		c-0.049-3.777-3.149-6.803-6.928-6.753c-3.776,0.048-6.801,3.15-6.753,6.928l0.326,25.312
		C101.754,88.57,107.475,81.3,115.314,79.083"/>
	<path opacity="0.3" fill="#171714" enable-background="new    " d="M108.791,103.846c-3.775,0.049-6.878-2.973-6.927-6.748
		l0.149,11.628c0.047,3.776,3.15,6.801,6.928,6.752c3.776-0.049,6.801-3.149,6.752-6.927l-0.149-11.631
		C115.593,100.697,112.568,103.797,108.791,103.846"/>
	<path opacity="0.3" fill="#171714" enable-background="new    " d="M132.059,103.547c-3.777,0.049-6.879-2.974-6.929-6.749
		l0.149,11.63c0.049,3.777,3.148,6.799,6.93,6.752c3.775-0.05,6.8-3.15,6.751-6.928l-0.149-11.63
		C138.859,100.396,135.836,103.5,132.059,103.547"/>
	<path fill="#171714" d="M101.864,97.098c0.049,3.774,3.149,6.796,6.927,6.748s6.801-3.15,6.753-6.925l-0.229-17.837
		C107.475,81.3,101.754,88.57,101.864,97.098"/>
	<path fill="#171714" d="M131.883,89.87c-3.779,0.049-6.801,3.15-6.753,6.928c0.05,3.775,3.15,6.798,6.929,6.749
		c3.777-0.047,6.801-3.15,6.752-6.925C138.762,92.844,135.66,89.822,131.883,89.87"/>
	<path opacity="0.3" fill="#171714" enable-background="new    " d="M49.172,104.613c-3.777,0.049-6.878-2.975-6.927-6.75
		c0.034,2.642-2.088,4.821-4.731,4.854c-2.644,0.032-4.821-2.089-4.855-4.731c-0.048-3.776-3.151-6.8-6.927-6.752
		c-3.778,0.05-6.801,3.151-6.752,6.928c0.131,10.184,8.523,18.361,18.709,18.23c10.185-0.131,18.366-8.522,18.235-18.706
		C55.972,101.464,52.95,104.564,49.172,104.613"/>
	<path opacity="0.3" fill="#171714" enable-background="new    " d="M48.848,79.303c-3.778,0.048-6.801,3.15-6.752,6.928
		l0.149,11.633c-0.048-3.775,2.974-6.878,6.752-6.928c3.778-0.049,6.878,2.976,6.927,6.752l-0.149-11.633
		C55.726,82.277,52.625,79.253,48.848,79.303"/>
	<path fill="#171714" d="M48.997,90.936c-3.778,0.05-6.8,3.152-6.752,6.928c0.049,3.776,3.15,6.799,6.927,6.75
		c3.778-0.05,6.8-3.149,6.752-6.926C55.875,93.911,52.774,90.887,48.997,90.936"/>
</g>
</svg>
