<?xml version="1.0" encoding="utf-8"?>
<!-- Generator: Adobe Illustrator 16.0.0, SVG Export Plug-In . SVG Version: 6.00 Build 0)  -->
<!DOCTYPE svg PUBLIC "-//W3C//DTD SVG 1.1//EN" "http://www.w3.org/Graphics/SVG/1.1/DTD/svg11.dtd">
<svg version="1.1" id="Layer_1" xmlns="http://www.w3.org/2000/svg" xmlns:xlink="http://www.w3.org/1999/xlink" x="0px" y="0px"
	 width="200px" height="200px" viewBox="0 0 200 200" enable-background="new 0 0 200 200" xml:space="preserve">
<circle fill="#FFB492" cx="99.576" cy="99.999" r="95.915"/>
<g>
	<path fill="#1F191A" d="M43.389,73.465c0.107-0.962,0.17-1.924,0.292-2.895c0.267-2.119,0.354-4.326,0.419-6.46
		c0.011-0.37,0.022-0.721,0.032-1.091c-0.404-0.036-1.581-0.546-1.436-1.077c0.257-0.025,0.476,0.331,0.703,0.457
		c0.349,0.193,0.788,0.271,1.188,0.307c0.859,0.081,1.72,0.407,2.522,0.702c0.441,0.162,0.854,0.241,1.257,0.449
		c0.394,0.203,0.873,0.434,1.303,0.56c0.522,0.152,0.945,0.275,1.397,0.565c0.3,0.193,0.665,0.501,1.015,0.635
		c0.508,0.192,0.798,0.204,1.234,0.556c0.311,0.251,0.641,0.513,0.971,0.758c0.586,0.433,1.015,1.102,1.614,1.49
		c0.686,0.445,1.546,0.636,2.202,1.152c0.395,0.312,0.442,0.396,0.781,0.015c0.268-0.303,0.527-0.58,0.763-0.897
		c0.307-0.411,0.619-0.691,0.981-1.065c0.317-0.327,0.498-0.78,0.726-1.172c0.454-0.776,1.013-1.439,1.372-2.267
		c0.155-0.361,0.328-0.747,0.472-1.116c0.174-0.448,0.478-0.845,0.61-1.314c0.149-0.523,0.467-0.861,0.713-1.358
		c0.194-0.393,0.288-0.834,0.406-1.255c0.185-0.656,0.426-1.375,0.929-1.897c0.341-0.354,0.777-0.609,1.101-0.982
		c0.272-0.314,0.473-0.566,0.811-0.8c0.754-0.521,1.242-0.108,1.815,0.489c0.658,0.684,1.273,1.339,1.991,1.957
		c0.693,0.597,1.048,1.538,1.662,2.228c0.507,0.57,0.972,1.25,1.333,1.936c0.485,0.918,0.99,1.833,1.42,2.761
		c0.183,0.394,0.882,1.511,0.345,1.815c-0.287,0.163-0.992,0.021-1.332,0.094c-0.331,0.072-0.623,0.363-0.985,0.271
		c0.007-0.321,0.375-0.529,0.634-0.657c0.181-0.089,0.783-0.154,0.889-0.272c0.24-0.269-0.861-1.747-1.059-2.105
		c-0.393-0.714-0.477-1.43-1.039-2.006c-0.596-0.612-1.214-1.304-1.739-1.939c-0.551-0.667-0.832-1.455-1.44-2.107
		c-0.476-0.511-0.848-1.547-1.56-1.802c-0.282-0.102-0.176-0.075-0.451,0.091c-0.161,0.099-0.302,0.212-0.445,0.327
		c-0.354,0.288-0.75,0.579-1.039,0.893c-0.529,0.578-0.594,1.397-0.935,2.1c-0.678,1.393-1.299,2.83-1.876,4.263
		c-0.493,1.227-1.475,2.365-2.218,3.484c-0.454,0.685-0.956,1.351-1.52,1.968c-0.379,0.417-0.759,1.129-1.223,1.425
		c-0.626,0.4-1.092-0.376-1.596-0.646c-0.311-0.165-0.611-0.203-0.916-0.402c-0.382-0.252-0.746-0.458-1.13-0.728
		c-0.765-0.539-1.32-1.356-2.091-1.899c-0.28-0.198-0.565-0.313-0.865-0.474c-0.434-0.231-0.789-0.545-1.266-0.682
		c-0.737-0.211-1.369-0.529-2.056-0.828c-0.511-0.222-1.073-0.257-1.578-0.505c-0.395-0.193-0.607-0.466-0.939-0.724
		c-0.439-0.341-1.228-0.404-1.776-0.3c-0.172,1.51-0.092,2.998-0.201,4.514c-0.12,1.661-0.209,3.317-0.399,4.968
		c-0.064,0.554-0.557,2.322-1.216,2.431C42.899,74.751,43.317,74.106,43.389,73.465z"/>
	<path fill="#1F191A" d="M99.421,68.354c-0.35-0.288-0.703-0.567-1.044-0.871c-0.356-0.317-0.924-0.423-1.36-0.647
		c-0.391-0.202-0.683-0.45-1.04-0.699c-0.309-0.218-0.729-0.21-0.98-0.441c0.505-0.086,0.351-0.426-0.041-0.554
		c-0.38-0.125-0.94-0.088-1.334-0.096c-0.535-0.013-0.674-0.147-1.056-0.518c-0.348-0.339-0.688-0.568-1.155-0.744
		c-0.874-0.325-1.73-0.763-2.56-1.22c-0.598-0.329-1.256-0.587-1.877-0.843c-0.399-0.167-0.815-0.421-1.233-0.563
		c-0.42-0.144-0.8-0.244-1.097-0.619c-0.145-0.181-0.256-0.393-0.393-0.571c-0.152-0.198-0.371-0.095-0.256-0.481
		c0.419,0.338,0.246-1.408-0.121-0.153c-0.213-0.195-0.586-0.876-0.934-0.819c-0.18,0.923,0.186,1.738,0.314,2.634
		c0.229,1.58,0.424,3.146,0.583,4.725c0.087,0.872,0.268,1.896,0.183,2.753c-0.042,0.446-0.223,0.475-0.555,0.712
		c-0.209,0.149-0.773,0.456-0.811,0.709c0.411-0.133,1.019-0.869,1.431-0.378c0.168,0.202,0.129,0.636,0.136,0.878
		c0.013,0.46,0.066,0.94,0.06,1.403c-0.01,0.729-0.129,1.461-0.147,2.19c-0.008,0.341,0,0.708,0.346,0.861
		c0.317,0.142,0.626-0.009,0.762-0.291c0.29-0.604-0.118-1.512-0.104-2.15c0.013-0.54,0.072-1.052-0.055-1.571
		c-0.119-0.495-0.233-1.056-0.139-1.57c0.342-0.095,0.614-0.002,0.936-0.15c0.32-0.147,0.599-0.402,0.928-0.519
		c0.565-0.198,1.182-0.282,1.733-0.511c0.322-0.134,0.601-0.315,0.921-0.451c0.349-0.149,0.742-0.297,1.117-0.376
		c0.472-0.1,0.662-0.182,1.052-0.392c0.556-0.298,1.702-0.734,2.343-0.691c0.344,0.022,0.788,0.333,1.112,0.463
		c0.37,0.149,0.677,0.331,1.027,0.531c0.506,0.29,0.994,0.512,1.488,0.878c0.37,0.274,0.776,0.409,1.146,0.664
		c0.203,0.138,0.597,0.693,0.889,0.459C99.957,69.068,99.614,68.516,99.421,68.354z M90.315,66.463
		c-0.447,0.17-0.885,0.366-1.308,0.56c-0.415,0.19-0.879,0.195-1.292,0.312c-0.916,0.258-1.578,1.056-2.467,1.302
		c-0.543,0.151-0.513-0.146-0.506-0.636c0.008-0.476-0.014-0.938-0.035-1.409c-0.042-0.932-0.304-1.817-0.346-2.739
		c-0.021-0.459,0.059-0.913,0.061-1.371c0.003-0.338-0.172-0.771-0.118-1.095c0.119-0.718,1.24,0.182,1.656,0.396
		c0.714,0.366,1.389,0.815,2.108,1.159c0.795,0.381,1.45,1.081,2.274,1.395c0.797,0.304,1.723,0.697,2.316,1.298
		C91.896,65.858,91.075,66.171,90.315,66.463z"/>
	<path fill="#1F191A" d="M108.004,67.259c-0.238-0.042-0.517,0.128-0.766,0.15c-0.348,0.033-0.706,0.046-1.053,0.003
		c0.034-1.343,0.116-2.696,0.197-4.042c0.032-0.542-0.121-0.979-0.147-1.488c-0.032-0.683,0.091-1.171-0.739-1.308
		c0.484-1.127,2.315-1.001,3.312-0.98c0.148-0.505-1.911-0.357-2.263-0.213c-0.471,0.191-0.816,0.55-1.255,0.761
		c-0.318,0.152-0.747,0.059-1.067,0.229c-0.297,0.159-0.525,0.492-0.696,0.758c-0.268,0.411-0.573,0.812-0.842,1.219
		c-0.429,0.643-0.423,1.904-0.326,2.636c0.093,0.7,0.371,1.595,0.752,2.17c0.273,0.411,0.691,0.64,1.161,0.763
		c0.306,0.079,1.106,0.028,1.275,0.264c0.16,0.22-0.229,1.019,0.191,0.923c0.326-0.077,0.385-0.711,0.394-0.951
		c0.393-0.078,0.818-0.079,1.21-0.206C107.401,67.927,108.317,67.316,108.004,67.259z M103.045,63.299
		c-0.085,0.349,0.055,1.031-0.292,1.228c-0.176-0.361-0.093-0.985,0.014-1.375c0.064-0.233,0.159-0.458,0.3-0.657
		c0.098-0.14,0.434-0.339,0.481-0.472C103.392,62.455,103.161,62.811,103.045,63.299z M104.574,67.515
		c-0.081,0.262-0.693-0.281-0.743-0.338c-0.215-0.246-0.378-0.546-0.521-0.841C103.554,66.497,104.681,67.168,104.574,67.515z
		 M105.692,65.308c-0.032,0.465-0.066,0.928-0.1,1.392c-0.037,0.557-0.129,0.862-0.633,0.474c-0.572-0.438-1.429-0.832-1.443-1.64
		c-0.014-0.785,0.285-1.516,0.376-2.267c0.05-0.421,0.031-0.872,0.225-1.248c0.135-0.263,0.574-0.869,0.858-0.917
		C106.316,60.88,105.736,64.701,105.692,65.308z"/>
	<path fill="#1F191A" d="M120.041,68.182c0.122-0.749,0.277-1.503,0.33-2.248c0.061-0.832-0.001-1.366-0.34-2.107
		c-0.316-0.696-0.639-1.054-1.319-1.39c-0.555-0.273-1.305-0.415-1.952-0.359c-0.567,0.051-1.068,0.451-1.476,0.841
		c-0.185,0.177-0.342,0.407-0.571,0.528c-0.276,0.145-0.598,0.165-0.831,0.4c-0.386,0.389-0.843,1.012-0.859,1.588
		c-0.022,0.744,0.433,1.499,0.812,2.11c0.202,0.326,0.471,0.604,0.687,0.915c0.281,0.402,0.471,0.86,0.756,1.26
		c0.521,0.725,0.877,1.369,1.136,2.213c0.223,0.724,0.522,1.314,0.504,2.076c-0.014,0.599-0.027,1.188-0.071,1.8
		c-0.021,0.301-0.013,0.722-0.111,1.008c-0.094,0.276-0.347,0.519-0.502,0.765c-0.33,0.521-0.468,1.042-0.91,1.504
		c-0.395,0.413-0.923,0.83-1.473,0.998c-0.678,0.208-1.482,0.27-2.21,0.117c-0.273-0.056-0.771-0.171-0.955-0.352
		c-0.118-0.114-0.155-0.256-0.289-0.354c-0.125-0.091-0.285-0.111-0.41-0.207c-0.26-0.206-0.467-0.515-0.726-0.707
		c-0.338-0.255-0.611-0.606-0.829-0.977c-0.115-0.194-0.612-1.311-0.076-1.262c0.189,0.016,0.551,0.544,0.639,0.695
		c0.144,0.252,0.238,0.495,0.416,0.744c0.376,0.53,0.756,1.15,1.354,1.435c0.608,0.287,1.104,0.392,1.788,0.44
		c0.64,0.047,1.078-0.199,1.628-0.466c0.693-0.338,0.782-0.892,1.255-1.44c0.451-0.522,0.617-1.233,0.666-1.92
		c0.046-0.691,0.131-1.388,0.181-2.094c0.057-0.795-0.316-1.334-0.503-2.108c-0.091-0.38-0.249-0.521-0.486-0.811
		c-0.231-0.283-0.358-0.625-0.514-0.954c-0.279-0.596-0.744-1.113-1.121-1.651c-0.243-0.349-0.425-0.732-0.693-1.064
		c-0.205-0.25-0.36-0.385-0.434-0.71c-0.137-0.594-0.171-1.317,0.046-1.908c0.226-0.609,0.714-0.978,1.21-1.37
		c0.59-0.467,1.106-0.865,1.836-1.107c1.088-0.366,2.562-0.398,3.62,0.109c2.213,1.061,2.079,4.321,1.717,6.436
		c-0.06,0.353-0.209,1.202-0.714,1.117C119.561,69.6,119.978,68.573,120.041,68.182z"/>
	<path fill="#1F191A" d="M45.384,106.018c-0.251-0.234-0.102-1.108-0.035-1.436c0.217-1.07,0.969-1.832,1.098-2.951
		c0.126-1.13,0.171-2.477,0.598-3.561c0.294-0.744,0.687-1.393,0.916-2.169c0.192-0.649,0.262-1.339,0.538-1.963
		c0.433-0.985,0.839-2.096,0.987-3.182c0.062-0.455,0.394-3.074,0.866-2.963c-0.058,0.377,0.674,0.753,0.884,1.102
		c0.286,0.475,0.392,1.065,0.707,1.538c0.414,0.623,0.869,1.212,1.284,1.851c0.364,0.562,0.854,0.979,1.227,1.532
		c0.703,1.04,1.437,1.954,2.27,2.922c0.773,0.895,1.775,1.093,2.298,2.192c0.258,0.544,0.595,0.955,0.931,1.446
		c0.217,0.317,0.375,0.919,0.621,0.39c0.236-0.514,0.11-1.539,0.15-2.098c0.044-0.616,0.045-1.267,0.243-1.848
		c0.217-0.635,0.492-1.179,0.573-1.845c0.096-0.783,0.129-1.562,0.221-2.344c0.141-1.2,0.339-2.385,0.427-3.611
		c0.071-0.988,0.189-1.988,0.114-2.959c-0.052-0.677-0.131-1.5-0.067-2.153c0.469,0.865,0.789,1.288,0.871,2.309
		c0.079,0.988-0.131,1.973-0.106,2.974c0.053,2.149,0.166,4.831-0.602,6.906c-0.365,0.98-0.423,2.047-0.499,3.105
		c-0.058,0.811-0.131,1.613-0.229,2.419c-0.047,0.4-0.107,0.813-0.45,1.078c-0.437,0.338-0.761,0.048-1.154-0.206
		c-0.742-0.479-1.036-0.66-1.33-1.476c-0.387-1.071-0.697-1.758-1.515-2.549c-0.754-0.729-1.361-1.541-2.113-2.246
		c-0.452-0.424-0.952-0.799-1.245-1.332c-0.196-0.355-0.293-0.752-0.511-1.099c-0.419-0.67-0.972-1.257-1.395-1.92
		c-0.325-0.509-0.82-1.803-1.469-1.919c-0.035,1.854-0.961,3.751-1.45,5.515c-0.275,0.995-0.412,2.014-0.78,2.96
		c-0.352,0.902-0.58,1.962-0.801,2.894c-0.174,0.727-0.185,1.516-0.42,2.224C46.896,103.964,45.999,106.595,45.384,106.018z"/>
	<path fill="#1F191A" d="M78.113,90.821c0.011-0.938-0.262-2.526-0.856-3.272c-1.114-1.401-2.479-1.522-4.129-1.725
		c0.004-0.184-0.004-0.359-0.024-0.54c0.001-0.021,0.003-0.041,0.005-0.062c0.045-0.266,0.19-0.433,0.33-0.749
		c0.085-0.195,0.264-0.702,0.178-0.926c-0.057-0.144-0.263-0.106-0.319-0.226c-0.091-0.195-0.084-0.299-0.126-0.521
		c-0.05-0.264,0.109-0.783-0.318-0.422c-0.118,0.1-0.229,0.742-0.282,0.92c-0.17,0.561-0.2,1.214-0.344,1.786
		c-0.635,0.013-0.496,0.41-0.856,0.744c-0.33,0.306-1.001,0.167-1.471,0.279c-0.993,0.237-1.534,1.233-2.025,2.105
		c-0.986,1.746-2.782,4.812-1.663,6.834c0.283,0.512,0.736,0.962,1.207,1.312c0.342,0.252,0.776,0.365,1.093,0.603
		c0.261,0.196,0.435,0.471,0.728,0.633c0.474,0.259,1.164,0.281,1.684,0.384c0.702,0.137,0.589,0.256,0.538,0.973
		c-0.099,1.375-0.201,2.742-0.24,4.105c-0.007,0.285-0.2,1.528,0.027,1.731c0.241,0.215,0.916-0.345,1.048-0.548
		c0.541-0.826-0.077-2.184-0.005-3.022c0.042-0.497,0.322-0.943,0.38-1.463c0.057-0.507,0.057-1.023,0.119-1.527
		c0.799,0.146,2.042-1.381,2.46-1.912c0.309-0.393,0.493-0.895,0.807-1.294c0.344-0.438,0.696-0.832,1.005-1.296
		C77.67,92.817,78.1,91.943,78.113,90.821z M72.565,89.101c-0.19,1.109-0.392,2.222-0.474,3.357c-0.12,1.665-0.553,3.366-0.587,5
		c-1.141-0.132-2.076-0.622-3.033-1.274c-1.103-0.75-0.883-1.504-0.978-2.701c-0.086-1.058,0.125-2.137,0.573-3.107
		c0.277-0.604,0.356-1.214,0.767-1.705c0.164-0.196,0.356-0.539,0.489-0.684c0.141-0.152,0.082-0.187,0.38-0.345
		c0.519-0.614,1.607-0.941,2.42-0.773C73.19,87.091,72.698,88.323,72.565,89.101z M76.776,92.495c-0.475,0.9-1.121,1.631-1.756,2.42
		c-0.581,0.724-1.104,1.872-2.083,2.037c-0.23-0.72,0.016-1.866,0.07-2.628c0.076-1.058,0.096-2.11,0.172-3.175
		c0.054-0.753,0.071-1.519,0.163-2.267c0.067-0.555,0.117-1.25,0.259-1.776c0.187-0.698,0.811-0.421,1.364-0.094
		c0.466,0.275,0.976,0.42,1.334,0.855c0.319,0.388,0.448,0.897,0.619,1.356C77.334,90.342,77.334,91.438,76.776,92.495z"/>
	<path fill="#1F191A" d="M93.084,99.744c-1.226-0.989-2.467-2.157-3.812-2.977c-1.147-0.697-2.56-1.51-3.439-2.581
		c1.173,0.11,2.344,0.163,3.484-0.021c0.781-0.127,1.584-0.018,2.354-0.146c0.602-0.102,1.334-0.437,1.877-0.721
		c0.982-0.518,1.189-2.007,1.262-2.991c0.077-1.064-0.01-1.781-0.712-2.584c-1.102-1.265-2.563-1.374-4.121-1.566
		c-0.806-0.099-1.658-0.158-2.47-0.177c-0.521-0.01-1.852,0.323-2.277-0.021c-0.301-0.245-0.138-1.305-0.768-1.195
		c-0.518,0.092,0.271,0.906,0.162,1.277c-0.327,0.081-0.953-0.108-0.957,0.382c-0.003,0.338,0.48,0.24,0.343,0.732
		c0.126-0.05,0.283-0.104,0.396-0.245c0.23,0.311,0.092,0.896,0.113,1.294c0.035,0.632,0.038,1.22-0.008,1.865
		c-0.054,0.768-0.371,1.402-0.432,2.173c-0.042,0.529-0.34,0.71-0.417,1.186c-0.076,0.481,0.239,0.881,0.123,1.389
		c-0.136,0.598-0.551,1.044-0.621,1.71c-0.144,1.39-0.68,2.683-0.9,4.069c-0.117,0.732-0.21,1.674,0.283,2.246
		c0.439-0.338,0.382-1.233,0.442-1.75c0.088-0.73,0.039-1.517,0.227-2.224c0.372-1.398,0.901-2.768,1.194-4.222
		c1.026,0.175,1.753,0.783,2.538,1.431c1.004,0.829,2.04,1.68,3.063,2.481c1.044,0.818,1.856,2.131,3.065,2.706
		c0.366,0.175,0.823,0.25,0.926-0.311C94.087,100.485,93.445,100.038,93.084,99.744z M84.793,93.171
		c0.348-0.902,0.172-2.186,0.285-3.17c0.101-0.866-0.025-1.752,0.175-2.607c0.22-0.937,0.937-0.646,1.759-0.677
		c0.74-0.029,1.532,0,2.297,0.055c1.454,0.104,2.412,0.559,3.61,1.294c1.198,0.738,1.166,1.549,1.016,2.899
		c-0.12,1.066-0.812,1.634-1.82,1.866c-1.105,0.257-2.137,0.498-3.312,0.47c-0.619-0.015-1.208,0.025-1.827-0.021
		C86.325,93.232,85.414,93.017,84.793,93.171z"/>
	<path fill="#1F191A" d="M110.756,87.356c-0.835-0.479-2.173-0.76-3.113-0.414c-0.857,0.315-1.897,0.176-2.658,0.69
		c-0.465,0.315-1.15,0.655-1.468,1.084c-0.255,0.344-0.221,0.745-0.749,0.739c-0.233,1.658-3.056,3.655-1.517,5.453
		c0.42,0.49,0.772,0.988,1.354,1.312c0.667,0.373,1.372,0.492,2.106,0.646c0.599,0.123,1.118,0.28,1.752,0.293
		c0.744,0.018,1.347-0.251,2.055-0.337c0.599-0.07,1.665-0.148,2.042-0.693c-0.265-0.311-0.856-0.356-1.189-0.635
		c-0.433-0.36-0.445-0.443-1.051-0.518c-0.609-0.076-1.602-0.614-0.6-0.87c1.003-0.257,1.314,0.229,2.039,0.756
		c0.639,0.462,1.389,0.715,2.13,0.984c-0.034,1.407-1.672,1.118-2.73,1.289c-0.704,0.111-1.439,0.231-2.122,0.47
		c-0.662,0.232-1.318,0.557-2.084,0.438c-0.758-0.115-1.447-0.354-2.118-0.704c-0.652-0.34-1.122-0.852-1.754-1.218
		c-1.08-0.625-1.16-1.682-1.075-2.905c0.07-1.009,0.903-2.075,1.479-2.921c0.406-0.595,0.991-1.099,1.447-1.681
		c0.521-0.663,1.069-0.909,1.849-1.228c0.543-0.223,0.946-0.621,1.494-0.831c0.598-0.231,1.334-0.326,1.965-0.302
		c1.126,0.04,2.137-0.046,3.157,0.378c0.36,0.148,2.28,1.393,1.203,1.693C112.097,88.465,111.165,87.594,110.756,87.356z"/>
	<path fill="#1F191A" d="M128.434,97.011c-0.746-2.146-2.479-4.135-4.008-5.789c-0.474-0.513-1.084-0.886-1.62-1.332
		c-0.557-0.467-1.005-0.963-1.596-1.381c-0.42-0.295-2.208-2.179-2.674-1.322c0.902,0.558,0.121,1.339-0.195,2.059
		c-0.245,0.553-0.403,1.132-0.644,1.711c-0.568,1.37-0.83,2.694-1.011,4.17c-0.527-0.013-0.812-0.227-1.282-0.352
		c-0.108,0.427,0.549,0.737,0.924,0.729c0.053,0.677-0.378,1.457-0.582,2.087c-0.221,0.684-0.482,1.413-0.876,2.028
		c-0.294-0.155-0.632-0.569-0.761-0.854c-0.063-0.01-0.147-0.005-0.207-0.015c-0.134-0.027,0.228,0.863,0.268,0.926
		c0.099,0.155,0.49,0.75,0.659,0.794c0.521,0.133,1.244-1.806,1.479-2.271c0.232-0.468,0.345-0.848,0.485-1.346
		c0.102-0.361,0.155-1.002,0.522-1.182c0.411-0.2,1.452,0.022,1.933-0.011c0.548-0.036,1.101-0.017,1.647-0.057
		c1.016-0.073,2.024-0.329,2.984-0.672c0.504-0.18,0.812-0.4,1.263-0.681c0.593-0.371,0.736-0.062,1.14,0.452
		c0.352,0.448,0.671,0.919,0.942,1.419c0.26,0.474,0.918,1.037,0.319,1.375c-0.476,0.271-1.055-0.162-1.474-0.038
		c-0.693,0.208,0.11,0.414,0.467,0.422C127.283,97.898,128.826,98.143,128.434,97.011z M124.49,94.034
		c-0.356,0.207-0.968,0.253-1.365,0.37c-0.643,0.191-1.3,0.326-1.947,0.501c-1.182,0.32-2.545,0.153-3.799-0.006
		c0.129-0.544,0.398-1.082,0.5-1.665c0.107-0.623,0.294-1.15,0.554-1.714c0.489-1.062,0.516-2.41,1.175-3.39
		c0.668,0.143,1.312,0.857,1.798,1.285c0.506,0.445,1.046,1.005,1.481,1.489c0.26,0.29,0.399,0.643,0.65,0.928
		C124.024,92.39,125.802,93.277,124.49,94.034z"/>
	<path fill="#1F191A" d="M128.319,92.946c-0.46-0.191-2.188-0.186-1.903-0.968c0.63,0.016,1.23,0.408,1.836,0.33
		c0.166-1.296,0.2-2.672,0.295-3.988c0.037-0.526,0.076-1.04,0.163-1.539c0.06-0.346,0.052-1.069,0.265-1.354
		c0.39-0.524,0.647-0.1,0.69,0.377c0.046,0.509-0.141,1.042-0.221,1.53c-0.157,0.961-0.332,1.934-0.487,2.888
		c-0.062,0.392-0.313,1.908,0.011,2.157c0.383,0.292,1.834,0.089,2.28,0.033c0.687-0.085,1.371-0.073,2.046-0.292
		c0.319-0.102,1.505-0.874,0.513-0.896c-0.062-1.065-0.876-1.717-1.555-2.419c-0.347-0.359-0.675-0.743-1.024-1.124
		c-0.196-0.213-0.771-0.567-0.866-0.847c-0.236-0.702,0.728-0.024,0.981,0.18c0.41,0.331,0.766,0.768,1.09,1.186
		c0.609,0.785,1.28,1.415,1.987,2.07c0.397,0.368,0.725,1.023,0.884,1.511c0.146,0.444,0.479,1.398,1.104,1.438
		c0.017-0.19-0.033-0.719,0.275-0.681c0.342,0.042,0.166,0.629,0.163,0.843c-0.008,0.385-0.029,0.617,0.152,0.937
		c0.159,0.278,0.485,0.265,0.327,0.688c-0.662,0.298-1.425-0.985-1.775-1.439c-0.2-0.259-0.396-0.879-0.674-1.047
		c-0.272-0.165-0.588,0.188-0.972,0.319c-1.567,0.533-3.216,0.3-4.865,0.266c-0.072-0.001,0.441,1.982,0.38,2.163
		c-0.206,0.609-0.542,0.205-0.683-0.25C128.525,94.347,128.446,93.636,128.319,92.946z"/>
	<path fill="#1F191A" d="M129.331,84.518c0.035,0.029,0.08,0.047,0.136,0.05C129.992,83.842,128.902,84.159,129.331,84.518z"/>
	<path fill="#1F191A" d="M150.056,93.056c-0.108-0.068-0.488,0.129-0.722,0.054c-0.272-0.089-0.642-0.354-0.907-0.486
		c-0.591-0.291-1.097-0.811-1.678-1.168c-0.747-0.458-1.511-0.785-2.291-1.166c-0.393-0.191-1.564-0.479-1.595-0.937
		c-0.348-0.041-0.637-0.315-0.943-0.463c-0.291-0.143-0.61-0.192-0.921-0.299c0.707-0.729,1.879-0.925,2.703-1.432
		c1.035-0.639,1.563-1.127,1.703-2.386c0.123-1.101-0.012-2.235-1.189-2.615c-1.059-0.341-2.451-0.158-3.512,0.015
		c-0.593,0.096-1.197,0.325-1.444-0.191c-0.137-0.284,0.122-0.466-0.256-0.581c-0.252-0.078-0.399,0.001-0.529,0.192
		c-0.214,0.309-0.026,1.026,0.067,1.329c0.171,0.534,0.262,1.088,0.427,1.619c0.273,0.879,1.009,2.081,0.666,3.028
		c-0.176,0.487-0.662,0.386-0.73,0.948c-0.088,0.715,0.465,0.617,0.989,0.675c0.005,0.467,0.364,0.838,0.456,1.295
		c0.098,0.505,0.184,0.923,0.123,1.435c-0.064-0.004-0.141,0.008-0.205,0.002c-0.092,0.796-0.105,1.803,0.473,2.416
		c0.175,0.185,0.603,0.587,0.882,0.336c0.254-0.229-0.124-0.491-0.149-0.718c-0.021-0.194,0.089-0.327,0.083-0.5
		c-0.023-0.609-0.382-1.071-0.52-1.654c-0.081-0.338-0.289-1.92-0.06-2.046c0.425-0.235,1.681,0.757,2.016,0.961
		c0.775,0.474,1.555,1.218,2.383,1.553c0.25,0.102,0.504,0.102,0.745,0.229c0.303,0.156,0.557,0.445,0.852,0.604
		c0.566,0.302,1.267,0.434,1.799,0.76c0.449,0.277,0.793,0.959,1.258,0.476C150.274,94.082,150.391,93.268,150.056,93.056z
		 M140.799,87.59c0.118-0.706-0.161-1.293-0.435-1.943c-0.164-0.391-0.153-0.621-0.185-1.035c-0.022-0.296-0.462-0.96-0.374-1.207
		c0.106-0.302,0.827-0.372,1.097-0.447c0.456-0.13,0.98-0.318,1.461-0.336c0.98-0.039,1.744,0.555,1.817,1.521
		c0.073,0.94-0.238,1.539-0.934,2.098c-0.368,0.297-0.778,0.458-1.195,0.686C141.688,87.123,141.212,87.59,140.799,87.59z"/>
	<path fill="#1F191A" d="M151.355,77.21c-0.621-0.066-1.209,0.116-1.762,0.309c-0.509,0.18-0.59-1.997-0.599-2.187
		c-0.018-0.304,0.001-0.845-0.298-0.397c-0.219,0.327,0.037,1.259,0.126,1.607c0.089,0.356,0.531,0.985,0.446,1.345
		c-0.079,0.336-0.691,0.706-0.916,0.97c-1.314,1.54-1.376,3.826-1.45,5.81c-0.043,1.133-0.029,1.928,0.579,2.901
		c0.58,0.925,1.062,1.401,2.191,1.43c0.016-0.204-0.15-0.402-0.224-0.616c-0.069-0.202-0.037-0.406-0.122-0.614
		c-0.169-0.413-0.575-0.688-0.731-1.11c0.57,0.319,1.22,0.603,1.865,0.708c0.627,0.102,0.788,0.091,0.921-0.554
		c0.2-0.966,0.098-2.321-0.112-3.248c-0.13-0.57-0.069-1.178-0.187-1.735c-0.135-0.628-0.345-1.275-0.477-1.9
		c-0.286-1.352,0.936-1.079,1.609-1.827C152.721,77.537,151.85,77.263,151.355,77.21z M148.186,80.802
		c0.141-0.632,0.818-2.36,1.509-2.103C149.675,79.674,148.805,80.164,148.186,80.802c-0.007,0.035-0.016,0.067-0.019,0.097
		l-0.113,0.047C148.096,80.896,148.141,80.849,148.186,80.802z M148.268,87.948c-0.792,0.083-0.925-1.443-0.688-1.915
		C147.403,86.383,149.162,87.852,148.268,87.948z M150.444,82.992c0.054,1.281,0.379,2.447,0.218,3.76
		c-0.658,0.048-1.577-0.596-2.026-1.021c-0.586-0.555-0.843-1.329-0.771-2.144c0.092-1.09,0.487-2.164,1.215-2.99
		c0.285-0.322,0.693-0.87,1.022-0.437c0.179,0.236,0.062,0.822,0.077,1.106C150.21,81.846,150.419,82.396,150.444,82.992z
		 M150.266,78.711c-0.069-0.151-0.191-0.283-0.34-0.374c-0.03,0.012-0.061,0.024-0.089,0.034l0.059-0.053
		c0.011,0.007,0.021,0.014,0.03,0.019c0.403-0.146,0.963-0.505,1.356-0.407C151.112,78.24,150.576,78.471,150.266,78.711z"/>
	<path fill="#1F191A" d="M109.044,110.427c-1.782-0.221-3.846-0.322-5.59-0.001c-0.736,0.134-1.47,0.438-2.182,0.515
		c-1.272,0.133-2.504,0.037-3.812-0.059c-0.952-0.067-1.956-0.043-2.897-0.203c-0.732-0.125-1.362-0.374-2.154-0.432
		c-1.646-0.118-3.347-0.119-4.979-0.352c-1.83-0.26-3.692-0.49-5.45-0.878c-0.592-0.129-1.197-0.059-1.794-0.108
		c-0.494-0.04-0.983-0.22-1.477-0.24c-0.671-0.235-1.483-0.376-1.783-0.507c-1.348-0.585-2.716-0.855-4.153-1.097
		c-1.681-0.284-3.308-0.511-5.002-0.7c-1.414-0.158-2.59-0.666-3.979-0.9c-0.712-0.12-1.438-0.224-2.163-0.201
		c-0.643,0.021-1.24,0.284-1.866,0.31c-1.537,0.061-3.107-0.454-4.671-0.406c-1.579,0.048-3.116,0.404-4.675,0.585
		c-1.474,0.17-3.016,0.763-4.475,1.219c-0.337,0.104-1.221,0.413-1.291,0.873c-0.123,0.809,0.91,0.291,1.29,0.149
		c2.094-0.778,4.325-1.527,6.542-1.716c1.189-0.102,2.444-0.312,3.649-0.27c0.821,0.029,2.68-0.198,3.149,0.55
		c-0.887,0.384-1.493,0.154-2.226,0.884c-0.601,0.599-0.484,1.412-1.034,2.057c-0.652,0.763-1.478,1.028-1.98,1.973
		c-0.393,0.741-0.56,1.374-0.646,2.155c0.128-2.272-0.87-5.892-3.722-4.378c-1.017,0.541-2.336,1.514-3.06,2.409
		c-0.759,0.938-0.906,2.057-1.484,3.064c-0.083,0.146-0.115,0.35-0.2,0.512c-0.113-0.233-0.094-0.605-0.275-0.888
		c-0.028,0.001-0.154-0.008-0.182-0.014c-0.083,0.677,0.04,1.207,0.063,1.834c0.027,0.692-0.304,1.576-0.077,2.227
		c0.316-0.448,0.327-1.13,0.528-1.647c0.225-0.574,0.367-1.149,0.585-1.716c0.396-1.022,1.245-2.261,2.046-3.077
		c0.704-0.718,2.344-1.984,3.434-1.941c1.233,0.05,1.106,1.667,1.131,2.541c0.072,2.618-0.252,5.281-0.302,7.955
		c0.842,0.296,1.027-2.402,1.154-2.975c0.307-1.367,0.719-2.799,1.302-4.08c0.599-1.319,1.378-2.326,2.235-3.517
		c0.754-1.05,1.153-2.209,2.516-2.467c2.87-0.545,1.905,5.525,1.454,7.131c-0.224,0.802-0.665,1.241-1.032,1.945
		c-0.289,0.555-0.325,1.254-0.603,1.813c-0.362,0.732-0.876,1.455-1.239,2.168c-0.32,0.635-0.632,1.378-1.091,1.966
		c-0.926,1.186-2.287,2.018-3.186,3.251c-0.744,1.019-1.623,1.945-2.43,2.916c-0.946,1.138-1.836,2.351-2.734,3.564
		c-0.743,1.004-1.74,1.67-2.635,2.519c-0.184,0.174-0.329,0.38-0.519,0.554c-0.15-0.522-0.477-0.937-0.659-1.455
		c-0.218-0.619-0.371-1.27-0.547-1.899c-0.188-0.681-0.441-1.302-0.803-1.956c-0.387-0.698-0.457-1.165-0.541-1.945
		c-0.297-2.72-0.015-5.513,0.186-8.318c0.076-1.054,0.132-2.106,0.31-3.139c0.122-0.714,0.055-2.144,0.699-2.581
		c0.058,0.082,0.153,0.146,0.205,0.217c0.548-0.393,0.24-1.496-0.588-0.986c-0.426,0.263-0.541,1.14-0.684,1.571
		c-0.375,1.132-0.452,2.385-0.596,3.575c-0.159,1.32-0.329,2.634-0.418,3.932c-0.102,1.479-0.448,2.996-0.393,4.477
		c0.043,1.142,0.38,2.429,0.861,3.477c0.483,1.05,1.214,2.197,1.439,3.32c0.142,0.709,0.506,2.657,1.52,2.609
		c0.762-0.036,2.034-1.686,2.573-2.173c1.998-1.804,3.792-4.008,5.464-6.115c0.909-1.147,2.089-2.055,3.104-3.117
		c0.903-0.947,1.634-2.221,2.169-3.379c1.089-2.354,2.797-4.564,3.479-7.071c0.351-1.296,0.462-2.887,0.391-4.252
		c-0.058-1.123-0.101-2.734-1.19-3.436c-0.164-0.104-0.383-0.148-0.592-0.137c0.006-0.029,0.015-0.155,0.013-0.185
		c3.455,0.065,6.936,0.373,10.272,1.219c1.928,0.491,3.768,0.722,5.558,1.598c0.3,0.147,1.21,0.52,2.012,0.698
		c1.326,0.643,3.115,0.436,4.527,0.536c2.689,0.193,5.335,0.494,7.985,0.779c3.358,0.359,6.999,1.163,10.396,0.865
		c1.451-0.128,2.744-0.905,4.216-0.914C106.152,111.106,109.287,111.668,109.044,110.427z"/>
	<path fill="#1F191A" d="M73.085,112.13c-1.007-0.073-1.869-0.139-2.721,0.477c-0.438,0.314-0.884,0.513-1.289,0.866
		c-0.354,0.307-0.756,0.505-1.119,0.799c-0.767,0.623-1.39,1.27-1.957,2.059c-0.503,0.7-1.105,1.444-1.357,2.264
		c-0.581,1.897-0.306,3.916,0.426,5.693c0.32,0.775,0.458,1.501,0.969,2.188c0.614,0.823,1.097,1.878,1.911,2.512
		c0.568,0.443,1.162,1.153,1.853,1.391c0.499,0.171,1.016,0.375,1.496,0.631c0.834,0.441,1.919,0.669,2.851,0.811
		c1.276,0.193,2.542,0.359,3.837,0.384c0.603,0.011,1.134-0.088,1.647-0.396c0.427-0.254,0.792-0.58,1.244-0.785
		c1.601-0.728,2.171-2.34,2.829-3.853c0.298-0.688,0.718-1.374,0.964-2.076c0.171-0.489,0.178-1.04,0.215-1.559
		c0.039-0.539-0.01-1.086-0.168-1.605c-0.132-0.431-0.168-0.887-0.291-1.317c-0.253-0.874-0.859-1.746-1.261-2.564
		c-0.197-0.401-0.313-0.775-0.634-1.106c-0.408-0.419-0.798-0.816-1.155-1.284c-0.492-0.65-1.246-0.965-1.875-1.459
		c-0.57-0.448-1.321-0.502-2.044-0.554c-0.728-0.052-1.621-0.223-2.321,0.019c-0.589,0.203-1.215,0.677-1.748,0.999
		c-0.613,0.366-1.157,0.979-1.703,1.432c-0.618,0.515-1.244,1.176-1.66,1.859c-0.414,0.685-0.898,1.195-1.139,1.934
		c-0.208,0.643-0.38,1.631-0.073,2.266c0.317,0.655,0.878,1.423,1.399,1.922c0.557,0.533,1.171,0.684,1.883,0.884
		c0.869,0.243,1.787,0.271,2.694,0.335c0.716,0.052,1.721,0.29,2.337-0.124c0.316-0.212,0.52-0.573,0.641-0.938
		c0.05-0.146,0.034-0.302,0.103-0.45c0.112-0.245,0.333-0.422,0.464-0.666c0.185-0.337,0.17-0.648,0.22-1.017
		c0.062-0.439,0.204-0.841,0.234-1.285c0.113-1.634-0.917-2.789-2.383-3.356c-0.634-0.247-1.488-0.345-2.191-0.334
		c-0.799,0.012-1.426,0.257-1.911,0.846c-0.548,0.667-0.746,1.174-0.81,2.061c-0.047,0.648-0.047,1.455,0.428,1.942
		c0.446,0.457,1.342,0.721,1.968,0.573c0.781-0.184,1.19-1.062,1.296-1.78c0.063-0.417,0.147-0.962-0.056-1.306
		c-0.189-0.316-0.443-0.353-0.692-0.551c-0.359-0.285-0.061-0.415,0.299-0.265c0.252,0.105,0.457,0.371,0.632,0.569
		c0.438,0.495,0.231,1.164,0.155,1.785c-0.084,0.701-0.268,1.03-0.812,1.504c-0.396,0.347-0.612,0.651-1.149,0.618
		c-0.386-0.024-0.805-0.021-1.177-0.119c-0.302-0.08-0.823-0.278-0.995-0.559c-0.147-0.237-0.152-0.665-0.185-0.939
		c-0.135-1.12-0.209-3.271,0.825-3.937c1.09-0.702,2.31-1.256,3.615-0.834c0.359,0.116,0.804,0.07,1.152,0.229
		c0.265,0.123,0.588,0.404,0.812,0.59c0.527,0.439,0.915,1.081,1.293,1.646c0.702,1.046,0.36,2.792-0.057,3.905
		c-0.376,1.005-0.934,2.639-2.23,2.818c-0.779,0.107-1.639-0.014-2.436-0.07c-0.867-0.062-1.791-0.119-2.623-0.327
		c-1.513-0.379-2.607-1.612-3.072-3.084c-0.354-1.119-0.371-3.033,0.336-4.077c0.476-0.702,1.029-1.229,1.616-1.829
		c0.543-0.554,1.158-1.25,1.814-1.643c0.316-0.19,0.622-0.363,0.923-0.57c0.339-0.236,0.738-0.547,1.117-0.72
		c0.279-0.127,0.543-0.155,0.83-0.301c0.277-0.142,0.554-0.277,0.87-0.29c0.72-0.028,1.476,0.138,2.179,0.155
		c0.896,0.021,1.469,0.367,2.215,0.788c0.772,0.434,1.372,1.172,2.002,1.776c0.152,0.147,0.34,0.269,0.483,0.416
		c0.192,0.193,0.284,0.446,0.437,0.688c0.215,0.339,0.436,0.629,0.589,1.018c0.159,0.406,0.266,0.881,0.485,1.246
		c0.189,0.313,0.414,0.488,0.478,0.874c0.057,0.335,0.049,0.715,0.136,1.034c0.087,0.312,0.269,0.613,0.352,0.938
		c0.17,0.654,0.049,1.412,0.032,2.1c-0.02,0.779-0.097,1.457-0.306,2.191c-0.262,0.925-0.92,1.709-1.353,2.562
		c-0.377,0.742-0.685,1.767-1.363,2.294c-0.271,0.215-0.661,0.282-0.948,0.438c-0.437,0.239-0.849,0.449-1.245,0.725
		c-0.427,0.296-0.916,0.269-1.408,0.356c-0.384,0.07-0.752,0.256-1.15,0.272c-1.136,0.047-2.291,0.049-3.418-0.133
		c-0.698-0.112-1.389-0.154-2.078-0.322c-0.511-0.125-0.929-0.421-1.387-0.676c-0.875-0.489-1.646-1.099-2.457-1.668
		c-0.379-0.266-0.78-0.494-1.074-0.872c-0.233-0.304-0.408-0.66-0.642-0.968c-0.278-0.362-0.51-0.681-0.806-1.02
		c-0.12-0.137-0.174-0.329-0.273-0.479c-0.2-0.31-0.546-0.487-0.694-0.829c-0.284-0.655-0.251-1.43-0.545-2.087
		c-0.287-0.644-0.369-1.491-0.48-2.188c-0.123-0.764-0.183-1.653-0.079-2.439c0.2-1.511,1.152-2.96,2.24-4.009
		c0.581-0.56,1.21-1.073,1.869-1.536c0.606-0.426,1.321-0.738,1.947-1.14c1.025-0.659,2.475-1.115,3.71-0.718
		c-0.057,0.295,0.007,0.544-0.294,0.484c-0.1-0.02-0.223-0.177-0.338-0.211c-0.124-0.038-0.292-0.02-0.421-0.029L73.085,112.13z"/>
	<path fill="#1F191A" d="M93.174,120.984c-0.008-0.343,0.005-0.545-0.156-0.842c-0.15-0.277-0.229-0.35-0.226-0.671
		c0.008-0.477,0.022-1.024,0.152-1.48c0.27-0.946,0.912-1.334,1.829-1.446c0.762-0.093,1.604-0.628,2.22,0.155
		c0.464,0.589,0.433,1.526,0.416,2.259c-0.013,0.499-0.104,2.016,0.651,1.207c0.573-0.611,0.553-1.441,0.775-2.228
		c0.112-0.397,0.434-0.858,0.645-1.218c0.177-0.299,0.497-0.541,0.859-0.593c1.83-0.255,0.877,3.894,0.774,4.75
		c-0.114,0.933-0.287,1.911-0.613,2.795c-0.204,0.558-0.565,1.105-0.67,1.698c-0.091,0.518-0.197,1.015-0.303,1.529
		c-0.352,1.727-1.114,3.249-1.921,4.812c-0.445,0.864-0.693,1.855-1.043,2.771c-0.195,0.509-0.348,0.938-0.452,1.46
		c-0.057,0.285-0.133,0.562-0.258,0.821c-0.513-0.053-0.882-1.579-0.975-1.977c-0.197-0.858-0.446-1.66-0.55-2.55
		c-0.101-0.874-0.3-1.754-0.38-2.643c-0.055-0.604-0.011-1.476-0.315-2.024c-0.057-0.102-0.1-0.199-0.172-0.284
		c-0.466,0.305-0.22,1.536-0.21,1.991c0.018,0.85,0.062,1.606,0.229,2.438c0.347,1.72,0.82,3.404,1.584,4.996
		c0.174,0.36,0.537,1.604,1.16,1.23c0.28-0.168,0.259-0.786,0.322-1.077c0.091-0.427,0.218-0.693,0.414-1.096
		c0.366-0.744,0.661-1.594,0.872-2.396c0.239-0.91,0.663-1.771,0.994-2.621c0.325-0.833,0.819-1.616,1.096-2.5
		c0.249-0.804,0.472-1.62,0.711-2.41c0.303-0.997,0.732-1.996,1.031-3.001c0.119-0.402,0.326-0.819,0.397-1.235
		c0.076-0.446,0.065-0.934,0.099-1.385c0.105-1.465,0.711-3.793-0.849-4.687c-0.579-0.332-1.407-0.396-1.979,0.02
		c-0.603,0.436-0.881,1.349-1.136,1.996c-0.062,0.157-0.156,0.312-0.188,0.476c0.006-0.305-0.086-0.557-0.161-0.846
		c-0.08-0.311-0.048-0.658-0.16-0.958c-0.211-0.553-0.663-0.926-1.246-0.989c-1.188-0.128-2.834,0.229-3.41,1.399
		c-0.086-0.418,0.041-0.972,0.166-1.363c0.083-0.26,0.577-0.896,0.241-1.065c-0.247,0.128-0.401,0.58-0.524,0.817
		c-0.166,0.324-0.288,0.774-0.388,1.139c-0.2,0.725-0.334,1.457-0.389,2.219c-0.05,0.701-0.139,1.452,0.041,2.117
		c0.104,0.385,0.275,0.682,0.267,1.11c-0.013,0.506-0.032,1.02,0.084,1.501c0.063,0.267,0.132,0.488,0.14,0.761
		c0.006,0.22-0.105,0.544,0.138,0.698c0.283,0.181,0.23-0.139,0.236-0.376C93.068,123.123,93.197,122.051,93.174,120.984z"/>
	<path fill="#1F191A" d="M92.617,125.153c-0.104,0.31,0.358,1.496,0.619,1.621c-0.085,0.052-0.104,0.145-0.171,0.212
		c0.135-0.135,0.412,0.074,0.454-0.266c0.006-0.051-0.132-0.539-0.151-0.648C93.334,125.882,92.824,124.525,92.617,125.153z"/>
	<path fill="#1F191A" d="M112.772,123.139c-0.679,0.284-1.531,0.716-2.063,1.218c-0.603,0.565-1.152,1.397-1.412,2.171
		c-0.25,0.747-0.336,1.406-0.394,2.22c-0.042,0.576-0.055,1.102,0.043,1.667c0.092,0.538-0.034,1.069,0.245,1.537
		c0.234,0.392,0.428,0.675,0.602,1.09c0.173,0.406,0.456,0.729,0.769,1.035c0.737,0.721,1.477,1.2,2.493,1.369
		c0.823,0.137,1.822,0.28,2.568-0.102c0.822-0.421,1.354-1.146,1.951-1.81c0.401-0.448,0.982-0.862,1.125-1.475
		c0.103-0.436,0.104-0.79,0.299-1.217c0.199-0.441,0.4-0.803,0.653-1.211c0.253-0.409,0.274-0.859,0.45-1.296
		c0.25-0.625,0.566-1.558,0.197-2.213c-0.421-0.749-1.511-0.785-2.25-0.906c-0.739-0.122-1.649-0.192-2.334,0.125
		c-0.31,0.144-0.62,0.305-0.925,0.451c-0.33,0.157-0.703,0.226-0.986,0.473c-0.491,0.423-0.936,1.054-1.3,1.592
		c-0.367,0.538-0.409,1.104-0.456,1.747c-0.047,0.657-0.175,1.34,0.543,1.652c0.675,0.291,1.509,0.102,1.994-0.433
		c0.349-0.38,1.054-1.371,0.728-1.925c-0.224-0.382-1.146-0.333-1.475-0.202c-0.261,0.103-0.403,0.32-0.622,0.435
		c-0.277,0.146-0.383-0.073-0.266-0.369c0.231-0.581,0.923-0.679,1.472-0.64c0.305,0.023,0.728-0.015,0.985,0.128
		c0.325,0.18,0.359,0.523,0.371,0.838c0.027,0.747-0.027,1.444-0.658,1.937c-0.496,0.387-1.055,0.657-1.675,0.787
		c-0.369,0.077-0.781,0.007-1.164-0.02c-0.481-0.034-0.806-0.17-0.9-0.688c-0.065-0.361-0.017-0.793-0.037-1.161
		c-0.024-0.414,0.004-0.858,0.114-1.256c0.106-0.382,0.243-0.709,0.472-1.035c0.24-0.345,0.424-0.461,0.485-0.905
		c0.048-0.353,0.104-0.757,0.247-1.076c0.096-0.213,0.203-0.704,0.4-0.816c0.007,0.314-0.091,0.608-0.124,0.918
		c-0.033,0.304-0.178,0.786,0.209,0.605c0.114-0.055,0.274-0.25,0.381-0.336c0.209-0.168,0.442-0.339,0.681-0.482
		c0.353-0.207,0.744-0.396,1.12-0.612c0.294-0.171,0.597-0.369,0.917-0.426c0.439-0.075,0.915-0.086,1.357-0.089
		c0.812-0.008,1.528,0.104,2.259,0.457c1.287,0.621,1.109,2.855,0.845,4.039c-0.183,0.815-0.551,1.569-0.913,2.324
		c-0.156,0.321-0.276,0.685-0.475,0.979c-0.296,0.437-0.722,0.778-1.012,1.224c-0.964,1.479-2.235,2.852-4.131,2.716
		c-0.965-0.068-2.027-0.036-2.884-0.537c-0.27-0.156-0.508-0.489-0.694-0.721c-0.251-0.312-0.592-0.537-0.823-0.846
		c-0.87-1.154-1.245-2.384-1.498-3.735c-0.049-0.26,0.018-0.637,0.023-0.897c0.008-0.396,0.058-0.793,0.086-1.187
		c0.062-0.858,0.159-1.641,0.5-2.42c0.256-0.586,0.606-1.23,1.061-1.712c0.277-0.294,0.503-0.396,0.852-0.561
		c0.366-0.177,0.611-0.468,0.985-0.635c0.559-0.249,1.121-0.408,1.721-0.542c0.292-0.064,1.193-0.194,1.392,0.111
		c0.232,0.36-0.479,0.252-0.667,0.26C113.721,122.777,113.239,122.943,112.772,123.139z"/>
	<path fill="#1F191A" d="M123.076,130.823c-0.145-0.256-0.221-0.538-0.229-0.831c-0.022-0.824,0.047-1.661,0.105-2.488
		c0.057-0.777,0.064-1.739,0.487-2.402c0.438-0.688,1.093-0.737,1.822-0.831c0.733-0.096,1.587,0.175,2.148,0.676
		c0.406,0.364,0.623,0.806,0.922,1.259c0.288,0.439,0.646,0.812,0.709,1.345c0.07,0.589,0.016,1.203,0.088,1.806
		c0.066,0.557,0.06,1.079,0.019,1.639c-0.031,0.438-0.125,0.918-0.097,1.355c0.007,0.11-0.067,0.361,0.142,0.334
		c0.13-0.018,0.089-0.241,0.149-0.318c0.002-0.009,0.005-0.018,0.008-0.026c0.027,0.03,0.116,0.071,0.145,0.104
		c0.129-1.062,0.128-2.177,0.205-3.255c0.078-1.073,0.49-2.208,1.059-3.122c0.538-0.865,1.071-1.781,1.701-2.594
		c0.554-0.715,1.136,0.078,1.197,0.687c0.108,1.088-0.139,2.363-0.415,3.41c-0.333,1.267-0.869,2.319-1.55,3.45
		c-0.463,0.771-0.782,1.632-1.194,2.43c-0.28,0.54-0.7,1.033-1.065,1.518c-0.644,0.849-1.199,1.863-1.604,2.834
		c-0.104,0.248-0.106,0.706-0.431,0.804c-0.301,0.092-0.466-0.23-0.607-0.457c-0.433-0.695-0.664-1.639-0.767-2.453
		c-0.062-0.491-0.092-0.827-0.351-1.285c-0.271-0.483-0.378-0.982-0.549-1.498c-0.155-0.468-0.38-0.903-0.541-1.369
		c-0.107-0.309-0.121-0.597-0.209-0.896c-0.075-0.253-0.259-0.562-0.403-0.714c-0.235-0.251-0.835-0.258-0.481,0.137
		c0.088,0.098,0.218,0.02,0.312,0.185c0.066,0.12,0.022,0.352,0.062,0.492c0.075,0.271,0.188,0.572,0.295,0.831
		c0.341,0.832,0.3,1.708,0.624,2.53c0.169,0.429,0.325,0.869,0.487,1.307c0.195,0.533,0.564,0.95,0.8,1.451
		c0.234,0.503,0.348,1.072,0.536,1.593c0.115,0.317,0.175,0.765,0.487,0.879c0.4,0.143,0.605-0.145,0.724-0.472
		c0.229-0.639,0.459-1.101,0.854-1.652c0.271-0.376,0.556-0.725,0.818-1.107c0.56-0.817,0.921-1.715,1.49-2.516
		c0.588-0.825,0.917-1.76,1.325-2.694c0.361-0.824,0.785-1.662,1.075-2.52c0.149-0.438,1.227-4.543,0.632-4.584
		c0.015-0.214-0.154-0.551-0.276-0.721c-0.206-0.284-0.426-0.361-0.775-0.386c-0.788-0.059-1.178,0.339-1.496,0.993
		c-0.332,0.687-0.729,1.358-1.092,2.027c-0.188,0.341-0.371,0.695-0.523,1.06c-0.072,0.173-0.167,0.811-0.338,0.888
		c0.006-0.002-0.057,0.061-0.055,0.059c0.084-0.637-0.351-1.597-0.661-2.159c-0.459-0.839-1.268-1.261-2.113-1.576
		c-0.631-0.237-1.576-0.262-2.235-0.154c-0.95,0.155-1.172,0.583-1.583,1.32c-0.319,0.576-0.354,1.204-0.455,1.839
		c-0.123,0.76-0.323,1.549-0.144,2.333c0.131,0.565,0.315,1.108,0.498,1.646c0.071,0.208,0.447,0.885,0.702,0.817
		C123.874,131.673,123.17,130.986,123.076,130.823z"/>
	<path fill="#1F191A" d="M139.338,127.977c-0.351,0.348-0.465,0.696-0.639,1.153c-0.253,0.671-0.441,1.325-0.493,2.047
		c-0.065,0.956-0.116,1.879-0.058,2.827c0.031,0.491,0.163,0.918,0.314,1.38c0.137,0.418,0.262,0.886,0.502,1.262
		c0.215,0.335,0.538,0.915,0.925,1.087c0.3,0.132,0.685,0.145,1.009,0.184c0.271,0.032,0.51,0.078,0.778,0.019
		c0.431-0.094,0.627-0.36,0.899-0.683c0.616-0.729,0.983-1.512,1.331-2.387c0.076-0.189,0.097-0.395,0.12-0.595
		c0.04-0.357,0.126-0.707,0.168-1.064c0.053-0.437,0.12-0.956-0.013-1.381c-0.079-0.25-0.219-0.504-0.351-0.73
		c-0.114-0.195-0.179-0.424-0.328-0.593c-0.219-0.249-0.635-0.445-0.966-0.48c-0.359-0.041-0.829-0.117-1.168,0.029
		c-0.292,0.127-0.645,0.363-0.898,0.558c-0.51,0.386-0.382,1.273-0.451,1.847c-0.101,0.834-0.268,1.874-0.004,2.68
		c0.134,0.407,0.474,0.274,0.759,0.094c0.533-0.336,0.537-0.829,0.569-1.423c0.014-0.274-0.038-0.956-0.476-0.858
		c-0.282,0.063-0.146,0.437-0.366,0.538c-0.086-0.108-0.218-0.515,0.035-0.523c-0.061-0.058-0.105-0.151-0.019-0.232
		c0.131,0.126,0.328-0.226,0.469-0.288c0.248-0.108,0.429-0.011,0.503,0.221c0.117,0.371,0.163,0.82,0.193,1.206
		c0.04,0.528-0.237,1.229-0.589,1.609c-0.128,0.136-0.744,0.548-0.941,0.463c-0.132-0.056-0.103-0.189-0.081-0.325
		c0.051-0.001,0.096-0.041,0.147-0.041c0.009-0.031,0.011-0.067,0.008-0.1c-0.07-0.03-0.151-0.137-0.196-0.154
		c-0.073-0.026-0.199,0.025-0.285-0.018c-0.212-0.101-0.337-0.375-0.374-0.579c-0.127-0.691,0.003-1.456,0.052-2.163
		c0.029-0.414,0.174-0.774,0.235-1.167c0.055-0.368,0.201-0.563,0.36-0.899c0.144-0.302,0.248-0.496,0.572-0.672
		c0.152-0.083,0.345-0.18,0.515-0.223c0.197-0.053,0.385,0.013,0.584-0.01c0.271-0.031,0.478-0.062,0.761-0.054
		c0.405,0.009,0.661,0.075,1.035,0.209c0.73,0.261,0.797,1.062,1.095,1.689c0.159,0.333,0.092,0.774,0.111,1.143
		c0.019,0.348,0.062,0.712,0.055,1.059c-0.011,0.404-0.026,0.858-0.154,1.244c-0.168,0.505-0.49,0.913-0.747,1.368
		c-0.237,0.421-0.563,0.748-0.843,1.131c-0.193,0.263-0.369,0.523-0.633,0.712c-0.604,0.433-1.154,0.436-1.879,0.357
		c-0.718-0.077-1.317-0.307-1.58-0.977c-0.169-0.434-0.572-0.697-0.7-1.156c-0.079-0.278-0.082-0.553-0.146-0.825
		c-0.126-0.516-0.358-1.025-0.379-1.562c-0.03-0.784-0.101-1.532-0.076-2.322c0.042-1.446,0.462-2.886,1.37-4.004
		c0.232-0.287,0.441-0.594,0.691-0.865c0.163-0.18,0.618-0.678,0.904-0.588c0.474,0.148-0.099,0.615-0.238,0.734
		C139.959,127.202,139.69,127.632,139.338,127.977z"/>
	<path fill="#1F191A" d="M157.693,130.4c-0.329-0.212-0.34,0.423-0.366,0.628c-0.054,0.454-0.123,0.913-0.159,1.362
		c-0.038,0.483-0.229,0.838-0.346,1.31c-0.113,0.45-0.164,0.938-0.365,1.365c-0.244,0.521-0.438,1.009-0.651,1.535
		c-0.388,0.949-1.222,1.644-1.563,2.607c-0.226,0.631-0.357,1.31-0.736,1.893c-0.718,1.104-1.583,2.18-2.612,3.017
		c-0.159-0.416-0.427-0.666-0.521-1.115c-0.087-0.412-0.03-0.851-0.07-1.265c-0.086-0.882-0.071-1.79-0.189-2.664
		c-0.096-0.705-0.036-1.423-0.14-2.115c-0.107-0.725-0.424-1.419-0.625-2.126c-0.129-0.454-0.197-0.927-0.322-1.378
		c-0.171-0.618-0.482-1.211-0.688-1.831c-0.139-0.419-0.235-0.882-0.293-1.315c-0.006-0.038-0.012-0.07-0.017-0.107
		c0.026-0.07,0.053-0.141,0.078-0.211c0.183-0.484,0.442-0.86,0.675-1.322c0.206-0.409,0.348-0.836,0.61-1.225
		c0.412-0.614,1.099-0.702,1.666-0.19c0.47,0.426,1.183,0.822,1.383,1.487c0.229,0.757-0.028,1.888-0.119,2.652
		c-0.107,0.939-0.403,1.798-0.431,2.759c-0.019,0.678-0.233,1.969,0.802,1.934c0.942-0.032,0.893-1.438,0.958-2.088
		c0.061-0.582,0.288-1.135,0.382-1.71c0.075-0.444,0.045-0.884,0.286-1.269c0.293-0.466,0.743-0.737,0.912-1.3
		c0.086-0.29,0.098-0.794,0.351-0.951c0.226-0.141,0.646-0.06,0.871,0.015c0.452,0.15,0.572,0.428,0.802,0.79
		c0.335-0.255-0.073-0.875-0.291-1.086c-0.357-0.35-1.058-0.512-1.564-0.438c-0.691,0.104-0.861,1.277-1.069,1.806
		c-0.221,0.565-0.624,1.027-0.849,1.591c-0.245,0.617-0.355,1.294-0.405,1.984c-0.026,0.377,0.069,1.733-0.383,1.844
		c-0.251-0.263-0.116-0.893-0.072-1.238c0.04-0.342,0.056-0.72,0.131-1.056c0.14-0.604,0.429-1.057,0.416-1.722
		c-0.015-0.723-0.039-1.503-0.197-2.213c-0.062-0.281-0.124-0.471-0.264-0.731c-0.19-0.36-0.418-0.524-0.662-0.818
		c-0.281-0.338-0.43-0.668-0.787-0.97c-0.354-0.3-0.62-0.311-1.087-0.34c-0.702-0.042-0.965,0.651-1.33,1.175
		c-0.441,0.632-0.78,1.295-1.114,1.973c-0.048-0.071-0.102-0.147-0.164-0.23c-0.3-0.393-0.456-0.903-0.528-1.385
		c-0.065-0.423-0.027-0.964-0.168-1.376c-0.581-0.068-0.309,1.148-0.286,1.465c0.045,0.614,0.335,1.275,0.613,1.828
		c0.065,0.128,0.122,0.264,0.174,0.401c-0.163,0.325-0.3,0.644-0.342,1.052c-0.046,0.446-0.064,0.896-0.096,1.345
		c-0.06,0.818-0.036,1.499,0.39,2.231c0.152,0.261,0.329,0.408,0.549,0.613c0.174,0.165,0.319,0.683,0.588,0.63
		c0.032-0.293-0.289-0.452-0.434-0.674c-0.826-1.273-0.701-2.709-0.304-4.082c0.053,0.189,0.109,0.381,0.169,0.565
		c0.121,0.367,0.281,0.789,0.338,1.165c0.062,0.405,0.023,0.84,0.141,1.247c0.293,1.022,0.995,1.884,1.113,2.959
		c0.148,1.35-0.053,2.729,0.23,4.088c0.065,0.312,0.141,0.626,0.184,0.937c0.062,0.437,0.243,0.783,0.371,1.204
		c0.089,0.289,0.159,1.368,0.477,1.478c0.293,0.101,0.646-0.412,0.796-0.556c0.519-0.498,1.075-0.938,1.555-1.484
		c1.06-1.204,1.705-2.752,2.421-4.166c0.35-0.692,0.519-1.477,0.948-2.135c0.445-0.678,0.587-1.349,0.794-2.112
		c0.29-1.054,0.443-2.098,0.521-3.201C157.791,130.929,157.901,130.535,157.693,130.4z"/>
	<path fill="#1F191A" d="M129.124,106.454c-0.876-0.203-2.067,0.801-2.95,0.965c-1.347,0.251-2.492,0.987-3.818,1.303
		c-1.636,0.39-3.28,0.586-4.88,1.113c-1.314,0.434-2.772-0.064-4.112,0.232c-1.246,0.277-2.546,0.04-3.832,0.083
		c-0.479,0.015-0.944,0.143-1.43,0.174c-0.434,0.027-0.892-0.082-1.33-0.051c-0.522,0.038-0.872,0.506-0.29,0.796
		c0.345,0.172,0.893,0.202,1.275,0.193c1.245-0.02,2.545-0.031,3.821-0.044c0.719-0.007,1.293-0.157,1.992-0.308
		c0.945-0.205,1.652-0.309,2.652-0.235c1.271,0.092,2.539-0.07,3.726-0.55c1.755-0.711,3.604-1.147,5.374-1.915
		c0.631-0.273,1.249-0.388,1.86-0.604c0.4-0.14,0.812-0.26,1.192-0.449C128.435,107.13,129.293,106.493,129.124,106.454z"/>
	<path fill="#1F191A" d="M137.428,105.568c-0.854,0.055-1.684,0.14-2.518,0.235c-0.652,0.076-4.973-0.426-4.683,0.853
		c0.491,0.258,1.062-0.198,1.562-0.249c0.639-0.068,1.223-0.188,1.872-0.142c0.844,0.061,1.688,0.101,2.536,0.095
		c0.655-0.004,1.608,0.1,2.224-0.155C139.727,105.666,137.844,105.542,137.428,105.568z"/>
	<path fill="#1F191A" d="M141.996,106.036c-0.314,0.217-1.496,0.342-1.902,0.231c-0.534-0.146-0.482-0.689,0.009-0.792
		c1.157-0.24,2.282,0.243,3.443-0.158c1.228-0.425,2.473-0.637,3.787-0.602c1.582,0.042,3.277,0.016,4.819,0.333
		c2.768,0.57,5.64,0.459,8.413,0.257c0.626-0.045,1.342,0.135,1.974,0.178c0.457,0.032,1.15,0.034,1.033,0.616
		c-0.136,0.69-1.139,0.33-1.644,0.271c-0.918-0.108-1.855-0.143-2.774-0.163c-1.977-0.045-3.925-0.04-5.903-0.288
		c-1.255-0.158-2.493-0.408-3.758-0.497c-0.749-0.053-1.586-0.299-2.335-0.169c-0.659,0.116-1.345,0.314-2.004,0.469
		c-0.645,0.152-1.273,0.143-1.938,0.179c-0.81,0.046-1.521,0.361-2.296,0.428c-0.148,0.012-0.279-0.013-0.418,0.013L141.996,106.036
		z"/>
</g>
<path fill="#FFB492" d="M-164.033,198.87l93.031-70.367L-100.29,20.914c0,0-131.318-48.393-137.095-46.088
	c-5.776,2.306-184.615,0-184.615,0v130.693l160.564,107.66L-164.033,198.87z"/>
</svg>
