<?xml version="1.0" encoding="utf-8"?>
<!-- Generator: Adobe Illustrator 16.0.0, SVG Export Plug-In . SVG Version: 6.00 Build 0)  -->
<!DOCTYPE svg PUBLIC "-//W3C//DTD SVG 1.1//EN" "http://www.w3.org/Graphics/SVG/1.1/DTD/svg11.dtd">
<svg version="1.1" id="Layer_1" xmlns="http://www.w3.org/2000/svg" xmlns:xlink="http://www.w3.org/1999/xlink" x="0px" y="0px"
	 width="200px" height="200px" viewBox="0 0 200 200" enable-background="new 0 0 200 200" xml:space="preserve">
<circle fill="#FFB492" cx="99.576" cy="99.999" r="95.915"/>
<g>
	<path fill="#1F191A" d="M89.702,85.652c-0.083-0.713-0.153-2.693-1.526-3.364c-0.718-0.35-1.036,0.083-1.282,0.448
		c-0.478,0.697-0.555,1.743-0.713,2.64c-0.153,0.881-0.15,1.876-0.123,2.797c0.025,0.83-0.186,4.929,1.869,5.757
		c1.454,0.587,1.617-1.359,1.712-2.178C89.897,89.566,89.943,87.786,89.702,85.652"/>
	<path fill="#1F191A" d="M111.554,71.212l21.062-0.296l-4.086,3.753l33.822,10.51c0.209-4.245-0.379-14.11-0.379-14.11
		l-24.992,1.714l7.325-8.607L111.554,71.212z"/>
	<path fill="#1F191A" d="M123.48,39.478c-0.01,0.006-0.014,0.006-0.021,0.014l0.012,0.007
		C123.476,39.492,123.479,39.485,123.48,39.478"/>
	<path fill="#1F191A" d="M123.371,81.521c-7.077-2.41-14.182-4.74-21.254-7.152c-2.607-0.895-5.12-1.326-7.864-0.312
		c-3.73,1.376-7.57,2.457-11.37,3.634c-5.505,1.702-11.017,3.382-16.526,5.059c-5.724,1.736-11.463,3.439-17.175,5.222
		c-0.56,0.172-0.995,0.755-1.63,1.263c-1.824-1.492-2.833,0.944-4.803,1.354c2.531,0.94,4.634,1.788,6.771,2.508
		c11.813,3.966,23.622,7.948,35.471,11.802c1.455,0.47,3.252,0.61,4.708,0.222c5.023-1.342,9.94-3.095,14.957-4.479
		c2.643-0.729,5.399-1.355,8.122-1.445c5.033-0.155,10.081,0.149,15.123,0.209c6.613,0.079,13.227,0.026,19.843,0.176
		c7.62,0.173,15.236,0.526,22.861,0.729c1.57,0.047,3.15-0.221,4.732-0.341c0.05-0.209,0.102-0.412,0.151-0.619
		c-0.992-0.391-1.966-0.83-2.974-1.168c-6.623-2.213-13.259-4.365-19.866-6.616C142.881,88.25,133.139,84.853,123.371,81.521
		 M81.687,89.312c-0.669-1.979-0.021-4.082,1.46-5.811c1.694-1.987,4.773-3.395,8.27-0.024c3.333,3.217,4.017,9.66-0.757,11.078
		c-1.007,0.301-2.93,0.323-4.698-0.587C83.727,92.806,82.152,90.682,81.687,89.312 M103.13,93.54
		c0.702-2.599-3.056-7.402,1.005-8.939c-0.054,0.815-0.517,1.272-0.565,2.004C103.427,88.764,104.837,91.772,103.13,93.54
		 M104.435,84.168c-2.355-1.333-1.756-3.121,0.237-2.894c-1.211-2.009-4.56-2.271-5.943-1.511c-0.711,0.39-1.176,0.985-1.04,1.745
		c1.511,0.383,2.667-0.181,4.272,0.459c-3.085,1.277-1.224,4.817-0.685,7.319c0.524,2.427,0.708,4.453-0.715,6.171
		c-0.01-1.594,0.314-2.759,0.105-4.295c-0.403-3.012-2.682-6.301-0.577-8.899c-0.44-0.277-2.128-0.388-2.559,0.059
		c-0.468,0.479,0.471,3,0.709,4.248c0.728,3.809,1.566,9.157-1.092,12.043c-1.532,1.664-4.98,1.705-7.971-0.409
		c-1.559-1.093-2.495-2.407-1.922-3.185c3.026,3.662,6.661,1.684,7.648-0.487c1.493-3.296-0.044-8.723-0.016-11.742
		c-1.57-0.787-2.718-0.335-4.304-1.604c-2.881-2.308,1.26-3.404,2.572-1.076c0.287,0.51-0.262,0.613-0.139,1.295
		c2.603,1.837,2.171-1.208,3.3-2.217c2.059-1.849,6.086-0.993,9.092,1.606c1.167,1.013,2.474,2.879,1.079,3.59
		C106.274,84.495,105.181,84.593,104.435,84.168 M107.286,86.376c-1.524,0.758-0.301,3.139-1.46,4.133
		c-0.652-1.735-1.107-6.99,3.64-4.198C108.764,86.683,107.886,86.074,107.286,86.376"/>
	<polygon fill="#1F191A" points="55.642,102.034 55.592,101.926 55.587,102.218 55.623,102.197 	"/>
	<polygon fill="#1F191A" points="122.844,47.847 123.146,47.739 123.153,47.365 122.838,47.479 	"/>
	<polygon fill="#1F191A" points="55.551,104.019 55.551,104.034 55.557,104.019 	"/>
	<path fill="#1F191A" d="M41.694,113.661l32.748-7.038l-21.058,0.3l4.085-3.757l-29.743-9.235l-0.062-0.009l-0.013-0.018
		l-0.201-0.061l-0.103,0.088l0.023,0.367l-0.105,0.151l-0.107,0.02l-0.179-0.252l-0.069-0.227l-0.077,0.04l-0.07,0.306l-0.275-0.051
		l-0.02-0.501L26.06,93.6l0.051-0.171l-2.468-0.769c-0.013,0.287-0.021,0.603-0.028,0.935l0.157,0.033l0.157,0.104l0.633-0.154
		l0.473,0.357l-0.025,0.161l-0.826,0.114l0.083,0.409l-0.278,0.085l-0.124-0.086l-0.204,0.041l0.05,0.122l0.397,0.402l0.167,0.021
		l0.082-0.125l0.253-0.049l0.085-0.26l0.236-0.151l0.143-0.214l0.542,0.053l0.03,0.553l-0.459,0.09l-0.392,0.585l-0.441,0.193
		l-0.141-0.053l-0.143-0.182l-0.124,0.049l0.018,0.236l0.298,0.152l-0.124,0.583l-0.298,0.114l0.029,0.551l0.103,0.244l-0.155,0.168
		l-0.187-0.39l0-0.005c0.097,4.415,0.398,9.421,0.398,9.421l24.989-1.71L41.694,113.661z M25.906,97.808l-0.747-0.012L25.1,97.757
		l-0.062-0.177l0.051-0.275l-0.143-0.053l-0.604,0.306l-0.196-0.038l-0.01-0.186l0.135-0.134l0.246-0.101l0.164,0.018l0.533-0.265
		l0.083-0.121l0.256-0.052l0.204,0.094v0.133l-0.135,0.264l0.44,0.076l0.176,0.202l-0.002,0.133L25.906,97.808z M26.97,97.008
		l-0.069,0.042l0.052-0.142l-0.072-0.092l0.042-0.062l0.144,0.049L26.97,97.008z M27.121,94.933l-0.082-0.144l0.237-0.018
		l-0.054,0.14L27.121,94.933z M27.416,97.216l-0.057,0.011l-0.131-0.134l0.041-0.061h0.136l0.07,0.093L27.416,97.216z"/>
	<polygon fill="#1F191A" points="54.967,134.443 54.954,135.069 55.026,135.042 55.107,134.749 55.443,134.499 55.521,134.353 
		55.485,134.165 	"/>
	<path fill="#1F191A" d="M175.669,103.933c0.044-1.548-0.605-1.964-2.047-1.956c-3.845,0.028-7.698-0.021-11.543-0.116
		c-7.321-0.173-14.639-0.427-21.957-0.598c-7.241-0.166-14.486-0.339-21.729-0.365c-3.552-0.019-7.26-0.329-10.619,0.548
		c-9.014,2.353-17.875,5.282-26.798,7.971c-9.407,2.833-18.833,5.603-28.22,8.499c-3.569,1.106-7.038,2.516-10.578,3.707
		c-0.066,0.024-0.135,0.042-0.209,0.058l0.402,0.431l0.042,0.07l-0.421-0.103l0.234,0.38l-0.194,0.226l-0.104,0.017l-0.101-0.245
		l-0.092-0.591l-0.101-0.115l-0.308,0.062l-0.072-0.032c-0.268,0.011-0.521-0.02-0.734-0.09l-0.118,0.172l-0.021,0.164l0.358,0.062
		l0.082,0.407l0.132,0.269l-0.079,0.123l-0.256,0.05l-0.155-0.236l-0.421-0.091l-0.034,1.782l0.43,0.068l0.257-0.049l0.194,0.174
		l-0.086,0.39l-0.209,0.387l-0.608,0.194l-0.017,0.872l0.516,0.021l0.424-0.162l0.01-0.218l-0.34-0.359l0.086-0.12l0.386-0.053
		l0.043,0.34l0.072,0.091l0.287,0.104l0.06,0.039l-0.04,0.064h-0.133l-0.451,0.404l-0.053,0.412l-0.525,0.717l-0.367,0.116
		l-0.016,0.808l0.036-0.002l0.235-0.156l0.278,0.054l0.16,0.285l-0.08,0.123l-0.289,0.029l-0.067-0.092l-0.276-0.052l-0.504,26.205
		l0.288,0.19l0.039,0.148l-0.083,0.22l0.113,0.076l0.187-0.143l-0.032-0.337l0.556-0.208l0.255,0.188l0.449-0.321l0.154-0.22
		l0.219,0.041l-0.227,0.365l-0.005,0.258l0.362,0.268l-0.115,0.325l0.103,0.261l0.224,0.005l0.005-0.295l0.109-0.032l0.478,0.303
		l0.105,0.261l0.403,0.302l0.16,0.224c0.47-0.138,0.94-0.279,1.41-0.42l-0.019-0.031l-0.332,0.031l-0.293-0.157l0.076-0.144
		l0.26-0.031l0.218,0.187l0.258,0.081l0.002,0.016c0.312-0.091,0.621-0.185,0.93-0.277l-0.041-0.161l0.264-0.106l0.28,0.118
		c0.231-0.067,0.461-0.135,0.69-0.204l-0.045-0.155l0.114-0.071l0.413,0.086c0.629-0.193,1.264-0.382,1.895-0.575l-0.117-0.174
		l0.005-0.256l0.187-0.146l0.109,0.116l0.07,0.257l0.078,0.104c0.518-0.154,1.033-0.311,1.549-0.468l0.116-0.081l0.037,0.035
		c0.493-0.149,0.988-0.3,1.479-0.449l0.087-0.258l0.221-0.068l0.073,0.039l-0.023,0.18c4.471-1.362,8.935-2.733,13.403-4.099
		c14.447-4.413,28.883-8.869,43.356-13.218c2.416-0.728,4.974-1.394,7.47-1.408c6.691-0.035,13.384,0.354,20.074,0.483
		c7.271,0.14,14.547,0.165,21.818,0.267c4.196,0.06,8.397,0.149,12.702,0.238l0.005-0.044l0.037-0.031l0.183,0.05l-0.003,0.03
		l0.271,0.005l-0.005-0.086l0.044-0.067l0.026,0.146l0.013,0.01c0.771,0.014,1.535,0.03,2.316,0.045
		c0.064-0.733,0.138-1.328,0.176-1.891l-0.013-0.024l-0.211-0.161l0.059-0.22l0.179,0.131c0.001-0.042,0.006-0.082,0.006-0.123
		c0.107-4.452,0.196-8.905,0.288-13.355C175.426,115.04,175.502,109.483,175.669,103.933 M41.125,124.034l-0.08-0.015l0.052-0.14
		l0.145-0.082l0.121,0.084L41.125,124.034z M41.415,123.337l-0.082-0.011l-0.152,0.029l-0.175-0.072l0.026-0.114l0.242-0.151
		l0.285-0.029l0.178,0.203l-0.086,0.123L41.415,123.337z M41.192,127.717l0.429,0.286l0.022,0.104l-0.104,0.153l-0.175,0.062
		l-0.05,0.01l-0.207-0.227l-0.029-0.288L41.192,127.717z M41.048,154.614l-0.183-0.037l-0.221-0.154l-0.071-0.149l-0.508-0.307
		l-0.149-0.002l-0.182-0.188l-0.033-0.221l0.116-0.072l0.292-0.032l-0.175-0.409l0.081-0.259l0.109-0.067l0.368,0.155l0.393,0.633
		l-0.001,0.075l-0.115,0.144l-0.261,0.106l0.037,0.147l0.584,0.343l0.067,0.188L41.048,154.614z M42.099,123.571l0.062,0.042
		l-0.162,0.112L42.099,123.571z M42.004,125.108l0.148,0.051l0.038,0.073l-0.233,0.02L42.004,125.108z M42.318,127.095l-0.083-0.007
		l-0.193-0.31l-0.111-0.033l0.124-0.183l0.397,0.266l0.009,0.188L42.318,127.095z M45.408,122.68l0.063,0.04l-0.137,0.132
		l0.002-0.132L45.408,122.68z M44.292,124.148l-0.246-0.163l-0.002-0.129l0.287,0.099l0.042,0.073L44.292,124.148z M44.461,125.553
		l0.081-0.123l0.08,0.146L44.461,125.553z M44.828,122.686l-0.148,0.083l-0.038,0.062l-0.156-0.101l0.165-0.247l0.234-0.021
		L44.828,122.686z M45.164,122.114l-0.151,0.03l-0.198-0.175l-0.162-0.019l-0.235,0.153l-0.215-0.147l0.02-0.16l0.226-0.072
		l0.08,0.011l0.032-0.111l0.356,0.061l0.26,0.216l0.049,0.123L45.164,122.114z M45.271,124.94l0.1-0.153l0.055,0.124l0.011,0.052
		L45.271,124.94z M45.798,155.259l-0.04,0.188l-0.225,0.14l-0.107-0.074l0.003-0.148l0.151-0.182l0.11-0.033l0.108,0.073V155.259z
		 M46.606,155.423l-0.073,0.11l-0.15-0.042l-0.144-0.188l0.081-0.106l0.288,0.151L46.606,155.423z M47.355,121.496l-0.06-0.042
		l-0.021-0.102l0.1-0.153h0.136l0.071,0.224L47.355,121.496z M47.885,154.414l-0.222,0.106l-0.259-0.045l-0.187,0.111l-0.074-0.002
		l0.003-0.186l0.152-0.293l0.446-0.065l0.145,0.076L47.885,154.414z M49.803,154.339l-0.109-0.075l-0.035-0.147l0.076-0.072
		l0.146,0.038l0.04,0.074L49.803,154.339z M50.327,151.988l-0.035,0.032l-0.08,0.15l-0.065-0.263l0.113-0.256l0.111,0.076
		l0.032,0.148L50.327,151.988z M53.474,153.525l-0.221,0.104l-0.079-0.002l0.006-0.295l-0.105-0.186l0.112-0.181l0.256,0.188
		l0.068,0.222L53.474,153.525z M54.881,153.365l-0.147-0.002l-0.035-0.147l0.04-0.071l0.218,0.111L54.881,153.365z M60.614,146.377
		c-0.369,0.445-0.75,0.661-1.136,0.651c-0.641-0.062-1.463,0.065-2.469,0.378l-6.654,2.092c-1.419,0.444-2.369,0.777-2.843,0.992
		c-0.359,0.154-0.528,0.035-0.51-0.365c0.005-0.112,0.18-0.455,0.527-1.037c0.349-0.575,0.537-1.278,0.577-2.099l0.777-17.264
		c0.045-1.043,0.055-1.725,0.035-2.044c-0.04-0.426-0.177-0.681-0.409-0.762c-0.378-0.143-0.566-0.381-0.544-0.712
		c0.021-0.532,0.394-0.847,1.118-0.943c0.585-0.05,1.439-0.254,2.569-0.605c1.1-0.352,1.932-0.675,2.489-0.981
		c0.738-0.385,1.095-0.319,1.072,0.191c-0.015,0.332-0.247,0.744-0.697,1.236c-0.226,0.268-0.379,0.622-0.454,1.062
		c-0.032,0.229-0.07,0.888-0.12,1.974l-0.698,15.526c-0.048,1.066-0.22,1.843-0.511,2.328l3.518-1.103
		c2.229-0.699,3.865-1.87,4.911-3.506c0.209-0.309,0.434-0.5,0.668-0.575c0.353-0.11,0.521,0.076,0.498,0.565
		C62.116,143.479,61.543,145.145,60.614,146.377 M78.666,121.096c-0.239,0.079-0.446,0.019-0.632-0.167
		c-0.946-1.033-2.524-1.202-4.732-0.51l-3.4,1.069c0.271,0.439,0.387,1.142,0.343,2.098l-0.245,5.444l2.93-0.919
		c0.966-0.302,1.878-0.722,2.739-1.252c0.48-0.303,0.79-0.304,0.931,0.005c0.069,0.196,0.097,0.439,0.086,0.727
		c-0.032,0.664-0.256,1.576-0.678,2.737c-0.509,1.339-1.018,2.09-1.531,2.253c-0.335,0.103-0.554,0.018-0.658-0.263
		c-0.175-0.52-0.468-0.851-0.887-0.983c-0.541-0.143-1.412-0.026-2.619,0.352l-0.44,0.142l-0.299,6.702
		c-0.052,1.072-0.221,1.855-0.512,2.344l3.518-1.106c2.229-0.7,3.866-1.865,4.91-3.505c0.209-0.309,0.431-0.501,0.67-0.573
		c0.374-0.118,0.541,0.068,0.5,0.562c-0.176,2.068-0.743,3.734-1.716,4.999c-0.347,0.462-0.727,0.676-1.136,0.651
		c-0.677-0.046-1.5,0.079-2.464,0.381l-6.66,2.089c-0.705,0.224-1.655,0.555-2.843,0.991c-0.358,0.159-0.524,0.035-0.507-0.361
		c0.003-0.111,0.181-0.459,0.529-1.037c0.346-0.577,0.538-1.278,0.576-2.1l0.779-17.332c0.045-1.041,0.056-1.726,0.034-2.043
		c-0.041-0.425-0.177-0.68-0.405-0.759c-0.381-0.145-0.566-0.384-0.551-0.714c0.023-0.511,0.229-0.802,0.622-0.885
		c0.197-0.037,1.162-0.285,2.893-0.742l6.507-2.044c1.026-0.319,1.859-0.702,2.499-1.146c0.425-0.283,0.794-0.301,1.117-0.052
		c0.879,0.686,1.315,2.025,1.303,4.015C79.228,120.669,79.04,120.98,78.666,121.096 M88.591,114.407
		c-0.225,0.266-0.375,0.619-0.452,1.062c-0.035,0.227-0.074,0.885-0.12,1.973l-0.715,15.834c-0.026,0.603-0.087,1.22-0.199,1.867
		c-0.107,0.646-0.336,1.281-0.681,1.902c-0.348,0.626-0.709,1.059-1.076,1.294c-0.372,0.234-1.112,0.558-2.219,0.971
		c-0.987,0.356-1.602,0.546-1.835,0.579c-0.351,0.041-0.519-0.078-0.507-0.368c0.001-0.109,0.177-0.455,0.529-1.034
		c0.344-0.579,0.536-1.279,0.572-2.1l0.776-17.266c0.048-1.042,0.059-1.724,0.035-2.044c-0.039-0.426-0.172-0.679-0.402-0.761
		c-0.383-0.144-0.568-0.381-0.553-0.714c0.025-0.531,0.395-0.845,1.124-0.939c0.584-0.055,1.488-0.272,2.708-0.656
		c1.208-0.378,2.085-0.719,2.645-1.026c0.738-0.384,1.096-0.318,1.071,0.189C89.277,113.503,89.041,113.917,88.591,114.407
		 M107.107,124.932c-0.103,2.234-0.813,4.188-2.134,5.849c-1.441,1.811-3.509,3.135-6.215,3.982c-0.768,0.244-1.611,0.376-2.526,0.4
		c-0.076,0.025-0.321,0.024-0.728-0.001c-0.293-0.019-0.523,0.003-0.701,0.056c-0.182,0.057-0.48,0.284-0.907,0.679
		c-0.428,0.396-0.719,0.619-0.875,0.669c-0.455,0.144-0.74-0.611-0.86-2.254c-0.074-0.961-0.086-1.986-0.04-3.071
		c0.044-0.934,0.339-1.485,0.892-1.659c0.455-0.142,0.794,0.116,1.017,0.784c0.594,1.897,1.924,2.524,3.998,1.875
		c2.482-0.78,3.782-2.466,3.899-5.051c0.08-1.761-0.788-2.739-2.604-2.938l-3.743-0.403c-1.471-0.15-2.524-0.916-3.168-2.293
		c-0.352-0.787-0.496-1.924-0.43-3.414c0.084-1.886,0.839-3.714,2.261-5.472c1.482-1.866,3.331-3.148,5.536-3.841
		c0.948-0.299,1.802-0.464,2.562-0.495c0.078-0.001,0.319,0.019,0.724,0.048c0.271,0.007,0.511-0.021,0.705-0.083
		c0.179-0.056,0.473-0.269,0.889-0.643c0.418-0.37,0.715-0.579,0.89-0.637c0.769-0.244,1.069,1.523,0.899,5.293
		c-0.042,0.953-0.349,1.521-0.922,1.699c-0.453,0.144-0.781-0.129-0.985-0.815c-0.592-1.885-1.925-2.499-3.996-1.85
		c-0.969,0.305-1.769,0.829-2.408,1.575c-0.634,0.751-0.974,1.616-1.02,2.594c-0.031,0.67,0.023,1.168,0.168,1.495
		c0.265,0.531,0.815,0.886,1.641,1.067l3.803,0.454c1.605,0.173,2.797,0.913,3.574,2.222
		C106.988,121.917,107.257,123.308,107.107,124.932 M129.219,107.917c-0.232,0.185-0.386,0.475-0.454,0.869
		c-0.025,0.207-0.05,0.826-0.069,1.849l-0.234,12.229c-0.047,2.421-0.979,4.269-2.802,5.549c-1.532,1.075-3.36,1.595-5.489,1.555
		c-2.23-0.043-4.115-0.641-5.64-1.799c-1.775-1.324-2.636-3.189-2.59-5.59l0.235-12.261c0.031-1.651-0.128-2.584-0.473-2.796
		c-0.408-0.26-0.61-0.547-0.605-0.859c0.01-0.501,0.396-0.681,1.158-0.538c0.619,0.135,1.516,0.213,2.694,0.236
		c1.157,0.021,2.024-0.022,2.606-0.135c0.769-0.132,1.143,0.041,1.134,0.52c-0.007,0.312-0.235,0.631-0.696,0.956
		c-0.231,0.186-0.382,0.483-0.455,0.9c-0.024,0.208-0.044,0.814-0.063,1.817l-0.256,13.263c-0.027,1.462,0.366,2.51,1.182,3.153
		c0.508,0.386,1.093,0.584,1.757,0.597c0.66,0.013,1.232-0.163,1.716-0.53c0.817-0.591,1.238-1.625,1.267-3.105l0.256-13.264
		c0.019-0.983,0.014-1.628-0.023-1.942c-0.055-0.42-0.205-0.704-0.451-0.854c-0.408-0.26-0.609-0.546-0.603-0.858
		c0.01-0.501,0.396-0.681,1.158-0.538c0.618,0.135,1.515,0.213,2.692,0.235c1.158,0.021,2.026-0.021,2.607-0.134
		c0.766-0.133,1.146,0.041,1.138,0.52C129.908,107.274,129.676,107.592,129.219,107.917 M149.713,130.567
		c-0.252,0.034-0.911,0.021-1.992-0.037c-1.198-0.066-1.973-0.166-2.323-0.298c-0.968-0.309-1.541-1.165-1.721-2.566l-0.484-3.889
		c-0.185-1.339-0.596-2.319-1.241-2.938c-0.365-0.361-0.902-0.631-1.626-0.812c-0.613-0.099-1.076-0.147-1.387-0.153l-0.112,5.849
		c-0.011,0.567-0.062,1.139-0.155,1.72c-0.095,0.586-0.317,1.117-0.668,1.6c-0.35,0.482-0.718,0.777-1.101,0.889
		c-0.385,0.104-1.104,0.179-2.161,0.223c-0.951,0.023-1.539,0.011-1.767-0.034c-0.369-0.07-0.553-0.24-0.547-0.509
		c-0.02-0.106,0.152-0.378,0.51-0.821c0.361-0.442,0.55-1.049,0.564-1.82l0.278-14.457c0.061-0.955-0.083-1.546-0.433-1.758
		c-0.573-0.346-0.856-0.624-0.853-0.833c0.007-0.333,0.18-0.695,0.517-1.085c0.743-0.882,1.923-1.591,3.543-2.122
		c1.127-0.374,2.536-0.545,4.231-0.513c2.335,0.046,4.327,0.72,5.976,2.022c1.773,1.393,2.639,3.161,2.597,5.308
		c-0.021,1.149-0.527,2.276-1.523,3.386c-0.889,0.983-1.81,1.624-2.766,1.919c1.846,0.639,2.917,2.015,3.208,4.13l0.6,4.266
		c0.128,0.882,0.488,1.524,1.082,1.93c0.366,0.26,0.547,0.545,0.54,0.857C150.494,130.331,150.229,130.511,149.713,130.567
		 M166.766,130.769c-0.36,0.325-0.756,0.411-1.185,0.261c-0.714-0.266-1.585-0.409-2.6-0.428l-6.968-0.135
		c-0.751-0.014-1.74-0.002-2.982,0.038c-0.371,0.034-0.553-0.137-0.545-0.51c0.002-0.105,0.175-0.377,0.527-0.819
		c0.348-0.442,0.528-1.05,0.544-1.821l0.313-16.301c0.019-0.983,0.01-1.628-0.025-1.942c-0.053-0.418-0.202-0.702-0.45-0.852
		c-0.407-0.26-0.606-0.546-0.601-0.859c0.009-0.479,0.22-0.692,0.63-0.645c0.207,0.024,1.22,0.098,3.04,0.217l6.816,0.131
		c1.071,0.021,1.944-0.078,2.61-0.292c0.436-0.141,0.828-0.039,1.173,0.301c0.953,0.938,1.453,2.356,1.499,4.253
		c0.012,0.484-0.182,0.72-0.572,0.711c-0.249-0.004-0.472-0.127-0.675-0.364c-1.03-1.288-2.703-1.955-5.017-1.999l-3.564-0.068
		c0.299,0.512,0.443,1.214,0.426,2.115l-0.099,5.12l3.068,0.059c1.015,0.02,1.967-0.086,2.86-0.318
		c0.499-0.139,0.825-0.037,0.985,0.299c0.079,0.21,0.118,0.45,0.113,0.723c-0.012,0.628-0.229,1.425-0.64,2.396
		c-0.497,1.116-1.012,1.672-1.549,1.661c-0.35-0.007-0.584-0.158-0.705-0.459c-0.196-0.556-0.519-0.961-0.969-1.224
		c-0.577-0.312-1.488-0.477-2.754-0.502l-0.462-0.008l-0.121,6.305c-0.019,1.012-0.178,1.701-0.477,2.073l3.691,0.07
		c2.334,0.045,4.033-0.546,5.089-1.776c0.213-0.228,0.44-0.338,0.69-0.332c0.392,0.008,0.572,0.24,0.541,0.697
		C168.309,128.462,167.755,129.87,166.766,130.769 M174.679,122.333l0.326,0.064l0.133,0.233l-0.089,0.142l-0.36-0.141l-0.056-0.228
		L174.679,122.333z M175.054,125.701l-0.08,0.104l-0.15,0.022l-0.065-0.079l0.048-0.145l0.075-0.029L175.054,125.701z
		 M174.317,120.487l0.103,0.083l-0.01,0.148l-0.151,0.023l-0.069-0.043L174.317,120.487z M174.112,121.992l0.231-0.056l0.142,0.047
		l0.09,0.23l-0.006,0.072l-0.291-0.021l-0.194,0.091l-0.174-0.124L174.112,121.992z M172.652,125.199l-0.248-0.133l0.084-0.104
		l0.153-0.024l0.102,0.083l0.032,0.037l0.145,0.089L172.652,125.199z M174.702,134.635l-0.164,0.21l-0.155,0.058l-0.338,0.491
		l-0.011,0.146l-0.205,0.171l-0.22,0.015l-0.066-0.114l-0.01-0.298l-0.423,0.147l-0.247-0.091l-0.066-0.118l0.179-0.357l0.662-0.353
		l0.069,0.009l0.141,0.122l0.086,0.268l0.152-0.023l0.382-0.562l0.189-0.055l0.101,0.155L174.702,134.635z M175.127,128.375
		l-0.187-0.019l-0.279-0.171l-0.037-0.448l0.086-0.141l0.296,0.026l0.09,0.229l-0.057,0.256l0.092,0.193L175.127,128.375z"/>
	<polygon fill="#1F191A" points="122.407,48.182 122.439,48.257 122.623,48.272 122.792,48.028 122.73,47.875 122.462,47.998 	"/>
	<path fill="#1F191A" d="M140.728,109.268c-1.015-0.02-1.843,0.163-2.492,0.547c-0.21,0.119-0.213,0.226-0.007,0.312
		c0.407,0.217,0.661,0.484,0.761,0.796c0.077,0.211,0.11,0.601,0.099,1.16l-0.102,5.353c0.414,0.093,0.803,0.142,1.176,0.148
		c1.264,0.023,2.291-0.355,3.096-1.131c0.796-0.778,1.207-1.74,1.229-2.89c0.024-1.271-0.293-2.299-0.948-3.082
		C142.881,109.696,141.944,109.291,140.728,109.268"/>
	<path fill="#1F191A" d="M82.882,65.789c0.578,0.437,1.318,0.513,2.221,0.224l0.423-0.132c0.904-0.292,1.667-0.846,2.284-1.666
		c0.622-0.817,0.947-1.679,0.98-2.583l0.516-12.786c0.034-0.902-0.23-1.573-0.797-2.013c-0.571-0.444-1.305-0.522-2.21-0.231
		l-0.419,0.135c-0.906,0.288-1.672,0.841-2.303,1.667c-0.626,0.822-0.958,1.685-0.993,2.587L82.07,63.777
		C82.033,64.682,82.303,65.352,82.882,65.789"/>
	<polygon fill="#1F191A" points="56.102,103.94 56.111,103.858 55.958,103.754 55.692,103.888 55.672,104.048 55.969,104.072 	"/>
	<path fill="#1F191A" d="M41.178,76.709l-0.226,11.733c1.858-0.449,3.36-0.73,4.812-1.18c15.437-4.79,30.864-9.619,46.308-14.413
		c9.656-3.001,19.324-5.987,29.004-8.919c1.283-0.39,1.828-0.93,1.841-2.353c0.015-2.348,0.053-4.691,0.098-7.036l-0.075,0.02
		l-0.072-0.045l0.045-0.107l0.104,0.095c0.025-1.499,0.052-2.993,0.083-4.491l0.001-0.404l0.006-0.008
		c0.012-0.407,0.019-0.819,0.027-1.226l-0.465,0.233l-0.29,0.346l0.094,0.196l0.469,0.149l-0.012,0.147l-0.315,0.232l-0.201-0.276
		l-0.105-0.046l-0.3,0.051l-0.074-0.006l0.008-0.078l0.115-0.063l0.196-0.575l-0.15-0.383l0.111-0.881l0.325-0.339l-0.038-0.412
		l0.117-0.1l0.256,0.059l0.286,0.362c0.003-0.174,0.004-0.351,0.008-0.522l-0.057-0.008l-0.068-0.079l0.131-0.337l0.014-0.637
		l-0.021-0.015L123,45.598l-0.144-0.047l0.127-0.209l-0.209-0.13l-0.118,0.065l-0.168,0.241l-0.114,0.028l-0.207-0.203l-0.146-0.011
		l-0.175-0.126l0.026-0.294l-0.102-0.083l-0.123,0.102l-0.105-0.047l-0.093-0.192l0.085-0.14l0.036-0.034l0.076-0.033l0.181,0.092
		l0.095-0.252l-0.198-0.312l0.019-0.185l0.081-0.068l0.285,0.138l0.169,0.162l0.044-0.072l-0.085-0.303l0.265-0.088l0.26,0.431
		l0.446-0.035l0.019-0.985l-0.043,0.019l-0.294-0.471l0.277-0.232c-0.123-0.37-0.4-0.786-0.657-1.387
		c-0.046,0.024-0.061,0.023-0.005-0.012c0.001,0.004,0.004,0.006,0.005,0.012c0.084-0.036,0.28-0.149,0.435-0.305
		c0.165-0.174,0.246-0.443,0.425-0.887l-0.048-0.078l-0.057-0.045c-0.074,0.052-0.143,0.1-0.201,0.139l0.025,0.032l-0.056,0.182
		l-0.162,0.209l-0.153,0.061l-0.339,0.491l-0.015,0.145l-0.196,0.169l-0.23,0.016l-0.06-0.112l-0.013-0.299l-0.421,0.148
		l-0.251-0.096l-0.062-0.116l0.179-0.354l0.66-0.354l0.068,0.007l0.141,0.121l0.086,0.268l0.151-0.023l0.137-0.201
		c-0.121,0.045-0.216,0.059-0.135,0.033c1.192-2.757,1.175-5.583,1.121-8.547l-0.006-0.007l0.002-0.004
		c-0.022-1.405-0.055-2.844,0.029-4.326c-0.236,0.076-0.47,0.146-0.707,0.218l0.053,0.135l-0.006,0.071l-0.294-0.024l-0.194,0.092
		l-0.137-0.097c-8.859,2.725-17.223,5.299-25.575,7.871c-17.624,5.417-35.24,10.863-52.884,16.217
		c-1.677,0.512-2.233,1.259-2.248,2.992C41.522,62.021,41.323,69.364,41.178,76.709 M122.664,51.721l-0.019,0.184l-0.073-0.006
		L122.664,51.721z M122.39,56.625l0.296,0.026l-0.014,0.183l0.197,0.275l-0.044,0.069l-0.108-0.006l-0.372-0.439L122.39,56.625z
		 M121.635,43.336l0.142,0.086l-0.197,0.131l-0.021-0.153L121.635,43.336z M123.465,33.637l-0.003,0.074l-0.189-0.017l-0.278-0.169
		l-0.039-0.451l0.088-0.14l0.295,0.028l0.09,0.229l-0.057,0.254L123.465,33.637z M123.089,31.088l0.05-0.142l0.078-0.037l0.176,0.13
		l-0.085,0.099l-0.152,0.027L123.089,31.088z M123.015,27.672l0.323,0.068l0.13,0.231l-0.09,0.143l-0.357-0.144l-0.054-0.229
		L123.015,27.672z M120.181,54.288l-0.072-0.006l0.052-0.182l0.065,0.116L120.181,54.288z M120.438,52.604l0.012-0.146l0.296,0.023
		l0.06,0.12l-0.299,0.047L120.438,52.604z M120.928,41.646l-0.149,0.024l-0.018-0.227l0.041-0.066l0.026,0.147l0.108,0.049
		L120.928,41.646z M120.829,48.897l0.318,0.177l0.11-0.029l-0.017,0.221l-0.478-0.041l-0.099-0.156l0.086-0.14L120.829,48.897z
		 M120.963,53.797l-0.021,0.296l-0.198,0.13l-0.056-0.227l0.09-0.143l0.002-0.072L120.963,53.797z M121.484,54.66l-0.075,0.029
		l0.028,0.113l-0.345,0.119l-0.331-0.065l-0.101-0.083l0.009-0.108l0.119-0.104l0.257,0.06l0.151-0.06l0.133-0.247l0.258,0.021
		l0.063,0.153L121.484,54.66z M122.002,56.85l-0.19,0.023l-0.098-0.124l0.012-0.146l0.042-0.068l0.208,0.166L122.002,56.85z
		 M121.965,50.366l0.021,0.149l-0.151,0.025l-0.066-0.043L121.965,50.366z M121.407,46.464l0.237-0.163l0.105,0.043l0.265-0.086
		l0.175-0.281l0.079-0.068l0.174,0.125l-0.13,0.25l-0.238,0.166l-0.132,0.248l-0.265,0.087l-0.287-0.171L121.407,46.464z
		 M121.031,47.357l0.293,0.101l0.165,0.237l-0.053,0.142l-0.513-0.04l-0.068-0.083l0.019-0.184l0.121-0.138L121.031,47.357z
		 M120.824,30.3l0.148-0.024l0.105,0.085l0.032,0.038l0.141,0.086l-0.264,0.05l-0.247-0.131L120.824,30.3z M120.275,41.479
		l0.039-0.033l0.186,0.05l-0.006,0.073l-0.12,0.065l-0.107-0.048L120.275,41.479z M119.623,51.315l-0.014,0.146l-0.14-0.087
		L119.623,51.315z M119.208,52.242l-0.014,0.181l-0.106-0.08l-0.034-0.04L119.208,52.242z M119.051,56.264l0.074,0.008l0.066,0.08
		l-0.014,0.183l-0.12,0.064l-0.172-0.161L119.051,56.264z M98.797,44.394c-0.356,0.009-0.527-0.152-0.51-0.489
		c0.009-0.274,0.201-0.691,0.581-1.25c0.528-0.769,1.134-1.532,1.822-2.295c0.89-0.969,1.597-1.535,2.119-1.705
		c0.483-0.152,0.861,0.284,1.137,1.32c0.173,0.65,0.832,1.528,1.978,2.637l3.614,3.457c0.2,0.206,0.401,0.274,0.602,0.214
		c0.311-0.099,0.479-0.395,0.496-0.877l0.152-3.783c0.082-2.103-0.017-3.246-0.3-3.426c-0.132-0.083-0.273-0.167-0.421-0.253
		c-0.152-0.085-0.226-0.234-0.217-0.444c0.019-0.482,0.371-0.782,1.048-0.892c1.219-0.184,2.435-0.573,3.648-1.167
		c0.624-0.28,0.932-0.216,0.913,0.205c-0.009,0.252-0.245,0.652-0.7,1.192c-0.331,0.396-0.532,1.632-0.597,3.708l-0.571,14.194
		c-0.006,0.168-0.072,0.758-0.189,1.774c-0.146,1.253-0.704,2.271-1.665,3.056c-0.619,0.51-1.339,0.819-2.155,0.935
		c-0.359,0.05-0.532-0.057-0.523-0.331c-0.013-0.099,0.157-0.428,0.518-0.991c0.356-0.558,0.554-1.232,0.589-2.007l0.029-0.726
		c0.036-0.944-0.168-1.629-0.612-2.045l-5.99-5.685c-0.136-0.126-0.269-0.17-0.408-0.122c-0.341,0.107-0.523,0.445-0.544,1.017
		l-0.311,7.744c-0.056,1.347-0.158,2.358-0.3,3.03c-0.148,0.755-0.478,1.458-0.978,2.106c-0.505,0.649-1.096,1.081-1.779,1.299
		c-0.604,0.197-0.983,0.294-1.146,0.304c-0.236,0.016-0.351-0.105-0.341-0.359c0.007-0.167,0.084-0.379,0.232-0.637
		c0.253-0.39,0.394-0.592,0.412-0.598c0.301-0.616,0.472-1.377,0.507-2.283l0.566-14.119C99.549,44.946,99.318,44.374,98.797,44.394
		 M79.175,49.81c1.986-3,4.324-4.928,7.018-5.789c2.672-0.852,4.909-0.382,6.702,1.413c1.792,1.793,2.619,4.396,2.483,7.802
		c-0.133,3.384-1.196,6.577-3.181,9.579c-1.985,2.999-4.314,4.927-6.99,5.781c-2.692,0.859-4.936,0.391-6.727-1.404
		c-1.795-1.792-2.621-4.382-2.486-7.77C76.13,56.018,77.191,52.812,79.175,49.81 M66.278,53.09
		c-0.047-0.399-0.185-0.641-0.417-0.707c-0.395-0.128-0.585-0.346-0.57-0.664c0.018-0.502,0.397-0.809,1.136-0.923
		c0.597-0.064,1.519-0.296,2.766-0.695c1.229-0.39,2.123-0.74,2.692-1.047c0.748-0.383,1.114-0.333,1.095,0.149
		c-0.013,0.318-0.245,0.712-0.701,1.193c-0.229,0.257-0.381,0.598-0.459,1.016c-0.028,0.217-0.065,0.84-0.105,1.87l-0.603,15.016
		c-0.025,0.567-0.088,1.161-0.19,1.772c-0.102,0.616-0.334,1.225-0.68,1.822c-0.355,0.601-0.718,1.017-1.096,1.252
		c-0.377,0.233-1.128,0.561-2.256,0.988c-1.009,0.36-1.63,0.559-1.871,0.594c-0.357,0.05-0.536-0.059-0.52-0.332
		c0.004-0.105,0.178-0.436,0.531-0.996c0.349-0.559,0.539-1.227,0.568-2.003l0.66-16.371C66.298,54.036,66.304,53.391,66.278,53.09
		 M49.935,58.305c-0.043-0.401-0.183-0.639-0.418-0.71c-0.388-0.125-0.58-0.342-0.565-0.658c0.017-0.507,0.4-0.812,1.137-0.924
		c0.6-0.067,1.468-0.282,2.614-0.648c1.125-0.36,1.974-0.693,2.54-0.999c0.751-0.384,1.113-0.333,1.094,0.151
		c-0.011,0.314-0.242,0.715-0.7,1.191c-0.227,0.261-0.382,0.6-0.459,1.019c-0.026,0.219-0.06,0.841-0.101,1.872l-0.594,14.724
		c-0.041,1.01-0.21,1.747-0.505,2.22l3.588-1.146c2.268-0.726,3.929-1.875,4.99-3.456c0.211-0.302,0.435-0.486,0.677-0.563
		c0.362-0.117,0.531,0.056,0.514,0.519c-0.198,1.995-0.77,3.589-1.711,4.783c-0.372,0.431-0.759,0.645-1.156,0.651
		c-0.651-0.04-1.491,0.103-2.517,0.428l-6.785,2.164c-1.446,0.463-2.411,0.802-2.895,1.021c-0.364,0.155-0.538,0.044-0.524-0.331
		c0.006-0.106,0.181-0.435,0.532-0.997c0.349-0.558,0.541-1.226,0.571-2.002l0.657-16.372C49.958,59.25,49.963,58.605,49.935,58.305
		"/>
</g>
</svg>
