<?xml version="1.0" encoding="utf-8"?>
<!-- Generator: Adobe Illustrator 16.0.0, SVG Export Plug-In . SVG Version: 6.00 Build 0)  -->
<!DOCTYPE svg PUBLIC "-//W3C//DTD SVG 1.1//EN" "http://www.w3.org/Graphics/SVG/1.1/DTD/svg11.dtd">
<svg version="1.1" id="Layer_1" xmlns="http://www.w3.org/2000/svg" xmlns:xlink="http://www.w3.org/1999/xlink" x="0px" y="0px"
	 width="200px" height="200px" viewBox="0 0 200 200" enable-background="new 0 0 200 200" xml:space="preserve">
<circle fill="#FFB492" cx="99.576" cy="99.999" r="95.915"/>
<polygon fill="#462400" points="11.889,114.654 16.854,79.98 17.416,79.98 31.514,108.435 45.478,79.98 46.031,79.98 
	51.021,114.654 47.624,114.654 44.197,89.855 31.936,114.654 31.049,114.654 18.643,89.665 15.238,114.654 "/>
<path fill="#462400" d="M81.012,89.005v25.649h-3.253v-4.407c-1.384,1.681-2.936,2.947-4.655,3.798
	c-1.723,0.849-3.604,1.269-5.647,1.269c-3.63,0-6.731-1.319-9.3-3.946c-2.568-2.632-3.854-5.837-3.854-9.608
	c0-3.692,1.298-6.85,3.891-9.474c2.593-2.624,5.71-3.942,9.357-3.942c2.105,0,4.012,0.449,5.715,1.347
	c1.706,0.898,3.204,2.24,4.492,4.03v-4.713H81.012z M67.822,91.529c-1.836,0-3.532,0.455-5.085,1.352
	c-1.554,0.907-2.791,2.176-3.708,3.805c-0.919,1.63-1.378,3.355-1.378,5.182c0,1.805,0.464,3.532,1.39,5.181
	c0.925,1.65,2.169,2.927,3.733,3.844c1.561,0.924,3.236,1.382,5.025,1.382c1.807,0,3.517-0.454,5.135-1.366
	c1.614-0.912,2.858-2.142,3.732-3.693c0.871-1.557,1.305-3.308,1.305-5.255c0-2.967-0.976-5.45-2.93-7.44
	C73.083,92.528,70.679,91.529,67.822,91.529"/>
<path fill="#462400" d="M87.188,89.006h3.371v3.747c1.006-1.473,2.066-2.58,3.184-3.307c1.115-0.733,2.278-1.103,3.488-1.103
	c0.912,0,1.886,0.292,2.923,0.878l-1.72,2.78c-0.692-0.302-1.273-0.449-1.745-0.449c-1.1,0-2.16,0.449-3.182,1.356
	c-1.023,0.902-1.802,2.302-2.333,4.208c-0.41,1.462-0.615,4.419-0.615,8.862v8.676h-3.371V89.006z"/>
<polygon fill="#462400" points="101.149,114.654 106.116,79.98 106.678,79.98 120.775,108.435 134.738,79.98 135.291,79.98 
	140.282,114.654 136.884,114.654 133.457,89.855 121.196,114.654 120.312,114.654 107.904,89.665 104.498,114.654 "/>
<path fill="#462400" d="M170.272,89.005v25.649h-3.255v-4.407c-1.384,1.681-2.934,2.947-4.653,3.798
	c-1.723,0.849-3.603,1.269-5.648,1.269c-3.629,0-6.729-1.319-9.298-3.946c-2.568-2.632-3.854-5.837-3.854-9.608
	c0-3.692,1.298-6.85,3.89-9.474c2.594-2.624,5.712-3.942,9.359-3.942c2.105,0,4.01,0.449,5.715,1.347
	c1.705,0.898,3.203,2.24,4.49,4.03v-4.713H170.272z M157.082,91.529c-1.837,0-3.531,0.455-5.086,1.352
	c-1.554,0.907-2.79,2.176-3.707,3.805c-0.92,1.63-1.379,3.355-1.379,5.182c0,1.805,0.464,3.532,1.391,5.181
	c0.925,1.65,2.169,2.927,3.732,3.844c1.561,0.924,3.237,1.382,5.025,1.382c1.808,0,3.518-0.454,5.135-1.366
	c1.615-0.912,2.858-2.142,3.732-3.693c0.871-1.557,1.306-3.308,1.306-5.255c0-2.967-0.977-5.45-2.931-7.44
	C162.345,92.528,159.938,91.529,157.082,91.529"/>
<path fill="#462400" d="M176.449,89.006h3.371v3.747c1.006-1.473,2.066-2.58,3.184-3.307c1.115-0.733,2.278-1.103,3.488-1.103
	c0.913,0,1.886,0.292,2.923,0.878l-1.721,2.78c-0.692-0.302-1.272-0.449-1.743-0.449c-1.101,0-2.161,0.449-3.183,1.356
	c-1.023,0.902-1.802,2.302-2.333,4.208c-0.41,1.462-0.615,4.419-0.615,8.862v8.676h-3.371V89.006z"/>
<path fill="#462400" d="M66.344,120.41l-0.657,0.503c-0.362-0.468-0.798-0.828-1.305-1.073c-0.507-0.239-1.063-0.36-1.671-0.36
	c-0.666,0-1.281,0.155-1.845,0.479c-0.564,0.317-1.004,0.745-1.317,1.283c-0.31,0.54-0.466,1.141-0.466,1.815
	c0,1.015,0.348,1.857,1.044,2.541c0.695,0.673,1.573,1.015,2.632,1.015c1.167,0,2.142-0.46,2.927-1.366l0.657,0.497
	c-0.416,0.527-0.935,0.937-1.554,1.221c-0.619,0.293-1.314,0.439-2.078,0.439c-1.455,0-2.605-0.488-3.447-1.454
	c-0.705-0.82-1.059-1.811-1.059-2.966c0-1.221,0.43-2.244,1.283-3.074c0.854-0.835,1.925-1.25,3.21-1.25
	c0.776,0,1.479,0.153,2.106,0.459C65.429,119.431,65.943,119.86,66.344,120.41"/>
<path fill="#462400" d="M71.976,118.659c1.261,0,2.315,0.42,3.165,1.259c0.849,0.84,1.273,1.879,1.273,3.108
	c0,1.215-0.423,2.25-1.271,3.097c-0.846,0.851-1.88,1.28-3.098,1.28c-1.233,0-2.277-0.425-3.125-1.27
	c-0.852-0.848-1.276-1.868-1.276-3.068c0-0.8,0.196-1.536,0.581-2.22c0.387-0.685,0.915-1.221,1.583-1.611
	C70.477,118.855,71.198,118.659,71.976,118.659 M72.013,119.47c-0.617,0-1.2,0.155-1.751,0.477
	c-0.552,0.323-0.983,0.753-1.294,1.299c-0.309,0.548-0.463,1.151-0.463,1.814c0,0.996,0.341,1.824,1.03,2.509
	c0.686,0.684,1.509,1.023,2.478,1.023c0.646,0,1.245-0.155,1.793-0.469c0.548-0.316,0.978-0.746,1.286-1.288
	c0.311-0.545,0.464-1.151,0.464-1.812c0-0.659-0.153-1.26-0.464-1.792c-0.308-0.531-0.739-0.961-1.3-1.284
	C73.231,119.625,72.639,119.47,72.013,119.47"/>
<path fill="#462400" d="M78.077,118.864h1.656c0.951,0,1.593,0.043,1.925,0.127c0.476,0.118,0.863,0.361,1.166,0.722
	c0.299,0.362,0.451,0.82,0.451,1.372c0,0.555-0.146,1.009-0.441,1.369c-0.293,0.363-0.698,0.605-1.215,0.733
	c-0.377,0.087-1.083,0.136-2.117,0.136H78.91v3.865h-0.833V118.864z M78.91,119.683v2.822l1.408,0.019
	c0.57,0,0.987-0.054,1.25-0.157c0.265-0.106,0.472-0.272,0.624-0.501c0.151-0.229,0.227-0.493,0.227-0.775
	c0-0.284-0.076-0.536-0.227-0.766c-0.152-0.23-0.35-0.396-0.597-0.494c-0.247-0.097-0.653-0.147-1.213-0.147H78.91z"/>
<polygon fill="#462400" points="84.945,118.864 89.716,118.864 89.716,119.683 85.775,119.683 85.775,122.29 89.682,122.29 
	89.682,123.104 85.775,123.104 85.775,126.377 89.682,126.377 89.682,127.188 84.945,127.188 "/>
<polygon fill="#462400" points="91.158,127.188 91.158,118.864 91.34,118.864 96.879,125.246 96.879,118.864 97.7,118.864 
	97.7,127.188 97.512,127.188 92.019,120.889 92.019,127.188 "/>
<polygon fill="#462400" points="99.712,118.864 100.542,118.864 100.542,122.357 104.781,122.357 104.781,118.864 105.613,118.864 
	105.613,127.188 104.781,127.188 104.781,123.172 100.542,123.172 100.542,127.188 99.712,127.188 "/>
<path fill="#462400" d="M111.038,118.864l3.882,8.324h-0.898l-1.31-2.738h-3.583l-1.299,2.738h-0.926l3.933-8.324H111.038z
	 M110.934,120.636l-1.427,3.011h2.847L110.934,120.636z"/>
<path fill="#462400" d="M124.238,120.264l-0.645,0.611c-0.463-0.454-0.973-0.8-1.523-1.035c-0.555-0.239-1.091-0.355-1.615-0.355
	c-0.654,0-1.276,0.161-1.866,0.482c-0.591,0.323-1.047,0.752-1.371,1.303c-0.324,0.552-0.485,1.129-0.485,1.742
	c0,0.624,0.166,1.22,0.502,1.786c0.337,0.561,0.801,1.006,1.394,1.325c0.59,0.323,1.238,0.484,1.944,0.484
	c0.854,0,1.581-0.239,2.174-0.728c0.592-0.479,0.943-1.103,1.051-1.872h-2.652v-0.806h3.587c-0.008,1.284-0.392,2.308-1.146,3.064
	c-0.756,0.755-1.767,1.137-3.034,1.137c-1.54,0-2.758-0.527-3.655-1.575c-0.69-0.806-1.036-1.744-1.036-2.802
	c0-0.785,0.199-1.521,0.595-2.2c0.396-0.684,0.939-1.211,1.63-1.592c0.69-0.385,1.47-0.575,2.342-0.575
	c0.705,0,1.368,0.127,1.991,0.381C123.041,119.294,123.648,119.703,124.238,120.264"/>
<polygon fill="#462400" points="126.318,118.864 131.091,118.864 131.091,119.683 127.151,119.683 127.151,122.29 131.057,122.29 
	131.057,123.104 127.151,123.104 127.151,126.377 131.057,126.377 131.057,127.188 126.318,127.188 "/>
<polygon fill="#462400" points="132.532,127.188 132.532,118.864 132.716,118.864 138.253,125.246 138.253,118.864 139.075,118.864 
	139.075,127.188 138.888,127.188 133.394,120.889 133.394,127.188 "/>
</svg>
