<?xml version="1.0" encoding="utf-8"?>
<!-- Generator: Adobe Illustrator 16.0.0, SVG Export Plug-In . SVG Version: 6.00 Build 0)  -->
<!DOCTYPE svg PUBLIC "-//W3C//DTD SVG 1.1//EN" "http://www.w3.org/Graphics/SVG/1.1/DTD/svg11.dtd">
<svg version="1.1" id="Layer_1" xmlns="http://www.w3.org/2000/svg" xmlns:xlink="http://www.w3.org/1999/xlink" x="0px" y="0px"
	 width="200px" height="200px" viewBox="0 0 200 200" enable-background="new 0 0 200 200" xml:space="preserve">
<circle fill="#FFB492" cx="99.576" cy="99.999" r="95.915"/>
<path fill-rule="evenodd" clip-rule="evenodd" d="M9.925,96.068c0.116-0.011,0.231-0.031,0.347-0.031
	c2.548-0.001,5.095-0.001,7.643,0c0.114,0,0.228,0.012,0.387,0.021c0,0.607,0,1.194,0,1.881c1.326-1.454,2.845-2.281,4.752-2.292
	c1.9-0.012,3.495,0.635,4.725,2.175c0.17-0.163,0.328-0.31,0.481-0.46c2.059-2.018,5.351-2.297,7.581-0.629
	c1.087,0.813,1.66,1.897,1.658,3.274c-0.005,2.77-0.001,5.539-0.001,8.309c0,0.14,0,0.278,0,0.465c0.441,0,0.866,0,1.322,0
	c0,0.235,0,0.426,0,0.67c-0.136,0-0.271,0-0.407,0c-2.792,0-5.585,0-8.378,0c-0.564,0-0.572-0.01-0.458-0.629
	c0.106-0.007,0.22-0.017,0.333-0.021c0.104-0.003,0.207,0,0.348,0c0.008-0.149,0.019-0.271,0.019-0.395
	c0.001-3.354,0.001-6.707,0-10.061c0-0.737-0.577-1.096-1.198-0.693c-0.647,0.42-1.138,0.953-1.13,1.836
	c0.026,2.944,0.01,5.89,0.01,8.834c0,0.14,0,0.279,0,0.459c0.271,0,0.522,0,0.802,0c0,0.23,0,0.422,0,0.642
	c-2.949,0-5.908,0-8.888,0c0-0.198,0-0.38,0-0.611c0.278,0,0.551,0,0.866,0c0-0.173,0-0.297,0-0.422c0-3.354,0-6.708,0-10.062
	c0-0.782-0.477-1.091-1.127-0.654c-0.422,0.284-0.743,0.722-1.092,1.106c-0.066,0.073-0.073,0.219-0.073,0.331
	c-0.003,3.143-0.003,6.287-0.002,9.43c0,0.068,0.011,0.137,0.021,0.249c0.27,0,0.533,0,0.819,0c0,0.234,0,0.426,0,0.66
	c-0.149,0-0.285,0-0.421,0c-2.863,0-5.727,0-8.589,0.001c-0.116,0-0.232,0.009-0.349,0.013c0-0.211,0-0.421,0-0.631
	c0.415-0.019,0.83-0.037,1.24-0.055c0-4.048,0-8.067,0-12.148c-0.429,0-0.834,0-1.24,0C9.925,96.441,9.925,96.255,9.925,96.068z"/>
<path fill-rule="evenodd" clip-rule="evenodd" d="M133.779,109.813c-0.525-0.152-1.077-0.245-1.57-0.469
	c-1.964-0.889-3.148-2.469-3.684-4.507c-0.709-2.702-0.271-5.21,1.642-7.325c1.379-1.524,3.185-2.002,5.188-1.831
	c0.987,0.085,1.883,0.433,2.695,0.998c0.048,0.033,0.099,0.062,0.149,0.091c0.008,0.004,0.021-0.002,0.057-0.006
	c0-1.858,0-3.72,0-5.625c-0.491,0-0.986,0-1.506,0c0-0.235,0-0.428,0-0.645c2.902,0,5.805,0,8.748,0c0,6.095,0,12.177,0,18.297
	c0.443,0,0.849,0,1.282,0c0,0.227,0,0.417,0,0.632c-2.765,0-5.53,0-8.349,0c0-0.493,0-0.995,0-1.487
	c-0.245,0.222-0.477,0.413-0.688,0.624c-0.669,0.662-1.458,1.079-2.398,1.196c-0.056,0.007-0.108,0.037-0.163,0.057
	C134.714,109.813,134.246,109.813,133.779,109.813z M135.812,102.54c0,1.39-0.008,2.779,0.007,4.169
	c0.003,0.274,0.05,0.562,0.146,0.817c0.158,0.423,0.593,0.625,0.991,0.516c0.614-0.168,1.323-1.071,1.324-1.706
	c0.003-2.733,0.002-5.466-0.001-8.198c0-0.101-0.002-0.229-0.059-0.298c-0.31-0.372-0.657-0.702-1.156-0.798
	c-0.638-0.122-1.073,0.169-1.199,0.809c-0.038,0.193-0.05,0.394-0.051,0.591C135.81,99.808,135.812,101.174,135.812,102.54z"/>
<path fill-rule="evenodd" clip-rule="evenodd" d="M116.597,109.813c-0.774-0.164-1.566-0.273-2.32-0.504
	c-1.804-0.553-3.384-1.479-4.499-3.05c-2.005-2.821-1.278-6.747,1.602-8.768c1.461-1.025,3.112-1.529,4.859-1.75
	c2.098-0.265,4.131-0.025,6.045,0.907c1.92,0.935,3.365,2.322,3.909,4.458c0.726,2.846-0.426,5.579-2.981,7.172
	c-1.353,0.844-2.838,1.294-4.413,1.469c-0.127,0.014-0.252,0.043-0.378,0.065C117.812,109.813,117.204,109.813,116.597,109.813z
	 M118.784,102.736c0-1.518,0.009-3.036-0.007-4.555c-0.004-0.345-0.056-0.7-0.154-1.031c-0.168-0.567-0.579-0.863-1.097-0.863
	c-0.517,0-0.927,0.296-1.1,0.863c-0.101,0.331-0.162,0.686-0.164,1.031c-0.012,3.024-0.015,6.05,0.003,9.074
	c0.003,0.399,0.098,0.814,0.231,1.191c0.164,0.463,0.53,0.74,1.046,0.732c0.499-0.007,0.858-0.279,1.01-0.731
	c0.131-0.392,0.214-0.815,0.222-1.228C118.799,105.727,118.784,104.231,118.784,102.736z"/>
<path fill-rule="evenodd" clip-rule="evenodd" d="M189.674,109.463c-1.437-0.004-2.873-0.011-4.31-0.013
	c-1.74-0.003-3.48-0.001-5.222-0.001c-0.125,0-0.25,0-0.394,0c0-0.223,0-0.404,0-0.638c0.406,0,0.807,0,1.225,0
	c0-4.066,0-8.081,0-12.136c-0.362,0-0.719,0-1.102,0c0-0.22,0-0.4,0-0.61c2.781,0,5.562,0,8.38,0c0,4.24,0,8.464,0,12.767
	c0.498,0,0.96,0,1.422,0C189.674,109.042,189.674,109.252,189.674,109.463z"/>
<path fill-rule="evenodd" clip-rule="evenodd" d="M77.112,90.106c0.416,0.107,0.839,0.197,1.247,0.33
	c0.251,0.082,0.497,0.209,0.717,0.356c1.204,0.803,1.208,2.23-0.003,3.025c-0.957,0.627-2.039,0.824-3.152,0.662
	c-0.622-0.091-1.268-0.271-1.815-0.571c-1.453-0.794-1.43-2.459,0.034-3.228c0.526-0.276,1.138-0.387,1.71-0.574
	C76.271,90.106,76.691,90.106,77.112,90.106z"/>
<path fill-rule="evenodd" clip-rule="evenodd" d="M185.256,90.106c0.359,0.094,0.732,0.155,1.074,0.292
	c0.364,0.145,0.732,0.319,1.042,0.556c0.911,0.701,0.925,1.912,0.052,2.664c-0.645,0.555-1.426,0.779-2.249,0.872
	c-1.035,0.117-2.029-0.034-2.948-0.541c-0.862-0.476-1.235-1.224-1.041-2.049c0.143-0.604,0.549-1.015,1.088-1.25
	c0.528-0.229,1.098-0.366,1.65-0.544C184.367,90.106,184.812,90.106,185.256,90.106z"/>
<path fill-rule="evenodd" clip-rule="evenodd" d="M45.482,90.106c0.501,0.146,1.025,0.24,1.498,0.45
	c0.775,0.343,1.354,0.875,1.319,1.83c-0.021,0.586-0.307,1.029-0.767,1.347c-1.142,0.791-2.417,0.932-3.749,0.684
	c-0.709-0.131-1.37-0.388-1.89-0.917c-0.708-0.721-0.668-1.815,0.09-2.486c0.543-0.481,1.204-0.695,1.898-0.833
	c0.114-0.022,0.227-0.049,0.34-0.074C44.641,90.106,45.062,90.106,45.482,90.106z"/>
<path fill-rule="evenodd" clip-rule="evenodd" d="M153.557,90.106c0.36,0.09,0.73,0.153,1.079,0.278
	c0.325,0.117,0.653,0.262,0.937,0.46c1.115,0.781,1.118,2.143,0,2.921c-0.974,0.677-2.084,0.842-3.241,0.725
	c-0.668-0.067-1.306-0.25-1.881-0.609c-1.325-0.829-1.327-2.397,0.041-3.154c0.548-0.303,1.198-0.42,1.803-0.622
	C152.715,90.106,153.136,90.106,153.557,90.106z"/>
<path fill-rule="evenodd" clip-rule="evenodd" fill="none" d="M9.925,96.629c0.406,0,0.811,0,1.24,0c0,4.081,0,8.101,0,12.148
	c-0.411,0.018-0.826,0.036-1.24,0.055C9.925,104.764,9.925,100.696,9.925,96.629z"/>
<path fill-rule="evenodd" clip-rule="evenodd" d="M59.493,96.062c0,0.661,0,1.297,0,1.92c0.242-0.215,0.481-0.41,0.701-0.625
	c1.988-1.953,4.503-2.137,6.763-1.107c1.477,0.673,2.212,1.886,2.214,3.518c0.005,2.852,0.002,5.702,0.002,8.554
	c0,0.139,0,0.278,0,0.467c0.433,0,0.845,0,1.281,0c0,0.239,0,0.43,0,0.641c-3.132,0-6.246,0-9.381,0c0-0.202,0-0.394,0-0.626
	c0.286,0,0.56,0,0.879,0c0-0.164,0-0.288,0-0.412c0-3.295,0.001-6.591-0.002-9.886c0-0.311,0.045-0.666-0.299-0.837
	c-0.368-0.185-0.719-0.049-1.003,0.2c-0.324,0.284-0.619,0.601-0.91,0.918c-0.069,0.075-0.1,0.211-0.1,0.319
	c-0.005,3.167-0.004,6.333-0.003,9.5c0,0.046,0.01,0.092,0.02,0.176c0.263,0.012,0.525,0.022,0.81,0.035c0,0.202,0,0.396,0,0.611
	c-3.105,0-6.207,0-9.334,0c0-0.198,0-0.388,0-0.624c0.415,0,0.816,0,1.239,0c0-4.06,0-8.073,0-12.132c-0.411,0-0.813,0-1.24,0
	c0-0.224,0-0.403,0-0.609C53.915,96.062,56.687,96.062,59.493,96.062z"/>
<path fill-rule="evenodd" clip-rule="evenodd" d="M177.26,108.808c0.455,0,0.869,0,1.302,0c0,0.225,0,0.407,0,0.615
	c-3.133,0-6.257,0-9.401,0c0-0.194,0-0.376,0-0.599c0.285-0.015,0.568-0.029,0.878-0.046c0-0.137,0-0.251,0-0.366
	c0-3.296,0.002-6.592-0.001-9.888c0-0.324,0.053-0.694-0.311-0.866c-0.368-0.173-0.721-0.036-1.002,0.217
	c-0.321,0.287-0.615,0.604-0.904,0.924c-0.068,0.075-0.095,0.211-0.095,0.319c-0.005,3.156-0.004,6.311-0.003,9.466
	c0,0.058,0.01,0.115,0.02,0.213c0.267,0,0.53,0,0.812,0c0,0.233,0,0.425,0,0.634c-3.113,0-6.204,0-9.322,0c0-0.207,0-0.396,0-0.629
	c0.407,0,0.799,0,1.212,0c0-4.057,0-8.07,0-12.127c-0.396,0-0.787,0-1.208,0c0-0.221,0-0.399,0-0.609c2.763,0,5.526,0,8.337,0
	c0,0.645,0,1.299,0,1.982c0.457-0.423,0.855-0.831,1.293-1.19c2.203-1.805,5.102-1.339,6.668-0.34
	c1.081,0.689,1.688,1.688,1.706,2.97c0.034,2.454,0.017,4.908,0.021,7.362C177.261,107.48,177.26,108.11,177.26,108.808z"/>
<path fill-rule="evenodd" clip-rule="evenodd" d="M100,97.746c0.481-0.476,0.879-1.007,1.398-1.356
	c1.485-0.996,3.093-1.229,4.742-0.419c1.229,0.604,1.877,1.966,1.672,3.346c-0.191,1.286-1.139,2.232-2.474,2.473
	c-1.686,0.303-3.211-0.648-3.567-2.226c-0.278-1.235,0.251-2.438,1.37-3.111c0.108-0.064,0.217-0.128,0.402-0.238
	c-0.736,0.06-1.301,0.311-1.789,0.718c-1.031,0.861-1.61,1.947-1.608,3.316c0.004,2.699,0.001,5.398,0.001,8.098
	c0,0.137,0,0.273,0,0.451c0.596,0,1.15,0,1.729,0c0,0.232,0,0.423,0,0.633c-3.417,0-6.811,0-10.226,0c0-0.207,0-0.398,0-0.624
	c0.408,0,0.801,0,1.218,0c0-4.058,0-8.081,0-12.136c-0.398,0-0.792,0-1.212,0c0-0.212,0-0.393,0-0.604c2.766,0,5.536,0,8.344,0
	C100,96.634,100,97.188,100,97.746z"/>
<path fill-rule="evenodd" clip-rule="evenodd" d="M156.578,96.062c0,4.246,0,8.462,0,12.727c0.484,0,0.944,0,1.429,0
	c0,0.238,0,0.43,0,0.641c-3.306,0-6.595,0-9.907,0c0-0.204,0-0.395,0-0.625c0.404,0,0.797,0,1.213,0c0-4.053,0-8.066,0-12.129
	c-0.36,0-0.727,0-1.118,0c0-0.228,0-0.407,0-0.613C150.98,96.062,153.757,96.062,156.578,96.062z"/>
<path fill-rule="evenodd" clip-rule="evenodd" d="M40.002,109.428c0-0.203,0-0.385,0-0.615c0.406,0,0.808,0,1.235,0
	c0-4.059,0-8.072,0-12.138c-0.366,0-0.742,0-1.135,0c0-0.234,0-0.415,0-0.618c2.792,0,5.567,0,8.386,0c0,4.236,0,8.469,0,12.742
	c0.492,0,0.943,0,1.419,0c0,0.228,0,0.418,0,0.629C46.6,109.428,43.312,109.428,40.002,109.428z"/>
<path fill-rule="evenodd" clip-rule="evenodd" d="M71.66,109.422c0-0.213,0-0.396,0-0.614c0.408,0,0.801,0,1.219,0
	c0-4.059,0-8.082,0-12.144c-0.36,0-0.717,0-1.102,0c0-0.217,0-0.396,0-0.602c2.782,0,5.556,0,8.372,0c0,4.234,0,8.458,0,12.731
	c0.499,0,0.958,0,1.433,0c0,0.232,0,0.416,0,0.628C78.283,109.422,74.984,109.422,71.66,109.422z"/>
<path fill-rule="evenodd" clip-rule="evenodd" fill="none" d="M135.812,102.54c0-1.366-0.002-2.732,0.002-4.099
	c0.001-0.197,0.013-0.398,0.051-0.591c0.126-0.639,0.562-0.931,1.199-0.809c0.499,0.096,0.847,0.426,1.156,0.798
	c0.057,0.069,0.059,0.197,0.059,0.298c0.003,2.732,0.004,5.465,0.001,8.198c-0.001,0.635-0.71,1.538-1.324,1.706
	c-0.398,0.109-0.833-0.093-0.991-0.516c-0.096-0.255-0.143-0.543-0.146-0.817C135.804,105.319,135.812,103.93,135.812,102.54z"/>
<path fill-rule="evenodd" clip-rule="evenodd" fill="none" d="M118.784,102.736c0,1.495,0.015,2.99-0.01,4.484
	c-0.008,0.412-0.091,0.836-0.222,1.228c-0.151,0.452-0.511,0.725-1.01,0.731c-0.516,0.008-0.882-0.27-1.046-0.732
	c-0.134-0.377-0.229-0.792-0.231-1.191c-0.018-3.024-0.015-6.05-0.003-9.074c0.002-0.345,0.063-0.7,0.164-1.031
	c0.173-0.567,0.583-0.862,1.1-0.863c0.518,0,0.929,0.295,1.097,0.863c0.099,0.331,0.15,0.686,0.154,1.031
	C118.793,99.7,118.784,101.219,118.784,102.736z"/>
</svg>
