<?xml version="1.0" encoding="utf-8"?>
<!-- Generator: Adobe Illustrator 16.0.0, SVG Export Plug-In . SVG Version: 6.00 Build 0)  -->
<!DOCTYPE svg PUBLIC "-//W3C//DTD SVG 1.1//EN" "http://www.w3.org/Graphics/SVG/1.1/DTD/svg11.dtd">
<svg version="1.1" id="Layer_1" xmlns="http://www.w3.org/2000/svg" xmlns:xlink="http://www.w3.org/1999/xlink" x="0px" y="0px"
	 width="200px" height="200px" viewBox="0 0 200 200" enable-background="new 0 0 200 200" xml:space="preserve">
<circle fill="#FFB492" cx="99.576" cy="99.999" r="95.915"/>
<path d="M32.529,101.762L31.7,92.196c-0.141-1.683-0.252-3.212-0.306-4.358l-0.036-0.004c-0.332,1.239-0.747,2.59-1.194,3.861
	l-3.707,9.749l-5.094-0.268l-2.373-9.304c-0.38-1.428-0.744-3.201-0.975-4.661h-0.034c-0.154,1.476-0.383,2.914-0.694,4.497
	l-1.661,9.166l-4.9-0.256l4.107-19.593l6.153,0.326l2.708,10.198c0.284,1.117,0.56,2.427,0.751,3.771l0.038,0.001
	c0.342-1.393,0.7-2.441,1.144-3.595l3.871-9.932l6.269,0.329l1.966,19.91L32.529,101.762z"/>
<rect x="42.177" y="79.17" width="4.904" height="19.782"/>
<path d="M64.549,102.976l-5.595-9.862c-0.645-1.125-1.277-2.556-1.738-3.676l-0.037-0.003c0.044,0.956,0.045,1.944-0.008,3.505
	l-0.34,9.767l-4.716-0.165l0.691-19.767l6.576,0.23l5.412,9.628c0.719,1.204,1.362,2.48,1.923,3.835l0.037,0.001
	c-0.031-1.182-0.018-2.817,0.054-4.869l0.254-8.329l4.754,0.164l-0.69,19.771L64.549,102.976z"/>
<rect x="69.578" y="88.325" transform="matrix(0.0349 0.9994 -0.9994 0.0349 167.4157 8.1866)" width="19.781" height="4.906"/>
<path d="M105.778,95.774l-5.323,0.189l1.579-4.853c0.312-0.923,0.579-1.961,0.778-2.841l0.033-0.003
	c0.26,0.864,0.681,1.992,1.059,2.895L105.778,95.774 M113.816,102.501l-7.994-19.514l-5.814,0.202l-6.646,20.021l4.941-0.17
	l1.138-3.503l7.635-0.267l1.342,3.416L113.816,102.501z"/>
<polygon points="131.574,86.938 130.761,102.514 125.859,102.257 126.673,86.682 121.51,86.41 121.729,82.231 136.963,83.031 
	136.742,87.209 "/>
<path d="M145.858,106.916c-6.014-0.106-7.856-2.953-7.776-7.443l0.22-12.814l4.906,0.085l-0.203,11.714
	c-0.053,3.041,0.412,4.344,3.189,4.393c3.009,0.053,3.26-1.617,3.308-4.47l0.206-11.523l4.828,0.082l-0.208,12.136
	C154.246,103.486,152.361,107.028,145.858,106.916"/>
<path d="M168.49,88.846c0.113,1.63-1.026,2.817-2.921,2.949c-0.53,0.036-1.138,0.08-1.637,0.039l-0.353-5.049
	c0.454-0.069,0.943-0.14,1.476-0.176C167.069,86.467,168.384,87.29,168.49,88.846 M175.705,102.067l-4.806-6.071
	c-0.627-0.792-1.216-1.554-1.635-2.058c2.8-0.881,4.6-2.913,4.39-5.949c-0.268-3.834-3.282-5.492-8.141-5.152
	c-2.502,0.174-5.496,0.423-7.086,0.611l1.383,19.73l4.896-0.342l-0.544-7.701l0.19-0.013l5.396,7.361L175.705,102.067z"/>
<polygon points="178.006,104.462 177.316,84.696 189.482,84.271 189.618,88.107 182.357,88.361 182.494,92.317 189.414,92.074 
	189.543,95.8 182.622,96.042 182.774,100.374 190.035,100.12 190.174,104.039 "/>
<path d="M45.451,122.192c-2.144,0-3.22-1.238-3.22-3.169c0-1.82,1.09-3.47,3.542-3.47c0.383,0,0.903,0.052,1.312,0.162l-0.138,1.402
	c-0.405-0.139-0.839-0.214-1.259-0.214c-1.103,0-1.734,0.796-1.734,1.97c0,1.252,0.693,1.895,1.806,1.895
	c0.447,0,0.893-0.087,1.238-0.26l0.138,1.411C46.604,122.094,46.044,122.192,45.451,122.192"/>
<path d="M59.612,118.887c0,1.312-0.778,1.908-1.685,1.908c-1.09,0-1.595-0.819-1.595-1.944c0-1.248,0.769-1.908,1.634-1.908
	C58.947,116.942,59.612,117.611,59.612,118.887 M61.322,118.802c0-2.22-1.411-3.256-3.243-3.256c-1.822,0-3.457,1.298-3.457,3.402
	c0,1.958,1.116,3.259,3.22,3.259C59.71,122.207,61.322,120.92,61.322,118.802"/>
<path d="M72.057,117.861c0,0.641-0.46,1-1.153,1c-0.146,0-0.371-0.011-0.496-0.036v-1.921c0.149-0.01,0.385-0.01,0.569-0.01
	C71.695,116.895,72.057,117.327,72.057,117.861 M73.751,117.77c0-1.37-0.966-2.152-2.664-2.152c-0.791,0-1.707,0.014-2.278,0.037
	v6.439h1.599v-1.992c0.136,0.01,0.397,0.024,0.533,0.024C72.576,120.126,73.751,119.221,73.751,117.77"/>
<polygon points="81.239,122.094 81.239,115.654 85.2,115.654 85.2,116.904 82.838,116.904 82.838,118.194 85.089,118.194 
	85.089,119.404 82.838,119.404 82.838,120.816 85.2,120.816 85.2,122.094 "/>
<path d="M96.737,122.094l-1.932-3.146c-0.222-0.361-0.445-0.816-0.606-1.179h-0.013c0.026,0.312,0.039,0.634,0.039,1.141v3.184
	h-1.537v-6.439h2.141l1.872,3.072c0.245,0.383,0.469,0.791,0.669,1.226h0.01c-0.021-0.385-0.036-0.919-0.036-1.583l-0.013-2.715
	h1.549v6.439H96.737z"/>
<polygon points="110.701,122.094 110.701,119.495 107.962,119.495 107.962,122.094 106.367,122.094 106.367,115.654 
	107.962,115.654 107.962,118.119 110.701,118.119 110.701,115.654 112.296,115.654 112.296,122.094 "/>
<path d="M123.905,119.815h-1.731l0.571-1.56c0.109-0.297,0.209-0.631,0.281-0.918h0.013c0.075,0.287,0.202,0.656,0.313,0.954
	L123.905,119.815 M126.447,122.094l-2.38-6.439h-1.894l-2.391,6.439h1.611l0.407-1.125h2.487l0.399,1.125H126.447z"/>
<path d="M137.268,122.207c-1.908,0-3.333-1.077-3.333-3.209c0-1.92,1.339-3.452,3.618-3.452c0.693,0,1.398,0.098,2.09,0.32
	l-0.295,1.373c-0.569-0.233-1.138-0.358-1.759-0.358c-1.126,0-1.957,0.722-1.957,1.993c0,1.237,0.718,1.921,1.77,1.921
	c0.271,0,0.543-0.037,0.768-0.113v-2.018h1.598v3.07C139.001,122.032,138.183,122.207,137.268,122.207"/>
<polygon points="147.254,122.094 147.254,115.654 151.217,115.654 151.217,116.904 148.85,116.904 148.85,118.194 151.105,118.194 
	151.105,119.404 148.85,119.404 148.85,120.816 151.217,120.816 151.217,122.094 "/>
<path d="M162.757,122.094l-1.933-3.146c-0.221-0.361-0.444-0.816-0.604-1.179h-0.015c0.024,0.312,0.037,0.634,0.037,1.141v3.184
	h-1.537v-6.439h2.144l1.872,3.072c0.244,0.383,0.468,0.791,0.667,1.226h0.013c-0.025-0.385-0.036-0.919-0.036-1.583l-0.013-2.715
	h1.546v6.439H162.757z"/>
</svg>
