<?xml version="1.0" encoding="utf-8"?>
<!-- Generator: Adobe Illustrator 16.0.0, SVG Export Plug-In . SVG Version: 6.00 Build 0)  -->
<!DOCTYPE svg PUBLIC "-//W3C//DTD SVG 1.1//EN" "http://www.w3.org/Graphics/SVG/1.1/DTD/svg11.dtd">
<svg version="1.1" id="Layer_1" xmlns="http://www.w3.org/2000/svg" xmlns:xlink="http://www.w3.org/1999/xlink" x="0px" y="0px"
	 width="200px" height="200px" viewBox="0 0 200 200" enable-background="new 0 0 200 200" xml:space="preserve">
<circle fill="#FFB492" cx="99.576" cy="99.999" r="95.915"/>
<polyline fill="#000300" points="172.578,61.114 163.166,73.167 172.578,85.131 181.991,73.167 172.578,61.114 "/>
<path fill="#000300" d="M25.882,82.99c0-3.069-0.613-3.55-2.964-3.837l-3.883-0.479v-3.07l15.738-2.303l0.817,6.619
	c2.759-2.014,9.197-6.713,16.658-6.713c6.948,0,10.424,2.781,12.773,6.713c2.352-1.343,8.585-6.713,16.658-6.713
	c9.3,0,14.716,5.467,14.716,14.482v22.635c0,4.413,0.307,4.413,7.256,4.892v3.357H79.636v-3.357
	c6.643-0.479,7.052-0.384,7.052-4.892V89.991c0-7.672-3.679-11.221-9.504-11.125c-5.723,0.096-9.913,3.261-10.833,7.194
	c-0.408,1.535-0.307,2.876-0.307,4.507v19.759c0,4.508,0.307,4.413,6.95,4.892v3.357H49.285v-3.357
	c6.642-0.479,6.948-0.384,6.948-4.892V89.991c0-4.795-0.204-11.125-8.788-11.125c-5.314,0-9.3,3.068-11.14,7
	c-0.613,1.249-0.714,2.494-0.714,4.605v19.854c0,4.508,0.511,4.413,6.949,4.892v3.357H18.626v-3.357
	c6.745-0.479,7.256-0.479,7.256-4.892V82.99"/>
<path fill="#000300" d="M122.45,104.091c0,2.015,0,3.836,0.614,5.372c1.43,4.124,5.211,6.329,10.116,6.329
	c9.401,0,13.592-6.617,13.592-19.662c0-15.441-8.175-17.169-11.956-17.169c-5.008,0-9.097,2.302-11.242,6.33
	c-0.715,1.632-1.124,2.878-1.124,4.988V104.091 M112.641,83.183c0-3.262-0.613-3.742-2.76-4.03l-3.985-0.479v-3.069l15.227-2.304
	l1.328,6.524c3.781-2.398,9.301-6.618,16.147-6.618c16.658,0,18.905,15.153,18.905,22.348c0,18.798-11.343,24.17-24.424,24.17
	c-4.19,0-8.687-0.96-10.629-1.918v13.139c0,4.414,0.614,4.509,8.482,4.988v3.357h-25.345v-3.357
	c6.541-0.479,7.053-0.574,7.053-4.988V83.183z"/>
<path fill="#000300" d="M27.699,137.361c0,1.107,0.201,1.281,1.534,1.281c2.647,0,4.451-0.917,4.451-4.652
	c0-2.484-0.994-4.352-4.266-4.336c-1.635,0-1.719,0.078-1.719,0.791V137.361 M29.839,129.006c1.923,0,3.423,0.332,4.436,1.249
	c0.961,0.871,1.365,2.185,1.365,3.704c0,3.734-2.562,5.333-6.121,5.333h-5.008v-0.553c1.417-0.097,1.417-0.112,1.417-0.951v-7.295
	c0-0.824,0-0.839-1.417-0.934v-0.554H29.839z"/>
<path fill="#000300" d="M42.035,134.543c0.405,0,0.523-0.125,0.523-0.379c0-0.57-0.186-1.898-1.585-1.898
	c-1.584,0-1.837,1.646-1.837,2.277H42.035 M39.117,135.255c-0.033,1.536,0.371,3.166,2.311,3.166c1.097,0,1.704-0.602,2.192-1.503
	l0.606,0.315c-0.472,1.203-1.399,2.059-3.169,2.059c-2.665,0-3.71-1.456-3.71-3.783c0-2.23,1.197-3.893,3.692-3.893
	c2.918,0,3.29,2.104,3.29,3.023c0,0.553-0.371,0.615-0.658,0.615H39.117z"/>
<path fill="#000300" d="M53.436,137.914c0,0.729,0.068,0.746,1.198,0.825v0.553h-3.98v-0.553c1.114-0.079,1.181-0.079,1.181-0.81
	v-3.354c0-1.266-0.556-1.836-1.618-1.836c-0.828,0-1.501,0.49-1.839,1.093c-0.135,0.236-0.152,0.442-0.152,0.807v3.29
	c0,0.713,0.084,0.73,1.18,0.81v0.553h-3.979v-0.553c1.146-0.079,1.197-0.097,1.197-0.81v-4.509c0-0.507-0.119-0.587-0.489-0.634
	l-0.573-0.079v-0.507l2.428-0.379l0.219,1.092c0.979-0.601,1.704-1.107,2.867-1.107c1.467,0,2.361,0.871,2.361,2.357V137.914"/>
<path fill="#000300" d="M56.659,133.421c0-0.507-0.101-0.587-0.489-0.634l-0.641-0.079v-0.507l2.597-0.379l0.134,1.092
	c0.457-0.332,1.518-1.107,2.75-1.107c1.146,0,1.719,0.459,2.108,1.107c0.387-0.223,1.417-1.107,2.748-1.107
	c1.534,0,2.429,0.901,2.429,2.39v3.733c0,0.73,0.05,0.73,1.196,0.81v0.553h-3.963v-0.553c1.097-0.079,1.164-0.064,1.164-0.81v-3.354
	c0-1.266-0.606-1.852-1.568-1.836c-0.944,0.016-1.636,0.538-1.788,1.187c-0.068,0.254-0.05,0.475-0.05,0.743v3.26
	c0,0.745,0.05,0.73,1.146,0.81v0.553h-3.913v-0.553c1.097-0.079,1.146-0.064,1.146-0.81v-3.354c0-0.791-0.034-1.836-1.449-1.836
	c-0.877,0-1.535,0.506-1.838,1.155c-0.101,0.206-0.119,0.411-0.119,0.759v3.275c0,0.745,0.085,0.73,1.148,0.81v0.553h-3.947v-0.553
	c1.113-0.079,1.197-0.079,1.197-0.81V133.421"/>
<path fill="#000300" d="M75.146,134.924c-0.354,0.205-1.147,0.475-1.771,0.695c-0.843,0.318-1.181,0.666-1.181,1.362
	c0,0.854,0.473,1.407,1.399,1.407c0.607,0,1.552-0.284,1.552-1.456V134.924 M76.697,137.061c0,0.933,0.27,1.187,0.555,1.25
	c0.152,0.031,0.406,0.031,0.625,0l0.083,0.554c-0.405,0.253-1.181,0.428-1.771,0.428c-0.54,0-0.827-0.271-1.045-0.84
	c-0.523,0.301-1.367,0.84-2.345,0.84c-1.5,0-2.326-0.981-2.326-2.105c0-0.713,0.354-1.551,1.483-1.884
	c1.248-0.362,2.783-0.744,3.188-1.139v-0.412c0-1.171-0.658-1.472-1.367-1.472c-0.555,0-1.112,0.237-1.534,1.328
	c-0.101,0.286-0.253,0.477-0.591,0.477s-0.893-0.237-0.893-0.729c0-0.854,1.299-1.74,3.136-1.74c2.428,0,2.8,1.171,2.8,2.057
	V137.061z"/>
<path fill="#000300" d="M81.505,137.914c0,0.746,0.101,0.761,1.534,0.825v0.553h-4.35v-0.553c1.113-0.079,1.213-0.079,1.213-0.825
	v-4.461c0-0.555-0.084-0.619-0.472-0.666l-0.658-0.079v-0.507l2.547-0.379l0.185,1.203c1.029-0.87,1.518-1.219,2.108-1.219
	c0.623,0,0.859,0.395,0.859,0.76c0,0.475-0.354,0.948-0.758,0.948c-0.085,0-0.203,0-0.354-0.079
	c-0.438-0.268-0.742-0.347-0.944-0.347c-0.337,0-0.91,0.41-0.91,1.52V137.914"/>
<path fill="#000300" d="M90.039,132.438c0.354-0.411,0.523-0.506,1.13-0.506h1.719v0.476c-1.078,0.111-1.382,0.221-1.988,0.633
	c-0.49,0.349-0.946,0.759-1.653,1.551c-0.085,0.079-0.085,0.19,0.05,0.363c0.607,0.84,1.72,2.185,2.681,3.087
	c0.506,0.459,0.876,0.57,1.332,0.695v0.555l-1.23-0.031c-0.574-0.017-1.266-0.238-1.821-0.807c-0.826-0.776-1.906-2.105-2.53-3.071
	v-0.095C88.015,134.845,89.55,132.979,90.039,132.438 M85.992,129.827c0-0.553-0.085-0.616-0.488-0.648l-0.641-0.063v-0.506
	l2.614-0.411l0.134,0.095v9.543c0,0.743,0.051,0.761,1.198,0.823v0.568h-4.014v-0.568c1.147-0.062,1.198-0.08,1.198-0.823V129.827z"
	/>
</svg>
