<?xml version="1.0" encoding="utf-8"?>
<!-- Generator: Adobe Illustrator 16.0.0, SVG Export Plug-In . SVG Version: 6.00 Build 0)  -->
<!DOCTYPE svg PUBLIC "-//W3C//DTD SVG 1.1//EN" "http://www.w3.org/Graphics/SVG/1.1/DTD/svg11.dtd">
<svg version="1.1" id="Layer_1" xmlns="http://www.w3.org/2000/svg" xmlns:xlink="http://www.w3.org/1999/xlink" x="0px" y="0px"
	 width="200px" height="200px" viewBox="0 0 200 200" enable-background="new 0 0 200 200" xml:space="preserve">
<circle fill="#FFB492" cx="99.576" cy="99.999" r="95.915"/>
<path fill-rule="evenodd" clip-rule="evenodd" fill="#231F20" d="M88.667,104.862c0.311,0.079,0.718,0.276,0.931,0.447
	c-0.022,0.071-0.039,0.151-0.07,0.226c-0.297,0.679-0.646,1.328-1.076,1.935c-1.022,1.437-2.423,2.284-4.126,2.659
	c-0.839,0.186-1.692,0.248-2.546,0.184c-1.723-0.131-3.252-0.756-4.578-1.869c-1.042-0.875-1.789-1.964-2.329-3.204
	c-0.424-0.973-0.675-1.989-0.77-3.045c-0.125-1.399-0.073-2.789,0.269-4.156c0.37-1.477,1.021-2.815,2.02-3.973
	c1.198-1.387,2.699-2.272,4.484-2.664c1.406-0.308,2.812-0.279,4.205,0.106c0.665,0.184,1.294,0.459,1.896,0.794
	c0.09,0.05,0.182,0.095,0.285,0.149c0.06-0.082,0.112-0.145,0.155-0.214c0.1-0.158,0.197-0.318,0.291-0.48
	c0.063-0.109,0.149-0.167,0.278-0.164c0.229,0.005,0.458-0.001,0.687,0.006c0.106,0.003,0.152,0.05,0.164,0.153
	c0.011,0.104,0.013,0.208,0.015,0.312c0.008,0.667,0.013,1.333,0.023,1.999c0.019,1.208,0.043,2.415,0.062,3.623
	c0.002,0.133,0.02,0.269-0.031,0.39c-0.236,0.069-0.652,0.077-0.974,0.022c-0.085-0.082-0.092-0.202-0.119-0.311
	c-0.167-0.667-0.377-1.321-0.628-1.961c-0.295-0.75-0.671-1.457-1.202-2.07c-0.484-0.561-1.059-0.999-1.767-1.243
	c-0.337-0.117-0.682-0.182-1.039-0.198c-0.715-0.03-1.413,0.05-2.085,0.31c-1.122,0.433-1.965,1.193-2.595,2.203
	c-0.39,0.623-0.657,1.3-0.862,2.001c-0.251,0.863-0.396,1.744-0.466,2.64c-0.046,0.593-0.062,1.186-0.04,1.779
	c0.05,1.344,0.311,2.645,0.874,3.875c0.38,0.831,0.876,1.584,1.542,2.217c0.796,0.757,1.718,1.281,2.814,1.453
	c1.566,0.246,3.008-0.061,4.271-1.042c0.674-0.524,1.184-1.198,1.589-1.948c0.123-0.229,0.225-0.469,0.337-0.703
	C88.589,105.026,88.624,104.951,88.667,104.862z"/>
<path fill-rule="evenodd" clip-rule="evenodd" fill="#231F20" d="M171.867,92.323c0.119-0.351,0.323-0.643,0.618-0.872
	c0.319-0.249,0.69-0.374,1.088-0.436c0.491-0.077,0.979-0.049,1.46,0.038c0.707,0.126,1.407,0.288,2.111,0.427
	c0.265,0.053,0.533,0.089,0.8,0.132c0.168,0.027,0.333,0.008,0.493-0.04c0.164-0.049,0.272-0.158,0.3-0.328
	c0.036-0.222,0.009-0.436-0.128-0.624c-0.049-0.067-0.105-0.129-0.156-0.195c-0.403-0.519-0.608-1.104-0.61-1.766
	c0-0.461,0.079-0.911,0.16-1.361c0.078-0.43,0.164-0.859,0.237-1.29c0.25-1.475-0.054-2.833-0.875-4.079
	c-0.058-0.085-0.106-0.177-0.158-0.266c-0.004-0.006,0.005-0.018,0.012-0.038c0.101-0.006,0.165,0.069,0.236,0.12
	c0.602,0.433,1.152,0.923,1.652,1.471c1.425,1.557,2.453,3.355,3.229,5.305c0.482,1.213,0.838,2.462,1.043,3.752
	c0.136,0.846,0.194,1.696,0.144,2.551c-0.037,0.635-0.14,1.262-0.366,1.861c-0.044,0.117-0.095,0.231-0.14,0.348
	c-0.123,0.311-0.332,0.539-0.622,0.714c-0.444,0.269-0.884,0.548-1.357,0.766c-0.323,0.148-0.655,0.268-1.005,0.336
	c-0.61,0.119-1.162-0.002-1.635-0.409c-0.211-0.182-0.412-0.385-0.583-0.604c-0.37-0.476-0.72-0.969-1.076-1.457
	c-0.351-0.479-0.72-0.943-1.125-1.377c-0.979-1.048-2.123-1.865-3.417-2.478C172.087,92.474,171.961,92.442,171.867,92.323z"/>
<path fill-rule="evenodd" clip-rule="evenodd" fill="#231F20" d="M157.172,77.725c-0.043,0.081-0.084,0.162-0.128,0.242
	c-0.368,0.673-0.622,1.382-0.717,2.149c-0.08,0.639-0.024,1.269,0.118,1.89c0.103,0.446,0.237,0.885,0.353,1.328
	c0.096,0.372,0.198,0.744,0.268,1.122c0.081,0.433,0.078,0.87-0.033,1.302c-0.089,0.347-0.239,0.666-0.453,0.953
	c-0.133,0.178-0.179,0.372-0.162,0.587c0.021,0.28,0.171,0.44,0.453,0.461c0.134,0.01,0.273,0.005,0.403-0.024
	c0.323-0.074,0.646-0.159,0.965-0.253c0.549-0.162,1.093-0.343,1.645-0.497c0.562-0.156,1.137-0.252,1.727-0.215
	c0.734,0.046,1.315,0.358,1.701,1c0.016,0.026,0.03,0.054,0.042,0.083c0.008,0.019,0.01,0.041,0.016,0.062
	c-0.017,0.097-0.105,0.121-0.173,0.164c-0.333,0.213-0.676,0.412-0.999,0.639c-1.272,0.891-2.293,2.018-3.109,3.334
	c-0.263,0.425-0.513,0.858-0.773,1.284c-0.146,0.239-0.296,0.478-0.457,0.708c-0.112,0.161-0.241,0.313-0.374,0.459
	c-0.496,0.551-1.121,0.724-1.84,0.611c-0.393-0.062-0.772-0.175-1.135-0.337c-0.444-0.2-0.88-0.425-1.32-0.637
	c-0.176-0.084-0.296-0.221-0.399-0.383c-0.335-0.524-0.548-1.098-0.681-1.702c-0.209-0.95-0.267-1.912-0.215-2.885
	c0.088-1.666,0.428-3.278,0.959-4.854c0.438-1.297,1.006-2.534,1.733-3.695c0.549-0.877,1.179-1.689,1.927-2.407
	c0.194-0.187,0.401-0.358,0.608-0.529C157.138,77.697,157.153,77.711,157.172,77.725z"/>
<path fill-rule="evenodd" clip-rule="evenodd" fill="#231F20" d="M151.904,118.144c-0.029-0.041-0.054-0.062-0.062-0.089
	c-0.209-0.707-0.14-1.379,0.266-2.004c0.2-0.309,0.458-0.565,0.746-0.793c0.503-0.396,1.068-0.685,1.655-0.931
	c0.828-0.346,1.687-0.601,2.558-0.808c0.587-0.141,1.179-0.262,1.768-0.393c0.1-0.021,0.198-0.047,0.356-0.087
	c-0.1-0.041-0.143-0.068-0.189-0.076c-1.075-0.189-2.151-0.383-3.238-0.498c-0.528-0.056-1.058-0.09-1.591-0.076
	c-0.375,0.009-0.747,0.05-1.113,0.127c-0.247,0.051-0.483,0.13-0.706,0.246c-0.234,0.122-0.44,0.276-0.599,0.49
	c-0.036,0.05-0.077,0.095-0.134,0.164c-0.028-0.055-0.06-0.086-0.061-0.118c-0.041-0.809,0.222-1.494,0.846-2.023
	c0.346-0.293,0.744-0.496,1.165-0.655c0.677-0.255,1.38-0.392,2.096-0.479c0.278-0.034,0.559-0.051,0.838-0.078
	c0.07-0.007,0.139-0.027,0.206-0.042c-0.005-0.114-0.093-0.117-0.152-0.145c-0.547-0.255-1.1-0.499-1.643-0.761
	c-0.704-0.339-1.388-0.716-2.033-1.159c-0.533-0.368-1.038-0.769-1.454-1.27c-0.302-0.364-0.547-0.762-0.653-1.229
	c-0.134-0.593-0.049-1.158,0.24-1.692c0.014-0.027,0.035-0.05,0.073-0.105c0.032,0.079,0.059,0.121,0.068,0.167
	c0.062,0.338,0.227,0.622,0.458,0.871c0.221,0.239,0.476,0.436,0.751,0.607c0.534,0.331,1.108,0.574,1.698,0.785
	c0.264,0.095,0.53,0.184,0.798,0.268c0.133,0.04,0.208,0.114,0.249,0.249c0.313,1.023,0.886,1.898,1.575,2.706
	c0.487,0.57,1.023,1.095,1.591,1.586c0.117,0.103,0.244,0.194,0.367,0.29c0.669,0.52,1.284,1.092,1.802,1.767
	c0.312,0.406,0.577,0.84,0.762,1.32c0.158,0.413,0.243,0.839,0.213,1.283c-0.006,0.083-0.014,0.167-0.029,0.248
	c-0.016,0.077-0.066,0.129-0.147,0.143c-0.103,0.02-0.204,0.041-0.308,0.052c-0.237,0.023-0.477,0.047-0.715,0.061
	c-0.552,0.028-1.102,0.052-1.653,0.074c-1.103,0.046-2.204,0.101-3.298,0.255c-0.567,0.081-1.132,0.185-1.672,0.382
	c-0.271,0.101-0.539,0.221-0.793,0.361c-0.374,0.205-0.664,0.499-0.828,0.902C151.963,118.072,151.935,118.101,151.904,118.144z"/>
<path fill-rule="evenodd" clip-rule="evenodd" fill="#231F20" d="M62.371,93.306c0.069,0.152,0.049,0.279,0.049,0.402
	c0.001,1.031,0,2.062,0.001,3.093c0,0.124,0.008,0.247,0.013,0.385c0.081,0.021,0.147,0.048,0.215,0.055
	c0.093,0.009,0.187,0.005,0.281,0.005c0.895,0,1.791,0,2.687,0.001c0.104,0,0.208,0.004,0.311,0.015
	c0.069,0.007,0.11,0.056,0.12,0.125c0.006,0.041,0.009,0.083,0.009,0.125c0.001,0.24,0.002,0.479-0.001,0.718
	c-0.001,0.06-0.018,0.12-0.027,0.179c-0.115,0.071-0.231,0.055-0.344,0.055c-0.573,0.001-1.146,0-1.718,0
	c-0.385,0-0.771,0-1.156,0.001c-0.103,0-0.205,0.01-0.318,0.015c-0.021,0.074-0.046,0.13-0.051,0.189
	c-0.009,0.093-0.005,0.187-0.005,0.281c0,2.218-0.003,4.436,0.003,6.654c0.001,0.438,0.031,0.875,0.061,1.311
	c0.019,0.282,0.099,0.552,0.218,0.81c0.161,0.349,0.424,0.588,0.78,0.726c0.206,0.08,0.418,0.123,0.639,0.134
	c0.616,0.027,1.228-0.01,1.836-0.106c0.082-0.013,0.165-0.022,0.248-0.029c0.018-0.002,0.037,0.015,0.076,0.03
	c0.048,0.245,0.027,0.504,0.011,0.761c-0.003,0.05-0.064,0.099-0.102,0.144c-0.012,0.016-0.036,0.021-0.055,0.028
	c-0.628,0.253-1.255,0.516-1.923,0.64c-0.741,0.139-1.491,0.156-2.236,0.026c-0.193-0.034-0.384-0.098-0.567-0.168
	c-0.381-0.147-0.675-0.406-0.898-0.746c-0.268-0.41-0.41-0.865-0.462-1.348c-0.034-0.32-0.054-0.643-0.055-0.965
	c-0.004-2.635-0.002-5.27-0.004-7.904c0-0.143,0.027-0.291-0.038-0.422c-0.11-0.08-0.228-0.057-0.34-0.058
	c-0.5-0.002-1,0-1.499-0.002c-0.113,0-0.229,0.012-0.351-0.043c-0.013-0.043-0.04-0.091-0.041-0.14
	c-0.004-0.271-0.008-0.542-0.001-0.812c0.004-0.173,0.048-0.208,0.233-0.22c0.083-0.005,0.166-0.003,0.25-0.003
	c0.479,0,0.958,0.001,1.437-0.001c0.123-0.001,0.251,0.02,0.367-0.059c0.063-0.114,0.041-0.242,0.041-0.364
	c0.002-1.042,0-2.083,0.002-3.125c0-0.123-0.021-0.25,0.046-0.384c0.05-0.011,0.108-0.037,0.167-0.037
	c0.646-0.002,1.292-0.002,1.937,0C62.265,93.277,62.315,93.295,62.371,93.306z"/>
<path fill-rule="evenodd" clip-rule="evenodd" fill="#231F20" d="M40.922,98.449c-0.02-0.079-0.038-0.117-0.038-0.157
	c-0.003-0.281-0.008-0.562-0.002-0.843c0.003-0.145,0.047-0.186,0.187-0.197c0.093-0.008,0.187-0.006,0.281-0.006
	c0.51,0,1.02,0.002,1.53-0.001c0.337-0.002,0.352-0.016,0.352-0.354c0.002-1.051,0-2.103,0.002-3.154
	c0-0.134,0.011-0.267,0.017-0.408c0.077-0.021,0.135-0.051,0.193-0.051c0.646-0.003,1.291-0.002,1.936,0
	c0.041,0,0.08,0.015,0.139,0.027c0.015,0.066,0.041,0.134,0.044,0.203c0.007,0.145,0.004,0.291,0.004,0.437
	c0,0.958-0.001,1.916,0.001,2.873c0,0.123-0.018,0.25,0.035,0.365c0.128,0.088,0.267,0.062,0.4,0.062
	c0.905,0.002,1.812,0,2.717,0.001c0.104,0,0.209,0,0.312,0.009c0.107,0.01,0.149,0.054,0.167,0.153
	c0.029,0.167,0.008,0.815-0.033,0.992c-0.064,0.069-0.151,0.062-0.233,0.063c-0.25,0.002-0.5,0.001-0.75,0.001
	c-0.729,0-1.458-0.001-2.186,0.001c-0.382,0-0.39,0.007-0.39,0.379c0,2.332-0.002,4.664,0.002,6.996
	c0.001,0.426-0.002,0.854,0.077,1.276c0.042,0.227,0.109,0.443,0.211,0.651c0.163,0.336,0.426,0.56,0.773,0.688
	c0.206,0.075,0.42,0.119,0.641,0.129c0.626,0.026,1.248-0.015,1.866-0.115c0.089-0.014,0.181-0.058,0.289,0.002
	c0.053,0.246,0.028,0.506,0.013,0.763c-0.003,0.05-0.058,0.106-0.103,0.143c-0.047,0.036-0.111,0.057-0.169,0.077
	c-0.411,0.15-0.819,0.307-1.232,0.447c-0.456,0.154-0.928,0.235-1.411,0.243c-0.312,0.006-0.625,0.009-0.936-0.003
	c-0.367-0.014-0.721-0.096-1.062-0.236c-0.377-0.157-0.673-0.408-0.892-0.753c-0.209-0.33-0.348-0.688-0.411-1.072
	c-0.042-0.256-0.062-0.516-0.08-0.775c-0.013-0.187-0.005-0.374-0.005-0.562c0-2.582,0-5.163,0-7.746
	c0-0.114,0.001-0.229-0.006-0.343c-0.008-0.125-0.052-0.17-0.17-0.181c-0.083-0.008-0.167-0.007-0.25-0.007
	c-0.489,0-0.979,0-1.468-0.001C41.168,98.463,41.056,98.455,40.922,98.449z"/>
<path fill-rule="evenodd" clip-rule="evenodd" fill="#231F20" d="M177.163,123.355c-0.006-0.073-0.013-0.113-0.013-0.153
	c0.009-0.411-0.128-0.776-0.354-1.113c-0.227-0.34-0.512-0.629-0.822-0.892c-0.607-0.514-1.272-0.943-1.969-1.321
	c-0.824-0.446-1.659-0.872-2.49-1.304c-0.379-0.197-0.761-0.388-1.14-0.583c-0.091-0.047-0.177-0.104-0.264-0.156
	c0.009-0.286,0.095-0.53,0.208-0.765c0.21-0.44,0.522-0.8,0.894-1.11c0.517-0.433,1.103-0.745,1.721-1.003
	c0.53-0.222,1.075-0.397,1.635-0.52c0.532-0.117,1.043-0.289,1.55-0.48c0.674-0.254,1.327-0.551,1.943-0.925
	c0.438-0.265,0.856-0.558,1.221-0.919c0.133-0.133,0.268-0.16,0.449-0.133c0.887,0.136,1.777,0.201,2.676,0.166
	c0.346-0.015,0.685-0.062,1.018-0.156c0.472-0.131,0.891-0.349,1.177-0.769c0.012-0.017,0.028-0.029,0.045-0.043
	c0.007-0.006,0.018-0.007,0.028-0.009c0.057,0.011,0.05,0.061,0.053,0.098c0.057,0.919-0.297,1.642-1.047,2.171
	c-0.326,0.23-0.684,0.398-1.058,0.531c-0.591,0.213-1.203,0.336-1.823,0.418c-1.023,0.137-2.053,0.165-3.085,0.175
	c-0.134,0.001-0.268,0.004-0.39,0.005c-0.048,0.085,0.001,0.114,0.041,0.143c0.204,0.145,0.41,0.286,0.613,0.433
	c0.337,0.245,0.644,0.527,0.928,0.833c0.251,0.268,0.462,0.564,0.62,0.896c0.354,0.741,0.309,1.471-0.062,2.191
	c-0.01,0.019-0.026,0.033-0.04,0.048c-0.008,0.007-0.018,0.009-0.029,0.013c-0.08-0.022-0.063-0.098-0.076-0.151
	c-0.087-0.378-0.285-0.688-0.561-0.955c-0.287-0.278-0.618-0.494-0.966-0.683c-0.422-0.229-0.863-0.415-1.313-0.579
	c-1.039-0.377-2.107-0.657-3.177-0.929c-0.142-0.034-0.282-0.073-0.425-0.105c-0.047-0.011-0.099-0.006-0.151-0.009
	c0.009,0.12,0.1,0.146,0.162,0.193c0.367,0.273,0.74,0.54,1.106,0.815c0.85,0.642,1.662,1.322,2.391,2.101
	c0.393,0.42,0.749,0.867,1.033,1.368c0.144,0.255,0.264,0.521,0.342,0.803c0.235,0.856,0.074,1.627-0.509,2.305
	C177.24,123.31,177.219,123.317,177.163,123.355z"/>
<path fill-rule="evenodd" clip-rule="evenodd" fill="#231F20" d="M97.945,98.37c-0.153-0.061-0.263-0.025-0.373,0.001
	c-0.526,0.127-0.988,0.385-1.41,0.714c-0.339,0.264-0.622,0.583-0.867,0.936c-0.08,0.116-0.127,0.237-0.118,0.378
	c0.002,0.042,0,0.083,0,0.125c0,2.332-0.001,4.665,0.002,6.997c0,0.164,0.018,0.333,0.05,0.494c0.067,0.328,0.271,0.555,0.572,0.697
	c0.296,0.139,0.614,0.194,0.934,0.237c0.228,0.03,0.456,0.049,0.683,0.075c0.148,0.018,0.184,0.052,0.189,0.196
	c0.006,0.165,0.002,0.332-0.002,0.499c-0.001,0.039-0.019,0.078-0.033,0.132c-0.061,0.013-0.119,0.029-0.178,0.035
	c-0.073,0.007-0.146,0.003-0.219,0.003c-1.936,0.001-3.873,0.001-5.809,0c-0.133,0-0.27,0.019-0.409-0.042
	c-0.064-0.258-0.051-0.511-0.014-0.75c0.094-0.087,0.191-0.073,0.283-0.084c0.176-0.019,0.352-0.034,0.527-0.06
	c0.103-0.015,0.205-0.039,0.304-0.069c0.385-0.12,0.613-0.387,0.679-0.778c0.036-0.215,0.048-0.436,0.048-0.652
	c0.003-2.062,0.002-4.123,0.002-6.185c0-0.416,0.001-0.833-0.001-1.249c-0.001-0.305-0.05-0.601-0.18-0.881
	c-0.193-0.421-0.502-0.711-0.955-0.832c-0.18-0.048-0.367-0.074-0.55-0.108c-0.072-0.013-0.145-0.019-0.215-0.035
	c-0.066-0.016-0.112-0.062-0.116-0.131c-0.011-0.226-0.043-0.454,0.029-0.674c0.132-0.072,0.269-0.074,0.403-0.083
	c0.779-0.05,1.558-0.096,2.337-0.147c0.405-0.026,0.809-0.06,1.214-0.09c0.042-0.003,0.083-0.009,0.125-0.007
	c0.152,0.007,0.275,0.116,0.292,0.271c0.012,0.113,0.008,0.229,0.009,0.343c0.001,0.333-0.001,0.667,0.001,1
	c0,0.092,0.007,0.185,0.011,0.271c0.093,0.045,0.125-0.022,0.165-0.065c0.228-0.243,0.44-0.501,0.685-0.726
	c0.638-0.59,1.375-1.006,2.23-1.195c0.298-0.066,0.603-0.077,0.901-0.027c0.62,0.106,1.079,0.449,1.307,1.038
	c0.245,0.628,0.225,1.263-0.065,1.88c-0.221,0.466-0.6,0.681-1.102,0.674c-0.197-0.003-0.397-0.034-0.585-0.089
	c-0.545-0.158-0.879-0.621-0.87-1.188c0.002-0.176,0.03-0.352,0.049-0.527C97.915,98.591,97.93,98.489,97.945,98.37z"/>
<path fill-rule="evenodd" clip-rule="evenodd" fill="#231F20" d="M56.883,109.061c0.049,0.283,0.061,0.536-0.006,0.792
	c-0.053,0.014-0.092,0.031-0.131,0.031c-1.936,0.002-3.872,0.002-5.808,0.001c-0.04-0.001-0.079-0.019-0.127-0.03
	c-0.081-0.235-0.05-0.474-0.028-0.709c0.006-0.067,0.065-0.105,0.132-0.114c0.083-0.009,0.166-0.01,0.249-0.022
	c0.236-0.034,0.476-0.054,0.707-0.111c0.458-0.114,0.693-0.434,0.75-0.892c0.013-0.104,0.014-0.207,0.014-0.312
	c0.001-2.582-0.002-5.163,0.003-7.744c0.001-0.488-0.157-0.894-0.512-1.228c-0.146-0.138-0.311-0.25-0.504-0.302
	c-0.301-0.081-0.605-0.149-0.91-0.217c-0.1-0.023-0.208-0.014-0.308-0.097c-0.054-0.233-0.038-0.479-0.008-0.732
	c0.131-0.093,0.28-0.085,0.422-0.096c0.301-0.023,0.603-0.042,0.904-0.059c0.467-0.028,0.935-0.052,1.402-0.081
	c0.488-0.03,0.976-0.064,1.464-0.096c0.051-0.003,0.104-0.012,0.155-0.01c0.151,0.006,0.277,0.116,0.295,0.269
	c0.013,0.113,0.009,0.229,0.009,0.343c0,3.174,0,6.35,0,9.525c0,0.155-0.002,0.312,0.002,0.468c0.002,0.094,0.007,0.188,0.023,0.279
	c0.07,0.386,0.275,0.669,0.645,0.821c0.299,0.123,0.605,0.223,0.926,0.272C56.717,109.022,56.787,109.04,56.883,109.061z"/>
<path fill-rule="evenodd" clip-rule="evenodd" fill="#231F20" d="M22.638,121.071c0.062-0.126,0.098-0.188,0.124-0.255
	c0.403-1.027,0.805-2.055,1.205-3.083c0.049-0.126,0.088-0.256,0.125-0.386c0.021-0.08,0.036-0.164,0.041-0.246
	c0.012-0.199-0.038-0.283-0.228-0.359c-0.115-0.046-0.239-0.07-0.36-0.101c-0.06-0.015-0.124-0.017-0.184-0.032
	c-0.077-0.02-0.11-0.082-0.1-0.169c0.008-0.073,0.053-0.111,0.121-0.12c0.062-0.009,0.125-0.012,0.187-0.012
	c0.542-0.001,1.083-0.001,1.624,0c0.062,0,0.125,0.004,0.187,0.013c0.069,0.009,0.112,0.049,0.117,0.123
	c0.003,0.066-0.009,0.128-0.077,0.155c-0.066,0.026-0.138,0.044-0.208,0.065c-0.241,0.074-0.422,0.222-0.533,0.449
	c-0.068,0.141-0.136,0.281-0.194,0.427c-0.599,1.498-1.195,2.998-1.793,4.496c-0.042,0.106-0.084,0.213-0.132,0.317
	c-0.047,0.104-0.142,0.109-0.239,0.107c-0.088-0.002-0.165-0.024-0.203-0.115c-0.035-0.087-0.07-0.173-0.103-0.262
	c-0.565-1.512-1.129-3.023-1.694-4.534c-0.047-0.126-0.092-0.255-0.147-0.378c-0.158-0.345-0.435-0.528-0.809-0.542
	c-0.153-0.006-0.309,0.033-0.46,0.067c-0.267,0.06-0.408,0.246-0.439,0.507c-0.034,0.277-0.06,0.559-0.067,0.839
	c-0.01,0.468-0.003,0.937-0.003,1.405c0,0.396-0.002,0.791,0,1.187c0.004,0.743-0.348,1.27-0.987,1.613
	c-0.452,0.242-0.94,0.322-1.451,0.287c-0.389-0.026-0.761-0.109-1.108-0.293c-0.253-0.133-0.471-0.305-0.636-0.542
	c-0.17-0.244-0.274-0.512-0.282-0.813c-0.003-0.125-0.004-0.25-0.004-0.375c-0.001-1.01,0-2.019-0.001-3.029
	c0-0.114-0.001-0.229-0.01-0.343c-0.016-0.208-0.126-0.351-0.32-0.422c-0.117-0.044-0.24-0.068-0.359-0.104
	c-0.077-0.023-0.108-0.084-0.099-0.171c0.006-0.057,0.032-0.102,0.088-0.113c0.061-0.012,0.124-0.021,0.185-0.021
	c0.646-0.002,1.291-0.001,1.937,0c0.052,0,0.104,0.002,0.155,0.01c0.086,0.012,0.132,0.066,0.133,0.145
	c0.001,0.081-0.038,0.132-0.127,0.152c-0.091,0.022-0.185,0.033-0.275,0.057c-0.282,0.072-0.357,0.159-0.388,0.451
	c-0.011,0.104-0.01,0.208-0.01,0.312c0,0.948-0.003,1.896,0.001,2.843c0.001,0.218,0.018,0.438,0.049,0.653
	c0.087,0.597,0.484,0.987,1.08,1.095c0.292,0.053,0.58,0.042,0.868-0.019c0.58-0.12,1.001-0.552,1.102-1.139
	c0.03-0.174,0.043-0.352,0.044-0.527c0.005-0.74,0.005-1.479,0-2.219c-0.001-0.228-0.025-0.456-0.041-0.685
	c-0.002-0.042-0.012-0.083-0.018-0.124c-0.051-0.349-0.241-0.566-0.595-0.631c-0.082-0.014-0.163-0.033-0.244-0.053
	c-0.04-0.011-0.083-0.021-0.117-0.041c-0.061-0.037-0.071-0.1-0.06-0.165c0.01-0.057,0.047-0.095,0.102-0.102
	c0.072-0.01,0.145-0.015,0.218-0.015c1.416-0.001,2.832-0.001,4.248,0c0.062,0,0.125,0.001,0.187,0.008
	c0.1,0.011,0.14,0.05,0.145,0.131c0.005,0.096-0.036,0.147-0.145,0.167c-0.071,0.014-0.145,0.017-0.217,0.026
	c-0.374,0.052-0.436,0.143-0.306,0.493c0.343,0.927,0.693,1.853,1.04,2.778c0.109,0.293,0.217,0.586,0.328,0.878
	C22.536,120.865,22.575,120.937,22.638,121.071z"/>
<path fill-rule="evenodd" clip-rule="evenodd" fill="#231F20" d="M153.525,94.921c0.132-0.017,0.217,0.051,0.307,0.095
	c0.411,0.203,0.832,0.383,1.271,0.51c0.221,0.063,0.443,0.115,0.668,0.156c0.258,0.048,0.518,0.029,0.767-0.012
	c0.092,0.036,0.106,0.109,0.108,0.183c0.004,0.187,0.013,0.375,0.001,0.561c-0.021,0.342-0.06,0.683-0.082,1.025
	c-0.033,0.487-0.068,0.975-0.083,1.463c-0.017,0.512,0.054,1.016,0.196,1.509c0.015,0.049,0.023,0.099,0.033,0.146
	c-0.076,0.151-0.206,0.244-0.305,0.363c-0.094,0.111-0.189,0.221-0.28,0.334c-0.097,0.121-0.189,0.245-0.295,0.383
	c-0.085-0.033-0.164-0.054-0.232-0.093c-0.383-0.22-0.716-0.497-0.996-0.841c-0.419-0.517-0.693-1.106-0.876-1.743
	c-0.175-0.613-0.263-1.241-0.298-1.875c-0.035-0.665-0.021-1.331,0.05-1.994C153.486,95.034,153.51,94.978,153.525,94.921z"/>
<path fill-rule="evenodd" clip-rule="evenodd" fill="#231F20" d="M180.602,105.499c-0.044-0.087-0.077-0.141-0.099-0.197
	c-0.145-0.38-0.315-0.746-0.528-1.094c-0.085-0.141-0.11-0.278-0.091-0.444c0.062-0.52,0.01-1.039-0.067-1.553
	c-0.098-0.648-0.213-1.293-0.312-1.94c-0.027-0.174-0.032-0.352-0.038-0.528c-0.003-0.059,0.017-0.12,0.029-0.194
	c0.067-0.009,0.128-0.028,0.187-0.025c0.404,0.022,0.783-0.084,1.154-0.225c0.459-0.173,0.894-0.395,1.312-0.648
	c0.097-0.059,0.194-0.114,0.311-0.181c0.031,0.065,0.062,0.107,0.069,0.153c0.093,0.512,0.172,1.026,0.2,1.546
	c0.008,0.166,0.03,0.332,0.035,0.498c0.024,0.773-0.034,1.539-0.231,2.288c-0.204,0.78-0.561,1.478-1.168,2.023
	c-0.169,0.154-0.358,0.283-0.544,0.418C180.765,105.437,180.693,105.456,180.602,105.499z"/>
<path fill-rule="evenodd" clip-rule="evenodd" fill="#231F20" d="M99.088,122.346c-0.029-0.19-0.018-0.213,0.128-0.248
	c0.03-0.008,0.063-0.009,0.093-0.016c0.262-0.059,0.346-0.155,0.36-0.43c0.007-0.145,0.004-0.292,0.004-0.437
	c0-0.636,0-1.271,0-1.905c0-0.084,0.001-0.168-0.004-0.25c-0.013-0.258-0.149-0.427-0.389-0.513
	c-0.059-0.022-0.121-0.031-0.18-0.052c-0.083-0.027-0.112-0.08-0.104-0.167c0.008-0.073,0.049-0.117,0.117-0.124
	c0.424-0.043,0.848-0.093,1.266-0.067c0.156,0.167,0.034,0.382,0.143,0.565c0.045-0.03,0.09-0.053,0.126-0.084
	c0.078-0.067,0.152-0.142,0.229-0.21c0.325-0.285,0.711-0.382,1.131-0.356c0.354,0.019,0.637,0.179,0.858,0.451
	c0.058,0.073,0.111,0.148,0.179,0.241c0.065-0.046,0.125-0.083,0.178-0.126c0.13-0.104,0.25-0.221,0.387-0.314
	c0.364-0.247,0.771-0.311,1.195-0.223c0.365,0.073,0.61,0.304,0.741,0.649c0.093,0.246,0.122,0.505,0.122,0.768
	c-0.002,0.635-0.001,1.27,0,1.905c0,0.094,0.001,0.188,0.006,0.281c0.008,0.19,0.111,0.307,0.289,0.363
	c0.079,0.026,0.162,0.04,0.239,0.067c0.068,0.023,0.09,0.081,0.085,0.149c-0.004,0.075-0.049,0.111-0.118,0.119
	c-0.052,0.008-0.104,0.009-0.156,0.009c-0.499,0-0.999,0.001-1.499-0.001c-0.071,0-0.144-0.014-0.208-0.021
	c-0.068-0.188-0.057-0.229,0.082-0.267c0.049-0.015,0.103-0.021,0.153-0.03c0.189-0.037,0.284-0.16,0.307-0.345
	c0.009-0.072,0.008-0.146,0.008-0.219c0-0.656,0.004-1.312-0.003-1.969c-0.001-0.153-0.019-0.313-0.062-0.46
	c-0.104-0.355-0.356-0.528-0.724-0.516c-0.379,0.015-0.675,0.188-0.901,0.488c-0.073,0.096-0.101,0.203-0.101,0.32
	c0.002,0.198,0,0.396,0,0.595c0,0.469,0,0.938,0,1.405c0,0.083,0,0.167,0.004,0.25c0.009,0.223,0.113,0.373,0.335,0.435
	c0.04,0.011,0.08,0.019,0.119,0.032c0.145,0.049,0.151,0.066,0.11,0.267c-0.035,0.009-0.074,0.028-0.114,0.028
	c-0.562,0.002-1.125,0.002-1.687,0c-0.041,0-0.079-0.02-0.114-0.028c-0.042-0.199-0.032-0.221,0.111-0.263
	c0.386-0.109,0.421-0.147,0.423-0.531c0.003-0.687,0.002-1.374-0.001-2.062c-0.001-0.113-0.005-0.229-0.028-0.341
	c-0.087-0.407-0.374-0.619-0.79-0.593c-0.281,0.019-0.521,0.136-0.724,0.329c-0.156,0.148-0.239,0.322-0.236,0.552
	c0.013,0.688,0.005,1.375,0.005,2.063c0,0.04,0.001,0.083,0.003,0.123c0.004,0.217,0.118,0.349,0.316,0.415
	c0.07,0.023,0.142,0.037,0.21,0.062c0.066,0.024,0.094,0.077,0.09,0.147c-0.004,0.072-0.044,0.115-0.115,0.124
	c-0.062,0.007-0.124,0.009-0.187,0.009c-0.479,0.001-0.958,0.001-1.438,0C99.266,122.393,99.17,122.406,99.088,122.346z"/>
<path fill-rule="evenodd" clip-rule="evenodd" fill="#231F20" d="M108.686,121.146c0.113-0.042,0.116-0.136,0.143-0.209
	c0.139-0.382,0.273-0.765,0.408-1.147c0.146-0.412,0.291-0.825,0.438-1.235c0.031-0.088,0.069-0.172,0.105-0.258
	c0.14-0.062,0.27-0.055,0.425-0.009c0.039,0.096,0.088,0.198,0.127,0.303c0.262,0.714,0.521,1.427,0.786,2.139
	c0.045,0.124,0.072,0.259,0.16,0.354c0.086-0.001,0.096-0.062,0.11-0.107c0.207-0.632,0.412-1.266,0.615-1.899
	c0.023-0.069,0.041-0.142,0.051-0.212c0.023-0.179-0.027-0.272-0.196-0.347c-0.085-0.038-0.178-0.057-0.264-0.091
	c-0.067-0.027-0.093-0.092-0.071-0.154c0.014-0.042,0.057-0.083,0.097-0.105c0.032-0.02,0.08-0.017,0.121-0.017
	c0.375-0.001,0.75-0.001,1.124-0.001c0.031,0,0.062,0.002,0.094,0.006c0.064,0.007,0.122,0.024,0.143,0.098
	c0.022,0.086-0.006,0.166-0.101,0.199c-0.362,0.124-0.534,0.396-0.646,0.743c-0.322,1.001-0.66,1.997-0.991,2.994
	c-0.01,0.029-0.019,0.06-0.027,0.089c-0.03,0.104-0.098,0.152-0.207,0.154c-0.112,0.002-0.205-0.022-0.249-0.142
	c-0.111-0.303-0.226-0.604-0.336-0.906c-0.205-0.559-0.406-1.116-0.611-1.672c-0.034-0.094-0.049-0.203-0.144-0.273
	c-0.099,0.057-0.108,0.155-0.139,0.238c-0.291,0.791-0.581,1.581-0.872,2.373c-0.028,0.078-0.061,0.154-0.088,0.233
	c-0.042,0.117-0.131,0.15-0.246,0.147c-0.107-0.003-0.176-0.051-0.209-0.152c-0.025-0.079-0.055-0.158-0.08-0.236
	c-0.315-0.948-0.63-1.896-0.945-2.845c-0.028-0.089-0.062-0.176-0.091-0.266c-0.057-0.18-0.175-0.305-0.341-0.386
	c-0.056-0.028-0.115-0.051-0.171-0.078c-0.129-0.064-0.132-0.077-0.076-0.287c0.045-0.009,0.096-0.029,0.146-0.029
	c0.51-0.001,1.021,0,1.529,0.004c0.04,0,0.078,0.022,0.131,0.037c0.004,0.071,0.008,0.141,0.012,0.223
	c-0.106,0.038-0.204,0.068-0.299,0.106c-0.104,0.041-0.142,0.106-0.124,0.222c0.01,0.062,0.028,0.121,0.047,0.181
	c0.206,0.666,0.413,1.331,0.622,1.996C108.618,120.999,108.655,121.072,108.686,121.146z"/>
<path fill-rule="evenodd" clip-rule="evenodd" fill="#231F20" d="M94.46,122.411c-0.09,0.009-0.151,0.018-0.212,0.02
	c-0.093,0.001-0.158-0.044-0.191-0.132c-0.048-0.127-0.097-0.252-0.144-0.379c-0.269-0.733-0.535-1.467-0.804-2.199
	c-0.035-0.096-0.08-0.188-0.12-0.279c-0.125,0.03-0.125,0.127-0.152,0.198c-0.242,0.653-0.481,1.309-0.721,1.964
	c-0.075,0.205-0.148,0.411-0.227,0.614c-0.072,0.188-0.113,0.211-0.261,0.216c-0.165,0.004-0.207-0.111-0.249-0.232
	c-0.027-0.079-0.054-0.157-0.08-0.236c-0.311-0.938-0.622-1.877-0.934-2.814c-0.027-0.079-0.053-0.158-0.082-0.236
	c-0.06-0.165-0.171-0.283-0.327-0.362c-0.074-0.037-0.151-0.07-0.223-0.111c-0.063-0.035-0.07-0.1-0.062-0.164
	c0.008-0.071,0.057-0.108,0.125-0.115c0.062-0.008,0.124-0.011,0.187-0.011c0.416-0.001,0.833-0.001,1.249,0
	c0.062,0,0.125,0.003,0.187,0.011c0.071,0.011,0.109,0.058,0.114,0.128c0.005,0.064-0.005,0.129-0.074,0.156
	c-0.067,0.026-0.14,0.041-0.208,0.064c-0.154,0.052-0.185,0.104-0.153,0.253c0.011,0.051,0.025,0.102,0.041,0.15
	c0.21,0.676,0.42,1.352,0.631,2.027c0.021,0.066,0.053,0.131,0.086,0.21c0.102-0.046,0.115-0.13,0.141-0.203
	c0.261-0.734,0.522-1.471,0.783-2.205c0.052-0.147,0.108-0.292,0.158-0.429c0.141-0.086,0.272-0.065,0.399-0.037
	c0.107,0.093,0.13,0.22,0.173,0.336c0.282,0.761,0.562,1.522,0.843,2.284c0.028,0.077,0.063,0.15,0.107,0.254
	c0.041-0.053,0.074-0.079,0.085-0.112c0.215-0.663,0.428-1.327,0.641-1.991c0.013-0.04,0.024-0.08,0.033-0.12
	c0.051-0.243-0.001-0.337-0.241-0.43c-0.067-0.026-0.139-0.04-0.208-0.065c-0.069-0.025-0.084-0.086-0.079-0.152
	c0.006-0.072,0.052-0.108,0.121-0.12c0.02-0.004,0.041-0.007,0.062-0.007c0.406,0,0.812-0.001,1.217,0
	c0.042,0,0.083,0.007,0.123,0.02c0.087,0.026,0.117,0.179,0.043,0.233c-0.049,0.037-0.108,0.062-0.165,0.087
	c-0.259,0.103-0.42,0.289-0.508,0.554c-0.34,1.026-0.686,2.053-1.029,3.079C94.526,122.213,94.497,122.301,94.46,122.411z"/>
<path fill-rule="evenodd" clip-rule="evenodd" fill="#231F20" d="M53.667,90.377c1.002-0.036,1.783,0.931,1.615,1.933
	c-0.076,0.448-0.279,0.822-0.608,1.134c-0.535,0.508-1.417,0.516-1.955,0.097c-1.073-0.833-0.876-2.308,0.117-2.944
	C53.102,90.427,53.312,90.373,53.667,90.377z"/>
<path fill-rule="evenodd" clip-rule="evenodd" fill="#231F20" d="M38.655,122.37c-0.091,0.01-0.162,0.022-0.234,0.022
	c-0.5,0.002-1,0.002-1.5,0c-0.062,0-0.124-0.004-0.186-0.015c-0.059-0.01-0.095-0.053-0.088-0.109
	c0.006-0.046,0.025-0.109,0.059-0.129c0.061-0.034,0.137-0.043,0.207-0.061c0.232-0.057,0.317-0.152,0.335-0.385
	c0.005-0.062,0.003-0.125,0.003-0.188c0-0.76,0-1.521,0-2.28c0-0.052,0.001-0.104-0.002-0.156c-0.018-0.296-0.143-0.457-0.424-0.546
	c-0.049-0.017-0.103-0.021-0.15-0.04c-0.066-0.026-0.089-0.084-0.084-0.151c0.004-0.071,0.042-0.122,0.113-0.128
	c0.383-0.027,0.768-0.057,1.152-0.074c0.142-0.007,0.184,0.045,0.199,0.183c0.014,0.121-0.016,0.246,0.041,0.385
	c0.046-0.025,0.084-0.04,0.113-0.063c0.063-0.054,0.122-0.113,0.184-0.17c0.408-0.37,0.888-0.48,1.421-0.388
	c0.294,0.051,0.518,0.206,0.67,0.465c0.141,0.238,0.206,0.499,0.209,0.774c0.004,0.375,0.002,0.75,0.003,1.125
	c0,0.333,0,0.666,0,0.999c0,0.073,0.001,0.146,0.004,0.219c0.009,0.2,0.108,0.332,0.299,0.394c0.06,0.02,0.122,0.029,0.181,0.05
	c0.115,0.038,0.124,0.063,0.094,0.253c-0.035,0.01-0.075,0.031-0.113,0.031c-0.573,0.004-1.146,0.005-1.718,0.004
	c-0.05,0-0.1-0.019-0.145-0.027c-0.046-0.198-0.033-0.23,0.107-0.263c0.061-0.014,0.124-0.016,0.185-0.03
	c0.18-0.044,0.264-0.14,0.287-0.324c0.008-0.062,0.007-0.124,0.007-0.187c0-0.688,0-1.374,0-2.062c0-0.157-0.014-0.312-0.073-0.461
	c-0.125-0.312-0.363-0.477-0.699-0.47c-0.375,0.007-0.684,0.161-0.926,0.445c-0.083,0.099-0.127,0.21-0.126,0.343
	c0.003,0.74-0.002,1.479,0.003,2.219c0.002,0.286,0.086,0.392,0.351,0.483c0.049,0.018,0.101,0.023,0.15,0.041
	C38.677,122.139,38.686,122.162,38.655,122.37z"/>
<path fill-rule="evenodd" clip-rule="evenodd" fill="#231F20" d="M34.713,122.379c-0.029-0.176-0.053-0.315-0.081-0.487
	c-0.084,0.058-0.146,0.091-0.196,0.135c-0.166,0.146-0.344,0.27-0.546,0.358c-0.327,0.144-0.665,0.162-1.008,0.076
	c-0.302-0.074-0.516-0.259-0.646-0.541c-0.121-0.261-0.163-0.537-0.164-0.82c-0.002-0.604-0.001-1.208-0.001-1.812
	c0-0.094,0-0.188-0.004-0.281c-0.011-0.221-0.127-0.368-0.331-0.446c-0.078-0.029-0.161-0.041-0.24-0.068
	c-0.067-0.024-0.091-0.083-0.088-0.15c0.003-0.068,0.037-0.126,0.108-0.131c0.395-0.03,0.789-0.059,1.183-0.079
	c0.12-0.006,0.167,0.049,0.177,0.172c0.008,0.093,0.007,0.188,0.007,0.281c0,0.812-0.002,1.623,0.002,2.435
	c0.001,0.154,0.014,0.313,0.051,0.463c0.095,0.375,0.348,0.555,0.731,0.541c0.37-0.012,0.651-0.192,0.882-0.466
	c0.063-0.075,0.092-0.161,0.092-0.259c0-0.083,0.002-0.166,0.002-0.25c0-0.593,0-1.186,0-1.779c0-0.053,0-0.104,0-0.156
	c-0.008-0.423-0.127-0.555-0.544-0.604c-0.041-0.006-0.083-0.01-0.123-0.018c-0.073-0.018-0.098-0.072-0.098-0.14
	c0-0.068,0.028-0.128,0.102-0.137c0.237-0.025,0.475-0.051,0.713-0.067c0.198-0.013,0.396-0.016,0.593-0.015
	c0.101,0.001,0.149,0.052,0.159,0.155c0.008,0.104,0.009,0.208,0.009,0.312c0,0.874,0,1.748,0,2.623
	c0,0.104-0.002,0.209,0.009,0.312c0.03,0.271,0.155,0.409,0.417,0.477c0.05,0.012,0.104,0.017,0.15,0.036
	c0.066,0.028,0.091,0.092,0.071,0.154c-0.013,0.043-0.055,0.08-0.092,0.109c-0.022,0.016-0.06,0.015-0.091,0.016
	c-0.301,0.022-0.602,0.046-0.903,0.063C34.924,122.396,34.832,122.385,34.713,122.379z"/>
<path fill-rule="evenodd" clip-rule="evenodd" fill="#231F20" d="M28.233,122.174c-0.083,0.188-0.189,0.284-0.385,0.178
	c-0.01-0.031-0.03-0.07-0.032-0.11c-0.019-0.353-0.034-0.706-0.049-1.06c-0.001-0.031,0.001-0.062,0.004-0.094
	c0.006-0.067,0.032-0.121,0.107-0.133c0.075-0.011,0.15-0.01,0.192,0.066c0.044,0.082,0.08,0.17,0.119,0.255
	c0.119,0.261,0.287,0.483,0.516,0.656c0.32,0.243,0.676,0.312,1.062,0.201c0.262-0.077,0.437-0.242,0.481-0.519
	c0.047-0.29-0.021-0.543-0.283-0.706c-0.132-0.082-0.276-0.146-0.42-0.204c-0.165-0.065-0.338-0.105-0.502-0.172
	c-0.202-0.081-0.41-0.159-0.595-0.272c-0.383-0.233-0.594-0.577-0.566-1.04c0.028-0.467,0.263-0.805,0.672-1.018
	c0.274-0.143,0.574-0.195,0.879-0.156c0.257,0.032,0.509,0.099,0.784,0.153c0.014-0.015,0.043-0.043,0.072-0.069
	c0.03-0.028,0.056-0.064,0.091-0.082c0.115-0.059,0.236,0.003,0.257,0.129c0.014,0.082,0.025,0.165,0.029,0.248
	c0.011,0.239,0.021,0.479,0.024,0.719c0.001,0.07-0.019,0.14-0.027,0.205c-0.223,0.039-0.229,0.037-0.287-0.099
	c-0.042-0.095-0.074-0.194-0.124-0.286c-0.237-0.434-0.631-0.639-1.115-0.579c-0.091,0.012-0.186,0.037-0.267,0.078
	c-0.395,0.205-0.446,0.748-0.094,1.02c0.098,0.075,0.213,0.131,0.328,0.177c0.203,0.082,0.414,0.143,0.617,0.224
	c0.211,0.087,0.427,0.169,0.625,0.282c0.835,0.481,0.667,1.51,0.192,1.923c-0.185,0.161-0.387,0.284-0.622,0.347
	c-0.468,0.127-0.927,0.107-1.369-0.111C28.455,122.278,28.362,122.236,28.233,122.174z"/>
<path fill-rule="evenodd" clip-rule="evenodd" fill="#231F20" d="M86.652,122.178c-0.041,0.063-0.068,0.107-0.097,0.149
	c-0.058,0.083-0.143,0.076-0.226,0.057c-0.072-0.017-0.095-0.079-0.098-0.144c-0.016-0.384-0.031-0.769-0.042-1.153
	c-0.002-0.066,0.032-0.12,0.106-0.132c0.076-0.01,0.15-0.008,0.19,0.069c0.043,0.083,0.076,0.172,0.115,0.256
	c0.151,0.318,0.36,0.583,0.674,0.756c0.299,0.165,0.611,0.194,0.935,0.086c0.261-0.088,0.42-0.267,0.458-0.54
	c0.039-0.282-0.048-0.521-0.293-0.675c-0.139-0.088-0.295-0.152-0.45-0.214c-0.204-0.078-0.416-0.135-0.619-0.215
	c-0.154-0.061-0.306-0.132-0.448-0.217c-0.805-0.477-0.733-1.611,0.081-2.046c0.284-0.15,0.591-0.2,0.908-0.17
	c0.175,0.017,0.347,0.063,0.521,0.1c0.081,0.016,0.159,0.039,0.243,0.061c0.051-0.048,0.092-0.095,0.142-0.129
	c0.151-0.103,0.291-0.038,0.305,0.142c0.021,0.28,0.036,0.562,0.051,0.842c0.003,0.062,0.002,0.125-0.001,0.188
	c-0.004,0.067-0.032,0.119-0.107,0.131c-0.089,0.016-0.153-0.006-0.187-0.074c-0.032-0.065-0.055-0.135-0.083-0.202
	c-0.078-0.186-0.188-0.348-0.34-0.48c-0.293-0.255-0.636-0.301-0.996-0.203c-0.237,0.064-0.396,0.233-0.435,0.483
	c-0.04,0.26,0.054,0.474,0.277,0.617c0.095,0.062,0.201,0.111,0.307,0.151c0.204,0.079,0.416,0.139,0.617,0.223
	c0.22,0.091,0.447,0.179,0.646,0.308c0.638,0.416,0.721,1.291,0.19,1.842c-0.178,0.185-0.391,0.311-0.635,0.382
	c-0.478,0.139-0.946,0.119-1.4-0.097C86.868,122.284,86.776,122.238,86.652,122.178z"/>
<path fill-rule="evenodd" clip-rule="evenodd" fill="#231F20" d="M69.195,121.283c0.039,0.005,0.063,0.001,0.079,0.01
	c0.167,0.095,0.186,0.146,0.089,0.291c-0.281,0.423-0.658,0.723-1.149,0.861c-0.948,0.266-1.884-0.203-2.227-1.124
	c-0.247-0.667-0.267-1.345,0.006-2.012c0.204-0.501,0.543-0.885,1.046-1.104c0.479-0.211,0.97-0.226,1.46-0.052
	c0.403,0.145,0.658,0.428,0.724,0.861c0.021,0.148,0.003,0.292-0.055,0.428c-0.068,0.158-0.187,0.244-0.361,0.253
	c-0.366,0.021-0.59-0.215-0.546-0.582c0.013-0.114,0.034-0.228,0.066-0.336c0.047-0.164,0.013-0.295-0.203-0.356
	c-0.352-0.1-0.682-0.056-0.951,0.221c-0.14,0.144-0.233,0.317-0.307,0.503c-0.096,0.244-0.132,0.502-0.16,0.761
	c-0.037,0.334-0.011,0.665,0.066,0.992c0.064,0.276,0.188,0.525,0.369,0.749c0.437,0.536,1.255,0.454,1.604,0.132
	c0.106-0.098,0.2-0.21,0.298-0.317C69.098,121.4,69.149,121.337,69.195,121.283z"/>
<path fill-rule="evenodd" clip-rule="evenodd" fill="#231F20" d="M71.142,118.624c-0.007,0.118-0.017,0.211-0.018,0.303
	c-0.001,0.718-0.003,1.435,0.001,2.152c0.001,0.146,0.014,0.292,0.046,0.433c0.067,0.294,0.225,0.426,0.524,0.441
	c0.176,0.008,0.354-0.008,0.53-0.012c0.05-0.001,0.101,0,0.146,0c0.061,0.217,0.055,0.262-0.078,0.32
	c-0.416,0.182-0.845,0.285-1.305,0.199c-0.334-0.062-0.542-0.256-0.619-0.579c-0.038-0.16-0.056-0.329-0.057-0.494
	c-0.005-0.789-0.002-1.58-0.003-2.371c0-0.123-0.008-0.246-0.012-0.364c-0.229-0.133-0.473-0.016-0.683-0.103
	c-0.056-0.14-0.057-0.14-0.03-0.306c0.21-0.129,0.471,0.006,0.693-0.108c0.078-0.203,0.031-0.412,0.042-0.616
	c0.011-0.196-0.02-0.395,0.034-0.598c0.238-0.091,0.469-0.063,0.716-0.02c0.016,0.075,0.041,0.145,0.042,0.213
	c0.006,0.229,0.002,0.458,0.004,0.688c0.001,0.103,0.008,0.205,0.013,0.324c0.078,0.021,0.144,0.052,0.211,0.054
	c0.188,0.008,0.375,0.004,0.562,0.005c0.083,0.001,0.167,0.001,0.249,0.009c0.119,0.012,0.159,0.056,0.162,0.184
	c0.001,0.051-0.017,0.101-0.027,0.162C71.92,118.646,71.539,118.525,71.142,118.624z"/>
<path fill-rule="evenodd" clip-rule="evenodd" fill="#231F20" d="M61.079,121.948c0.053,0.237,0.047,0.264-0.118,0.331
	c-0.399,0.163-0.807,0.263-1.247,0.187c-0.365-0.063-0.576-0.275-0.647-0.625c-0.038-0.182-0.052-0.371-0.053-0.557
	c-0.005-0.76-0.001-1.519-0.003-2.277c0-0.123,0.022-0.251-0.046-0.376c-0.205-0.11-0.449,0.008-0.68-0.093
	c-0.007-0.067-0.025-0.137-0.021-0.204c0.005-0.092,0.046-0.131,0.138-0.138c0.125-0.01,0.25-0.007,0.374-0.013
	c0.232-0.009,0.263-0.038,0.268-0.279c0.005-0.229,0-0.458,0.002-0.687c0.004-0.331,0.022-0.348,0.357-0.352
	c0.021,0,0.042,0,0.062,0c0.334,0.004,0.349,0.019,0.353,0.355c0.003,0.249-0.002,0.499,0.005,0.748
	c0.004,0.161,0.047,0.205,0.207,0.21c0.207,0.009,0.416,0.005,0.624,0.006c0.042,0,0.083-0.001,0.125,0.001
	c0.257,0.011,0.279,0.044,0.227,0.354c-0.062,0.013-0.129,0.037-0.198,0.039c-0.208,0.006-0.416,0.002-0.624,0.004
	c-0.073,0.001-0.146,0.004-0.218,0.011c-0.069,0.008-0.116,0.052-0.126,0.118c-0.012,0.071-0.015,0.145-0.015,0.218
	c0,0.687-0.003,1.372,0.002,2.059c0.001,0.176,0.019,0.354,0.051,0.526c0.051,0.272,0.215,0.414,0.495,0.436
	c0.155,0.011,0.312-0.002,0.467-0.003C60.921,121.947,61.002,121.948,61.079,121.948z"/>
<path fill-rule="evenodd" clip-rule="evenodd" fill="#231F20" d="M77.558,121.254c0.056-0.093,0.093-0.141,0.115-0.194
	c0.269-0.644,0.535-1.288,0.801-1.933c0.028-0.066,0.054-0.136,0.071-0.206c0.043-0.181,0.003-0.276-0.161-0.359
	c-0.092-0.047-0.193-0.077-0.29-0.114C78.027,118.422,78,118.37,78,118.303c0-0.071,0.028-0.123,0.1-0.138
	c0.051-0.01,0.103-0.014,0.155-0.015c0.365-0.001,0.729,0,1.093,0c0.042,0,0.083,0.002,0.125,0.007
	c0.066,0.009,0.119,0.038,0.129,0.112c0.009,0.066-0.004,0.126-0.067,0.16c-0.036,0.02-0.075,0.036-0.114,0.051
	c-0.242,0.087-0.393,0.263-0.493,0.492c-0.141,0.325-0.287,0.647-0.425,0.973c-0.318,0.758-0.676,1.5-0.935,2.282
	c-0.01,0.029-0.021,0.059-0.032,0.087c-0.031,0.074-0.082,0.117-0.166,0.121c-0.096,0.004-0.192,0.003-0.243-0.099
	c-0.046-0.093-0.087-0.189-0.126-0.285c-0.402-0.971-0.803-1.942-1.205-2.913c-0.023-0.058-0.051-0.114-0.073-0.174
	c-0.079-0.205-0.22-0.348-0.422-0.436c-0.067-0.028-0.135-0.056-0.196-0.096c-0.059-0.037-0.069-0.107-0.046-0.166
	c0.017-0.042,0.06-0.086,0.102-0.1c0.057-0.02,0.123-0.018,0.185-0.018c0.448-0.001,0.895-0.001,1.343,0
	c0.052,0,0.104,0.001,0.156,0.007c0.091,0.011,0.134,0.054,0.139,0.138c0.006,0.088-0.022,0.137-0.107,0.167
	c-0.079,0.027-0.162,0.042-0.238,0.073c-0.046,0.019-0.084,0.056-0.143,0.096c0.025,0.092,0.042,0.184,0.076,0.269
	c0.297,0.731,0.598,1.464,0.898,2.195C77.484,121.133,77.509,121.166,77.558,121.254z"/>
<path fill-rule="evenodd" clip-rule="evenodd" fill="#231F20" d="M123.466,118.664c0.077-0.062,0.142-0.107,0.2-0.162
	c0.17-0.157,0.361-0.278,0.575-0.365c0.149-0.061,0.302-0.077,0.46-0.067c0.205,0.012,0.356,0.114,0.45,0.291
	c0.12,0.227,0.117,0.461-0.003,0.688c-0.094,0.178-0.264,0.244-0.479,0.202c-0.197-0.036-0.341-0.184-0.361-0.377
	c-0.01-0.091-0.007-0.184-0.01-0.291c-0.077,0.004-0.14-0.006-0.193,0.012c-0.17,0.058-0.315,0.157-0.448,0.277
	c-0.163,0.147-0.244,0.318-0.24,0.548c0.01,0.697,0.003,1.395,0.003,2.092c0,0.021,0.001,0.041,0,0.062
	c-0.009,0.259,0.077,0.42,0.412,0.49c0.062,0.014,0.124,0.016,0.186,0.026c0.041,0.008,0.083,0.018,0.12,0.034
	c0.066,0.028,0.087,0.085,0.078,0.153c-0.008,0.058-0.042,0.095-0.1,0.103c-0.062,0.008-0.124,0.013-0.187,0.013
	c-0.551,0.001-1.103,0.001-1.653-0.001c-0.062,0-0.125-0.004-0.186-0.016c-0.059-0.011-0.094-0.056-0.085-0.111
	c0.007-0.047,0.028-0.109,0.063-0.128c0.061-0.034,0.138-0.041,0.208-0.06c0.229-0.057,0.313-0.152,0.332-0.386
	c0.005-0.062,0.003-0.125,0.003-0.188c0.001-0.749,0.001-1.499,0-2.248c0-0.072,0.002-0.146-0.005-0.219
	c-0.025-0.273-0.159-0.436-0.422-0.516c-0.051-0.016-0.104-0.021-0.151-0.039c-0.066-0.024-0.09-0.083-0.085-0.15
	c0.004-0.07,0.042-0.122,0.112-0.127c0.395-0.027,0.789-0.056,1.183-0.074c0.115-0.005,0.155,0.052,0.173,0.178
	C123.429,118.418,123.396,118.535,123.466,118.664z"/>
<path fill-rule="evenodd" clip-rule="evenodd" fill="#231F20" d="M52.458,118.574c-0.089,0.013-0.152,0.011-0.208,0.031
	c-0.168,0.061-0.315,0.158-0.444,0.282c-0.156,0.15-0.241,0.321-0.237,0.55c0.012,0.677,0.002,1.353,0.005,2.028
	c0.001,0.439,0.095,0.544,0.53,0.614c0.051,0.009,0.103,0.015,0.153,0.028c0.083,0.022,0.118,0.078,0.111,0.161
	c-0.007,0.076-0.055,0.109-0.123,0.116c-0.062,0.007-0.125,0.008-0.187,0.008c-0.52,0.001-1.04,0.001-1.56,0
	c-0.073-0.001-0.146-0.005-0.217-0.016c-0.058-0.008-0.089-0.048-0.096-0.106c-0.007-0.068,0.012-0.127,0.08-0.15
	c0.058-0.021,0.12-0.033,0.181-0.043c0.205-0.033,0.307-0.16,0.325-0.36c0.008-0.083,0.016-0.166,0.016-0.249
	c0.001-0.729,0.002-1.456-0.001-2.185c0-0.113-0.011-0.229-0.032-0.341c-0.041-0.212-0.167-0.354-0.377-0.414
	c-0.061-0.017-0.124-0.025-0.18-0.049c-0.068-0.028-0.085-0.096-0.066-0.157c0.013-0.042,0.054-0.102,0.09-0.108
	c0.163-0.028,0.329-0.047,0.495-0.058c0.229-0.014,0.457-0.021,0.685-0.023c0.105-0.001,0.15,0.048,0.162,0.151
	c0.008,0.062,0.004,0.124,0.01,0.186c0.006,0.059,0.018,0.117,0.026,0.173c0.122,0.014,0.163-0.071,0.219-0.124
	c0.175-0.168,0.372-0.3,0.599-0.387c0.148-0.057,0.302-0.078,0.46-0.062c0.258,0.024,0.445,0.19,0.496,0.443
	c0.029,0.145,0.028,0.291-0.014,0.433c-0.067,0.227-0.235,0.335-0.475,0.311c-0.238-0.023-0.378-0.162-0.401-0.399
	c-0.004-0.041,0.001-0.082-0.002-0.124C52.479,118.693,52.47,118.653,52.458,118.574z"/>
<path fill-rule="evenodd" clip-rule="evenodd" fill="#231F20" d="M96.393,118.245c0.025-0.011,0.053-0.034,0.081-0.036
	c0.405-0.029,0.81-0.061,1.214-0.08c0.161-0.008,0.208,0.043,0.219,0.197c0.007,0.093,0.005,0.187,0.005,0.28
	c0,0.916,0,1.833,0.001,2.748c0,0.104,0.001,0.208,0.004,0.312c0.006,0.189,0.105,0.31,0.28,0.371
	c0.08,0.026,0.16,0.047,0.237,0.077c0.065,0.025,0.092,0.082,0.086,0.15c-0.006,0.072-0.046,0.114-0.118,0.121
	c-0.062,0.006-0.125,0.007-0.188,0.007c-0.468,0.001-0.936,0.001-1.404,0c-0.072-0.001-0.145-0.005-0.217-0.015
	c-0.059-0.008-0.089-0.049-0.094-0.107c-0.006-0.066,0.01-0.128,0.08-0.15c0.058-0.021,0.122-0.027,0.182-0.042
	c0.229-0.053,0.316-0.148,0.342-0.381c0.006-0.062,0.005-0.124,0.005-0.187c0.001-0.761,0.001-1.52,0-2.28
	c0-0.073,0.001-0.146-0.011-0.218c-0.036-0.225-0.154-0.383-0.377-0.452c-0.07-0.021-0.142-0.036-0.211-0.056
	C96.365,118.464,96.357,118.447,96.393,118.245z"/>
<path fill-rule="evenodd" clip-rule="evenodd" fill="#231F20" d="M74.838,122.353c-0.027,0.009-0.055,0.029-0.084,0.03
	c-0.55,0.005-1.101,0.009-1.652,0.01c-0.061,0-0.122-0.014-0.176-0.021c-0.073-0.2-0.059-0.235,0.106-0.276
	c0.02-0.005,0.041-0.006,0.061-0.011c0.289-0.064,0.367-0.151,0.385-0.439c0.006-0.103,0.003-0.207,0.003-0.312
	c0-0.654,0-1.309,0-1.964c0-0.053,0-0.104,0-0.155c-0.008-0.426-0.125-0.578-0.527-0.692c-0.03-0.009-0.061-0.012-0.091-0.021
	c-0.089-0.028-0.125-0.073-0.124-0.154s0.043-0.132,0.134-0.143c0.134-0.018,0.268-0.031,0.403-0.039
	c0.238-0.015,0.477-0.029,0.715-0.034c0.231-0.005,0.262,0.031,0.271,0.273c0.003,0.084,0.001,0.167,0.001,0.249
	c0,0.853-0.001,1.705,0.001,2.557c0,0.156,0.011,0.312,0.021,0.467c0.013,0.188,0.116,0.306,0.291,0.365
	c0.059,0.019,0.12,0.034,0.178,0.057C74.866,122.141,74.875,122.174,74.838,122.353z"/>
<path fill-rule="evenodd" clip-rule="evenodd" fill="#231F20" d="M41.925,120.365c-0.061-0.187-0.046-0.352-0.028-0.517
	c0.007-0.068,0.057-0.112,0.124-0.12c0.082-0.009,0.166-0.013,0.249-0.013c0.604-0.001,1.207-0.002,1.809,0
	c0.112,0.001,0.231-0.021,0.338,0.064c0.049,0.177,0.041,0.36,0.006,0.54c-0.096,0.104-0.218,0.075-0.328,0.076
	c-0.572,0.003-1.144,0.002-1.716,0.002c-0.093,0-0.187,0.001-0.281-0.004C42.047,120.392,41.997,120.378,41.925,120.365z"/>
<path fill-rule="evenodd" clip-rule="evenodd" fill="#231F20" d="M74.36,116.433c0.006,0.318-0.25,0.604-0.546,0.609
	c-0.286,0.005-0.553-0.268-0.555-0.564c-0.002-0.308,0.244-0.578,0.533-0.587C74.098,115.882,74.354,116.126,74.36,116.433z"/>
<path fill-rule="evenodd" clip-rule="evenodd" fill="#231F20" d="M97.417,117.042c-0.288-0.009-0.54-0.292-0.527-0.591
	c0.014-0.314,0.262-0.565,0.555-0.562c0.307,0.005,0.547,0.258,0.54,0.568C97.977,116.787,97.72,117.052,97.417,117.042z"/>
<path fill-rule="evenodd" clip-rule="evenodd" fill="#231F20" d="M27.074,95.509c-0.119-0.983-0.553-1.801-1.291-2.458
	c-0.626-0.557-1.352-0.93-2.154-1.159c-0.768-0.219-1.554-0.296-2.347-0.297c-2.614-0.004-5.227-0.002-7.841-0.002
	c-0.073,0-0.146-0.001-0.218,0.005c-0.145,0.011-0.189,0.049-0.195,0.189c-0.008,0.177-0.007,0.354-0.002,0.531
	c0.002,0.059,0.028,0.116,0.047,0.188c0.171,0.025,0.335,0.053,0.499,0.072c0.415,0.049,0.822,0.132,1.218,0.266
	c0.399,0.135,0.646,0.395,0.72,0.821c0.042,0.248,0.056,0.495,0.056,0.746c0,4.258,0,8.517,0,12.774
	c0,0.095,0.006,0.188-0.003,0.281c-0.015,0.155-0.029,0.312-0.064,0.464c-0.098,0.42-0.369,0.689-0.774,0.823
	c-0.108,0.036-0.221,0.062-0.334,0.077c-0.33,0.045-0.661,0.08-0.991,0.122c-0.08,0.01-0.159,0.03-0.229,0.045
	c-0.068,0.291-0.065,0.608,0.016,0.882c0.156,0.003,0.301,0.011,0.445,0.011c2.27,0.001,4.54,0.001,6.81,0
	c0.104,0,0.209,0.004,0.312-0.006c0.059-0.005,0.115-0.031,0.185-0.052c0.023-0.277,0.037-0.544-0.008-0.822
	c-0.082-0.019-0.15-0.041-0.22-0.048c-0.269-0.027-0.541-0.038-0.808-0.078c-0.277-0.042-0.556-0.092-0.823-0.173
	c-0.376-0.114-0.621-0.376-0.698-0.769c-0.038-0.193-0.062-0.392-0.062-0.588c-0.005-1.687-0.003-3.373-0.003-5.06
	c0-0.053-0.001-0.104,0.001-0.156c0.01-0.227,0.035-0.253,0.251-0.265c0.073-0.004,0.146-0.003,0.219-0.003
	c0.489,0,0.979,0.008,1.468-0.001c0.625-0.012,1.248-0.05,1.863-0.167c1.125-0.215,2.15-0.647,3.051-1.359
	c0.684-0.54,1.202-1.21,1.532-2.018C27.068,97.422,27.192,96.481,27.074,95.509z M23.794,97.852
	c-0.284,1.295-1.058,2.162-2.299,2.616c-0.334,0.122-0.681,0.19-1.033,0.228c-0.632,0.066-1.267,0.057-1.901,0.049
	c-0.07,0-0.139-0.025-0.209-0.039c-0.013-0.055-0.03-0.094-0.03-0.134c-0.001-2.579-0.001-5.159,0-7.738
	c0-0.04,0.018-0.079,0.03-0.134c0.069-0.015,0.138-0.042,0.207-0.041c0.759,0.007,1.518-0.039,2.275,0.046
	c0.622,0.069,1.197,0.26,1.705,0.634c0.584,0.432,0.944,1.018,1.142,1.705c0.083,0.289,0.14,0.588,0.181,0.886
	C23.947,96.572,23.934,97.215,23.794,97.852z"/>
<path fill-rule="evenodd" clip-rule="evenodd" fill="#231F20" d="M127.575,100.98c-0.399-1.362-1.161-2.484-2.335-3.301
	c-0.932-0.65-1.982-0.913-3.105-0.832c-0.992,0.072-1.874,0.459-2.649,1.08c-0.187,0.15-0.357,0.319-0.538,0.476
	c-0.043,0.037-0.099,0.058-0.165,0.096c-0.068-0.15-0.047-0.287-0.047-0.417c-0.002-2.509-0.001-5.018-0.001-7.527
	c0-0.104,0.004-0.208-0.005-0.312c-0.018-0.184-0.121-0.285-0.305-0.287c-0.166-0.003-0.333,0.006-0.5,0.017
	c-0.478,0.031-0.954,0.069-1.432,0.098c-0.778,0.048-1.559,0.09-2.338,0.138c-0.078,0.005-0.156,0.029-0.233,0.043
	c-0.072,0.201-0.044,0.39-0.041,0.574c0.003,0.193,0.039,0.223,0.243,0.247c0.041,0.005,0.083,0.005,0.124,0.011
	c0.351,0.047,0.703,0.082,1.045,0.18c0.316,0.092,0.556,0.278,0.723,0.56c0.149,0.253,0.264,0.521,0.294,0.816
	c0.02,0.207,0.034,0.415,0.034,0.622c0.003,4.008,0.002,8.016,0.002,12.023c0,0.479,0.002,0.958-0.01,1.437
	c-0.028,1.113-0.065,2.226-0.097,3.34c-0.003,0.102-0.023,0.207,0.046,0.33c0.225,0.073,0.471,0.144,0.75,0.157
	c0.154-0.237,0.302-0.476,0.46-0.706c0.157-0.23,0.277-0.488,0.5-0.722c0.12,0.063,0.22,0.116,0.319,0.17
	c1.165,0.624,2.392,1.01,3.73,0.982c0.795-0.017,1.556-0.175,2.254-0.549c1.799-0.962,2.957-2.438,3.426-4.424
	C128.067,103.854,127.992,102.403,127.575,100.98z M125.194,104.534c-0.054,0.645-0.145,1.281-0.333,1.901
	c-0.182,0.603-0.442,1.167-0.831,1.667c-0.257,0.331-0.553,0.622-0.92,0.832c-0.349,0.199-0.721,0.325-1.124,0.342
	c-0.155,0.007-0.312,0.007-0.468,0.006c-0.631-0.003-1.178-0.236-1.663-0.624c-0.475-0.378-0.812-0.857-1.035-1.422
	c-0.066-0.167-0.087-0.34-0.087-0.519c0.003-1.135,0.001-2.269,0.001-3.403c0-1.093,0-2.186,0-3.278
	c0-0.094,0.005-0.188,0.001-0.281c-0.003-0.122,0.039-0.223,0.125-0.308c0.509-0.508,1.079-0.914,1.793-1.082
	c0.546-0.126,1.095-0.137,1.642-0.019c0.688,0.148,1.241,0.522,1.692,1.052c0.461,0.541,0.751,1.171,0.932,1.854
	C125.203,102.33,125.287,103.424,125.194,104.534z"/>
<path fill-rule="evenodd" clip-rule="evenodd" fill="#231F20" d="M113.698,108.844c-0.201-0.006-0.376-0.009-0.553-0.017
	c-0.176-0.009-0.356-0.006-0.528-0.036c-0.551-0.098-0.949-0.53-1.009-1.086c-0.015-0.145-0.016-0.291-0.015-0.437
	c0.006-1.041,0.015-2.083,0.026-3.124c0.012-1.083,0.032-2.166,0.042-3.248c0.004-0.418-0.043-0.833-0.122-1.242
	c-0.141-0.723-0.44-1.367-1-1.866c-0.503-0.447-1.093-0.721-1.756-0.828c-0.288-0.047-0.578-0.094-0.868-0.104
	c-0.488-0.018-0.979-0.038-1.466-0.002c-0.691,0.051-1.347,0.266-1.977,0.551c-0.392,0.177-0.75,0.408-1.076,0.688
	c-0.31,0.266-0.588,0.562-0.769,0.934c-0.287,0.592-0.241,1.169,0.084,1.731c0.155,0.27,0.393,0.434,0.695,0.484
	c0.398,0.064,0.794,0.035,1.153-0.166c0.457-0.256,0.703-0.639,0.665-1.178c-0.005-0.072-0.012-0.146-0.024-0.217
	c-0.059-0.317-0.121-0.634-0.18-0.951c-0.064-0.349-0.04-0.396,0.271-0.576c0.037-0.021,0.073-0.04,0.11-0.059
	c0.556-0.279,1.145-0.372,1.76-0.315c0.544,0.05,0.996,0.281,1.356,0.691c0.287,0.327,0.491,0.699,0.589,1.123
	c0.078,0.345,0.131,0.695,0.127,1.052c-0.004,0.229,0.002,0.458-0.001,0.688c-0.007,0.473,0.065,0.436-0.426,0.634
	c-0.587,0.239-1.185,0.456-1.783,0.668c-0.774,0.274-1.558,0.533-2.334,0.803c-0.494,0.171-0.964,0.396-1.398,0.687
	c-0.647,0.431-1.091,1.019-1.315,1.767c-0.121,0.403-0.167,0.817-0.157,1.234c0.01,0.386,0.061,0.771,0.208,1.132
	c0.415,1.027,1.182,1.634,2.252,1.876c0.38,0.087,0.766,0.082,1.151,0.07c0.995-0.031,1.901-0.325,2.704-0.923
	c0.327-0.244,0.633-0.509,0.917-0.802c0.055-0.057,0.102-0.138,0.228-0.111c0.03,0.097,0.064,0.205,0.1,0.312
	c0.1,0.3,0.245,0.571,0.464,0.805c0.401,0.428,0.916,0.593,1.48,0.651c0.803,0.084,1.547-0.144,2.281-0.426
	c0.019-0.008,0.04-0.015,0.054-0.028c0.027-0.03,0.067-0.062,0.071-0.097C113.755,109.35,113.779,109.112,113.698,108.844z
	 M109.195,106.146c-0.006,0.312-0.017,0.625-0.012,0.937c0.002,0.169-0.053,0.302-0.165,0.424c-0.345,0.381-0.732,0.711-1.187,0.955
	c-0.618,0.33-1.281,0.438-1.967,0.285c-0.748-0.166-1.233-0.619-1.388-1.39c-0.075-0.372-0.078-0.746-0.021-1.119
	c0.107-0.729,0.504-1.289,1.056-1.751c0.33-0.275,0.702-0.485,1.086-0.674c0.789-0.384,1.625-0.644,2.464-0.892
	c0.038-0.012,0.081-0.008,0.164-0.015c0.009,0.121,0.021,0.213,0.021,0.305C109.23,104.189,109.211,105.168,109.195,106.146z"/>
<path fill-rule="evenodd" clip-rule="evenodd" fill="#231F20" d="M39.265,106.389c-0.063,0.096-0.124,0.179-0.176,0.266
	c-0.211,0.349-0.441,0.682-0.707,0.991c-0.546,0.633-1.232,1.009-2.062,1.13c-0.458,0.066-0.913,0.057-1.369-0.008
	c-0.789-0.112-1.469-0.442-2.042-0.995c-0.428-0.414-0.718-0.917-0.939-1.462c-0.382-0.94-0.5-1.931-0.522-2.936
	c-0.001-0.067,0.027-0.136,0.046-0.223c0.159-0.004,0.303-0.012,0.447-0.012c2.468-0.001,4.937-0.001,7.404-0.001
	c0.104,0,0.208,0.004,0.312-0.005c0.059-0.004,0.115-0.027,0.19-0.045c0.006-0.114,0.017-0.217,0.017-0.318
	c0.001-0.417,0-0.833-0.04-1.249c-0.051-0.531-0.149-1.051-0.316-1.557c-0.212-0.642-0.537-1.22-1.001-1.713
	c-0.58-0.615-1.292-1.012-2.105-1.226c-0.825-0.217-1.665-0.261-2.51-0.148c-1.387,0.185-2.518,0.845-3.404,1.91
	c-1.044,1.255-1.524,2.73-1.604,4.347c-0.022,0.447-0.001,0.895,0.048,1.34c0.096,0.855,0.287,1.685,0.646,2.468
	c0.741,1.615,1.973,2.651,3.697,3.095c0.663,0.171,1.337,0.193,2.016,0.174c0.6-0.017,1.18-0.137,1.734-0.361
	c1.349-0.546,2.329-1.505,3.038-2.76c0.029-0.052,0.042-0.113,0.06-0.164C39.947,106.75,39.597,106.528,39.265,106.389z
	 M32.023,99.547c0.243-0.467,0.557-0.877,0.982-1.195c0.455-0.341,0.963-0.533,1.534-0.533c0.228,0,0.46,0.003,0.684,0.042
	c0.624,0.108,1.066,0.488,1.414,0.995c0.191,0.278,0.31,0.588,0.399,0.911c0.182,0.655,0.25,1.326,0.276,2.004
	c0.003,0.08-0.015,0.16-0.023,0.248c-0.064,0.016-0.112,0.035-0.162,0.04c-0.083,0.007-0.166,0.006-0.25,0.006
	c-1.664,0-3.328,0-4.993-0.001c-0.123,0-0.246-0.008-0.382-0.011c-0.019-0.075-0.05-0.133-0.047-0.188
	C31.511,101.059,31.646,100.272,32.023,99.547z"/>
<path fill-rule="evenodd" clip-rule="evenodd" fill="#231F20" d="M140.2,106.41c-0.103,0.062-0.137,0.178-0.202,0.27
	c-0.21,0.298-0.405,0.606-0.633,0.891c-0.514,0.643-1.182,1.039-1.994,1.185c-0.625,0.113-1.245,0.087-1.86-0.058
	c-0.753-0.177-1.382-0.566-1.888-1.15c-0.352-0.405-0.598-0.875-0.784-1.377c-0.333-0.889-0.435-1.818-0.47-2.758
	c-0.003-0.082-0.009-0.168,0.07-0.245c0.118-0.044,0.254-0.026,0.388-0.026c2.488-0.001,4.977,0,7.465-0.001
	c0.144,0,0.288-0.009,0.472-0.015c0.01-0.131,0.025-0.222,0.025-0.313c0.001-0.468,0.004-0.936-0.049-1.403
	c-0.063-0.561-0.178-1.109-0.377-1.638c-0.219-0.582-0.533-1.106-0.967-1.553c-0.587-0.607-1.304-0.992-2.117-1.203
	c-0.63-0.163-1.272-0.207-1.92-0.185c-0.577,0.02-1.14,0.122-1.678,0.331c-1.176,0.457-2.09,1.231-2.758,2.297
	c-0.714,1.14-1.061,2.391-1.12,3.727c-0.026,0.615,0.026,1.227,0.128,1.834c0.138,0.815,0.374,1.601,0.775,2.33
	c0.762,1.391,1.92,2.272,3.446,2.68c0.692,0.184,1.397,0.211,2.107,0.182c0.925-0.039,1.78-0.305,2.563-0.799
	c0.928-0.585,1.638-1.374,2.171-2.327c0.029-0.052,0.045-0.112,0.063-0.161C140.827,106.709,140.423,106.471,140.2,106.41z
	 M132.382,101.835c0.036-0.445,0.087-0.89,0.203-1.323s0.275-0.85,0.515-1.233c0.218-0.346,0.478-0.654,0.803-0.906
	c0.45-0.349,0.957-0.537,1.526-0.555c0.125-0.003,0.249-0.001,0.374,0.001c0.631,0.017,1.141,0.283,1.549,0.756
	c0.22,0.255,0.394,0.539,0.5,0.857c0.08,0.236,0.149,0.476,0.2,0.72c0.107,0.509,0.171,1.025,0.182,1.546
	c0.002,0.102,0.02,0.208-0.042,0.318c-0.038,0.012-0.086,0.034-0.136,0.039c-0.083,0.008-0.166,0.006-0.249,0.007
	c-1.663,0-3.327,0-4.99,0c-0.084,0-0.168,0.001-0.251-0.005C132.411,102.047,132.368,101.998,132.382,101.835z"/>
<path fill-rule="evenodd" clip-rule="evenodd" fill="#231F20" d="M49.349,119.243c-0.159-0.408-0.421-0.745-0.803-0.968
	c-0.518-0.304-1.046-0.316-1.572-0.015c-0.117,0.067-0.22,0.157-0.332,0.233c-0.038,0.025-0.084,0.039-0.148,0.068
	c-0.029-0.146-0.051-0.264-0.076-0.392c-0.054-0.016-0.104-0.042-0.151-0.039c-0.395,0.021-0.789,0.047-1.184,0.073
	c-0.071,0.004-0.111,0.05-0.118,0.121c-0.009,0.083,0.027,0.143,0.107,0.167c0.06,0.017,0.123,0.023,0.183,0.04
	c0.238,0.062,0.37,0.224,0.409,0.461c0.015,0.092,0.014,0.187,0.014,0.28c0,1.363,0,2.728,0,4.092c0,0.082,0,0.166-0.01,0.249
	c-0.024,0.195-0.127,0.327-0.328,0.364c-0.092,0.018-0.186,0.026-0.277,0.046c-0.073,0.014-0.1,0.07-0.098,0.139
	c0.001,0.068,0.034,0.122,0.105,0.135c0.061,0.011,0.124,0.014,0.186,0.014c0.594,0.001,1.187,0.002,1.78,0
	c0.081-0.001,0.162-0.018,0.236-0.026c0.047-0.215,0.039-0.237-0.103-0.272c-0.081-0.02-0.164-0.034-0.245-0.053
	c-0.359-0.088-0.434-0.175-0.439-0.532c-0.004-0.292-0.002-0.584,0-0.876c0-0.08,0.016-0.161,0.027-0.27
	c0.097,0.033,0.173,0.056,0.249,0.084c0.774,0.283,1.472,0.163,2.083-0.399c0.283-0.262,0.472-0.582,0.58-0.948
	C49.601,120.42,49.574,119.824,49.349,119.243z M48.549,121.1c-0.059,0.245-0.15,0.477-0.303,0.679
	c-0.401,0.531-1.135,0.556-1.567,0.056c-0.127-0.146-0.2-0.308-0.196-0.509c0.002-0.089,0.003-0.177,0.004-0.265
	c0.002-0.266-0.002-0.53-0.002-0.795c0-0.354,0.006-0.707-0.002-1.061c-0.004-0.173,0.063-0.295,0.19-0.403
	c0.527-0.454,1.273-0.348,1.648,0.238c0.179,0.277,0.257,0.591,0.29,0.912C48.65,120.337,48.64,120.722,48.549,121.1z"/>
<path fill-rule="evenodd" clip-rule="evenodd" fill="#231F20" d="M121.546,122.175c-0.009-0.072-0.059-0.106-0.125-0.118
	c-0.072-0.013-0.145-0.019-0.216-0.034c-0.211-0.045-0.326-0.168-0.348-0.383c-0.011-0.103-0.007-0.208-0.007-0.312
	c0.005-0.624,0.014-1.248,0.014-1.872c0-0.165-0.009-0.334-0.044-0.495c-0.107-0.504-0.455-0.814-0.966-0.883
	c-0.104-0.015-0.207-0.022-0.311-0.032c-0.416-0.039-0.808,0.047-1.175,0.241c-0.177,0.094-0.327,0.223-0.445,0.385
	c-0.141,0.192-0.17,0.402-0.065,0.617c0.034,0.071,0.094,0.146,0.162,0.181c0.169,0.084,0.346,0.067,0.506-0.033
	c0.155-0.099,0.218-0.248,0.192-0.43c-0.011-0.082-0.031-0.163-0.043-0.245c-0.025-0.195,0.014-0.261,0.199-0.333
	c0.157-0.061,0.322-0.077,0.49-0.062c0.236,0.021,0.416,0.136,0.532,0.336c0.062,0.105,0.11,0.227,0.133,0.346
	c0.038,0.204,0.042,0.413,0,0.612c-0.1,0.116-0.233,0.149-0.359,0.193c-0.363,0.129-0.729,0.248-1.091,0.382
	c-0.164,0.062-0.329,0.134-0.479,0.228c-0.491,0.308-0.667,1.014-0.382,1.518c0.189,0.336,0.493,0.497,0.87,0.523
	c0.455,0.03,0.863-0.096,1.214-0.395c0.077-0.063,0.135-0.158,0.26-0.181c0.031,0.06,0.062,0.113,0.088,0.168
	c0.062,0.124,0.15,0.228,0.276,0.287c0.357,0.17,0.709,0.114,1.052-0.047C121.544,122.308,121.553,122.239,121.546,122.175z
	 M120.048,121.33c0.002,0.158-0.057,0.277-0.171,0.383c-0.242,0.222-0.518,0.341-0.852,0.308c-0.321-0.031-0.514-0.217-0.552-0.533
	c-0.047-0.384,0.078-0.698,0.395-0.925c0.326-0.232,0.695-0.37,1.085-0.455c0.018-0.004,0.038,0.01,0.074,0.021
	c0.009,0.063,0.027,0.134,0.027,0.203C120.054,120.664,120.045,120.997,120.048,121.33z"/>
<path fill-rule="evenodd" clip-rule="evenodd" fill="#231F20" d="M57.873,119.843c-0.085-0.839-0.657-1.525-1.445-1.731
	c-0.304-0.08-0.612-0.093-0.927-0.047c-0.544,0.079-0.979,0.333-1.303,0.773c-0.404,0.55-0.502,1.175-0.419,1.836
	c0.05,0.4,0.191,0.769,0.441,1.086c0.43,0.544,0.998,0.791,1.691,0.76c0.814-0.036,1.397-0.42,1.748-1.152
	c0.173-0.362,0.243-0.749,0.234-1.151C57.887,120.092,57.885,119.967,57.873,119.843z M56.877,121.252
	c-0.06,0.2-0.146,0.389-0.275,0.555c-0.405,0.521-1.118,0.526-1.531,0.017c-0.229-0.284-0.327-0.623-0.379-0.976
	c-0.058-0.393-0.064-0.786-0.003-1.18c0.044-0.28,0.116-0.549,0.269-0.791c0.255-0.401,0.628-0.567,1.094-0.485
	c0.203,0.036,0.368,0.138,0.505,0.29c0.149,0.164,0.246,0.358,0.309,0.569c0.102,0.342,0.148,0.69,0.136,1.056
	C57.012,120.623,56.969,120.94,56.877,121.252z"/>
<path fill-rule="evenodd" clip-rule="evenodd" fill="#231F20" d="M116.769,121.271c-0.098,0.064-0.15,0.182-0.225,0.279
	c-0.252,0.33-0.578,0.501-0.997,0.479c-0.042-0.002-0.084-0.002-0.125-0.005c-0.453-0.028-0.788-0.243-1.003-0.641
	c-0.177-0.328-0.254-0.682-0.248-1.053c0.001-0.049,0.021-0.098,0.032-0.143c0.121-0.06,0.237-0.044,0.35-0.044
	c0.677-0.002,1.354,0,2.03-0.003c0.111,0,0.229,0.023,0.346-0.049c0.01-0.03,0.031-0.069,0.032-0.108
	c0.012-0.389-0.037-0.769-0.212-1.123c-0.221-0.443-0.593-0.685-1.067-0.781c-0.071-0.015-0.145-0.021-0.218-0.028
	c-0.608-0.063-1.13,0.116-1.555,0.561c-0.22,0.229-0.374,0.499-0.473,0.8c-0.218,0.66-0.182,1.314,0.075,1.955
	c0.145,0.356,0.378,0.646,0.707,0.851c0.94,0.582,2.152,0.302,2.738-0.635c0.032-0.05,0.048-0.109,0.068-0.157
	C116.963,121.324,116.888,121.278,116.769,121.271z M114.567,118.652c0.242-0.258,0.551-0.317,0.889-0.252
	c0.159,0.031,0.28,0.131,0.381,0.255c0.193,0.242,0.299,0.731,0.224,1.091c-0.077,0.01-0.138,0.025-0.199,0.025
	c-0.521-0.001-1.04-0.004-1.561-0.009c-0.028,0-0.056-0.021-0.079-0.029c-0.015-0.024-0.033-0.042-0.033-0.059
	C114.174,119.281,114.299,118.938,114.567,118.652z"/>
<path fill-rule="evenodd" clip-rule="evenodd" fill="#231F20" d="M65.003,121.276c-0.065,0.087-0.139,0.186-0.214,0.283
	c-0.23,0.298-0.523,0.471-0.908,0.469c-0.062-0.001-0.125,0-0.188-0.003c-0.466-0.023-0.809-0.244-1.029-0.652
	c-0.172-0.318-0.245-0.662-0.239-1.023c0.001-0.058,0.027-0.114,0.045-0.189c0.125-0.006,0.238-0.016,0.351-0.016
	c0.646-0.002,1.291-0.001,1.937-0.002c0.093,0,0.188,0,0.281-0.009c0.104-0.008,0.149-0.051,0.156-0.157
	c0.022-0.325-0.006-0.644-0.122-0.952c-0.165-0.438-0.466-0.739-0.909-0.881c-0.949-0.307-1.862,0.049-2.315,0.906
	c-0.384,0.727-0.391,1.481-0.114,2.238c0.25,0.684,0.755,1.086,1.474,1.196c0.821,0.126,1.494-0.15,1.988-0.882
	c0.039-0.058,0.056-0.127,0.08-0.185C65.204,121.322,65.131,121.271,65.003,121.276z M62.796,118.675
	c0.241-0.259,0.54-0.337,0.88-0.281c0.149,0.024,0.27,0.103,0.371,0.215c0.219,0.241,0.347,0.755,0.271,1.128
	c-0.25,0.046-1.031,0.062-1.635,0.035c-0.071-0.003-0.14-0.02-0.223-0.031c-0.011-0.071-0.033-0.132-0.027-0.189
	C62.467,119.224,62.565,118.922,62.796,118.675z"/>
<path fill-rule="evenodd" clip-rule="evenodd" fill="#231F20" d="M83.246,121.277c-0.062,0.082-0.129,0.173-0.197,0.265
	c-0.247,0.332-0.572,0.505-0.992,0.487c-0.062-0.003-0.125-0.003-0.187-0.009c-0.376-0.034-0.675-0.207-0.882-0.521
	c-0.243-0.367-0.336-0.779-0.31-1.218c0.002-0.029,0.021-0.057,0.034-0.091c0.104-0.062,0.22-0.046,0.333-0.046
	c0.656-0.002,1.312,0,1.967-0.002c0.124,0,0.247-0.01,0.407-0.017c0.063-0.416,0.026-0.782-0.113-1.138
	c-0.162-0.412-0.454-0.699-0.872-0.838c-0.937-0.312-1.866,0.014-2.325,0.879c-0.447,0.845-0.413,1.7,0.008,2.547
	c0.055,0.111,0.133,0.213,0.213,0.308c0.623,0.73,1.778,0.781,2.43,0.382c0.334-0.205,0.6-0.474,0.771-0.819
	C83.463,121.324,83.382,121.272,83.246,121.277z M81.082,118.634c0.246-0.238,0.541-0.298,0.866-0.233
	c0.16,0.03,0.282,0.125,0.382,0.252c0.192,0.242,0.301,0.723,0.236,1.091c-0.066,0.011-0.117,0.027-0.167,0.027
	c-0.519,0.001-1.04-0.001-1.559-0.004c-0.04,0-0.079-0.019-0.134-0.032c-0.01-0.062-0.032-0.121-0.027-0.179
	C80.712,119.205,80.822,118.886,81.082,118.634z"/>
<path fill-rule="evenodd" clip-rule="evenodd" fill="#231F20" d="M171.085,101.207c0.078,0.057,0.139,0.106,0.204,0.148
	c0.193,0.123,0.397,0.173,0.625,0.107c0.41-0.115,0.643-0.497,0.556-0.917c-0.084-0.403-0.478-0.662-0.896-0.585
	c-0.089,0.016-0.175,0.049-0.273,0.077c0.234-0.642,1.128-1.033,1.895-0.86c0.739,0.167,1.482,0.891,1.344,1.974
	c-0.114,0.901-0.91,1.535-1.782,1.51C171.906,102.635,171.165,102.012,171.085,101.207z"/>
<path fill-rule="evenodd" clip-rule="evenodd" fill="#231F20" d="M163.449,99.582c0.502,0.35,0.839,0.371,1.156,0.088
	c0.267-0.234,0.336-0.624,0.169-0.941c-0.192-0.366-0.539-0.472-1.081-0.329c0.035-0.181,0.165-0.351,0.416-0.537
	c0.376-0.281,0.801-0.394,1.265-0.342c0.949,0.106,1.59,0.939,1.557,1.807c-0.034,0.9-0.718,1.641-1.6,1.7
	C164.382,101.092,163.599,100.504,163.449,99.582z"/>
<path fill-rule="evenodd" clip-rule="evenodd" fill="#231F20" d="M180.068,106.328c-0.276-0.977-0.785-1.832-1.425-2.614
	c-0.639-0.779-1.385-1.439-2.2-2.025c-0.092-0.066-0.182-0.137-0.254-0.19c-0.032-0.139,0.025-0.233,0.052-0.332
	c0.16-0.604,0.13-1.196-0.09-1.779c-0.513-1.365-1.964-2.141-3.382-1.802c-0.741,0.177-1.323,0.589-1.754,1.218
	c-0.063,0.092-0.101,0.208-0.232,0.272c-0.329-0.078-0.673-0.156-1.016-0.24c-0.352-0.086-0.715-0.12-1.069-0.235
	c-0.019-0.116-0.033-0.218-0.052-0.319c-0.387-2.09-2.62-2.983-4.288-2.044c-0.778,0.438-1.251,1.112-1.434,1.988
	c-0.019,0.089-0.006,0.189-0.105,0.278c-0.1,0.02-0.222,0.042-0.343,0.069c-0.477,0.109-0.959,0.202-1.429,0.335
	c-1.007,0.287-1.955,0.709-2.818,1.314c-0.931,0.651-1.672,1.467-2.147,2.509c-0.48,1.054-0.629,2.152-0.41,3.293
	c0.111,0.588,0.329,1.14,0.626,1.658c0.706,1.24,1.685,2.243,2.771,3.149c0.312,0.26,0.636,0.506,0.938,0.777
	c0.624,0.559,1.168,1.187,1.583,1.919c0.39,0.688,0.601,1.416,0.503,2.215c-0.007,0.06,0,0.121,0,0.196
	c1.239,0.669,2.547,1.103,3.916,1.362c1.119,0.214,2.246,0.281,3.387,0.196c0.034-0.083,0.068-0.148,0.088-0.216
	c0.114-0.375,0.302-0.707,0.547-1.011c0.371-0.46,0.832-0.814,1.339-1.11c0.824-0.485,1.715-0.806,2.643-1.018
	c0.714-0.164,1.398-0.408,2.072-0.687c0.667-0.275,1.304-0.607,1.891-1.028c0.722-0.516,1.328-1.14,1.73-1.938
	C180.381,109.153,180.475,107.759,180.068,106.328z M165.726,102.088c-1.58,0.024-2.827-1.303-2.827-2.812
	c0-1.562,1.291-2.833,2.818-2.827c1.569,0.007,2.816,1.251,2.825,2.818C168.551,100.867,167.209,102.118,165.726,102.088z
	 M173.284,103.715c-1.421,0.038-2.818-1.161-2.812-2.824c0.005-1.562,1.263-2.813,2.83-2.813c1.598,0,2.818,1.332,2.813,2.83
	C176.109,102.465,174.81,103.75,173.284,103.715z"/>
</svg>
