<?xml version="1.0" encoding="utf-8"?>
<!-- Generator: Adobe Illustrator 16.0.0, SVG Export Plug-In . SVG Version: 6.00 Build 0)  -->
<!DOCTYPE svg PUBLIC "-//W3C//DTD SVG 1.1//EN" "http://www.w3.org/Graphics/SVG/1.1/DTD/svg11.dtd">
<svg version="1.1" id="Layer_1" xmlns="http://www.w3.org/2000/svg" xmlns:xlink="http://www.w3.org/1999/xlink" x="0px" y="0px"
	 width="200px" height="200px" viewBox="0 0 200 200" enable-background="new 0 0 200 200" xml:space="preserve">
<circle fill="#FFB492" cx="99.576" cy="99.999" r="95.915"/>
<path fill-rule="evenodd" clip-rule="evenodd" d="M137.124,113.596c0.189,0.256,0.19,0.443-0.011,0.548
	c-0.542,0.277-1.084,0.564-1.651,0.783c-0.688,0.264-1.4,0.461-2.188,0.716c-0.855-0.419-1.355-1.274-1.697-2.234
	c-0.08-0.224-0.185-0.362-0.373-0.474c-0.204-0.121-0.4-0.254-0.615-0.393c0.007-0.081,0.003-0.158,0.023-0.229
	c0.16-0.538,0.161-0.535-0.238-0.87c-0.597-0.501-1.078-1.077-1.271-1.858c-0.031-0.126-0.185-0.234-0.301-0.326
	c-0.71-0.554-1.28-1.203-1.44-2.124c-0.057-0.326-0.267-0.521-0.535-0.647c-0.404-0.192-0.679-0.504-0.904-0.872
	c-0.195-0.319-0.451-0.562-0.749-0.799c-0.378-0.305-0.738-0.672-0.839-1.214c-0.076-0.409-0.321-0.741-0.771-0.789
	c-0.265-0.028-0.352-0.21-0.475-0.375c-0.664-0.896-1.294-1.82-2-2.682c-0.383-0.468-0.886-0.839-1.352-1.233
	c-0.261-0.22-0.556-0.242-0.894-0.112c-0.737,0.286-1.491,0.534-2.292,0.816c-0.298,0.498-0.243,1.099-0.159,1.709
	c0.04,0.284,0.033,0.576,0.024,0.865c-0.014,0.448-0.08,0.898-0.066,1.347c0.032,0.98,0.097,1.961,0.155,2.94
	c0.015,0.237,0.064,0.472,0.087,0.709c0.053,0.574-0.192,1.009-0.677,1.418c0.117,0.219-0.062,0.622,0.378,0.779
	c0.043,0.014,0.095,0.077,0.096,0.119c0.032,0.761,0.062,1.52,0.076,2.278c0.002,0.088-0.077,0.188-0.142,0.265
	c-0.233,0.281-0.334,0.534,0.038,0.795c0.079,0.056,0.092,0.229,0.103,0.353c0.02,0.211,0.005,0.425,0.021,0.638
	c0.053,0.68-0.203,1.186-0.814,1.508c-0.357,0.188-0.585,0.637-1.103,0.511c-0.08-0.019-0.221,0.13-0.307,0.227
	c-0.41,0.453-0.897,0.504-1.457,0.325c0-0.099-0.03-0.193,0.004-0.249c0.633-1.011,0.589-2.184,0.805-3.295
	c0.04-0.208,0.114-0.417,0.106-0.623c-0.009-0.216-0.098-0.429-0.172-0.725c0.329-0.174,0.751-0.379,1.156-0.611
	c0.42-0.244,0.455-0.489,0.092-0.801c-0.32-0.276-0.685-0.5-1.065-0.771c0.333-0.416,0.271-0.851,0.132-1.333
	c-0.105-0.371-0.085-0.788-0.068-1.183c0.043-1.06,0.144-2.119,0.165-3.179c0.011-0.574,0.045-1.111,0.452-1.56
	c0.049-0.053,0.057-0.146,0.086-0.229c-0.161-0.098-0.319-0.192-0.54-0.325c-0.03-1.391-0.062-2.817-0.096-4.35
	c0.077-0.086,0.235-0.262,0.436-0.483c-0.43-0.353-0.419-0.847-0.39-1.344c0.026-0.458-0.211-0.95,0.167-1.366
	c-0.109-0.332-0.219-0.663-0.366-1.109c0.046-0.08,0.147-0.294,0.283-0.483c0.399-0.554,0.638-1.138,0.597-1.85
	c-0.016-0.278,0.206-0.569,0.356-0.946c-0.279-0.279-0.621-0.644-0.989-0.98c-0.254-0.232-0.387-0.482-0.354-0.835
	c0.028-0.312,0.006-0.628,0.006-0.991c-0.235-0.02-0.413-0.023-0.587-0.051c-0.294-0.047-0.403-0.276-0.229-0.51
	c0.106-0.142,0.301-0.364,0.404-0.339c0.497,0.119,0.769-0.269,1.137-0.428c0.316-0.136,0.633-0.273,0.964-0.417
	c0.452,0.347,0.906,0.59,1.495,0.269c0.182-0.1,0.47,0.006,0.708-0.003c0.715-0.03,1.429-0.069,2.143-0.106
	c0.133-0.007,0.267-0.033,0.397-0.025c1.007,0.057,2.013,0.118,3.019,0.181c0.158,0.01,0.314,0.04,0.472,0.053
	c0.628,0.053,1.254,0.222,1.879-0.063c0.152-0.069,0.367-0.016,0.551,0.006c1.182,0.146,2.365,0.28,3.542,0.46
	c0.52,0.08,1.036,0.225,1.533,0.402c0.499,0.178,0.49,0.24,0.231,0.755c-0.111,0.221,0.007,0.344,0.225,0.393
	c0.108-0.19,0.214-0.376,0.314-0.551c0.099,0.028,0.147,0.037,0.191,0.056c0.726,0.326,0.929,0.896,0.743,1.634
	c-0.053,0.208-0.156,0.392,0.13,0.535c0.06,0.03,0.067,0.312,0.003,0.42c-0.174,0.293-0.366,0.592-0.611,0.822
	c-0.755,0.709-1.541,1.385-2.309,2.081c-0.135,0.123-0.219,0.306-0.36,0.417c-0.24,0.188-0.486,0.413-0.766,0.493
	c-0.504,0.143-0.975,0.336-1.259,0.769c-0.358,0.547-0.942,0.63-1.467,0.849c-0.046,0.019-0.14-0.021-0.154,0.001
	c-0.318,0.518-1.021,0.477-1.373,0.972c-0.243,0.342-0.567,0.63-1.042,0.669c-0.146,0.013-0.295,0.117-0.418,0.211
	c-0.272,0.206-0.529,0.434-0.769,0.633c0.108,0.149,0.245,0.306,0.346,0.482c0.3,0.53,0.554,1.085,1.017,1.511
	c0.211,0.195,0.338,0.456,0.165,0.783c0.899,0.094,1.255,0.776,1.67,1.386c-0.099,0.159-0.192,0.311-0.279,0.452
	c0.063,0.073,0.096,0.145,0.132,0.146c0.815,0.044,1.179,0.679,1.483,1.262c0.708,1.361,1.782,2.444,2.668,3.667
	c0.304,0.419,0.594,0.833,0.626,1.349c0.021,0.349,0.186,0.547,0.46,0.681c1.166,0.565,1.735,1.688,2.468,2.653
	c0.148,0.195,0.157,0.495,0.252,0.822c0.246,0.258,0.594,0.479,0.93,0.429c0.523,0.466,0.969,0.862,1.317,1.175
	C136.19,113.704,136.648,113.651,137.124,113.596z M115.83,97.727c0.398-0.03,0.608-0.011,0.793-0.069
	c0.373-0.12,0.726-0.312,1.14-0.146c0.077,0.031,0.198-0.036,0.294-0.071c0.368-0.137,0.735-0.28,1.103-0.42
	c0.368-0.14,0.757-0.24,1.102-0.424c1.896-1.011,3.783-2.036,5.664-3.071c0.345-0.19,0.654-0.445,0.971-0.684
	c0.211-0.159,0.421-0.326,0.603-0.518c0.655-0.689,1.544-1.092,2.164-1.837c0.298-0.358,0.452-0.684,0.42-1.141
	c-0.019-0.271,0.06-0.547,0.098-0.851c-0.771-0.16-0.677-0.956-1.049-1.57c-0.262,0.227-0.545,0.197-0.858,0.093
	c-1.274-0.422-2.545-0.885-3.925-0.806c-0.078,0.004-0.171,0.005-0.233-0.033c-0.353-0.208-0.719-0.15-1.083-0.065
	c-0.557,0.13-1.101,0.136-1.634-0.106c-0.439-0.2-0.88-0.168-1.312,0.028c-0.217,0.098-0.438,0.194-0.642,0.315
	c-0.264,0.158-0.527,0.24-0.812,0.125c-0.208-0.264-0.402-0.511-0.596-0.755c-0.211,0.062-0.383,0.13-0.562,0.163
	c-1.336,0.247-1.054,0.038-1.292,1.452c-0.009,0.051,0,0.106-0.002,0.159c-0.029,0.695-0.029,0.695-0.509,1.149
	c0.023,0.5,0.665,0.696,0.63,1.229c-0.029,0.445-0.007,0.904-0.107,1.333c-0.105,0.449-0.331,0.87-0.521,1.343
	c0.566,0.183,0.656,0.6,0.639,1.128c-0.034,1.009-0.026,2.022,0.001,3.032C116.323,97.065,116.252,97.363,115.83,97.727z"/>
<path fill-rule="evenodd" clip-rule="evenodd" d="M18.489,114.66c-0.206,0.098-0.386,0.225-0.584,0.27
	c-0.279,0.062-0.479,0.154-0.591,0.452c-0.056,0.148-0.243,0.293-0.403,0.351c-0.545,0.197-1.104,0.355-1.635,0.521
	c-0.415-0.241-0.366-0.562-0.28-0.919c0.085-0.355,0.129-0.723,0.166-1.086c0.062-0.582,0.085-1.172,0.56-1.581
	c-0.489-1.019-0.06-1.936,0.199-2.982c-0.098-0.181-0.248-0.456-0.328-0.605c0-1.314,0-2.506,0-3.679
	c0.193-0.171,0.348-0.309,0.509-0.452c-0.037-0.173-0.047-0.338-0.108-0.482c-0.3-0.709-0.222-1.454-0.226-2.192
	c-0.002-0.521,0.005-0.521,0.333-1.077c-0.202-0.368-0.288-0.762-0.18-1.236c0.109-0.483,0.036-1.007,0.041-1.513
	c0-0.08,0.021-0.19-0.022-0.234c-0.625-0.627-0.287-1.442-0.405-2.163c-0.109-0.657-0.162-1.319,0.011-2.027
	c0.155-0.633-0.053-1.364-0.146-2.046c-0.075-0.545-0.227-1.08-0.321-1.623c-0.029-0.168-0.049-0.401,0.041-0.515
	c0.295-0.376,0.246-0.733,0.02-1.086c0.125-0.154,0.224-0.275,0.328-0.401c-0.017-0.08-0.017-0.164-0.051-0.23
	c-0.121-0.236-0.284-0.455-0.376-0.701c-0.11-0.294-0.258-0.623-0.218-0.913c0.048-0.359-0.003-0.634-0.149-0.959
	c-0.105-0.237-0.02-0.559-0.02-0.862c-0.226-0.315-0.567-0.094-0.856-0.119c-0.108-0.571-0.082-0.655,0.272-0.872
	c0.022-0.014,0.046-0.028,0.07-0.039c0.726-0.32,1.445-0.657,2.179-0.956c0.667-0.272,0.675-0.254,1.309,0.181
	c1.171-0.405,2.366-0.42,3.576-0.074c0.328,0.094,0.686,0.075,1.026,0.133c0.753,0.128,1.505,0.271,2.237,0.405
	c0.167,0.217,0.323,0.422,0.514,0.669c0.257-0.182,0.467-0.33,0.617-0.436c1.312,0.285,2.578,0.554,3.839,0.839
	c0.333,0.075,0.665,0.174,0.976,0.311c0.457,0.2,0.951,0.243,1.415,0.46c0.545,0.256,0.914,0.67,1.311,1.061
	c0.33,0.324,0.13,0.772,0.037,1.137c-0.13,0.506-0.368,0.984-0.555,1.462c-0.597-0.04-0.991,0.318-1.494,0.556
	c0.087,0.216,0.161,0.398,0.241,0.599c-0.376,0.362-0.725,0.77-1.287,0.877c-0.102,0.02-0.236,0.058-0.285,0.133
	c-0.401,0.622-1.127,0.638-1.708,0.909c-0.57,0.266-1.191,0.426-1.796,0.613c-0.172,0.054-0.368,0.029-0.551,0.055
	c-0.209,0.029-0.458,0.013-0.615,0.124c-0.668,0.47-1.43,0.438-2.188,0.543c-0.811,0.113-1.625,0.202-2.433,0.324
	c-0.825,0.126-1.621,0.443-2.443,0.681c0.039,0.173,0.117,0.35,0.109,0.521c-0.042,0.875-0.104,1.749-0.166,2.623
	c-0.007,0.099-0.035,0.24-0.103,0.281c-0.242,0.149-0.178,0.352-0.153,0.563c0.048,0.422,0.082,0.845,0.124,1.267
	c0.047,0.473,0.108,0.944,0.141,1.42c0.026,0.364,0.025,0.732,0.026,1.099c0.002,1.331,0.006,2.663-0.004,3.994
	c-0.002,0.296,0.115,0.635-0.265,0.847c-0.078,0.045-0.075,0.353-0.01,0.492c0.047,0.103,0.258,0.127,0.361,0.171
	c0,0.514,0.01,0.983-0.007,1.452c-0.004,0.119-0.071,0.252-0.145,0.351c-0.401,0.537-0.406,0.667,0.072,1.066
	c0.206,0.172,0.299,0.363,0.279,0.62c-0.008,0.107-0.002,0.216-0.022,0.32c-0.165,0.85-0.136,1.677,0.176,2.501
	C18.562,114.081,18.489,114.371,18.489,114.66z M18.034,84.26c-0.067,0.36-0.125,0.635-0.17,0.913
	c-0.105,0.675-0.083,1.374-0.408,2.007c-0.052,0.103-0.068,0.327-0.012,0.367c0.397,0.277,0.228,0.671,0.235,1.02
	c0.011,0.558-0.015,1.116-0.017,1.675c0,0.158-0.035,0.371,0.05,0.464c0.237,0.257,0.161,0.542,0.16,0.827c0,0.285,0,0.571,0,0.898
	c0.342,0,0.604-0.008,0.864,0.003c0.128,0.005,0.334,0.005,0.37,0.076c0.221,0.438,0.473,0.251,0.776,0.109
	c0.233-0.109,0.507-0.148,0.768-0.179c0.973-0.114,1.95-0.193,2.921-0.324c0.465-0.062,0.915-0.224,1.375-0.317
	c0.802-0.162,1.608-0.297,2.358-0.647c0.165-0.077,0.36-0.086,0.527-0.159c0.334-0.145,0.688-0.272,0.983-0.478
	c0.854-0.596,1.186-1.538,1.521-2.46c0.112-0.31,0.035-0.641-0.21-0.89c-0.166-0.17-0.347-0.331-0.542-0.466
	c-0.549-0.381-1.147-0.652-1.796-0.828c-0.273-0.074-0.629-0.043-0.688-0.51c-0.03-0.233-0.409-0.303-0.654-0.13
	c-0.273,0.192-0.531,0.189-0.828,0.113c-0.229-0.058-0.467-0.094-0.702-0.106c-0.328-0.016-0.648-0.051-0.876-0.306
	c-0.22-0.246-0.481-0.236-0.726-0.126c-0.445,0.202-0.881,0.128-1.318,0.017c-0.303-0.078-0.595-0.193-0.88-0.289
	c-0.09-0.456,0.046-0.966-0.54-1.215c-0.224,0.366-0.441,0.722-0.676,1.105C19.323,84.374,18.748,84.323,18.034,84.26z"/>
<path fill-rule="evenodd" clip-rule="evenodd" d="M72.796,110.35c-0.084-0.351-0.15-0.624-0.258-1.077
	c-0.236,0.448-0.383,0.731-0.541,1.032c-0.44,0-0.861,0-1.305,0c-0.227,0.753-0.016,1.5-0.089,2.243
	c-0.214,0.182-0.468,0.332-0.631,0.553c-0.148,0.199-0.196,0.474-0.289,0.716c0.031,0.04,0.054,0.104,0.096,0.12
	c0.7,0.3,0.83,0.896,0.833,1.567c0.001,0.237-0.002,0.484,0.059,0.713c0.079,0.295,0.074,0.514-0.238,0.662
	c-0.071,0.034-0.123,0.161-0.136,0.253c-0.033,0.222,0.199,0.957,0.357,1.236c0.05,0.088,0.101,0.187,0.109,0.283
	c0.062,0.768,0.106,1.536,0.175,2.303c0.029,0.317-0.158,0.412-0.408,0.475c0.417,0.397,0.514,0.751,0.519,1.831
	c-0.526,0.644-1.053,1.244-1.868,1.428c-0.243,0.054-0.509,0.009-0.792-0.034c0.422-0.241,0.562-0.592,0.649-1.041
	c0.072-0.371,0.364-0.699,0.57-1.068c-0.388-0.454-0.783-0.918-1.22-1.431c0.404-0.369,0.323-0.828,0.141-1.313
	c0.158-0.213,0.313-0.421,0.494-0.668c-0.159-0.148-0.304-0.283-0.481-0.449c0.314-0.189,0.603-0.363,0.964-0.582
	c-0.309-0.149-0.552-0.266-0.873-0.421c0.268-0.21,0.485-0.382,0.69-0.543c0.047-0.355-0.153-0.59-0.322-0.814
	c-0.464-0.621-0.592-1.319-0.415-2.039c0.124-0.501,0.023-1.032,0.35-1.525c0.178-0.269,0.187-0.771-0.252-1.059
	c-0.264-0.172-0.301-0.465-0.287-0.78c0.062-1.432,0.094-2.866,0.157-4.3c0.019-0.419,0.107-0.833,0.141-1.252
	c0.012-0.152,0.012-0.377-0.079-0.45c-0.307-0.248-0.246-0.566-0.246-0.878c0.002-0.719,0.036-1.438,0.008-2.154
	c-0.021-0.527-0.081-1.062-0.198-1.575c-0.054-0.233-0.289-0.425-0.49-0.703c0.643-0.731,1.383-1.336,2.313-1.677
	c0.439,0.283,0.439,0.283,0.642,1.194c0.262-0.134,0.521-0.242,0.753-0.393c0.477-0.306,1.007-0.468,1.549-0.593
	c0.2-0.046,0.436-0.099,0.615-0.035c0.389,0.14,0.691,0.016,1.051-0.118c0.436-0.163,0.925-0.229,1.394-0.242
	c0.58-0.018,1.164,0.066,1.746,0.096c0.158,0.009,0.318-0.033,0.476-0.022c0.202,0.014,0.417,0.021,0.598,0.097
	c0.411,0.171,0.795,0.41,1.21,0.569c0.692,0.266,1.307,0.592,1.495,1.43c0.254-0.025,0.479-0.048,0.716-0.071
	c0.375,0.304,0.658,0.679,0.83,1.138c0.404,1.083,0.463,2.224,0.556,3.358c0.012,0.148-0.062,0.316-0.131,0.456
	c-0.451,0.903-0.939,1.781-1.646,2.508c-0.21,0-0.395,0-0.625,0c-0.289,0.649-0.622,1.308-1.566,1.1
	c-0.195,0.627-0.624,1.007-1.173,1.254c-0.992,0.447-1.978,0.915-3.116,0.824c-0.175-0.015-0.359,0.068-0.538,0.105
	c-0.129,0.026-0.265,0.088-0.387,0.068C73.908,110.565,73.365,110.455,72.796,110.35z M70.589,102.245
	c-0.108,0.934,0.151,1.817-0.272,2.648c0.462,0.94,0.179,1.974,0.321,2.97c0.389,0.2,0.771,0.384,1.139,0.593
	c0.221,0.125,0.383,0.221,0.697,0.194c0.535-0.047,1.11,0.074,1.632,0.239c0.747,0.235,1.476,0.408,2.25,0.185
	c0.043-0.013,0.1,0.024,0.136,0.035c0.218,0.207,0.426,0.403,0.635,0.603c0.157-0.068,0.278-0.118,0.396-0.174
	c1.296-0.624,2.188-1.749,3.271-2.638c0.039-0.031,0.064-0.086,0.083-0.136c0.349-0.929,0.918-1.808,0.646-2.883
	c-0.048-0.188,0.02-0.406,0.028-0.514c-0.207-0.316-0.438-0.538-0.509-0.802c-0.115-0.438-0.373-0.748-0.658-1.067
	c-0.15-0.17-0.266-0.391-0.334-0.608c-0.139-0.446-0.138-0.479-0.566-0.483c-0.318-0.003-0.622,0.04-0.901-0.201
	c-0.425-0.365-0.883-0.679-1.502-0.604c-0.114,0.014-0.239-0.106-0.364-0.145c-0.201-0.06-0.406-0.136-0.613-0.148
	c-1.692-0.106-3.321,0.169-4.902,0.788c-0.407,0.159-0.624,0.37-0.604,0.809c0.005,0.126-0.019,0.253-0.027,0.363
	c-0.381,0.112-0.719,0.212-1.136,0.332C69.86,101.84,70.199,102.028,70.589,102.245z"/>
<path fill-rule="evenodd" clip-rule="evenodd" d="M61.881,99.964c0.273-0.062,0.452-0.104,0.652-0.149
	c0.784,0.577,0.997,1.469,1.172,2.349c0.133,0.672,0.179,1.367,0.188,2.053c0.005,0.326-0.108,0.69-0.274,0.975
	c-0.424,0.73-0.909,1.426-1.354,2.111c-0.295,0-0.502,0-0.741,0c-0.287,0.652-0.561,1.34-1.52,1.071
	c-0.301,0.867-0.997,1.216-1.751,1.523c-0.841,0.345-1.674,0.677-2.61,0.575c-0.053-0.004-0.114-0.014-0.158,0.007
	c-0.793,0.364-1.545-0.095-2.324-0.06c-0.115-0.362-0.216-0.68-0.341-1.076c-0.19,0.359-0.336,0.638-0.5,0.946
	c-0.417,0-0.836,0-1.316,0c-0.035,0.227-0.088,0.427-0.092,0.627c-0.007,0.371-0.004,0.746,0.03,1.115
	c0.033,0.351-0.014,0.649-0.374,0.788c-0.463,0.179-0.306,0.703-0.594,0.948c0.043,0.084,0.058,0.16,0.092,0.171
	c0.644,0.197,0.795,0.728,0.857,1.294c0.045,0.423,0.04,0.851,0.042,1.275c0.001,0.097-0.035,0.247-0.1,0.279
	c-0.367,0.185-0.291,0.51-0.194,0.759c0.117,0.302,0.017,0.689,0.368,0.917c0.085,0.057,0.052,0.3,0.068,0.457
	c0.068,0.684-0.064,1.381,0.153,2.058c0.101,0.316-0.202,0.362-0.401,0.468c0.661,0.479,0.297,1.237,0.57,1.786
	c-0.581,0.561-0.999,1.246-1.809,1.414c-0.278,0.057-0.566,0.062-0.876,0.04c0.276-0.264,0.464-0.522,0.56-0.896
	c0.108-0.427,0.375-0.812,0.599-1.27c-0.357-0.414-0.75-0.871-1.184-1.377c0.164-0.291,0.372-0.595,0.2-0.989
	c-0.182-0.417,0.199-0.67,0.404-0.996c-0.146-0.156-0.284-0.306-0.448-0.48c0.313-0.188,0.602-0.362,0.963-0.577
	c-0.32-0.152-0.564-0.269-0.88-0.421c0.278-0.224,0.496-0.397,0.778-0.624c-0.21-0.371-0.43-0.726-0.615-1.097
	c-0.115-0.231-0.255-0.49-0.25-0.734c0.017-0.688,0.088-1.376,0.17-2.061c0.031-0.257,0.358-0.409,0.221-0.775
	c-0.096-0.26-0.045-0.542-0.333-0.748c-0.134-0.097-0.171-0.374-0.191-0.574c-0.026-0.263,0.007-0.53,0.016-0.798
	c0.039-1.06,0.07-2.119,0.123-3.179c0.02-0.393,0.121-0.782,0.129-1.174c0.008-0.403,0.18-0.839-0.216-1.197
	c-0.105-0.095-0.088-0.347-0.092-0.526c-0.013-0.611,0.004-1.225-0.021-1.836c-0.023-0.606-0.063-1.215-0.135-1.818
	c-0.023-0.194-0.142-0.394-0.262-0.559c-0.286-0.396-0.308-0.451,0.069-0.747c0.499-0.393,1.013-0.767,1.54-1.121
	c0.256-0.172,0.546-0.199,0.805,0.045c0.166,0.154,0.283,0.299,0.158,0.551c-0.044,0.09,0.029,0.236,0.061,0.439
	c0.311-0.156,0.577-0.26,0.809-0.416c0.496-0.335,1.054-0.497,1.625-0.615c0.198-0.04,0.423-0.043,0.617,0.01
	c0.297,0.081,0.534,0.048,0.826-0.077c0.405-0.174,0.862-0.287,1.303-0.307c0.632-0.026,1.269,0.058,1.905,0.087
	c0.185,0.01,0.372-0.02,0.555-0.006c0.205,0.016,0.422,0.024,0.607,0.101c0.387,0.161,0.744,0.401,1.137,0.54
	C61.031,98.723,61.643,99.093,61.881,99.964z M50.931,107.849c0.425,0.219,0.811,0.396,1.175,0.611
	c0.224,0.132,0.403,0.366,0.694,0.151c0.67,0.268,1.426,0.073,2.092,0.411c0.461,0.234,0.967,0.25,1.47,0.076
	c0.12-0.042,0.261-0.023,0.396-0.032c0.236,0.22,0.465,0.433,0.706,0.658c0.592-0.305,1.165-0.558,1.625-1.03
	c0.479-0.492,1.016-0.932,1.536-1.383c0.975-0.848,1.269-1.952,1.227-3.19c-0.016-0.495,0.037-1.009-0.435-1.362
	c-0.054-0.039-0.064-0.142-0.085-0.218c-0.09-0.341-0.271-0.615-0.521-0.873c-0.193-0.2-0.345-0.471-0.432-0.737
	c-0.164-0.502-0.139-0.524-0.608-0.523c-0.294,0.002-0.585,0.041-0.834-0.165c-0.454-0.376-0.916-0.729-1.565-0.644
	c-0.088,0.012-0.187-0.099-0.287-0.122c-0.28-0.067-0.562-0.144-0.848-0.17c-1.396-0.13-2.75,0.148-4.074,0.535
	c-0.628,0.184-1.391,0.358-1.271,1.321c0.005,0.038-0.058,0.083-0.115,0.157c-0.124,0.023-0.282,0.039-0.432,0.082
	c-0.172,0.052-0.337,0.129-0.559,0.216c0.133,0.087,0.211,0.158,0.304,0.195c0.801,0.326,0.929,0.487,0.762,1.299
	c-0.121,0.59,0.183,1.222-0.2,1.775c-0.012,0.017-0.004,0.055,0.004,0.077C51,105.882,50.903,106.845,50.931,107.849z"/>
<path fill-rule="evenodd" clip-rule="evenodd" d="M98.118,106.606c-0.416,0.263-0.732,0.439-1.023,0.65
	c-0.3,0.216-0.568,0.479-0.867,0.698c-0.918,0.674-1.851,1.33-2.768,2.007c-0.417,0.307-0.854,0.522-1.385,0.548
	c-0.234,0.011-0.467,0.093-0.697,0.153c-1.062,0.277-1.981-0.079-2.851-0.641c-0.626-0.405-0.886-1.054-1.02-1.74
	c-0.042-0.22,0.13-0.483,0.222-0.781c-0.337-0.653-0.268-1.327,0.202-1.965c0.144-0.195,0.14-0.409,0.143-0.656
	c0.004-0.577,0.093-1.157,0.188-1.729c0.176-1.066,0.382-2.127,0.583-3.236c-0.213-0.078-0.399-0.147-0.619-0.229
	c-0.057-0.479,0.3-0.697,0.625-0.879c0.624-0.348,1.278-0.641,1.915-0.965c0.195-0.099,0.383-0.217,0.585-0.038
	c0.211,0.186,0.354,0.406,0.209,0.697c-0.492,0.987-0.569,2.09-0.869,3.132c-0.131,0.454-0.192,0.93-0.284,1.389
	c-0.091,0.05-0.155,0.1-0.228,0.121c-0.232,0.065-0.5,0.105-0.545,0.393c-0.05,0.324,0.312,0.309,0.518,0.551
	c-0.079,0.588-0.158,1.24-0.254,1.89c-0.061,0.419-0.184,0.832-0.209,1.253c-0.036,0.602,0.307,1.07,0.739,1.421
	c0.405,0.327,0.894,0.553,1.373,0.84c0.367-0.199,0.731-0.472,1.213-0.471c0.169,0.002,0.356-0.116,0.505-0.222
	c0.693-0.49,1.382-0.988,2.06-1.5c0.444-0.337,0.872-0.694,1.293-1.059c0.155-0.134,0.3-0.293,0.403-0.471
	c0.256-0.433,0.489-0.879,0.723-1.325c0.048-0.09,0.111-0.206,0.09-0.293c-0.165-0.695,0.152-1.415-0.134-2.113
	c-0.094-0.229-0.036-0.526-0.029-0.791c0.022-0.729-0.101-1.417-0.477-2.058c-0.244-0.415-0.194-0.514,0.25-0.703
	c0.095-0.04,0.228-0.048,0.286-0.118c0.365-0.441,0.896-0.401,1.379-0.499c0.361-0.072,0.551,0.086,0.607,0.502
	c-0.377,0.175-0.772,0.358-1.258,0.584c0.312,0.129,0.548,0.229,0.786,0.323c0.57,0.224,0.645,0.448,0.287,0.942
	c-0.233,0.322-0.487,0.629-0.753,0.972c0.082,0.047,0.29,0.18,0.513,0.284c0.406,0.186,0.618,0.493,0.612,0.938
	c-0.006,0.551,0.162,1.105-0.101,1.652c-0.14,0.29,0.018,0.582,0.178,0.827c0.186,0.282,0.294,0.549,0.157,0.892
	c-0.056,0.14-0.07,0.331-0.023,0.471c0.222,0.661-0.016,1.26-0.232,1.853c-0.116,0.316-0.229,0.583,0.058,0.875
	c0.087,0.089,0.091,0.289,0.084,0.437c-0.011,0.235-0.122,0.48-0.085,0.702c0.094,0.563-0.003,1.103-0.104,1.646
	c-0.019,0.104-0.062,0.212-0.046,0.313c0.129,0.865-0.118,1.66-0.451,2.44c-0.05,0.116-0.064,0.262-0.046,0.39
	c0.049,0.361-0.085,0.665-0.225,0.988c-0.244,0.563-0.552,1.052-0.982,1.508c-0.561,0.597-1.011,1.299-1.485,1.973
	c-0.265,0.375-0.558,0.7-0.949,0.949c-0.265,0.171-0.457,0.456-0.726,0.615c-0.546,0.317-1.105,0.63-1.69,0.862
	c-0.763,0.301-1.555,0.529-2.338,0.775c-0.354,0.112-0.717,0.142-1.092,0.065c-0.595-0.119-1.206-0.177-1.793-0.327
	c-0.377-0.097-0.725-0.312-1.083-0.479c-0.234-0.108-0.466-0.224-0.694-0.345c-0.087-0.046-0.198-0.1-0.233-0.178
	c-0.145-0.323-0.441-0.442-0.723-0.59c-0.115-0.061-0.238-0.131-0.317-0.23c-0.312-0.389-0.298-0.856-0.192-1.297
	c0.102-0.42,0.158-0.923,0.814-1.005c0.258,0.449,0.518,0.931,0.807,1.393c0.294,0.472,0.62,0.925,0.891,1.327
	c0.445,0.143,0.829,0.245,1.195,0.39c0.428,0.167,0.88,0.169,1.314,0.259c0.81,0.166,1.572,0.021,2.302-0.228
	c1.032-0.353,2-0.853,2.696-1.752c0.143-0.184,0.338-0.355,0.547-0.45c0.585-0.271,0.873-0.756,1.066-1.325
	c0.067-0.202,0.109-0.414,0.194-0.606c0.202-0.453,0.423-0.898,0.697-1.473c-0.178-0.405,0.059-0.936,0.139-1.479
	c0.046-0.314,0.153-0.634,0.127-0.94c-0.06-0.682,0.097-1.319,0.296-1.952c0.105-0.336,0.115-0.643,0.057-1.004
	c-0.132-0.835-0.165-1.688-0.216-2.536c-0.012-0.177,0.071-0.358,0.099-0.54C98.075,107.104,98.086,106.928,98.118,106.606z"/>
<path fill-rule="evenodd" clip-rule="evenodd" d="M39.314,98.284c0.311-0.517,0.666-0.471,1.075-0.297
	c0.737,0.313,1.462,0.619,1.843,1.405c0.146,0.3,0.433,0.521,0.756,0.527c0.411,0.007,0.548,0.257,0.699,0.548
	c0.322,0.618,0.5,1.443,0.552,2.645c-0.163,0.247-0.333,0.506-0.528,0.804c0.533,0.521,0.479,1.136,0.224,1.749
	c-0.285,0.685-0.581,1.368-0.934,2.021c-0.364,0.669-0.946,1.145-1.625,1.486c-0.735,0.368-1.489,0.7-2.222,1.075
	c-0.318,0.161-0.64,0.251-0.991,0.242c-0.669-0.021-1.313,0.174-1.968,0.237c-0.894,0.087-1.801,0.042-2.703,0.032
	c-0.262-0.003-0.522-0.079-0.784-0.119c-0.079-0.011-0.171,0.013-0.236-0.021c-0.958-0.493-2.036-0.741-2.893-1.434
	c-0.097-0.077-0.183-0.193-0.226-0.311c-0.097-0.259-0.272-0.431-0.476-0.612c-0.594-0.524-0.7-1.29-0.303-2.029
	c-0.538-0.25-0.51-0.744-0.459-1.22c0.137-1.296,0.665-2.45,1.373-3.526c0.126-0.191,0.352-0.319,0.521-0.487
	c0.146-0.146,0.331-0.284,0.406-0.466c0.181-0.43,0.521-0.661,0.909-0.852c0.549-0.27,1.1-0.53,1.555-0.957
	c0.111-0.104,0.27-0.168,0.417-0.222c0.621-0.232,1.243-0.459,1.869-0.678c1.081-0.379,2.199-0.323,3.314-0.259
	c0.152,0.01,0.307,0.162,0.439,0.271C39.035,97.936,39.124,98.065,39.314,98.284z M41.405,101.112
	c-0.317,0.003-0.508-0.263-0.706-0.559c-0.413-0.623-0.868-1.204-1.658-1.403c-0.152-0.038-0.307-0.2-0.391-0.346
	c-0.161-0.279-0.375-0.385-0.662-0.272c-0.213,0.083-0.39,0.07-0.609,0.014c-0.936-0.245-1.816,0.146-2.7,0.334
	c-0.435,0.092-0.827,0.46-1.202,0.75c-0.608,0.474-1.19,0.98-1.775,1.483c-0.116,0.1-0.223,0.23-0.288,0.367
	c-0.27,0.573-0.534,1.149-0.773,1.734c-0.162,0.397-0.232,0.84-0.659,1.07c0.213,0.276,0.385,0.498,0.581,0.755
	c-0.193,0.169-0.352,0.301-0.5,0.443c-0.025,0.023-0.003,0.096-0.003,0.197c0.129-0.014,0.248-0.026,0.333-0.036
	c0.257,0.532,0.5,1.056,0.763,1.57c0.12,0.237,0.332,0.44,0.398,0.687c0.061,0.228-0.017,0.491-0.035,0.744
	c0.116,0.036,0.213,0.1,0.258,0.074c0.321-0.181,0.604-0.075,0.893,0.076c0.258,0.137,0.525,0.258,0.78,0.399
	c0.477,0.264,0.977,0.383,1.528,0.366c0.392-0.013,0.789,0.059,1.18,0.116c0.916,0.137,1.81,0.054,2.655-0.313
	c0.531-0.231,1.031-0.535,1.527-0.838c0.174-0.105,0.323-0.281,0.433-0.456c0.451-0.714,0.881-1.44,1.328-2.174
	c-0.229-0.513-0.22-0.511-0.138-1.106c0.101-0.734,0.127-1.457-0.144-2.178C41.646,102.148,41.551,101.653,41.405,101.112z"/>
<path fill-rule="evenodd" clip-rule="evenodd" d="M154.115,99.991c0.616,0.911,0.849,1.772,0.873,3.168
	c-0.18,0.246-0.348,0.478-0.538,0.738c0.593,0.61,0.474,1.264,0.183,1.924c-0.213,0.486-0.434,0.969-0.649,1.454
	c-0.384,0.864-1.025,1.473-1.866,1.884c-0.478,0.232-0.97,0.438-1.432,0.698c-0.778,0.439-1.583,0.742-2.496,0.655
	c-0.104-0.011-0.215,0-0.315,0.029c-1.492,0.422-2.995,0.316-4.501,0.095c-0.053-0.008-0.114,0.005-0.158-0.019
	c-0.925-0.498-1.988-0.714-2.828-1.386c-0.021-0.016-0.062-0.019-0.068-0.037c-0.242-0.622-0.888-0.956-1.125-1.58
	c-0.179-0.469-0.267-0.93,0.163-1.362c-0.407-0.267-0.532-0.614-0.506-1.086c0.049-0.871,0.36-1.654,0.689-2.435
	c0.153-0.366,0.322-0.745,0.568-1.048c0.512-0.628,1.062-1.226,1.634-1.798c0.197-0.197,0.51-0.276,0.767-0.416
	c0.21-0.113,0.432-0.212,0.619-0.355c1.284-0.981,2.767-1.419,4.345-1.562c0.633-0.058,1.275-0.009,1.916-0.009
	c0.205,0.226,0.394,0.435,0.599,0.659c0.233-0.132,0.426-0.323,0.628-0.334c0.25-0.014,0.53,0.079,0.759,0.199
	c0.627,0.331,1.299,0.6,1.624,1.329C153.201,99.858,153.683,99.944,154.115,99.991z M141.107,105.631
	c0.338,0.653,0.612,1.255,0.953,1.817c0.217,0.358,0.379,0.683,0.187,1.094c-0.013,0.026,0.048,0.087,0.074,0.13
	c0.817-0.016,0.817-0.017,1.689,0.419c0.047,0.023,0.091,0.053,0.138,0.079c0.497,0.287,1.024,0.407,1.603,0.392
	c0.392-0.011,0.786,0.071,1.18,0.119c1.139,0.135,2.226,0.032,3.195-0.654c0.13-0.094,0.256-0.233,0.399-0.258
	c0.764-0.135,1.033-0.764,1.384-1.324c0.252-0.401,0.531-0.785,0.793-1.181c0.07-0.108,0.12-0.231,0.186-0.355
	c-0.259-0.385-0.301-0.774-0.19-1.221c0.146-0.587,0.161-1.177-0.062-1.776c-0.209-0.565-0.303-1.17-0.427-1.678
	c-0.259-0.215-0.512-0.357-0.669-0.569c-0.477-0.642-0.92-1.295-1.762-1.522c-0.169-0.046-0.301-0.267-0.426-0.425
	c-0.149-0.19-0.337-0.294-0.555-0.195c-0.291,0.132-0.552,0.04-0.841,0.012c-0.602-0.06-1.215-0.112-1.794,0.203
	c-0.18,0.098-0.439,0.049-0.703,0.07c-0.365,0.24-0.807,0.487-1.2,0.795c-0.607,0.474-1.186,0.985-1.771,1.488
	c-0.119,0.102-0.245,0.217-0.311,0.354c-0.295,0.619-0.633,1.23-0.827,1.884c-0.118,0.396-0.267,0.716-0.651,0.965
	c0.224,0.261,0.405,0.471,0.612,0.709c-0.189,0.202-0.361,0.384-0.591,0.629C140.922,105.631,141.038,105.631,141.107,105.631z"/>
<path fill-rule="evenodd" clip-rule="evenodd" d="M175.931,102.458c-0.223,0.562-0.389,0.978-0.57,1.434
	c0.375,0.198,0.52,0.578,0.569,1.015c0.042,0.368,0.081,0.73,0.397,1.002c0.075,0.065,0.053,0.244,0.082,0.368
	c0.023,0.1,0.04,0.273,0.085,0.282c0.429,0.084,0.425,0.481,0.598,0.756c0.107,0.171,0.269,0.363,0.448,0.425
	c0.366,0.128,0.677,0.271,0.794,0.674c0.013,0.045,0.06,0.095,0.104,0.113c0.761,0.332,1.503,0.707,2.283,0.988
	c0.188,0.068,0.427,0.047,0.632,0.013c0.99-0.166,2.006-0.258,2.958-0.553c0.929-0.288,1.814-0.759,2.409-1.605
	c0.077-0.109,0.153-0.22,0.239-0.32c0.325-0.382,0.384-0.388,0.952-0.113c0.05,0.468-0.162,0.854-0.401,1.241
	c-0.222,0.362-0.413,0.74-0.606,1.09c-0.216,0.027-0.461-0.014-0.6,0.088c-0.767,0.561-1.697,0.565-2.557,0.808
	c-0.05,0.014-0.107,0.015-0.158,0.008c-0.562-0.091-1.037,0.404-1.625,0.219c-0.549-0.174-1.102,0.014-1.654,0.057
	c-0.851,0.065-1.692,0.01-2.479-0.382c-0.024-0.011-0.048-0.025-0.074-0.029c-1.037-0.114-1.729-0.868-2.551-1.382
	c-0.169-0.107-0.287-0.303-0.411-0.471c-0.235-0.319-0.457-0.646-0.737-1.046c0.065-0.208,0.078-0.485-0.066-0.799
	c-0.721-1.564-0.466-3.032,0.528-4.4c0.063-0.086,0.159-0.155,0.197-0.25c0.494-1.206,1.533-1.852,2.565-2.506
	c0.112-0.07,0.233-0.129,0.339-0.209c0.745-0.566,1.545-1.006,2.48-1.192c0.774-0.155,1.535-0.382,2.309-0.546
	c0.38-0.081,0.741,0.013,1.017,0.323c0.122,0.139,0.246,0.276,0.388,0.436c0.163-0.067,0.327-0.135,0.493-0.204
	c1.414,1.099,2.893,2.15,3.167,4.156c-0.78,0.056-1.52,0.108-2.341,0.167c-0.04-0.027-0.147-0.103-0.255-0.175
	c-0.788-0.534-0.788-0.534-1.576,0.127C180.824,101.645,178.353,102.037,175.931,102.458z M184.397,100.774
	c0.015-0.24,0.067-0.384,0.022-0.484c-0.365-0.824-1.204-1.116-1.855-1.62c-0.017-0.014-0.052-0.007-0.078-0.006
	c-0.811,0.014-1.646-0.189-2.396,0.318c-0.125,0.084-0.298,0.11-0.453,0.14c-1.012,0.186-1.856,0.65-2.545,1.477
	c0.552,0.262,1.068,0.506,1.625,0.771c0.135-0.163,0.273-0.353,0.436-0.519c0.151-0.154,0.321-0.249,0.566-0.157
	c0.566,0.211,1.134,0.116,1.701-0.037c0.139-0.038,0.365-0.048,0.441,0.032c0.3,0.317,0.629,0.23,0.96,0.129
	C183.307,100.668,183.79,100.56,184.397,100.774z"/>
<path fill-rule="evenodd" clip-rule="evenodd" d="M165.472,98.672c-0.228,0.255-0.477,0.356-0.798,0.335
	c-0.415-0.027-0.833-0.01-1.249-0.012c-0.053,0-0.119-0.02-0.158,0.005c-0.861,0.537-1.931,0.858-2.156,2.071
	c0.115,0.355,0.399,0.533,0.723,0.682c0.447,0.205,0.957,0.357,0.947,0.973c0.108,0.008,0.176,0.034,0.203,0.012
	c0.411-0.331,0.873-0.434,1.396-0.402c0.284,0.018,0.573-0.085,0.861-0.126c0.878-0.119,1.735,0.158,2.607,0.146
	c0.074-0.002,0.155,0.035,0.222,0.076c0.477,0.286,0.957,0.572,1.425,0.875c0.394,0.253,0.639,0.601,0.728,1.084
	c0.108,0.598,0.352,1.172,0.283,1.797c-0.015,0.132-0.007,0.268-0.028,0.397c-0.122,0.776-0.251,0.909-1.039,1.085
	c-0.142,0.765-0.712,1.27-1.189,1.832c-0.05,0.06-0.117,0.131-0.186,0.144c-0.994,0.18-1.784,0.918-2.815,1.015
	c-0.391,0.035-0.755,0.192-1.171,0.064c-0.2-0.062-0.46,0.046-0.688,0.097c-1.136,0.253-2.206,0.053-3.216-0.489
	c-0.373-0.2-0.72-0.449-1.073-0.686c-0.554-0.371-0.928-0.864-1.037-1.563c0.349-0.506,0.869-0.837,1.354-1.198
	c0.237-0.177,0.394-0.082,0.592,0.169c0.305,0.388,0.121,0.81,0.122,1.263c0.77,0.523,1.478,1.18,2.4,1.468
	c0.398,0.126,0.84,0.223,1.247,0.182c0.975-0.094,1.931-0.304,2.815-0.766c0.938-0.491,1.854-2.466,1.504-3.461
	c-0.182-0.514-0.55-0.962-0.861-1.488c-0.43,0.258-0.854,0.136-1.297,0.072c-0.405-0.058-0.834,0.035-1.253,0.062
	c-0.167-0.195-0.319-0.374-0.473-0.554c-0.532,0.518-1.194,0.701-1.843,0.549c-0.783-0.182-1.588-0.319-2.338-0.651
	c-0.899-0.398-1.215-1.327-0.883-2.029c0.191-0.405,0.347-0.857,0.641-1.176c1.441-1.563,3.241-2.559,5.288-3.088
	c0.362-0.095,0.788,0,1.174,0.068c0.571,0.102,1.112,0.256,1.722,0.097c0.351-0.092,0.785,0.047,1.161,0.156
	c0.3,0.087,0.342,0.462,0.073,0.632c-0.56,0.353-1.118,0.757-1.736,0.949c-0.445,0.139-0.996,0.011-1.48-0.09
	C165.809,99.21,165.68,98.914,165.472,98.672z"/>
</svg>
