<?xml version="1.0" encoding="utf-8"?>
<!-- Generator: Adobe Illustrator 16.0.0, SVG Export Plug-In . SVG Version: 6.00 Build 0)  -->
<!DOCTYPE svg PUBLIC "-//W3C//DTD SVG 1.1//EN" "http://www.w3.org/Graphics/SVG/1.1/DTD/svg11.dtd">
<svg version="1.1" id="Layer_1" xmlns="http://www.w3.org/2000/svg" xmlns:xlink="http://www.w3.org/1999/xlink" x="0px" y="0px"
	 width="200px" height="200px" viewBox="0 0 200 200" enable-background="new 0 0 200 200" xml:space="preserve">
<circle fill="#FFB492" cx="99.576" cy="99.999" r="95.915"/>
<g>
	<g>
		<path d="M43.42,84.77c-1.972,0-3.859,0.458-5.594,1.351c-0.09,0.044-0.179,0.088-0.259,0.127
			c-4.217,2.047-6.942,6.386-6.942,11.061c0,3.28,1.279,6.365,3.601,8.686c2.319,2.317,5.401,3.597,8.681,3.597
			c1.897,0,3.715-0.422,5.395-1.25c0.25-0.117,0.483-0.234,0.692-0.346c4.14-2.115,6.71-6.31,6.71-10.944
			C55.705,90.279,50.195,84.77,43.42,84.77z M42.907,87.029c5.671,0,10.28,4.613,10.28,10.279c0,3.846-2.179,7.483-5.419,9.054
			c-1.371,0.645-2.831,0.969-4.347,0.969c-5.666,0-10.277-4.609-10.277-10.28c0-3.792,2.085-7.268,5.439-9.062
			C39.806,87.353,41.265,87.029,42.907,87.029z"/>
		<path d="M155.427,84.77c-1.977,0-3.858,0.458-5.598,1.351c-0.087,0.044-0.181,0.088-0.254,0.127
			c-4.22,2.047-6.944,6.386-6.944,11.061c0,3.28,1.276,6.365,3.597,8.686c2.319,2.317,5.405,3.597,8.684,3.597
			c1.897,0,3.716-0.422,5.397-1.25c0.244-0.117,0.481-0.234,0.69-0.346c4.138-2.115,6.706-6.31,6.706-10.944
			C167.705,90.279,162.198,84.77,155.427,84.77z M154.911,87.029c5.671,0,10.278,4.613,10.278,10.279
			c0,3.846-2.177,7.483-5.417,9.054c-1.367,0.645-2.833,0.969-4.346,0.969c-5.668,0-10.279-4.609-10.279-10.28
			c0-3.792,2.087-7.268,5.438-9.062C151.813,87.353,153.265,87.029,154.911,87.029z"/>
		<path d="M22.617,85.096h-6.53v24.17h0.005l2.514-0.369V98.541h3.5c0.506,0,1.017-0.062,1.519-0.183l0.011,0.007l0.276-0.077
			c0.491-0.134,1.161-0.316,2.132-0.967c1.956-1.194,3.168-3.354,3.168-5.631C29.212,88.055,26.255,85.096,22.617,85.096z
			 M25.035,95.474c-0.404,0.323-0.83,0.535-1.382,0.688c-0.339,0.078-0.688,0.122-1.036,0.122h-4.012v-8.925h3.5
			c2.531,0,4.588,2.058,4.588,4.588C26.693,93.311,26.085,94.597,25.035,95.474z"/>
		<path d="M176.713,85.096h-6.531v24.17h0.008l2.513-0.369V98.541h3.493c0.514,0,1.024-0.062,1.524-0.183l0.008,0.007l0.282-0.077
			c0.491-0.134,1.158-0.316,2.128-0.967c1.956-1.194,3.167-3.354,3.167-5.631C183.305,88.055,180.351,85.096,176.713,85.096z
			 M179.127,95.474c-0.4,0.323-0.827,0.535-1.38,0.688c-0.339,0.078-0.687,0.122-1.034,0.122h-4.011v-8.925h3.493
			c2.533,0,4.597,2.058,4.597,4.588C180.792,93.311,180.182,94.597,179.127,95.474z"/>
		<path d="M99.114,85.096h-6.526v24.17h0.004l2.512-0.369V98.541h3.499c0.508,0,1.015-0.062,1.523-0.183l0.004,0.007l0.282-0.077
			c0.492-0.134,1.162-0.316,2.133-0.967c1.955-1.194,3.167-3.354,3.167-5.631C105.71,88.055,102.752,85.096,99.114,85.096z
			 M101.532,95.474c-0.405,0.323-0.828,0.535-1.384,0.688c-0.34,0.078-0.687,0.122-1.035,0.122h-4.011v-8.925h3.499
			c2.532,0,4.592,2.058,4.592,4.588C103.193,93.311,102.587,94.597,101.532,95.474z"/>
		<path d="M64.709,85.096h-6.532v24.17h0.006l2.513-0.369V98.541h3.5c0.506,0,1.017-0.062,1.52-0.183l0.006,0.007l0.28-0.077
			c0.49-0.134,1.167-0.316,2.133-0.967c1.955-1.194,3.166-3.354,3.166-5.631C71.301,88.055,68.346,85.096,64.709,85.096z
			 M67.124,95.474c-0.402,0.323-0.828,0.535-1.382,0.688c-0.339,0.078-0.685,0.122-1.032,0.122h-4.013v-8.925h3.5
			c2.53,0,4.588,2.058,4.588,4.588C68.785,93.311,68.18,94.597,67.124,95.474z"/>
		<path d="M86.973,85.096v16.877c0,1.5-0.585,2.911-1.644,3.97c-0.353,0.353-0.748,0.655-1.182,0.904
			c-0.718,0.319-1.485,0.483-2.273,0.483c-3.095,0-5.615-2.518-5.615-5.615v-16.62h-0.002l-2.514,0.369v16.509
			c0,4.2,3.417,7.617,7.618,7.617c1.271,0,2.525-0.319,3.628-0.917c0.048-0.025,0.093-0.049,0.131-0.069
			c2.654-1.258,4.374-3.961,4.374-6.889v-16.62H86.973z"/>
		<path d="M115.179,95.805c-4.326-1.548-4.828-3.334-4.828-4.543c0-1.196,0.466-2.32,1.312-3.167
			c0.286-0.262,0.953-0.866,2.054-1.021l0.05-0.008c0.053-0.007,0.103-0.012,0.154-0.016c0.104-0.009,0.202-0.014,0.288-0.017h0.118
			c1.816,0,3.457,1.005,4.275,2.623l0.104,0.2h2.729l-0.163-0.483c-0.929-2.714-3.458-4.549-6.314-4.599l-0.118-0.003
			c-1.08,0-2.144,0.268-3.077,0.774c-0.069,0.035-0.14,0.071-0.205,0.103c-2.295,1.206-3.723,3.454-3.723,5.871
			c0,4.229,4.632,5.887,6.154,6.431c4.594,1.646,5.126,3.554,5.126,4.85c0,1.358-0.584,2.66-1.599,3.568
			c-0.467,0.403-0.959,0.671-1.49,0.815c-0.204,0.052-0.422,0.091-0.639,0.117l-0.073,0.008c-0.024,0.001-0.058,0.005-0.074,0.007
			c-0.151,0.01-0.282,0.017-0.4,0.017c-2.562,0-4.665-2.004-4.784-4.56l-0.027-0.517l-2.497,0.363v0.181
			c0,3.743,3.049,6.792,6.793,6.792c0.577,0,1.145-0.074,1.702-0.219l0.004,0.017l0.385-0.127c0.635-0.213,1.582-0.573,2.471-1.265
			l0.025-0.018c0.262-0.198,0.508-0.41,0.729-0.633c1.288-1.285,1.991-2.99,1.991-4.806
			C121.631,98.115,116.775,96.376,115.179,95.805z"/>
		<polygon points="137.639,85.096 137.639,96.259 126.923,96.259 126.923,85.096 124.405,85.096 124.405,109.267 126.923,108.895 
			126.923,98.521 137.639,98.521 137.639,109.267 140.155,109.267 140.155,85.096 		"/>
	</g>
	<g>
		<path fill="#1F191A" d="M59.641,122.199c0,0.482-0.128,0.961-0.384,1.434c-0.256,0.474-0.613,0.849-1.07,1.125
			c-0.457,0.277-0.901,0.416-1.333,0.416c-0.441,0-0.801-0.141-1.079-0.423c-0.279-0.281-0.418-0.646-0.418-1.094
			c0-0.473,0.136-0.948,0.408-1.425c0.272-0.476,0.636-0.853,1.091-1.13c0.456-0.276,0.896-0.415,1.321-0.415
			c0.425,0,0.775,0.141,1.05,0.42C59.503,121.388,59.641,121.752,59.641,122.199z M58.839,121.866c0-0.3-0.073-0.529-0.22-0.688
			s-0.335-0.239-0.567-0.239c-0.474,0-0.909,0.339-1.307,1.017c-0.397,0.678-0.596,1.352-0.596,2.021
			c0,0.307,0.077,0.542,0.232,0.708c0.154,0.166,0.349,0.248,0.584,0.248c0.454,0,0.88-0.337,1.277-1.011
			C58.641,123.246,58.839,122.562,58.839,121.866z"/>
		<path fill="#1F191A" d="M61.024,120.958l1.666-0.271l-0.695,2.347c0.563-0.962,1.075-1.635,1.536-2.019
			c0.261-0.219,0.473-0.328,0.637-0.328c0.106,0,0.19,0.031,0.251,0.095c0.061,0.062,0.092,0.153,0.092,0.272
			c0,0.213-0.055,0.415-0.164,0.608c-0.077,0.145-0.188,0.217-0.333,0.217c-0.074,0-0.138-0.023-0.191-0.072
			c-0.053-0.048-0.086-0.122-0.099-0.222c-0.006-0.062-0.021-0.102-0.043-0.121c-0.026-0.025-0.056-0.038-0.092-0.038
			c-0.055,0-0.106,0.013-0.154,0.038c-0.084,0.045-0.211,0.171-0.381,0.377c-0.268,0.315-0.557,0.725-0.869,1.227
			c-0.135,0.212-0.251,0.452-0.348,0.72c-0.135,0.366-0.213,0.587-0.232,0.661l-0.155,0.608H60.71l0.894-2.999
			c0.103-0.348,0.154-0.595,0.154-0.743c0-0.058-0.024-0.106-0.072-0.145c-0.064-0.052-0.15-0.078-0.256-0.078
			c-0.068,0-0.191,0.015-0.372,0.044L61.024,120.958z"/>
		<path fill="#1F191A" d="M69.636,120.987l-0.14,0.502h-0.807c0.062,0.174,0.092,0.336,0.092,0.487c0,0.425-0.18,0.804-0.541,1.135
			c-0.364,0.332-0.863,0.516-1.497,0.551c-0.341,0.104-0.597,0.226-0.768,0.367c-0.064,0.052-0.097,0.104-0.097,0.159
			c0,0.064,0.029,0.123,0.087,0.176c0.058,0.054,0.205,0.107,0.439,0.162l0.937,0.218c0.519,0.122,0.861,0.267,1.029,0.435
			c0.164,0.17,0.246,0.366,0.246,0.589c0,0.264-0.097,0.505-0.292,0.725c-0.195,0.219-0.48,0.39-0.855,0.514
			s-0.789,0.187-1.243,0.187c-0.399,0-0.763-0.048-1.091-0.143c-0.328-0.096-0.563-0.224-0.705-0.384
			c-0.142-0.161-0.212-0.327-0.212-0.498c0-0.139,0.046-0.282,0.138-0.432c0.092-0.15,0.207-0.273,0.345-0.37
			c0.087-0.061,0.333-0.206,0.739-0.435c-0.148-0.115-0.222-0.242-0.222-0.381c0-0.129,0.065-0.266,0.196-0.41
			c0.13-0.146,0.406-0.305,0.828-0.479c-0.354-0.067-0.635-0.216-0.843-0.444s-0.312-0.482-0.312-0.763
			c0-0.457,0.201-0.866,0.601-1.227c0.401-0.36,0.935-0.541,1.601-0.541c0.241,0,0.439,0.024,0.594,0.072
			c0.154,0.049,0.304,0.124,0.449,0.228H69.636z M65.647,125.058c-0.261,0.119-0.458,0.272-0.591,0.459
			c-0.134,0.187-0.201,0.37-0.201,0.55c0,0.213,0.097,0.389,0.29,0.526c0.277,0.2,0.682,0.3,1.217,0.3
			c0.46,0,0.854-0.078,1.181-0.234s0.49-0.358,0.49-0.605c0-0.126-0.061-0.245-0.181-0.357c-0.121-0.113-0.355-0.205-0.703-0.275
			C66.959,125.381,66.458,125.261,65.647,125.058z M67.96,121.745c0-0.258-0.072-0.46-0.215-0.608s-0.331-0.222-0.562-0.222
			c-0.364,0-0.664,0.183-0.9,0.548c-0.237,0.365-0.355,0.746-0.355,1.142c0,0.248,0.076,0.451,0.227,0.608
			c0.151,0.158,0.334,0.236,0.55,0.236c0.17,0,0.335-0.046,0.495-0.14c0.159-0.094,0.293-0.222,0.403-0.387
			c0.109-0.164,0.196-0.373,0.261-0.627C67.928,122.041,67.96,121.857,67.96,121.745z"/>
		<path fill="#1F191A" d="M74.562,120.688l-0.941,3.274l-0.106,0.439c-0.01,0.041-0.015,0.077-0.015,0.105
			c0,0.052,0.016,0.097,0.048,0.136c0.025,0.028,0.058,0.043,0.097,0.043c0.042,0,0.096-0.025,0.164-0.077
			c0.125-0.093,0.293-0.286,0.502-0.579l0.164,0.115c-0.222,0.335-0.451,0.591-0.686,0.766c-0.235,0.176-0.452,0.264-0.652,0.264
			c-0.138,0-0.242-0.035-0.312-0.104c-0.069-0.068-0.104-0.169-0.104-0.302c0-0.157,0.035-0.365,0.106-0.623l0.102-0.361
			c-0.422,0.55-0.81,0.935-1.164,1.153c-0.254,0.158-0.504,0.237-0.749,0.237c-0.235,0-0.438-0.098-0.608-0.292
			c-0.171-0.195-0.256-0.463-0.256-0.805c0-0.512,0.153-1.052,0.461-1.62c0.308-0.567,0.698-1.022,1.171-1.364
			c0.37-0.27,0.72-0.405,1.048-0.405c0.196,0,0.36,0.052,0.49,0.154c0.13,0.104,0.229,0.274,0.297,0.513l0.174-0.551L74.562,120.688
			z M72.844,120.938c-0.206,0-0.425,0.097-0.657,0.29c-0.328,0.273-0.621,0.68-0.876,1.217c-0.256,0.538-0.384,1.023-0.384,1.458
			c0,0.219,0.055,0.393,0.164,0.52s0.235,0.19,0.377,0.19c0.351,0,0.732-0.259,1.144-0.777c0.551-0.688,0.826-1.396,0.826-2.12
			c0-0.273-0.053-0.472-0.159-0.594S73.027,120.938,72.844,120.938z"/>
		<path fill="#1F191A" d="M77.544,120.688l-0.642,2.197c0.602-0.898,1.063-1.489,1.383-1.772s0.628-0.425,0.925-0.425
			c0.161,0,0.293,0.054,0.398,0.159c0.104,0.106,0.157,0.245,0.157,0.416c0,0.192-0.047,0.45-0.14,0.772l-0.589,2.032
			c-0.068,0.235-0.102,0.379-0.102,0.43c0,0.046,0.013,0.083,0.039,0.114c0.026,0.03,0.053,0.046,0.082,0.046
			c0.039,0,0.085-0.021,0.14-0.063c0.17-0.135,0.357-0.341,0.56-0.618l0.15,0.092c-0.299,0.429-0.583,0.734-0.85,0.918
			c-0.187,0.125-0.354,0.188-0.502,0.188c-0.119,0-0.214-0.036-0.285-0.109c-0.071-0.072-0.106-0.169-0.106-0.292
			c0-0.154,0.055-0.42,0.164-0.797l0.56-1.94c0.071-0.242,0.106-0.43,0.106-0.565c0-0.064-0.021-0.116-0.063-0.157
			c-0.042-0.04-0.093-0.06-0.154-0.06c-0.09,0-0.198,0.038-0.324,0.115c-0.238,0.146-0.486,0.384-0.744,0.718
			c-0.257,0.333-0.529,0.759-0.816,1.276c-0.151,0.274-0.277,0.573-0.376,0.898l-0.242,0.797H75.55l0.879-3.022
			c0.103-0.364,0.154-0.583,0.154-0.657c0-0.07-0.028-0.133-0.084-0.186c-0.057-0.054-0.126-0.08-0.21-0.08
			c-0.039,0-0.106,0.007-0.203,0.02l-0.183,0.029l-0.029-0.174L77.544,120.688z"/>
		<path fill="#1F191A" d="M83.075,120.688l-0.956,3.385c-0.064,0.229-0.097,0.365-0.097,0.411c0,0.051,0.015,0.093,0.046,0.125
			c0.03,0.032,0.067,0.049,0.108,0.049c0.048,0,0.106-0.026,0.174-0.078c0.184-0.145,0.369-0.351,0.556-0.617l0.169,0.11
			c-0.219,0.335-0.477,0.617-0.772,0.846c-0.219,0.17-0.428,0.256-0.628,0.256c-0.132,0-0.24-0.04-0.324-0.118
			c-0.083-0.079-0.125-0.179-0.125-0.298c0-0.118,0.041-0.316,0.121-0.594l0.628-2.163c0.103-0.354,0.155-0.576,0.155-0.666
			c0-0.071-0.025-0.129-0.075-0.174s-0.118-0.068-0.205-0.068c-0.071,0-0.217,0.019-0.439,0.054v-0.188L83.075,120.688z
			 M83.012,118.771c0.135,0,0.25,0.047,0.343,0.141c0.094,0.093,0.14,0.207,0.14,0.343c0,0.132-0.047,0.245-0.143,0.34
			c-0.095,0.095-0.208,0.143-0.34,0.143s-0.246-0.048-0.34-0.143s-0.143-0.208-0.143-0.34c0-0.136,0.047-0.25,0.14-0.343
			C82.762,118.817,82.876,118.771,83.012,118.771z"/>
		<path fill="#1F191A" d="M87.862,124.005c-0.334,0.402-0.673,0.698-1.014,0.886c-0.341,0.188-0.702,0.283-1.082,0.283
			c-0.457,0-0.813-0.129-1.069-0.387s-0.384-0.604-0.384-1.038c0-0.492,0.138-0.977,0.413-1.453
			c0.275-0.477,0.646-0.864,1.111-1.161c0.465-0.298,0.921-0.447,1.369-0.447c0.351,0,0.613,0.073,0.787,0.22
			s0.261,0.326,0.261,0.538c0,0.2-0.061,0.371-0.183,0.513c-0.09,0.109-0.202,0.164-0.333,0.164c-0.1,0-0.183-0.032-0.249-0.097
			s-0.099-0.146-0.099-0.241c0-0.062,0.012-0.118,0.036-0.169c0.024-0.052,0.074-0.114,0.15-0.187s0.122-0.125,0.138-0.157
			c0.016-0.031,0.024-0.065,0.024-0.101c0-0.068-0.031-0.124-0.092-0.169c-0.093-0.064-0.225-0.097-0.396-0.097
			c-0.315,0-0.627,0.11-0.937,0.333c-0.309,0.222-0.573,0.537-0.792,0.946c-0.264,0.496-0.396,0.991-0.396,1.487
			c0,0.328,0.093,0.588,0.28,0.779c0.187,0.192,0.441,0.288,0.763,0.288c0.248,0,0.493-0.062,0.736-0.187s0.516-0.348,0.819-0.673
			L87.862,124.005z"/>
		<path fill="#1F191A" d="M96.533,120.688l-0.941,3.274l-0.106,0.439c-0.01,0.041-0.015,0.077-0.015,0.105
			c0,0.052,0.016,0.097,0.048,0.136c0.025,0.028,0.058,0.043,0.097,0.043c0.042,0,0.096-0.025,0.164-0.077
			c0.125-0.093,0.293-0.286,0.502-0.579l0.164,0.115c-0.222,0.335-0.451,0.591-0.686,0.766c-0.235,0.176-0.452,0.264-0.652,0.264
			c-0.138,0-0.242-0.035-0.312-0.104c-0.069-0.068-0.104-0.169-0.104-0.302c0-0.157,0.035-0.365,0.106-0.623l0.102-0.361
			c-0.422,0.55-0.81,0.935-1.164,1.153c-0.254,0.158-0.504,0.237-0.749,0.237c-0.235,0-0.438-0.098-0.608-0.292
			c-0.171-0.195-0.256-0.463-0.256-0.805c0-0.512,0.153-1.052,0.461-1.62c0.308-0.567,0.698-1.022,1.171-1.364
			c0.37-0.27,0.72-0.405,1.048-0.405c0.196,0,0.36,0.052,0.49,0.154c0.13,0.104,0.229,0.274,0.297,0.513l0.174-0.551L96.533,120.688
			z M94.814,120.938c-0.206,0-0.425,0.097-0.657,0.29c-0.328,0.273-0.621,0.68-0.876,1.217c-0.256,0.538-0.384,1.023-0.384,1.458
			c0,0.219,0.055,0.393,0.164,0.52s0.235,0.19,0.377,0.19c0.351,0,0.732-0.259,1.144-0.777c0.551-0.688,0.826-1.396,0.826-2.12
			c0-0.273-0.053-0.472-0.159-0.594S94.998,120.938,94.814,120.938z"/>
		<path fill="#1F191A" d="M102.484,120.987l-0.141,0.502h-0.806c0.061,0.174,0.092,0.336,0.092,0.487
			c0,0.425-0.181,0.804-0.541,1.135c-0.364,0.332-0.863,0.516-1.497,0.551c-0.341,0.104-0.597,0.226-0.768,0.367
			c-0.064,0.052-0.097,0.104-0.097,0.159c0,0.064,0.029,0.123,0.087,0.176c0.058,0.054,0.205,0.107,0.439,0.162l0.937,0.218
			c0.519,0.122,0.861,0.267,1.028,0.435c0.165,0.17,0.247,0.366,0.247,0.589c0,0.264-0.098,0.505-0.292,0.725
			c-0.195,0.219-0.48,0.39-0.855,0.514s-0.789,0.187-1.243,0.187c-0.399,0-0.763-0.048-1.091-0.143
			c-0.328-0.096-0.563-0.224-0.705-0.384c-0.142-0.161-0.212-0.327-0.212-0.498c0-0.139,0.046-0.282,0.138-0.432
			c0.092-0.15,0.207-0.273,0.345-0.37c0.087-0.061,0.333-0.206,0.739-0.435c-0.148-0.115-0.222-0.242-0.222-0.381
			c0-0.129,0.065-0.266,0.196-0.41c0.13-0.146,0.406-0.305,0.828-0.479c-0.354-0.067-0.635-0.216-0.843-0.444
			s-0.312-0.482-0.312-0.763c0-0.457,0.201-0.866,0.601-1.227c0.401-0.36,0.935-0.541,1.601-0.541c0.241,0,0.439,0.024,0.594,0.072
			c0.154,0.049,0.304,0.124,0.449,0.228H102.484z M98.496,125.058c-0.261,0.119-0.458,0.272-0.591,0.459
			c-0.134,0.187-0.201,0.37-0.201,0.55c0,0.213,0.097,0.389,0.29,0.526c0.277,0.2,0.682,0.3,1.217,0.3
			c0.46,0,0.854-0.078,1.181-0.234s0.49-0.358,0.49-0.605c0-0.126-0.061-0.245-0.181-0.357c-0.121-0.113-0.355-0.205-0.703-0.275
			C99.808,125.381,99.307,125.261,98.496,125.058z M100.809,121.745c0-0.258-0.072-0.46-0.215-0.608s-0.331-0.222-0.562-0.222
			c-0.364,0-0.664,0.183-0.9,0.548c-0.237,0.365-0.355,0.746-0.355,1.142c0,0.248,0.076,0.451,0.227,0.608
			c0.151,0.158,0.334,0.236,0.55,0.236c0.17,0,0.335-0.046,0.495-0.14c0.159-0.094,0.293-0.222,0.403-0.387
			c0.109-0.164,0.196-0.373,0.261-0.627C100.776,122.041,100.809,121.857,100.809,121.745z"/>
		<path fill="#1F191A" d="M103.287,120.958l1.666-0.271l-0.695,2.347c0.563-0.962,1.075-1.635,1.535-2.019
			c0.261-0.219,0.474-0.328,0.638-0.328c0.106,0,0.189,0.031,0.251,0.095c0.062,0.062,0.092,0.153,0.092,0.272
			c0,0.213-0.055,0.415-0.164,0.608c-0.077,0.145-0.188,0.217-0.333,0.217c-0.074,0-0.138-0.023-0.191-0.072
			c-0.053-0.048-0.086-0.122-0.099-0.222c-0.007-0.062-0.021-0.102-0.043-0.121c-0.026-0.025-0.057-0.038-0.092-0.038
			c-0.055,0-0.106,0.013-0.155,0.038c-0.083,0.045-0.211,0.171-0.381,0.377c-0.268,0.315-0.558,0.725-0.869,1.227
			c-0.136,0.212-0.251,0.452-0.348,0.72c-0.136,0.366-0.213,0.587-0.232,0.661l-0.154,0.608h-0.738l0.893-2.999
			c0.104-0.348,0.155-0.595,0.155-0.743c0-0.058-0.024-0.106-0.073-0.145c-0.064-0.052-0.149-0.078-0.256-0.078
			c-0.067,0-0.191,0.015-0.371,0.044L103.287,120.958z"/>
		<path fill="#1F191A" d="M109.389,120.688l-0.956,3.385c-0.064,0.229-0.097,0.365-0.097,0.411c0,0.051,0.016,0.093,0.046,0.125
			s0.066,0.049,0.108,0.049c0.049,0,0.106-0.026,0.174-0.078c0.184-0.145,0.369-0.351,0.556-0.617l0.169,0.11
			c-0.219,0.335-0.477,0.617-0.772,0.846c-0.219,0.17-0.429,0.256-0.628,0.256c-0.132,0-0.24-0.04-0.323-0.118
			c-0.084-0.079-0.126-0.179-0.126-0.298c0-0.118,0.04-0.316,0.121-0.594l0.628-2.163c0.103-0.354,0.154-0.576,0.154-0.666
			c0-0.071-0.025-0.129-0.075-0.174s-0.118-0.068-0.205-0.068c-0.071,0-0.218,0.019-0.439,0.054v-0.188L109.389,120.688z
			 M109.326,118.771c0.135,0,0.249,0.047,0.343,0.141c0.093,0.093,0.14,0.207,0.14,0.343c0,0.132-0.048,0.245-0.143,0.34
			s-0.208,0.143-0.34,0.143c-0.133,0-0.246-0.048-0.341-0.143s-0.143-0.208-0.143-0.34c0-0.136,0.047-0.25,0.141-0.343
			C109.076,118.817,109.19,118.771,109.326,118.771z"/>
		<path fill="#1F191A" d="M114.175,124.005c-0.335,0.402-0.673,0.698-1.014,0.886c-0.342,0.188-0.702,0.283-1.082,0.283
			c-0.457,0-0.813-0.129-1.069-0.387s-0.384-0.604-0.384-1.038c0-0.492,0.138-0.977,0.413-1.453c0.274-0.477,0.646-0.864,1.11-1.161
			c0.465-0.298,0.921-0.447,1.369-0.447c0.351,0,0.613,0.073,0.787,0.22s0.261,0.326,0.261,0.538c0,0.2-0.062,0.371-0.184,0.513
			c-0.091,0.109-0.201,0.164-0.333,0.164c-0.101,0-0.184-0.032-0.249-0.097c-0.066-0.064-0.099-0.146-0.099-0.241
			c0-0.062,0.012-0.118,0.036-0.169c0.023-0.052,0.073-0.114,0.149-0.187c0.075-0.072,0.121-0.125,0.138-0.157
			c0.016-0.031,0.024-0.065,0.024-0.101c0-0.068-0.031-0.124-0.092-0.169c-0.094-0.064-0.226-0.097-0.396-0.097
			c-0.315,0-0.628,0.11-0.937,0.333c-0.31,0.222-0.573,0.537-0.792,0.946c-0.264,0.496-0.396,0.991-0.396,1.487
			c0,0.328,0.093,0.588,0.279,0.779c0.188,0.192,0.441,0.288,0.764,0.288c0.247,0,0.493-0.062,0.736-0.187s0.516-0.348,0.818-0.673
			L114.175,124.005z"/>
		<path fill="#1F191A" d="M119.895,120.804l-0.841,2.878c-0.125,0.428-0.188,0.698-0.188,0.811c0,0.059,0.011,0.102,0.032,0.129
			c0.021,0.027,0.049,0.041,0.084,0.041c0.055,0,0.115-0.025,0.181-0.075c0.066-0.05,0.233-0.249,0.5-0.597l0.146,0.111
			c-0.255,0.402-0.516,0.698-0.782,0.889c-0.178,0.122-0.348,0.184-0.513,0.184c-0.125,0-0.224-0.036-0.294-0.106
			c-0.071-0.071-0.106-0.163-0.106-0.275c0-0.109,0.021-0.254,0.062-0.435c0.052-0.238,0.198-0.757,0.439-1.555
			c-0.547,0.898-1.005,1.518-1.373,1.859c-0.369,0.341-0.711,0.512-1.026,0.512c-0.148,0-0.273-0.052-0.377-0.155
			c-0.103-0.103-0.154-0.233-0.154-0.391c0-0.241,0.07-0.611,0.212-1.11l0.421-1.492c0.103-0.357,0.154-0.58,0.154-0.667
			c0-0.038-0.014-0.071-0.041-0.099s-0.058-0.041-0.09-0.041c-0.067,0-0.135,0.024-0.202,0.072
			c-0.068,0.049-0.221,0.228-0.459,0.536l-0.149-0.106c0.241-0.373,0.497-0.648,0.768-0.825c0.206-0.139,0.396-0.208,0.569-0.208
			c0.119,0,0.217,0.038,0.292,0.113c0.076,0.076,0.114,0.174,0.114,0.292c0,0.175-0.064,0.485-0.193,0.933l-0.454,1.56
			c-0.125,0.425-0.188,0.693-0.188,0.807c0,0.061,0.021,0.11,0.061,0.146c0.04,0.037,0.094,0.056,0.162,0.056
			c0.105,0,0.244-0.053,0.415-0.159s0.398-0.342,0.684-0.707c0.284-0.365,0.52-0.708,0.705-1.028c0.185-0.32,0.382-0.83,0.591-1.528
			l0.106-0.367H119.895z"/>
		<path fill="#1F191A" d="M123.619,118.191l-1.651,5.746c-0.08,0.286-0.12,0.462-0.12,0.526c0,0.048,0.015,0.089,0.046,0.12
			c0.03,0.032,0.068,0.049,0.113,0.049c0.061,0,0.127-0.027,0.197-0.082c0.168-0.132,0.344-0.337,0.526-0.613l0.146,0.149
			c-0.306,0.432-0.588,0.732-0.846,0.903c-0.189,0.122-0.37,0.184-0.54,0.184c-0.123,0-0.225-0.042-0.307-0.126
			s-0.123-0.18-0.123-0.29c0-0.115,0.051-0.354,0.154-0.714l1.309-4.529c0.106-0.37,0.159-0.583,0.159-0.638
			c0-0.077-0.03-0.141-0.092-0.19s-0.156-0.075-0.285-0.075c-0.074,0-0.187,0.012-0.338,0.034v-0.179L123.619,118.191z"/>
		<path fill="#1F191A" d="M126.49,119.49l-0.377,1.313h0.758l-0.082,0.304h-0.753l-0.831,2.85c-0.09,0.306-0.135,0.504-0.135,0.594
			c0,0.055,0.013,0.097,0.038,0.125c0.026,0.029,0.057,0.044,0.092,0.044c0.081,0,0.187-0.057,0.319-0.169
			c0.077-0.064,0.249-0.263,0.517-0.594l0.159,0.12c-0.296,0.432-0.576,0.736-0.84,0.913c-0.181,0.122-0.362,0.184-0.546,0.184
			c-0.142,0-0.258-0.045-0.348-0.133c-0.091-0.089-0.136-0.202-0.136-0.341c0-0.174,0.052-0.439,0.155-0.797l0.806-2.796h-0.729
			l0.048-0.188c0.354-0.096,0.648-0.24,0.884-0.432s0.497-0.524,0.787-0.997H126.49z"/>
		<path fill="#1F191A" d="M131.817,120.804l-0.841,2.878c-0.125,0.428-0.188,0.698-0.188,0.811c0,0.059,0.011,0.102,0.032,0.129
			c0.021,0.027,0.049,0.041,0.084,0.041c0.055,0,0.115-0.025,0.181-0.075c0.066-0.05,0.233-0.249,0.5-0.597l0.146,0.111
			c-0.255,0.402-0.516,0.698-0.782,0.889c-0.178,0.122-0.348,0.184-0.513,0.184c-0.125,0-0.224-0.036-0.294-0.106
			c-0.071-0.071-0.106-0.163-0.106-0.275c0-0.109,0.021-0.254,0.062-0.435c0.052-0.238,0.198-0.757,0.439-1.555
			c-0.547,0.898-1.005,1.518-1.373,1.859c-0.369,0.341-0.711,0.512-1.026,0.512c-0.148,0-0.273-0.052-0.377-0.155
			c-0.103-0.103-0.154-0.233-0.154-0.391c0-0.241,0.07-0.611,0.212-1.11l0.421-1.492c0.103-0.357,0.154-0.58,0.154-0.667
			c0-0.038-0.014-0.071-0.041-0.099s-0.058-0.041-0.09-0.041c-0.067,0-0.135,0.024-0.202,0.072
			c-0.068,0.049-0.221,0.228-0.459,0.536l-0.149-0.106c0.241-0.373,0.497-0.648,0.768-0.825c0.206-0.139,0.396-0.208,0.569-0.208
			c0.119,0,0.217,0.038,0.292,0.113c0.076,0.076,0.114,0.174,0.114,0.292c0,0.175-0.064,0.485-0.193,0.933l-0.454,1.56
			c-0.125,0.425-0.188,0.693-0.188,0.807c0,0.061,0.021,0.11,0.061,0.146c0.04,0.037,0.094,0.056,0.162,0.056
			c0.105,0,0.244-0.053,0.415-0.159s0.398-0.342,0.684-0.707c0.284-0.365,0.52-0.708,0.705-1.028c0.185-0.32,0.382-0.83,0.591-1.528
			l0.106-0.367H131.817z"/>
		<path fill="#1F191A" d="M133.118,120.958l1.666-0.271l-0.695,2.347c0.563-0.962,1.075-1.635,1.535-2.019
			c0.261-0.219,0.474-0.328,0.638-0.328c0.106,0,0.189,0.031,0.251,0.095c0.062,0.062,0.092,0.153,0.092,0.272
			c0,0.213-0.055,0.415-0.164,0.608c-0.077,0.145-0.188,0.217-0.333,0.217c-0.074,0-0.138-0.023-0.191-0.072
			c-0.053-0.048-0.086-0.122-0.099-0.222c-0.007-0.062-0.021-0.102-0.043-0.121c-0.026-0.025-0.057-0.038-0.092-0.038
			c-0.055,0-0.106,0.013-0.155,0.038c-0.083,0.045-0.211,0.171-0.381,0.377c-0.268,0.315-0.558,0.725-0.869,1.227
			c-0.136,0.212-0.251,0.452-0.348,0.72c-0.136,0.366-0.213,0.587-0.232,0.661l-0.154,0.608h-0.738l0.893-2.999
			c0.104-0.348,0.155-0.595,0.155-0.743c0-0.058-0.024-0.106-0.073-0.145c-0.064-0.052-0.149-0.078-0.256-0.078
			c-0.067,0-0.191,0.015-0.371,0.044L133.118,120.958z"/>
		<path fill="#1F191A" d="M137.755,123.237c-0.022,0.161-0.033,0.295-0.033,0.4c0,0.287,0.102,0.53,0.304,0.731
			c0.203,0.201,0.449,0.302,0.739,0.302c0.231,0,0.454-0.047,0.669-0.142c0.214-0.096,0.531-0.306,0.953-0.631l0.102,0.141
			c-0.763,0.756-1.49,1.135-2.183,1.135c-0.47,0-0.824-0.148-1.062-0.444s-0.357-0.623-0.357-0.98c0-0.479,0.148-0.971,0.444-1.473
			c0.297-0.502,0.668-0.893,1.116-1.171c0.447-0.278,0.907-0.418,1.381-0.418c0.341,0,0.594,0.069,0.758,0.208
			s0.246,0.303,0.246,0.492c0,0.268-0.106,0.523-0.318,0.768c-0.28,0.319-0.692,0.576-1.236,0.772
			C138.916,123.061,138.409,123.163,137.755,123.237z M137.789,123.001c0.477-0.055,0.864-0.148,1.164-0.28
			c0.396-0.177,0.692-0.389,0.891-0.635c0.198-0.247,0.297-0.48,0.297-0.703c0-0.135-0.043-0.244-0.128-0.328
			s-0.207-0.126-0.364-0.126c-0.328,0-0.677,0.175-1.046,0.524C138.234,121.803,137.963,122.318,137.789,123.001z"/>
	</g>
</g>
</svg>
