<?xml version="1.0" encoding="utf-8"?>
<!-- Generator: Adobe Illustrator 16.0.0, SVG Export Plug-In . SVG Version: 6.00 Build 0)  -->
<!DOCTYPE svg PUBLIC "-//W3C//DTD SVG 1.1//EN" "http://www.w3.org/Graphics/SVG/1.1/DTD/svg11.dtd">
<svg version="1.1" id="Layer_1" xmlns="http://www.w3.org/2000/svg" xmlns:xlink="http://www.w3.org/1999/xlink" x="0px" y="0px"
	 width="200px" height="200px" viewBox="0 0 200 200" enable-background="new 0 0 200 200" xml:space="preserve">
<circle fill="#FFB492" cx="99.576" cy="99.999" r="95.915"/>
<path fill-rule="evenodd" clip-rule="evenodd" d="M55.735,85.983c1.098,0.327,2.2,0.637,3.288,0.989
	c0.35,0.112,0.675,0.316,0.991,0.51c0.785,0.481,1.219,1.117,1.183,2.115c-0.065,1.78-0.018,3.565-0.018,5.411
	c1.001,0,1.981,0,2.943,0c0,0.508,0,0.953,0,1.443c-0.94,0-1.906,0-2.889,0c-0.022,0.132-0.052,0.224-0.052,0.315
	c0.001,3.746-0.005,7.492,0.022,11.237c0.004,0.593,0.11,1.198,0.26,1.772c0.459,1.747,1.763,2.485,3.525,2.045
	c1.244-0.311,2.167-1.096,2.903-2.087c0.653-0.879,1.211-1.83,1.793-2.722c0.332,0.144,0.694,0.3,1.099,0.475
	c-1.344,2.601-2.886,5.043-6.02,5.86c-1.387,0.36-2.792,0.383-4.189,0.062c-2.378-0.546-3.741-2.32-3.756-4.937
	c-0.023-3.777-0.015-7.557-0.02-11.335c0-0.193,0-0.385,0-0.624c-1.558,0-3.085,0-4.666,0c0,8.771,0,17.552,0,26.379
	c-1.479,0-2.909,0-4.398,0c0-8.786,0-17.566,0-26.408c-1.036,0-2.015,0-3.03,0c0-0.502,0-0.945,0-1.446c0.985,0,1.965,0,3.017,0
	c0-0.489-0.025-0.923,0.005-1.354c0.071-0.999,0.058-2.021,0.278-2.99c0.588-2.578,2.551-4.254,5.219-4.61
	c0.158-0.021,0.313-0.068,0.469-0.103C54.373,85.983,55.054,85.983,55.735,85.983z M56.721,95.011
	c0.036-0.074,0.062-0.102,0.062-0.13c0.005-1.976,0.029-3.952,0.001-5.927c-0.009-0.674-0.371-1.193-1.005-1.488
	c-1.228-0.568-2.64-0.009-3.123,1.25c-0.104,0.271-0.212,0.554-0.232,0.838c-0.119,1.692-0.213,3.387-0.312,5.081
	c-0.006,0.12,0.03,0.242,0.048,0.375C53.701,95.011,55.204,95.011,56.721,95.011z"/>
<path fill-rule="evenodd" clip-rule="evenodd" d="M11.455,108.562c0.069-0.179,0.135-0.358,0.206-0.536
	c0.395-0.998,1.428-1.597,2.545-1.475c1.156,0.125,2.011,0.846,2.15,1.91c0.057,0.434-0.003,0.91-0.121,1.336
	c-0.416,1.507,0.128,2.458,1.697,2.721c0.595,0.1,1.24,0.102,1.832-0.009c2.019-0.376,3.167-2.358,2.558-4.322
	c-0.234-0.756-0.741-1.314-1.427-1.647c-1.236-0.601-2.518-1.107-3.759-1.697c-1.167-0.555-2.365-1.076-3.448-1.771
	c-2.71-1.738-2.312-5.849,0.293-7.355c1.163-0.674,2.42-0.998,3.741-1.109c1.872-0.157,3.727-0.091,5.524,0.531
	c0.902,0.312,1.721,0.761,2.288,1.567c0.703,1,0.672,2.312-0.065,3.211c-0.695,0.848-1.981,1.131-3.062,0.675
	c-1.07-0.451-1.507-1.455-1.109-2.545c0.406-1.11,0.052-1.855-1.08-2.214c-0.887-0.281-1.79-0.295-2.683-0.025
	c-1.017,0.308-1.59,1-1.748,2.053c-0.152,1.018,0.143,1.876,1.035,2.38c1.068,0.603,2.204,1.088,3.31,1.622
	c1.267,0.613,2.566,1.17,3.793,1.853c1.242,0.691,2.177,1.688,2.42,3.174c0.448,2.739-0.719,4.988-3.297,6.037
	c-2.833,1.153-5.731,1.128-8.588,0.05c-1.514-0.571-2.609-1.603-3.004-3.244C11.455,109.34,11.455,108.951,11.455,108.562z"/>
<path fill-rule="evenodd" clip-rule="evenodd" d="M154.139,113.168c0-1.215,0-2.422,0-3.777c-2.175,2.32-4.695,3.743-7.73,4.151
	c-3.009,0.405-5.884,0.079-8.449-1.702c-2.61,2.542-7.143,2.275-9.309,0.009c-2.942,2.324-5.962,2.424-9.124,0.298
	c-1.355,1.071-2.949,1.592-4.742,1.482c-1.809-0.108-3.236-0.935-4.389-2.331c-0.271,0.276-0.499,0.527-0.746,0.76
	c-2.402,2.28-5.943,1.807-8.091-0.254c-1.689-1.621-2.523-3.663-2.835-5.937c-0.353-2.575-0.135-5.09,1.105-7.423
	c1.325-2.496,3.399-3.853,6.264-3.885c1.157-0.014,2.2,0.349,3.121,1.05c0.178,0.135,0.354,0.273,0.598,0.462
	c0.019-0.405,0.035-0.747,0.052-1.113c1.447,0,2.867,0,4.355,0c0,0.192,0,0.38,0,0.568c0,4.266-0.011,8.531,0.014,12.797
	c0.003,0.622,0.104,1.267,0.29,1.859c0.402,1.29,1.569,1.915,2.878,1.565c0.47-0.124,0.906-0.382,1.402-0.6
	c-0.744-1.279-0.79-2.604-0.789-3.938c0.003-5.579,0.003-11.158-0.003-16.738c-0.001-0.37-0.034-0.746-0.098-1.111
	c-0.173-0.999-0.752-1.5-1.769-1.529c-0.694-0.021-1.391-0.004-2.065-0.004c0-0.458,0-0.872,0-1.318c2.733,0,5.495,0,8.315,0
	c0,0.195,0,0.384,0,0.573c0,6.438-0.013,12.877,0.013,19.316c0.004,0.999,0.124,2.005,0.289,2.991
	c0.163,0.978,0.657,1.777,1.702,2.039c1.188,0.296,2.286,0.081,3.235-0.719c0.085-0.072,0.1-0.28,0.082-0.416
	c-0.109-0.847-0.338-1.69-0.342-2.537c-0.031-5.627-0.015-11.256-0.021-16.884c0-0.469-0.029-0.941-0.095-1.404
	c-0.153-1.099-0.76-1.622-1.871-1.641c-0.664-0.01-1.327-0.002-1.98-0.002c0-0.454,0-0.869,0-1.316c2.739,0,5.503,0,8.33,0
	c0,0.189,0,0.376,0,0.565c0,6.633-0.007,13.267,0.009,19.899c0.001,0.727,0.078,1.46,0.202,2.175
	c0.404,2.325,2.066,2.71,3.869,2.209c0.36-0.101,0.684-0.332,1.079-0.529c-0.796-0.979-1.372-1.985-1.689-3.118
	c-0.782-2.792-0.758-5.586,0.208-8.318c1.038-2.946,3.245-4.475,6.296-4.827c1.929-0.222,3.821-0.048,5.611,0.771
	c4.125,1.888,4.016,6.466,2.027,8.604c-1.014,1.089-2.285,1.681-3.729,1.932c-1.801,0.312-3.556,0.225-5.179-0.729
	c-0.36-0.211-0.692-0.471-1.138-0.777c0.047,0.804,0.071,1.535,0.138,2.263c0.047,0.499,0.121,0.999,0.236,1.487
	c0.555,2.353,2.223,3.81,4.629,4.057c3.674,0.378,6.584-1.068,9.012-3.729c0.591-0.647,0.862-1.306,0.838-2.205
	c-0.064-2.415-0.017-4.833-0.027-7.25c-0.001-0.419-0.032-0.843-0.101-1.257c-0.164-1.004-0.742-1.497-1.758-1.535
	c-0.324-0.013-0.648-0.016-0.973-0.019c-0.322-0.003-0.646-0.001-0.985-0.001c0-0.437,0-0.847,0-1.293c2.688,0,5.413,0,8.185,0
	c0,0.595,0,1.187,0,1.887c0.166-0.146,0.261-0.216,0.341-0.302c1.79-1.944,5.175-2.507,7.483-1.241
	c1.734,0.952,2.483,3.101,1.709,4.903c-0.614,1.427-2.158,2.056-3.548,1.444c-1.343-0.59-1.892-2.171-1.239-3.577
	c0.414-0.894,0.085-1.437-0.922-1.52c-1.358-0.112-2.601,0.63-3.255,1.947c-0.391,0.785-0.55,1.625-0.551,2.493
	c-0.004,3.878-0.002,7.754-0.002,11.63c0,0.193,0,0.387,0,0.619C157.051,113.168,155.619,113.168,154.139,113.168z M109.852,104.062
	c0-1.329,0.01-2.659-0.002-3.989c-0.007-0.904-0.187-1.772-0.654-2.559c-0.918-1.542-2.837-1.832-4.168-0.631
	c-0.656,0.592-1.059,1.348-1.324,2.175c-0.879,2.742-0.814,5.524-0.316,8.315c0.222,1.256,0.62,2.453,1.477,3.442
	c1.222,1.412,3.178,1.3,4.23-0.239c0.519-0.762,0.748-1.614,0.755-2.523C109.861,106.723,109.852,105.392,109.852,104.062z
	 M142.739,104.303c1.388,0.021,2.478-0.648,2.995-1.906c0.573-1.394,0.648-2.835,0.209-4.277c-0.458-1.495-1.646-2.366-3.136-2.368
	c-1.48-0.002-2.606,0.776-3.029,2.319c-0.257,0.936-0.348,1.943-0.354,2.918C139.414,103.037,140.698,104.271,142.739,104.303z"/>
<path fill-rule="evenodd" clip-rule="evenodd" d="M92.157,112.261c-0.167,0.096-0.337,0.183-0.498,0.286
	c-3.348,2.148-8.066,1.135-9.957-2.997c-1.747-3.815-1.794-7.727,0.188-11.476c1.787-3.382,5.299-4.091,8.202-3.206
	c0.741,0.225,1.406,0.701,2.14,1.081c0.014-0.28,0.031-0.633,0.049-1.015c1.45,0,2.866,0,4.312,0
	c0.009,0.188,0.023,0.346,0.023,0.504c0.001,6.827,0.004,13.653-0.001,20.48c-0.001,1.241-0.204,2.452-0.649,3.615
	c-0.788,2.062-2.243,3.423-4.358,4.033c-2.351,0.68-4.713,0.664-7.03-0.138c-1.735-0.602-3.098-1.666-3.552-3.547
	c-0.152-0.628-0.193-1.33-0.085-1.966c0.332-1.957,2.419-2.936,4.192-2.028c1.153,0.59,1.625,1.91,1.195,3.359
	c-0.073,0.248-0.175,0.487-0.269,0.729c-0.392,1.013-0.02,1.951,0.963,2.426c1.375,0.663,3.207,0.165,4.175-1.124
	c0.534-0.711,0.825-1.523,0.872-2.389c0.122-2.194,0.183-4.393,0.269-6.589C92.276,112.288,92.217,112.274,92.157,112.261z
	 M92.236,104.158c0-1.54,0.025-3.081-0.008-4.621c-0.035-1.689-0.937-2.918-2.296-3.223c-1.682-0.376-3.163,0.298-3.942,1.839
	c-0.247,0.486-0.447,1.011-0.572,1.542c-0.544,2.3-0.528,4.628-0.234,6.957c0.166,1.311,0.496,2.58,1.247,3.696
	c0.71,1.055,1.686,1.665,2.988,1.567c1.685-0.127,2.767-1.329,2.812-3.137C92.268,107.24,92.237,105.699,92.236,104.158z"/>
<path fill-rule="evenodd" clip-rule="evenodd" d="M183.316,111.81c-1.071,0.938-2.234,1.478-3.548,1.663
	c-1.681,0.236-3.339,0.197-4.884-0.609c-1.413-0.736-2.254-1.912-2.35-3.509c-0.096-1.567-0.09-3.142-0.102-4.714
	c-0.015-1.881-0.004-3.763-0.004-5.644c0-0.13,0.003-0.26,0-0.39c-0.045-1.73-0.646-2.322-2.381-2.333
	c-0.529-0.003-1.058-0.001-1.567-0.001c0-0.472,0-0.881,0-1.31c2.712,0,5.447,0,8.258,0c0,0.222,0,0.426,0,0.629
	c0,4.298-0.002,8.595,0.004,12.894c0,0.387,0.016,0.781,0.091,1.16c0.365,1.813,1.877,2.656,3.879,2.181
	c1.504-0.357,2.47-1.575,2.61-3.3c0.022-0.258,0.024-0.518,0.024-0.777c0.001-4.055,0.001-8.109,0.001-12.164
	c0-0.192,0-0.383,0-0.609c1.456,0,2.872,0,4.347,0c0,0.178,0,0.351,0,0.524c0,7.005,0.01,14.013-0.008,21.018
	c-0.003,1.71-0.266,3.367-1.437,4.733c-1.132,1.321-2.548,2.196-4.229,2.614c-2.516,0.625-4.992,0.543-7.338-0.653
	c-1.592-0.813-2.646-2.061-2.809-3.925c-0.104-1.182,0.506-2.424,1.519-2.945c1.095-0.565,2.163-0.482,3.147,0.266
	c0.841,0.639,1.111,1.622,0.779,2.704c-0.115,0.371-0.263,0.733-0.347,1.11c-0.296,1.329,0.374,2.305,1.731,2.425
	c0.652,0.058,1.336,0.021,1.978-0.108c1.165-0.234,1.938-1.002,2.24-2.131c0.229-0.852,0.38-1.747,0.407-2.627
	c0.059-1.945,0.019-3.892,0.018-5.838C183.346,112.066,183.334,111.989,183.316,111.81z"/>
<path fill-rule="evenodd" clip-rule="evenodd" d="M27.702,104.142c0.052-1.511,0.246-2.984,0.794-4.39
	c1.228-3.142,3.591-4.775,6.898-5.089c1.396-0.132,2.785-0.029,4.128,0.422c2.311,0.779,3.924,2.322,4.764,4.59
	c1.104,2.979,1.125,6.01-0.028,8.979c-1.191,3.065-3.569,4.628-6.788,4.953c-1.613,0.163-3.21,0.024-4.723-0.613
	c-2.758-1.161-4.182-3.367-4.734-6.205C27.845,105.919,27.802,105.023,27.702,104.142z M32.316,104.121
	c0,0.713-0.036,1.428,0.008,2.139c0.088,1.44,0.228,2.877,0.863,4.209c0.61,1.276,1.647,1.855,3.033,1.897
	c1.481,0.044,2.691-0.424,3.372-1.821c0.253-0.519,0.449-1.081,0.571-1.645c0.5-2.319,0.46-4.671,0.333-7.021
	c-0.073-1.363-0.234-2.716-0.816-3.975c-0.413-0.894-1.041-1.574-2.025-1.823c-2.097-0.53-4.037,0.037-4.792,2.55
	C32.323,100.424,32.269,102.27,32.316,104.121z"/>
</svg>
