<?xml version="1.0" encoding="utf-8"?>
<!-- Generator: Adobe Illustrator 16.0.0, SVG Export Plug-In . SVG Version: 6.00 Build 0)  -->
<!DOCTYPE svg PUBLIC "-//W3C//DTD SVG 1.1//EN" "http://www.w3.org/Graphics/SVG/1.1/DTD/svg11.dtd">
<svg version="1.1" id="Layer_1" xmlns="http://www.w3.org/2000/svg" xmlns:xlink="http://www.w3.org/1999/xlink" x="0px" y="0px"
	 width="200px" height="200px" viewBox="0 0 200 200" enable-background="new 0 0 200 200" xml:space="preserve">
<circle fill="#FFB492" cx="99.576" cy="99.999" r="95.915"/>
<g>
	<path d="M14.5,90.717v2.93h3.183v1.693H14.5v6.593c0,1.516,0.43,2.375,1.667,2.375c0.606,0,0.96-0.051,1.289-0.152l0.101,1.692
		c-0.429,0.152-1.112,0.304-1.97,0.304c-1.036,0-1.869-0.354-2.4-0.935c-0.606-0.683-0.859-1.769-0.859-3.209V95.34h-1.895v-1.693
		h1.895v-2.248L14.5,90.717z"/>
	<path d="M27.308,91.399c-0.833,0-1.389-0.657-1.389-1.44c0-0.783,0.581-1.415,1.439-1.415c0.859,0,1.415,0.632,1.415,1.415
		c0,0.783-0.556,1.44-1.44,1.44H27.308z M26.247,105.873V93.647h2.223v12.226H26.247z"/>
	<path d="M38.221,96.956c0-1.288-0.025-2.298-0.101-3.309h1.971l0.126,1.996h0.051c0.606-1.137,2.021-2.273,4.042-2.273
		c1.692,0,4.32,1.011,4.32,5.204v7.3h-2.223v-7.047c0-1.97-0.732-3.638-2.829-3.638c-1.44,0-2.577,1.036-2.981,2.274
		c-0.101,0.277-0.151,0.682-0.151,1.035v7.376h-2.223V96.956z"/>
	<path d="M58.785,93.647l2.653,7.225c0.303,0.808,0.606,1.768,0.808,2.5h0.051c0.227-0.732,0.479-1.666,0.783-2.551l2.425-7.174
		h2.349l-3.334,8.715c-1.591,4.193-2.678,6.341-4.193,7.68c-1.111,0.935-2.172,1.312-2.728,1.414l-0.556-1.869
		c0.556-0.151,1.288-0.506,1.945-1.087c0.606-0.479,1.339-1.338,1.87-2.475c0.101-0.228,0.177-0.379,0.177-0.531
		c0-0.126-0.051-0.303-0.177-0.555L56.36,93.647H58.785z"/>
	<path d="M84.406,105.444c-0.581,0.277-1.869,0.707-3.511,0.707c-3.688,0-6.088-2.501-6.088-6.265c0-3.764,2.577-6.518,6.568-6.518
		c1.313,0,2.476,0.329,3.082,0.657l-0.505,1.692c-0.531-0.278-1.364-0.581-2.577-0.581c-2.804,0-4.32,2.097-4.32,4.648
		c0,2.83,1.819,4.572,4.244,4.572c1.263,0,2.097-0.303,2.728-0.581L84.406,105.444z"/>
	<path d="M97.899,106.151c-3.284,0-5.86-2.425-5.86-6.29c0-4.092,2.703-6.492,6.063-6.492c3.511,0,5.886,2.551,5.886,6.265
		c0,4.547-3.158,6.518-6.063,6.518H97.899z M97.975,104.484c2.123,0,3.713-1.996,3.713-4.775c0-2.071-1.035-4.673-3.663-4.673
		c-2.602,0-3.738,2.425-3.738,4.749c0,2.677,1.516,4.699,3.663,4.699H97.975z"/>
	<path d="M115.532,90.717v2.93h3.183v1.693h-3.183v6.593c0,1.516,0.43,2.375,1.667,2.375c0.607,0,0.961-0.051,1.289-0.152
		l0.101,1.692c-0.429,0.152-1.111,0.304-1.97,0.304c-1.036,0-1.869-0.354-2.4-0.935c-0.606-0.683-0.858-1.769-0.858-3.209V95.34
		h-1.896v-1.693h1.896v-2.248L115.532,90.717z"/>
	<path d="M129.957,90.717v2.93h3.183v1.693h-3.183v6.593c0,1.516,0.429,2.375,1.667,2.375c0.606,0,0.96-0.051,1.288-0.152
		l0.102,1.692c-0.43,0.152-1.112,0.304-1.971,0.304c-1.036,0-1.869-0.354-2.399-0.935c-0.606-0.683-0.859-1.769-0.859-3.209V95.34
		h-1.895v-1.693h1.895v-2.248L129.957,90.717z"/>
	<path d="M146.531,106.151c-3.283,0-5.859-2.425-5.859-6.29c0-4.092,2.702-6.492,6.062-6.492c3.511,0,5.886,2.551,5.886,6.265
		c0,4.547-3.157,6.518-6.063,6.518H146.531z M146.607,104.484c2.122,0,3.714-1.996,3.714-4.775c0-2.071-1.036-4.673-3.663-4.673
		c-2.602,0-3.738,2.425-3.738,4.749c0,2.677,1.516,4.699,3.663,4.699H146.607z"/>
	<path d="M161.486,96.956c0-1.288-0.024-2.298-0.102-3.309h1.971l0.127,1.996h0.05c0.607-1.137,2.021-2.273,4.042-2.273
		c1.693,0,4.319,1.011,4.319,5.204v7.3h-2.223v-7.047c0-1.97-0.732-3.638-2.829-3.638c-1.439,0-2.577,1.036-2.98,2.274
		c-0.102,0.277-0.152,0.682-0.152,1.035v7.376h-2.223V96.956z"/>
	<path d="M181.267,103.625c0.683,0.404,1.845,0.859,2.955,0.859c1.592,0,2.35-0.783,2.35-1.819c0-1.061-0.632-1.642-2.248-2.248
		c-2.223-0.808-3.259-1.996-3.259-3.461c0-1.97,1.616-3.587,4.219-3.587c1.238,0,2.324,0.329,2.98,0.758l-0.53,1.592
		c-0.48-0.278-1.364-0.708-2.501-0.708c-1.312,0-2.021,0.758-2.021,1.667c0,1.035,0.709,1.49,2.3,2.096
		c2.097,0.783,3.208,1.844,3.208,3.688c0,2.173-1.692,3.688-4.547,3.688c-1.339,0-2.577-0.354-3.436-0.858L181.267,103.625z"/>
</g>
</svg>
