<?xml version="1.0" encoding="utf-8"?>
<!-- Generator: Adobe Illustrator 16.0.0, SVG Export Plug-In . SVG Version: 6.00 Build 0)  -->
<!DOCTYPE svg PUBLIC "-//W3C//DTD SVG 1.1//EN" "http://www.w3.org/Graphics/SVG/1.1/DTD/svg11.dtd">
<svg version="1.1" id="Layer_1" xmlns="http://www.w3.org/2000/svg" xmlns:xlink="http://www.w3.org/1999/xlink" x="0px" y="0px"
	 width="200px" height="200px" viewBox="0 0 200 200" enable-background="new 0 0 200 200" xml:space="preserve">
<circle fill="#FFB492" cx="99.576" cy="99.999" r="95.915"/>
<polygon points="17.152,80.209 23.027,77.272 29.796,118.147 38.375,78.172 43.343,77.047 51.698,115.888 59.378,77.499 
	62.768,78.401 55.088,126.274 46.96,123.114 41.764,90.37 32.053,124.693 27.765,126.048 "/>
<polygon points="70.219,76.82 76.994,77.047 75.188,99.178 91.22,98.725 89.642,77.723 95.737,77.271 96.415,126.048 
	91.446,126.274 90.769,104.146 74.963,103.469 73.157,126.498 69.318,126.048 "/>
<polygon points="105.67,77.499 123.739,77.271 124.866,82.24 110.414,81.788 111.54,97.37 123.284,98.274 124.187,101.207 
	111.994,103.466 109.961,120.854 125.769,121.307 125.318,124.47 105.218,126.727 "/>
<path d="M146.095,77.95l-4.968-0.902l-12.42,49l4.063-0.451l5.424-14.675l11.062,0.225l2.032,15.352l7.453-0.675L146.095,77.95z
	 M139.775,107.308l3.611-23.71l0.9-0.455l4.292,23.713L139.775,107.308z"/>
<polygon points="158.062,84.048 156.485,78.628 182,77.5 180.87,80.435 172.741,81.337 172.063,127.18 168.449,126.498 
	165.515,82.24 "/>
</svg>
